M48
INCH,TZ
T1C0.0394
T2C0.0433
T3C0.1260
%
G90
G05
T1
X50109Y-29341
X50109Y-30341
X50109Y-31341
X50109Y-32341
X50109Y-33341
X50109Y-34341
X50109Y-35341
X50109Y-36341
X50109Y-37341
X50109Y-38341
X50109Y-39341
X50109Y-40341
X50109Y-41341
X50109Y-42341
X50109Y-43341
X50109Y-44341
X50109Y-45341
X50109Y-46341
X60542Y-29341
X60542Y-30341
X60542Y-31341
X60542Y-32341
X60542Y-33341
X60542Y-34341
X60542Y-35341
X60542Y-36341
X60542Y-37341
X60542Y-38341
X60542Y-39341
X60542Y-40341
X60542Y-41341
X60542Y-42341
X60542Y-43341
X60542Y-44341
X60542Y-45341
X60542Y-46341
X71700Y-28600
X71700Y-29600
X71700Y-30600
X71700Y-31600
X71700Y-32600
X71700Y-33600
X69775Y-38500
X69775Y-39591
X69775Y-40681
X69775Y-41772
X69775Y-42862
X70893Y-39045
X70893Y-40136
X70893Y-41226
X70893Y-42317
T2
X63650Y-29300
X63650Y-30300
X63650Y-31300
X68191Y-29250
X68191Y-30250
X68191Y-31250
T3
X69893Y-35760
X69893Y-45602
T0
M30
