G04 #@! TF.GenerationSoftware,KiCad,Pcbnew,5.1.4+dfsg1-1*
G04 #@! TF.CreationDate,2020-03-04T00:22:40+00:00*
G04 #@! TF.ProjectId,UaElectrex_Phase1,5561456c-6563-4747-9265-785f50686173,rev?*
G04 #@! TF.SameCoordinates,Original*
G04 #@! TF.FileFunction,Copper,L2,Bot*
G04 #@! TF.FilePolarity,Positive*
%FSLAX46Y46*%
G04 Gerber Fmt 4.6, Leading zero omitted, Abs format (unit mm)*
G04 Created by KiCad (PCBNEW 5.1.4+dfsg1-1) date 2020-03-04 00:22:40*
%MOMM*%
%LPD*%
G04 APERTURE LIST*
%ADD10C,4.000000*%
%ADD11C,1.600000*%
%ADD12R,1.600000X1.600000*%
%ADD13O,1.700000X1.700000*%
%ADD14R,1.700000X1.700000*%
%ADD15O,2.000000X1.905000*%
%ADD16R,2.000000X1.905000*%
%ADD17C,0.500000*%
%ADD18C,0.200000*%
%ADD19C,0.254000*%
G04 APERTURE END LIST*
D10*
X177528500Y-90830000D03*
X177528500Y-115830000D03*
D11*
X180068500Y-107485000D03*
X180068500Y-104715000D03*
X180068500Y-101945000D03*
X180068500Y-99175000D03*
X177228500Y-108870000D03*
X177228500Y-106100000D03*
X177228500Y-103330000D03*
X177228500Y-100560000D03*
D12*
X177228500Y-97790000D03*
D13*
X127277799Y-110084999D03*
D14*
X127277799Y-117704999D03*
D13*
X127277799Y-112624999D03*
X127277799Y-115164999D03*
X127277799Y-74524999D03*
X127277799Y-89764999D03*
X127277799Y-105004999D03*
X127277799Y-87224999D03*
X127277799Y-107544999D03*
X127277799Y-82144999D03*
X127277799Y-102464999D03*
X127277799Y-77064999D03*
X127277799Y-79604999D03*
X127277799Y-97384999D03*
X127277799Y-94844999D03*
X127277799Y-92304999D03*
X127277799Y-84684999D03*
X127277799Y-99924999D03*
X153777799Y-74524999D03*
X153777799Y-77064999D03*
X153777799Y-79604999D03*
X153777799Y-82144999D03*
X153777799Y-84684999D03*
X153777799Y-87224999D03*
X153777799Y-89764999D03*
X153777799Y-92304999D03*
X153777799Y-94844999D03*
X153777799Y-97384999D03*
X153777799Y-99924999D03*
X153777799Y-102464999D03*
X153777799Y-105004999D03*
X153777799Y-107544999D03*
X153777799Y-110084999D03*
X153777799Y-112624999D03*
X153777799Y-115164999D03*
D14*
X153777799Y-117704999D03*
D15*
X173204000Y-74295000D03*
X173204000Y-76835000D03*
D16*
X173204000Y-79375000D03*
D15*
X161671000Y-79502000D03*
X161671000Y-76962000D03*
D16*
X161671000Y-74422000D03*
D13*
X182118000Y-72644000D03*
X182118000Y-75184000D03*
X182118000Y-77724000D03*
X182118000Y-80264000D03*
X182118000Y-82804000D03*
D14*
X182118000Y-85344000D03*
D17*
X176657000Y-115530000D02*
X176957000Y-115830000D01*
X177228500Y-115530000D02*
X177528500Y-115830000D01*
X177228500Y-108870000D02*
X177228500Y-115530000D01*
X182096750Y-111261750D02*
X177528500Y-115830000D01*
X177528500Y-90830000D02*
X182096750Y-95398250D01*
X182096750Y-95398250D02*
X182096750Y-111261750D01*
X182118000Y-80264000D02*
X178054000Y-80264000D01*
X178054000Y-80264000D02*
X177419000Y-79629000D01*
X177419000Y-79629000D02*
X177419000Y-75692000D01*
X176022000Y-74295000D02*
X173204000Y-74295000D01*
X177419000Y-75692000D02*
X176022000Y-74295000D01*
X180915919Y-82804000D02*
X182118000Y-82804000D01*
X166473000Y-82804000D02*
X180915919Y-82804000D01*
X163171000Y-79502000D02*
X166473000Y-82804000D01*
X161671000Y-79502000D02*
X163171000Y-79502000D01*
X183769000Y-92583000D02*
X182118000Y-90932000D01*
X155127799Y-117704999D02*
X156548800Y-119126000D01*
X183769000Y-113157000D02*
X183769000Y-92583000D01*
X153777799Y-117704999D02*
X155127799Y-117704999D01*
X156548800Y-119126000D02*
X177800000Y-119126000D01*
X182118000Y-90932000D02*
X182118000Y-85344000D01*
X177800000Y-119126000D02*
X183769000Y-113157000D01*
D18*
X156591000Y-74803000D02*
X156591000Y-102191798D01*
X156591000Y-102191798D02*
X153777799Y-105004999D01*
X159639000Y-71755000D02*
X156591000Y-74803000D01*
X182118000Y-72644000D02*
X179832000Y-72644000D01*
X178943000Y-71755000D02*
X159639000Y-71755000D01*
X179832000Y-72644000D02*
X178943000Y-71755000D01*
X157607000Y-103715798D02*
X153777799Y-107544999D01*
X179705000Y-75184000D02*
X177292000Y-72771000D01*
X182118000Y-75184000D02*
X179705000Y-75184000D01*
X177292000Y-72771000D02*
X159766000Y-72771000D01*
X159766000Y-72771000D02*
X157607000Y-74930000D01*
X157607000Y-74930000D02*
X157607000Y-103715798D01*
D19*
G36*
X184158000Y-91720422D02*
G01*
X183003000Y-90565422D01*
X183003000Y-86828625D01*
X183092482Y-86819812D01*
X183212180Y-86783502D01*
X183322494Y-86724537D01*
X183419185Y-86645185D01*
X183498537Y-86548494D01*
X183557502Y-86438180D01*
X183593812Y-86318482D01*
X183606072Y-86194000D01*
X183606072Y-84494000D01*
X183593812Y-84369518D01*
X183557502Y-84249820D01*
X183498537Y-84139506D01*
X183419185Y-84042815D01*
X183322494Y-83963463D01*
X183212180Y-83904498D01*
X183143313Y-83883607D01*
X183173134Y-83859134D01*
X183358706Y-83633014D01*
X183496599Y-83375034D01*
X183581513Y-83095111D01*
X183610185Y-82804000D01*
X183581513Y-82512889D01*
X183496599Y-82232966D01*
X183358706Y-81974986D01*
X183173134Y-81748866D01*
X182947014Y-81563294D01*
X182892209Y-81534000D01*
X182947014Y-81504706D01*
X183173134Y-81319134D01*
X183358706Y-81093014D01*
X183496599Y-80835034D01*
X183581513Y-80555111D01*
X183610185Y-80264000D01*
X183581513Y-79972889D01*
X183496599Y-79692966D01*
X183358706Y-79434986D01*
X183173134Y-79208866D01*
X182947014Y-79023294D01*
X182882477Y-78988799D01*
X182999355Y-78919178D01*
X183215588Y-78724269D01*
X183389641Y-78490920D01*
X183514825Y-78228099D01*
X183559476Y-78080890D01*
X183438155Y-77851000D01*
X182245000Y-77851000D01*
X182245000Y-77871000D01*
X181991000Y-77871000D01*
X181991000Y-77851000D01*
X180797845Y-77851000D01*
X180676524Y-78080890D01*
X180721175Y-78228099D01*
X180846359Y-78490920D01*
X181020412Y-78724269D01*
X181236645Y-78919178D01*
X181353523Y-78988799D01*
X181288986Y-79023294D01*
X181062866Y-79208866D01*
X180923241Y-79379000D01*
X178420579Y-79379000D01*
X178304000Y-79262422D01*
X178304000Y-75735465D01*
X178308281Y-75691999D01*
X178304000Y-75648533D01*
X178304000Y-75648523D01*
X178291195Y-75518510D01*
X178240589Y-75351687D01*
X178158411Y-75197941D01*
X178047817Y-75063183D01*
X178014049Y-75035470D01*
X176678534Y-73699956D01*
X176650817Y-73666183D01*
X176516059Y-73555589D01*
X176423283Y-73506000D01*
X176987554Y-73506000D01*
X179159746Y-75678193D01*
X179182762Y-75706238D01*
X179294680Y-75798087D01*
X179422367Y-75866337D01*
X179560915Y-75908365D01*
X179668895Y-75919000D01*
X179668904Y-75919000D01*
X179704999Y-75922555D01*
X179741094Y-75919000D01*
X180827043Y-75919000D01*
X180877294Y-76013014D01*
X181062866Y-76239134D01*
X181288986Y-76424706D01*
X181353523Y-76459201D01*
X181236645Y-76528822D01*
X181020412Y-76723731D01*
X180846359Y-76957080D01*
X180721175Y-77219901D01*
X180676524Y-77367110D01*
X180797845Y-77597000D01*
X181991000Y-77597000D01*
X181991000Y-77577000D01*
X182245000Y-77577000D01*
X182245000Y-77597000D01*
X183438155Y-77597000D01*
X183559476Y-77367110D01*
X183514825Y-77219901D01*
X183389641Y-76957080D01*
X183215588Y-76723731D01*
X182999355Y-76528822D01*
X182882477Y-76459201D01*
X182947014Y-76424706D01*
X183173134Y-76239134D01*
X183358706Y-76013014D01*
X183496599Y-75755034D01*
X183581513Y-75475111D01*
X183610185Y-75184000D01*
X183581513Y-74892889D01*
X183496599Y-74612966D01*
X183358706Y-74354986D01*
X183173134Y-74128866D01*
X182947014Y-73943294D01*
X182892209Y-73914000D01*
X182947014Y-73884706D01*
X183173134Y-73699134D01*
X183358706Y-73473014D01*
X183496599Y-73215034D01*
X183581513Y-72935111D01*
X183610185Y-72644000D01*
X183581513Y-72352889D01*
X183496599Y-72072966D01*
X183358706Y-71814986D01*
X183173134Y-71588866D01*
X182947014Y-71403294D01*
X182689034Y-71265401D01*
X182409111Y-71180487D01*
X182190950Y-71159000D01*
X182045050Y-71159000D01*
X181826889Y-71180487D01*
X181546966Y-71265401D01*
X181288986Y-71403294D01*
X181062866Y-71588866D01*
X180877294Y-71814986D01*
X180827043Y-71909000D01*
X180136447Y-71909000D01*
X179488258Y-71260812D01*
X179465238Y-71232762D01*
X179353320Y-71140913D01*
X179225633Y-71072663D01*
X179087085Y-71030635D01*
X178979105Y-71020000D01*
X178943000Y-71016444D01*
X178906895Y-71020000D01*
X159675105Y-71020000D01*
X159639000Y-71016444D01*
X159602895Y-71020000D01*
X159494915Y-71030635D01*
X159356367Y-71072663D01*
X159228680Y-71140913D01*
X159116762Y-71232762D01*
X159093746Y-71260807D01*
X156096808Y-74257746D01*
X156068762Y-74280763D01*
X155976913Y-74392681D01*
X155908663Y-74520368D01*
X155893634Y-74569913D01*
X155866635Y-74658915D01*
X155852444Y-74803000D01*
X155856000Y-74839105D01*
X155856001Y-101887350D01*
X155269070Y-102474282D01*
X155269984Y-102464999D01*
X155241312Y-102173888D01*
X155156398Y-101893965D01*
X155018505Y-101635985D01*
X154832933Y-101409865D01*
X154606813Y-101224293D01*
X154552008Y-101194999D01*
X154606813Y-101165705D01*
X154832933Y-100980133D01*
X155018505Y-100754013D01*
X155156398Y-100496033D01*
X155241312Y-100216110D01*
X155269984Y-99924999D01*
X155241312Y-99633888D01*
X155156398Y-99353965D01*
X155018505Y-99095985D01*
X154832933Y-98869865D01*
X154606813Y-98684293D01*
X154552008Y-98654999D01*
X154606813Y-98625705D01*
X154832933Y-98440133D01*
X155018505Y-98214013D01*
X155156398Y-97956033D01*
X155241312Y-97676110D01*
X155269984Y-97384999D01*
X155241312Y-97093888D01*
X155156398Y-96813965D01*
X155018505Y-96555985D01*
X154832933Y-96329865D01*
X154606813Y-96144293D01*
X154552008Y-96114999D01*
X154606813Y-96085705D01*
X154832933Y-95900133D01*
X155018505Y-95674013D01*
X155156398Y-95416033D01*
X155241312Y-95136110D01*
X155269984Y-94844999D01*
X155241312Y-94553888D01*
X155156398Y-94273965D01*
X155018505Y-94015985D01*
X154832933Y-93789865D01*
X154606813Y-93604293D01*
X154552008Y-93574999D01*
X154606813Y-93545705D01*
X154832933Y-93360133D01*
X155018505Y-93134013D01*
X155156398Y-92876033D01*
X155241312Y-92596110D01*
X155269984Y-92304999D01*
X155241312Y-92013888D01*
X155156398Y-91733965D01*
X155018505Y-91475985D01*
X154832933Y-91249865D01*
X154606813Y-91064293D01*
X154552008Y-91034999D01*
X154606813Y-91005705D01*
X154832933Y-90820133D01*
X155018505Y-90594013D01*
X155156398Y-90336033D01*
X155241312Y-90056110D01*
X155269984Y-89764999D01*
X155241312Y-89473888D01*
X155156398Y-89193965D01*
X155018505Y-88935985D01*
X154832933Y-88709865D01*
X154606813Y-88524293D01*
X154552008Y-88494999D01*
X154606813Y-88465705D01*
X154832933Y-88280133D01*
X155018505Y-88054013D01*
X155156398Y-87796033D01*
X155241312Y-87516110D01*
X155269984Y-87224999D01*
X155241312Y-86933888D01*
X155156398Y-86653965D01*
X155018505Y-86395985D01*
X154832933Y-86169865D01*
X154606813Y-85984293D01*
X154552008Y-85954999D01*
X154606813Y-85925705D01*
X154832933Y-85740133D01*
X155018505Y-85514013D01*
X155156398Y-85256033D01*
X155241312Y-84976110D01*
X155269984Y-84684999D01*
X155241312Y-84393888D01*
X155156398Y-84113965D01*
X155018505Y-83855985D01*
X154832933Y-83629865D01*
X154606813Y-83444293D01*
X154552008Y-83414999D01*
X154606813Y-83385705D01*
X154832933Y-83200133D01*
X155018505Y-82974013D01*
X155156398Y-82716033D01*
X155241312Y-82436110D01*
X155269984Y-82144999D01*
X155241312Y-81853888D01*
X155156398Y-81573965D01*
X155018505Y-81315985D01*
X154832933Y-81089865D01*
X154606813Y-80904293D01*
X154552008Y-80874999D01*
X154606813Y-80845705D01*
X154832933Y-80660133D01*
X155018505Y-80434013D01*
X155156398Y-80176033D01*
X155241312Y-79896110D01*
X155269984Y-79604999D01*
X155241312Y-79313888D01*
X155156398Y-79033965D01*
X155018505Y-78775985D01*
X154832933Y-78549865D01*
X154606813Y-78364293D01*
X154552008Y-78334999D01*
X154606813Y-78305705D01*
X154832933Y-78120133D01*
X155018505Y-77894013D01*
X155156398Y-77636033D01*
X155241312Y-77356110D01*
X155269984Y-77064999D01*
X155241312Y-76773888D01*
X155156398Y-76493965D01*
X155018505Y-76235985D01*
X154832933Y-76009865D01*
X154606813Y-75824293D01*
X154552008Y-75794999D01*
X154606813Y-75765705D01*
X154832933Y-75580133D01*
X155018505Y-75354013D01*
X155156398Y-75096033D01*
X155241312Y-74816110D01*
X155269984Y-74524999D01*
X155241312Y-74233888D01*
X155156398Y-73953965D01*
X155018505Y-73695985D01*
X154832933Y-73469865D01*
X154606813Y-73284293D01*
X154348833Y-73146400D01*
X154068910Y-73061486D01*
X153850749Y-73039999D01*
X153704849Y-73039999D01*
X153486688Y-73061486D01*
X153206765Y-73146400D01*
X152948785Y-73284293D01*
X152722665Y-73469865D01*
X152537093Y-73695985D01*
X152399200Y-73953965D01*
X152314286Y-74233888D01*
X152285614Y-74524999D01*
X152314286Y-74816110D01*
X152399200Y-75096033D01*
X152537093Y-75354013D01*
X152722665Y-75580133D01*
X152948785Y-75765705D01*
X153003590Y-75794999D01*
X152948785Y-75824293D01*
X152722665Y-76009865D01*
X152537093Y-76235985D01*
X152399200Y-76493965D01*
X152314286Y-76773888D01*
X152285614Y-77064999D01*
X152314286Y-77356110D01*
X152399200Y-77636033D01*
X152537093Y-77894013D01*
X152722665Y-78120133D01*
X152948785Y-78305705D01*
X153003590Y-78334999D01*
X152948785Y-78364293D01*
X152722665Y-78549865D01*
X152537093Y-78775985D01*
X152399200Y-79033965D01*
X152314286Y-79313888D01*
X152285614Y-79604999D01*
X152314286Y-79896110D01*
X152399200Y-80176033D01*
X152537093Y-80434013D01*
X152722665Y-80660133D01*
X152948785Y-80845705D01*
X153003590Y-80874999D01*
X152948785Y-80904293D01*
X152722665Y-81089865D01*
X152537093Y-81315985D01*
X152399200Y-81573965D01*
X152314286Y-81853888D01*
X152285614Y-82144999D01*
X152314286Y-82436110D01*
X152399200Y-82716033D01*
X152537093Y-82974013D01*
X152722665Y-83200133D01*
X152948785Y-83385705D01*
X153003590Y-83414999D01*
X152948785Y-83444293D01*
X152722665Y-83629865D01*
X152537093Y-83855985D01*
X152399200Y-84113965D01*
X152314286Y-84393888D01*
X152285614Y-84684999D01*
X152314286Y-84976110D01*
X152399200Y-85256033D01*
X152537093Y-85514013D01*
X152722665Y-85740133D01*
X152948785Y-85925705D01*
X153003590Y-85954999D01*
X152948785Y-85984293D01*
X152722665Y-86169865D01*
X152537093Y-86395985D01*
X152399200Y-86653965D01*
X152314286Y-86933888D01*
X152285614Y-87224999D01*
X152314286Y-87516110D01*
X152399200Y-87796033D01*
X152537093Y-88054013D01*
X152722665Y-88280133D01*
X152948785Y-88465705D01*
X153003590Y-88494999D01*
X152948785Y-88524293D01*
X152722665Y-88709865D01*
X152537093Y-88935985D01*
X152399200Y-89193965D01*
X152314286Y-89473888D01*
X152285614Y-89764999D01*
X152314286Y-90056110D01*
X152399200Y-90336033D01*
X152537093Y-90594013D01*
X152722665Y-90820133D01*
X152948785Y-91005705D01*
X153003590Y-91034999D01*
X152948785Y-91064293D01*
X152722665Y-91249865D01*
X152537093Y-91475985D01*
X152399200Y-91733965D01*
X152314286Y-92013888D01*
X152285614Y-92304999D01*
X152314286Y-92596110D01*
X152399200Y-92876033D01*
X152537093Y-93134013D01*
X152722665Y-93360133D01*
X152948785Y-93545705D01*
X153003590Y-93574999D01*
X152948785Y-93604293D01*
X152722665Y-93789865D01*
X152537093Y-94015985D01*
X152399200Y-94273965D01*
X152314286Y-94553888D01*
X152285614Y-94844999D01*
X152314286Y-95136110D01*
X152399200Y-95416033D01*
X152537093Y-95674013D01*
X152722665Y-95900133D01*
X152948785Y-96085705D01*
X153003590Y-96114999D01*
X152948785Y-96144293D01*
X152722665Y-96329865D01*
X152537093Y-96555985D01*
X152399200Y-96813965D01*
X152314286Y-97093888D01*
X152285614Y-97384999D01*
X152314286Y-97676110D01*
X152399200Y-97956033D01*
X152537093Y-98214013D01*
X152722665Y-98440133D01*
X152948785Y-98625705D01*
X153003590Y-98654999D01*
X152948785Y-98684293D01*
X152722665Y-98869865D01*
X152537093Y-99095985D01*
X152399200Y-99353965D01*
X152314286Y-99633888D01*
X152285614Y-99924999D01*
X152314286Y-100216110D01*
X152399200Y-100496033D01*
X152537093Y-100754013D01*
X152722665Y-100980133D01*
X152948785Y-101165705D01*
X153003590Y-101194999D01*
X152948785Y-101224293D01*
X152722665Y-101409865D01*
X152537093Y-101635985D01*
X152399200Y-101893965D01*
X152314286Y-102173888D01*
X152285614Y-102464999D01*
X152314286Y-102756110D01*
X152399200Y-103036033D01*
X152537093Y-103294013D01*
X152722665Y-103520133D01*
X152948785Y-103705705D01*
X153003590Y-103734999D01*
X152948785Y-103764293D01*
X152722665Y-103949865D01*
X152537093Y-104175985D01*
X152399200Y-104433965D01*
X152314286Y-104713888D01*
X152285614Y-105004999D01*
X152314286Y-105296110D01*
X152399200Y-105576033D01*
X152537093Y-105834013D01*
X152722665Y-106060133D01*
X152948785Y-106245705D01*
X153003590Y-106274999D01*
X152948785Y-106304293D01*
X152722665Y-106489865D01*
X152537093Y-106715985D01*
X152399200Y-106973965D01*
X152314286Y-107253888D01*
X152285614Y-107544999D01*
X152314286Y-107836110D01*
X152399200Y-108116033D01*
X152537093Y-108374013D01*
X152722665Y-108600133D01*
X152948785Y-108785705D01*
X153003590Y-108814999D01*
X152948785Y-108844293D01*
X152722665Y-109029865D01*
X152537093Y-109255985D01*
X152399200Y-109513965D01*
X152314286Y-109793888D01*
X152285614Y-110084999D01*
X152314286Y-110376110D01*
X152399200Y-110656033D01*
X152537093Y-110914013D01*
X152722665Y-111140133D01*
X152948785Y-111325705D01*
X153003590Y-111354999D01*
X152948785Y-111384293D01*
X152722665Y-111569865D01*
X152537093Y-111795985D01*
X152399200Y-112053965D01*
X152314286Y-112333888D01*
X152285614Y-112624999D01*
X152314286Y-112916110D01*
X152399200Y-113196033D01*
X152537093Y-113454013D01*
X152722665Y-113680133D01*
X152948785Y-113865705D01*
X153003590Y-113894999D01*
X152948785Y-113924293D01*
X152722665Y-114109865D01*
X152537093Y-114335985D01*
X152399200Y-114593965D01*
X152314286Y-114873888D01*
X152285614Y-115164999D01*
X152314286Y-115456110D01*
X152399200Y-115736033D01*
X152537093Y-115994013D01*
X152722665Y-116220133D01*
X152752486Y-116244606D01*
X152683619Y-116265497D01*
X152573305Y-116324462D01*
X152476614Y-116403814D01*
X152397262Y-116500505D01*
X152338297Y-116610819D01*
X152301987Y-116730517D01*
X152289727Y-116854999D01*
X152289727Y-118554999D01*
X152301987Y-118679481D01*
X152338297Y-118799179D01*
X152397262Y-118909493D01*
X152476614Y-119006184D01*
X152573305Y-119085536D01*
X152683619Y-119144501D01*
X152803317Y-119180811D01*
X152927799Y-119193071D01*
X154627799Y-119193071D01*
X154752281Y-119180811D01*
X154871979Y-119144501D01*
X154982293Y-119085536D01*
X155078984Y-119006184D01*
X155123348Y-118952126D01*
X155892270Y-119721049D01*
X155919983Y-119754817D01*
X155953751Y-119782530D01*
X155953753Y-119782532D01*
X156014639Y-119832500D01*
X123944000Y-119832500D01*
X123944000Y-116854999D01*
X125789727Y-116854999D01*
X125789727Y-118554999D01*
X125801987Y-118679481D01*
X125838297Y-118799179D01*
X125897262Y-118909493D01*
X125976614Y-119006184D01*
X126073305Y-119085536D01*
X126183619Y-119144501D01*
X126303317Y-119180811D01*
X126427799Y-119193071D01*
X128127799Y-119193071D01*
X128252281Y-119180811D01*
X128371979Y-119144501D01*
X128482293Y-119085536D01*
X128578984Y-119006184D01*
X128658336Y-118909493D01*
X128717301Y-118799179D01*
X128753611Y-118679481D01*
X128765871Y-118554999D01*
X128765871Y-116854999D01*
X128753611Y-116730517D01*
X128717301Y-116610819D01*
X128658336Y-116500505D01*
X128578984Y-116403814D01*
X128482293Y-116324462D01*
X128371979Y-116265497D01*
X128291333Y-116241033D01*
X128375387Y-116165268D01*
X128549440Y-115931919D01*
X128674624Y-115669098D01*
X128719275Y-115521889D01*
X128597954Y-115291999D01*
X127404799Y-115291999D01*
X127404799Y-115311999D01*
X127150799Y-115311999D01*
X127150799Y-115291999D01*
X125957644Y-115291999D01*
X125836323Y-115521889D01*
X125880974Y-115669098D01*
X126006158Y-115931919D01*
X126180211Y-116165268D01*
X126264265Y-116241033D01*
X126183619Y-116265497D01*
X126073305Y-116324462D01*
X125976614Y-116403814D01*
X125897262Y-116500505D01*
X125838297Y-116610819D01*
X125801987Y-116730517D01*
X125789727Y-116854999D01*
X123944000Y-116854999D01*
X123944000Y-74524999D01*
X125785614Y-74524999D01*
X125814286Y-74816110D01*
X125899200Y-75096033D01*
X126037093Y-75354013D01*
X126222665Y-75580133D01*
X126448785Y-75765705D01*
X126503590Y-75794999D01*
X126448785Y-75824293D01*
X126222665Y-76009865D01*
X126037093Y-76235985D01*
X125899200Y-76493965D01*
X125814286Y-76773888D01*
X125785614Y-77064999D01*
X125814286Y-77356110D01*
X125899200Y-77636033D01*
X126037093Y-77894013D01*
X126222665Y-78120133D01*
X126448785Y-78305705D01*
X126503590Y-78334999D01*
X126448785Y-78364293D01*
X126222665Y-78549865D01*
X126037093Y-78775985D01*
X125899200Y-79033965D01*
X125814286Y-79313888D01*
X125785614Y-79604999D01*
X125814286Y-79896110D01*
X125899200Y-80176033D01*
X126037093Y-80434013D01*
X126222665Y-80660133D01*
X126448785Y-80845705D01*
X126503590Y-80874999D01*
X126448785Y-80904293D01*
X126222665Y-81089865D01*
X126037093Y-81315985D01*
X125899200Y-81573965D01*
X125814286Y-81853888D01*
X125785614Y-82144999D01*
X125814286Y-82436110D01*
X125899200Y-82716033D01*
X126037093Y-82974013D01*
X126222665Y-83200133D01*
X126448785Y-83385705D01*
X126503590Y-83414999D01*
X126448785Y-83444293D01*
X126222665Y-83629865D01*
X126037093Y-83855985D01*
X125899200Y-84113965D01*
X125814286Y-84393888D01*
X125785614Y-84684999D01*
X125814286Y-84976110D01*
X125899200Y-85256033D01*
X126037093Y-85514013D01*
X126222665Y-85740133D01*
X126448785Y-85925705D01*
X126503590Y-85954999D01*
X126448785Y-85984293D01*
X126222665Y-86169865D01*
X126037093Y-86395985D01*
X125899200Y-86653965D01*
X125814286Y-86933888D01*
X125785614Y-87224999D01*
X125814286Y-87516110D01*
X125899200Y-87796033D01*
X126037093Y-88054013D01*
X126222665Y-88280133D01*
X126448785Y-88465705D01*
X126503590Y-88494999D01*
X126448785Y-88524293D01*
X126222665Y-88709865D01*
X126037093Y-88935985D01*
X125899200Y-89193965D01*
X125814286Y-89473888D01*
X125785614Y-89764999D01*
X125814286Y-90056110D01*
X125899200Y-90336033D01*
X126037093Y-90594013D01*
X126222665Y-90820133D01*
X126448785Y-91005705D01*
X126503590Y-91034999D01*
X126448785Y-91064293D01*
X126222665Y-91249865D01*
X126037093Y-91475985D01*
X125899200Y-91733965D01*
X125814286Y-92013888D01*
X125785614Y-92304999D01*
X125814286Y-92596110D01*
X125899200Y-92876033D01*
X126037093Y-93134013D01*
X126222665Y-93360133D01*
X126448785Y-93545705D01*
X126503590Y-93574999D01*
X126448785Y-93604293D01*
X126222665Y-93789865D01*
X126037093Y-94015985D01*
X125899200Y-94273965D01*
X125814286Y-94553888D01*
X125785614Y-94844999D01*
X125814286Y-95136110D01*
X125899200Y-95416033D01*
X126037093Y-95674013D01*
X126222665Y-95900133D01*
X126448785Y-96085705D01*
X126503590Y-96114999D01*
X126448785Y-96144293D01*
X126222665Y-96329865D01*
X126037093Y-96555985D01*
X125899200Y-96813965D01*
X125814286Y-97093888D01*
X125785614Y-97384999D01*
X125814286Y-97676110D01*
X125899200Y-97956033D01*
X126037093Y-98214013D01*
X126222665Y-98440133D01*
X126448785Y-98625705D01*
X126503590Y-98654999D01*
X126448785Y-98684293D01*
X126222665Y-98869865D01*
X126037093Y-99095985D01*
X125899200Y-99353965D01*
X125814286Y-99633888D01*
X125785614Y-99924999D01*
X125814286Y-100216110D01*
X125899200Y-100496033D01*
X126037093Y-100754013D01*
X126222665Y-100980133D01*
X126448785Y-101165705D01*
X126503590Y-101194999D01*
X126448785Y-101224293D01*
X126222665Y-101409865D01*
X126037093Y-101635985D01*
X125899200Y-101893965D01*
X125814286Y-102173888D01*
X125785614Y-102464999D01*
X125814286Y-102756110D01*
X125899200Y-103036033D01*
X126037093Y-103294013D01*
X126222665Y-103520133D01*
X126448785Y-103705705D01*
X126503590Y-103734999D01*
X126448785Y-103764293D01*
X126222665Y-103949865D01*
X126037093Y-104175985D01*
X125899200Y-104433965D01*
X125814286Y-104713888D01*
X125785614Y-105004999D01*
X125814286Y-105296110D01*
X125899200Y-105576033D01*
X126037093Y-105834013D01*
X126222665Y-106060133D01*
X126448785Y-106245705D01*
X126503590Y-106274999D01*
X126448785Y-106304293D01*
X126222665Y-106489865D01*
X126037093Y-106715985D01*
X125899200Y-106973965D01*
X125814286Y-107253888D01*
X125785614Y-107544999D01*
X125814286Y-107836110D01*
X125899200Y-108116033D01*
X126037093Y-108374013D01*
X126222665Y-108600133D01*
X126448785Y-108785705D01*
X126503590Y-108814999D01*
X126448785Y-108844293D01*
X126222665Y-109029865D01*
X126037093Y-109255985D01*
X125899200Y-109513965D01*
X125814286Y-109793888D01*
X125785614Y-110084999D01*
X125814286Y-110376110D01*
X125899200Y-110656033D01*
X126037093Y-110914013D01*
X126222665Y-111140133D01*
X126448785Y-111325705D01*
X126503590Y-111354999D01*
X126448785Y-111384293D01*
X126222665Y-111569865D01*
X126037093Y-111795985D01*
X125899200Y-112053965D01*
X125814286Y-112333888D01*
X125785614Y-112624999D01*
X125814286Y-112916110D01*
X125899200Y-113196033D01*
X126037093Y-113454013D01*
X126222665Y-113680133D01*
X126448785Y-113865705D01*
X126513322Y-113900200D01*
X126396444Y-113969821D01*
X126180211Y-114164730D01*
X126006158Y-114398079D01*
X125880974Y-114660900D01*
X125836323Y-114808109D01*
X125957644Y-115037999D01*
X127150799Y-115037999D01*
X127150799Y-115017999D01*
X127404799Y-115017999D01*
X127404799Y-115037999D01*
X128597954Y-115037999D01*
X128719275Y-114808109D01*
X128674624Y-114660900D01*
X128549440Y-114398079D01*
X128375387Y-114164730D01*
X128159154Y-113969821D01*
X128042276Y-113900200D01*
X128106813Y-113865705D01*
X128332933Y-113680133D01*
X128518505Y-113454013D01*
X128656398Y-113196033D01*
X128741312Y-112916110D01*
X128769984Y-112624999D01*
X128741312Y-112333888D01*
X128656398Y-112053965D01*
X128518505Y-111795985D01*
X128332933Y-111569865D01*
X128106813Y-111384293D01*
X128052008Y-111354999D01*
X128106813Y-111325705D01*
X128332933Y-111140133D01*
X128518505Y-110914013D01*
X128656398Y-110656033D01*
X128741312Y-110376110D01*
X128769984Y-110084999D01*
X128741312Y-109793888D01*
X128656398Y-109513965D01*
X128518505Y-109255985D01*
X128332933Y-109029865D01*
X128106813Y-108844293D01*
X128052008Y-108814999D01*
X128106813Y-108785705D01*
X128332933Y-108600133D01*
X128518505Y-108374013D01*
X128656398Y-108116033D01*
X128741312Y-107836110D01*
X128769984Y-107544999D01*
X128741312Y-107253888D01*
X128656398Y-106973965D01*
X128518505Y-106715985D01*
X128332933Y-106489865D01*
X128106813Y-106304293D01*
X128052008Y-106274999D01*
X128106813Y-106245705D01*
X128332933Y-106060133D01*
X128518505Y-105834013D01*
X128656398Y-105576033D01*
X128741312Y-105296110D01*
X128769984Y-105004999D01*
X128741312Y-104713888D01*
X128656398Y-104433965D01*
X128518505Y-104175985D01*
X128332933Y-103949865D01*
X128106813Y-103764293D01*
X128052008Y-103734999D01*
X128106813Y-103705705D01*
X128332933Y-103520133D01*
X128518505Y-103294013D01*
X128656398Y-103036033D01*
X128741312Y-102756110D01*
X128769984Y-102464999D01*
X128741312Y-102173888D01*
X128656398Y-101893965D01*
X128518505Y-101635985D01*
X128332933Y-101409865D01*
X128106813Y-101224293D01*
X128052008Y-101194999D01*
X128106813Y-101165705D01*
X128332933Y-100980133D01*
X128518505Y-100754013D01*
X128656398Y-100496033D01*
X128741312Y-100216110D01*
X128769984Y-99924999D01*
X128741312Y-99633888D01*
X128656398Y-99353965D01*
X128518505Y-99095985D01*
X128332933Y-98869865D01*
X128106813Y-98684293D01*
X128052008Y-98654999D01*
X128106813Y-98625705D01*
X128332933Y-98440133D01*
X128518505Y-98214013D01*
X128656398Y-97956033D01*
X128741312Y-97676110D01*
X128769984Y-97384999D01*
X128741312Y-97093888D01*
X128656398Y-96813965D01*
X128518505Y-96555985D01*
X128332933Y-96329865D01*
X128106813Y-96144293D01*
X128052008Y-96114999D01*
X128106813Y-96085705D01*
X128332933Y-95900133D01*
X128518505Y-95674013D01*
X128656398Y-95416033D01*
X128741312Y-95136110D01*
X128769984Y-94844999D01*
X128741312Y-94553888D01*
X128656398Y-94273965D01*
X128518505Y-94015985D01*
X128332933Y-93789865D01*
X128106813Y-93604293D01*
X128052008Y-93574999D01*
X128106813Y-93545705D01*
X128332933Y-93360133D01*
X128518505Y-93134013D01*
X128656398Y-92876033D01*
X128741312Y-92596110D01*
X128769984Y-92304999D01*
X128741312Y-92013888D01*
X128656398Y-91733965D01*
X128518505Y-91475985D01*
X128332933Y-91249865D01*
X128106813Y-91064293D01*
X128052008Y-91034999D01*
X128106813Y-91005705D01*
X128332933Y-90820133D01*
X128518505Y-90594013D01*
X128656398Y-90336033D01*
X128741312Y-90056110D01*
X128769984Y-89764999D01*
X128741312Y-89473888D01*
X128656398Y-89193965D01*
X128518505Y-88935985D01*
X128332933Y-88709865D01*
X128106813Y-88524293D01*
X128052008Y-88494999D01*
X128106813Y-88465705D01*
X128332933Y-88280133D01*
X128518505Y-88054013D01*
X128656398Y-87796033D01*
X128741312Y-87516110D01*
X128769984Y-87224999D01*
X128741312Y-86933888D01*
X128656398Y-86653965D01*
X128518505Y-86395985D01*
X128332933Y-86169865D01*
X128106813Y-85984293D01*
X128052008Y-85954999D01*
X128106813Y-85925705D01*
X128332933Y-85740133D01*
X128518505Y-85514013D01*
X128656398Y-85256033D01*
X128741312Y-84976110D01*
X128769984Y-84684999D01*
X128741312Y-84393888D01*
X128656398Y-84113965D01*
X128518505Y-83855985D01*
X128332933Y-83629865D01*
X128106813Y-83444293D01*
X128052008Y-83414999D01*
X128106813Y-83385705D01*
X128332933Y-83200133D01*
X128518505Y-82974013D01*
X128656398Y-82716033D01*
X128741312Y-82436110D01*
X128769984Y-82144999D01*
X128741312Y-81853888D01*
X128656398Y-81573965D01*
X128518505Y-81315985D01*
X128332933Y-81089865D01*
X128106813Y-80904293D01*
X128052008Y-80874999D01*
X128106813Y-80845705D01*
X128332933Y-80660133D01*
X128518505Y-80434013D01*
X128656398Y-80176033D01*
X128741312Y-79896110D01*
X128769984Y-79604999D01*
X128741312Y-79313888D01*
X128656398Y-79033965D01*
X128518505Y-78775985D01*
X128332933Y-78549865D01*
X128106813Y-78364293D01*
X128052008Y-78334999D01*
X128106813Y-78305705D01*
X128332933Y-78120133D01*
X128518505Y-77894013D01*
X128656398Y-77636033D01*
X128741312Y-77356110D01*
X128769984Y-77064999D01*
X128741312Y-76773888D01*
X128656398Y-76493965D01*
X128518505Y-76235985D01*
X128332933Y-76009865D01*
X128106813Y-75824293D01*
X128052008Y-75794999D01*
X128106813Y-75765705D01*
X128332933Y-75580133D01*
X128518505Y-75354013D01*
X128656398Y-75096033D01*
X128741312Y-74816110D01*
X128769984Y-74524999D01*
X128741312Y-74233888D01*
X128656398Y-73953965D01*
X128518505Y-73695985D01*
X128332933Y-73469865D01*
X128106813Y-73284293D01*
X127848833Y-73146400D01*
X127568910Y-73061486D01*
X127350749Y-73039999D01*
X127204849Y-73039999D01*
X126986688Y-73061486D01*
X126706765Y-73146400D01*
X126448785Y-73284293D01*
X126222665Y-73469865D01*
X126037093Y-73695985D01*
X125899200Y-73953965D01*
X125814286Y-74233888D01*
X125785614Y-74524999D01*
X123944000Y-74524999D01*
X123944000Y-70223000D01*
X184158000Y-70223000D01*
X184158000Y-91720422D01*
X184158000Y-91720422D01*
G37*
X184158000Y-91720422D02*
X183003000Y-90565422D01*
X183003000Y-86828625D01*
X183092482Y-86819812D01*
X183212180Y-86783502D01*
X183322494Y-86724537D01*
X183419185Y-86645185D01*
X183498537Y-86548494D01*
X183557502Y-86438180D01*
X183593812Y-86318482D01*
X183606072Y-86194000D01*
X183606072Y-84494000D01*
X183593812Y-84369518D01*
X183557502Y-84249820D01*
X183498537Y-84139506D01*
X183419185Y-84042815D01*
X183322494Y-83963463D01*
X183212180Y-83904498D01*
X183143313Y-83883607D01*
X183173134Y-83859134D01*
X183358706Y-83633014D01*
X183496599Y-83375034D01*
X183581513Y-83095111D01*
X183610185Y-82804000D01*
X183581513Y-82512889D01*
X183496599Y-82232966D01*
X183358706Y-81974986D01*
X183173134Y-81748866D01*
X182947014Y-81563294D01*
X182892209Y-81534000D01*
X182947014Y-81504706D01*
X183173134Y-81319134D01*
X183358706Y-81093014D01*
X183496599Y-80835034D01*
X183581513Y-80555111D01*
X183610185Y-80264000D01*
X183581513Y-79972889D01*
X183496599Y-79692966D01*
X183358706Y-79434986D01*
X183173134Y-79208866D01*
X182947014Y-79023294D01*
X182882477Y-78988799D01*
X182999355Y-78919178D01*
X183215588Y-78724269D01*
X183389641Y-78490920D01*
X183514825Y-78228099D01*
X183559476Y-78080890D01*
X183438155Y-77851000D01*
X182245000Y-77851000D01*
X182245000Y-77871000D01*
X181991000Y-77871000D01*
X181991000Y-77851000D01*
X180797845Y-77851000D01*
X180676524Y-78080890D01*
X180721175Y-78228099D01*
X180846359Y-78490920D01*
X181020412Y-78724269D01*
X181236645Y-78919178D01*
X181353523Y-78988799D01*
X181288986Y-79023294D01*
X181062866Y-79208866D01*
X180923241Y-79379000D01*
X178420579Y-79379000D01*
X178304000Y-79262422D01*
X178304000Y-75735465D01*
X178308281Y-75691999D01*
X178304000Y-75648533D01*
X178304000Y-75648523D01*
X178291195Y-75518510D01*
X178240589Y-75351687D01*
X178158411Y-75197941D01*
X178047817Y-75063183D01*
X178014049Y-75035470D01*
X176678534Y-73699956D01*
X176650817Y-73666183D01*
X176516059Y-73555589D01*
X176423283Y-73506000D01*
X176987554Y-73506000D01*
X179159746Y-75678193D01*
X179182762Y-75706238D01*
X179294680Y-75798087D01*
X179422367Y-75866337D01*
X179560915Y-75908365D01*
X179668895Y-75919000D01*
X179668904Y-75919000D01*
X179704999Y-75922555D01*
X179741094Y-75919000D01*
X180827043Y-75919000D01*
X180877294Y-76013014D01*
X181062866Y-76239134D01*
X181288986Y-76424706D01*
X181353523Y-76459201D01*
X181236645Y-76528822D01*
X181020412Y-76723731D01*
X180846359Y-76957080D01*
X180721175Y-77219901D01*
X180676524Y-77367110D01*
X180797845Y-77597000D01*
X181991000Y-77597000D01*
X181991000Y-77577000D01*
X182245000Y-77577000D01*
X182245000Y-77597000D01*
X183438155Y-77597000D01*
X183559476Y-77367110D01*
X183514825Y-77219901D01*
X183389641Y-76957080D01*
X183215588Y-76723731D01*
X182999355Y-76528822D01*
X182882477Y-76459201D01*
X182947014Y-76424706D01*
X183173134Y-76239134D01*
X183358706Y-76013014D01*
X183496599Y-75755034D01*
X183581513Y-75475111D01*
X183610185Y-75184000D01*
X183581513Y-74892889D01*
X183496599Y-74612966D01*
X183358706Y-74354986D01*
X183173134Y-74128866D01*
X182947014Y-73943294D01*
X182892209Y-73914000D01*
X182947014Y-73884706D01*
X183173134Y-73699134D01*
X183358706Y-73473014D01*
X183496599Y-73215034D01*
X183581513Y-72935111D01*
X183610185Y-72644000D01*
X183581513Y-72352889D01*
X183496599Y-72072966D01*
X183358706Y-71814986D01*
X183173134Y-71588866D01*
X182947014Y-71403294D01*
X182689034Y-71265401D01*
X182409111Y-71180487D01*
X182190950Y-71159000D01*
X182045050Y-71159000D01*
X181826889Y-71180487D01*
X181546966Y-71265401D01*
X181288986Y-71403294D01*
X181062866Y-71588866D01*
X180877294Y-71814986D01*
X180827043Y-71909000D01*
X180136447Y-71909000D01*
X179488258Y-71260812D01*
X179465238Y-71232762D01*
X179353320Y-71140913D01*
X179225633Y-71072663D01*
X179087085Y-71030635D01*
X178979105Y-71020000D01*
X178943000Y-71016444D01*
X178906895Y-71020000D01*
X159675105Y-71020000D01*
X159639000Y-71016444D01*
X159602895Y-71020000D01*
X159494915Y-71030635D01*
X159356367Y-71072663D01*
X159228680Y-71140913D01*
X159116762Y-71232762D01*
X159093746Y-71260807D01*
X156096808Y-74257746D01*
X156068762Y-74280763D01*
X155976913Y-74392681D01*
X155908663Y-74520368D01*
X155893634Y-74569913D01*
X155866635Y-74658915D01*
X155852444Y-74803000D01*
X155856000Y-74839105D01*
X155856001Y-101887350D01*
X155269070Y-102474282D01*
X155269984Y-102464999D01*
X155241312Y-102173888D01*
X155156398Y-101893965D01*
X155018505Y-101635985D01*
X154832933Y-101409865D01*
X154606813Y-101224293D01*
X154552008Y-101194999D01*
X154606813Y-101165705D01*
X154832933Y-100980133D01*
X155018505Y-100754013D01*
X155156398Y-100496033D01*
X155241312Y-100216110D01*
X155269984Y-99924999D01*
X155241312Y-99633888D01*
X155156398Y-99353965D01*
X155018505Y-99095985D01*
X154832933Y-98869865D01*
X154606813Y-98684293D01*
X154552008Y-98654999D01*
X154606813Y-98625705D01*
X154832933Y-98440133D01*
X155018505Y-98214013D01*
X155156398Y-97956033D01*
X155241312Y-97676110D01*
X155269984Y-97384999D01*
X155241312Y-97093888D01*
X155156398Y-96813965D01*
X155018505Y-96555985D01*
X154832933Y-96329865D01*
X154606813Y-96144293D01*
X154552008Y-96114999D01*
X154606813Y-96085705D01*
X154832933Y-95900133D01*
X155018505Y-95674013D01*
X155156398Y-95416033D01*
X155241312Y-95136110D01*
X155269984Y-94844999D01*
X155241312Y-94553888D01*
X155156398Y-94273965D01*
X155018505Y-94015985D01*
X154832933Y-93789865D01*
X154606813Y-93604293D01*
X154552008Y-93574999D01*
X154606813Y-93545705D01*
X154832933Y-93360133D01*
X155018505Y-93134013D01*
X155156398Y-92876033D01*
X155241312Y-92596110D01*
X155269984Y-92304999D01*
X155241312Y-92013888D01*
X155156398Y-91733965D01*
X155018505Y-91475985D01*
X154832933Y-91249865D01*
X154606813Y-91064293D01*
X154552008Y-91034999D01*
X154606813Y-91005705D01*
X154832933Y-90820133D01*
X155018505Y-90594013D01*
X155156398Y-90336033D01*
X155241312Y-90056110D01*
X155269984Y-89764999D01*
X155241312Y-89473888D01*
X155156398Y-89193965D01*
X155018505Y-88935985D01*
X154832933Y-88709865D01*
X154606813Y-88524293D01*
X154552008Y-88494999D01*
X154606813Y-88465705D01*
X154832933Y-88280133D01*
X155018505Y-88054013D01*
X155156398Y-87796033D01*
X155241312Y-87516110D01*
X155269984Y-87224999D01*
X155241312Y-86933888D01*
X155156398Y-86653965D01*
X155018505Y-86395985D01*
X154832933Y-86169865D01*
X154606813Y-85984293D01*
X154552008Y-85954999D01*
X154606813Y-85925705D01*
X154832933Y-85740133D01*
X155018505Y-85514013D01*
X155156398Y-85256033D01*
X155241312Y-84976110D01*
X155269984Y-84684999D01*
X155241312Y-84393888D01*
X155156398Y-84113965D01*
X155018505Y-83855985D01*
X154832933Y-83629865D01*
X154606813Y-83444293D01*
X154552008Y-83414999D01*
X154606813Y-83385705D01*
X154832933Y-83200133D01*
X155018505Y-82974013D01*
X155156398Y-82716033D01*
X155241312Y-82436110D01*
X155269984Y-82144999D01*
X155241312Y-81853888D01*
X155156398Y-81573965D01*
X155018505Y-81315985D01*
X154832933Y-81089865D01*
X154606813Y-80904293D01*
X154552008Y-80874999D01*
X154606813Y-80845705D01*
X154832933Y-80660133D01*
X155018505Y-80434013D01*
X155156398Y-80176033D01*
X155241312Y-79896110D01*
X155269984Y-79604999D01*
X155241312Y-79313888D01*
X155156398Y-79033965D01*
X155018505Y-78775985D01*
X154832933Y-78549865D01*
X154606813Y-78364293D01*
X154552008Y-78334999D01*
X154606813Y-78305705D01*
X154832933Y-78120133D01*
X155018505Y-77894013D01*
X155156398Y-77636033D01*
X155241312Y-77356110D01*
X155269984Y-77064999D01*
X155241312Y-76773888D01*
X155156398Y-76493965D01*
X155018505Y-76235985D01*
X154832933Y-76009865D01*
X154606813Y-75824293D01*
X154552008Y-75794999D01*
X154606813Y-75765705D01*
X154832933Y-75580133D01*
X155018505Y-75354013D01*
X155156398Y-75096033D01*
X155241312Y-74816110D01*
X155269984Y-74524999D01*
X155241312Y-74233888D01*
X155156398Y-73953965D01*
X155018505Y-73695985D01*
X154832933Y-73469865D01*
X154606813Y-73284293D01*
X154348833Y-73146400D01*
X154068910Y-73061486D01*
X153850749Y-73039999D01*
X153704849Y-73039999D01*
X153486688Y-73061486D01*
X153206765Y-73146400D01*
X152948785Y-73284293D01*
X152722665Y-73469865D01*
X152537093Y-73695985D01*
X152399200Y-73953965D01*
X152314286Y-74233888D01*
X152285614Y-74524999D01*
X152314286Y-74816110D01*
X152399200Y-75096033D01*
X152537093Y-75354013D01*
X152722665Y-75580133D01*
X152948785Y-75765705D01*
X153003590Y-75794999D01*
X152948785Y-75824293D01*
X152722665Y-76009865D01*
X152537093Y-76235985D01*
X152399200Y-76493965D01*
X152314286Y-76773888D01*
X152285614Y-77064999D01*
X152314286Y-77356110D01*
X152399200Y-77636033D01*
X152537093Y-77894013D01*
X152722665Y-78120133D01*
X152948785Y-78305705D01*
X153003590Y-78334999D01*
X152948785Y-78364293D01*
X152722665Y-78549865D01*
X152537093Y-78775985D01*
X152399200Y-79033965D01*
X152314286Y-79313888D01*
X152285614Y-79604999D01*
X152314286Y-79896110D01*
X152399200Y-80176033D01*
X152537093Y-80434013D01*
X152722665Y-80660133D01*
X152948785Y-80845705D01*
X153003590Y-80874999D01*
X152948785Y-80904293D01*
X152722665Y-81089865D01*
X152537093Y-81315985D01*
X152399200Y-81573965D01*
X152314286Y-81853888D01*
X152285614Y-82144999D01*
X152314286Y-82436110D01*
X152399200Y-82716033D01*
X152537093Y-82974013D01*
X152722665Y-83200133D01*
X152948785Y-83385705D01*
X153003590Y-83414999D01*
X152948785Y-83444293D01*
X152722665Y-83629865D01*
X152537093Y-83855985D01*
X152399200Y-84113965D01*
X152314286Y-84393888D01*
X152285614Y-84684999D01*
X152314286Y-84976110D01*
X152399200Y-85256033D01*
X152537093Y-85514013D01*
X152722665Y-85740133D01*
X152948785Y-85925705D01*
X153003590Y-85954999D01*
X152948785Y-85984293D01*
X152722665Y-86169865D01*
X152537093Y-86395985D01*
X152399200Y-86653965D01*
X152314286Y-86933888D01*
X152285614Y-87224999D01*
X152314286Y-87516110D01*
X152399200Y-87796033D01*
X152537093Y-88054013D01*
X152722665Y-88280133D01*
X152948785Y-88465705D01*
X153003590Y-88494999D01*
X152948785Y-88524293D01*
X152722665Y-88709865D01*
X152537093Y-88935985D01*
X152399200Y-89193965D01*
X152314286Y-89473888D01*
X152285614Y-89764999D01*
X152314286Y-90056110D01*
X152399200Y-90336033D01*
X152537093Y-90594013D01*
X152722665Y-90820133D01*
X152948785Y-91005705D01*
X153003590Y-91034999D01*
X152948785Y-91064293D01*
X152722665Y-91249865D01*
X152537093Y-91475985D01*
X152399200Y-91733965D01*
X152314286Y-92013888D01*
X152285614Y-92304999D01*
X152314286Y-92596110D01*
X152399200Y-92876033D01*
X152537093Y-93134013D01*
X152722665Y-93360133D01*
X152948785Y-93545705D01*
X153003590Y-93574999D01*
X152948785Y-93604293D01*
X152722665Y-93789865D01*
X152537093Y-94015985D01*
X152399200Y-94273965D01*
X152314286Y-94553888D01*
X152285614Y-94844999D01*
X152314286Y-95136110D01*
X152399200Y-95416033D01*
X152537093Y-95674013D01*
X152722665Y-95900133D01*
X152948785Y-96085705D01*
X153003590Y-96114999D01*
X152948785Y-96144293D01*
X152722665Y-96329865D01*
X152537093Y-96555985D01*
X152399200Y-96813965D01*
X152314286Y-97093888D01*
X152285614Y-97384999D01*
X152314286Y-97676110D01*
X152399200Y-97956033D01*
X152537093Y-98214013D01*
X152722665Y-98440133D01*
X152948785Y-98625705D01*
X153003590Y-98654999D01*
X152948785Y-98684293D01*
X152722665Y-98869865D01*
X152537093Y-99095985D01*
X152399200Y-99353965D01*
X152314286Y-99633888D01*
X152285614Y-99924999D01*
X152314286Y-100216110D01*
X152399200Y-100496033D01*
X152537093Y-100754013D01*
X152722665Y-100980133D01*
X152948785Y-101165705D01*
X153003590Y-101194999D01*
X152948785Y-101224293D01*
X152722665Y-101409865D01*
X152537093Y-101635985D01*
X152399200Y-101893965D01*
X152314286Y-102173888D01*
X152285614Y-102464999D01*
X152314286Y-102756110D01*
X152399200Y-103036033D01*
X152537093Y-103294013D01*
X152722665Y-103520133D01*
X152948785Y-103705705D01*
X153003590Y-103734999D01*
X152948785Y-103764293D01*
X152722665Y-103949865D01*
X152537093Y-104175985D01*
X152399200Y-104433965D01*
X152314286Y-104713888D01*
X152285614Y-105004999D01*
X152314286Y-105296110D01*
X152399200Y-105576033D01*
X152537093Y-105834013D01*
X152722665Y-106060133D01*
X152948785Y-106245705D01*
X153003590Y-106274999D01*
X152948785Y-106304293D01*
X152722665Y-106489865D01*
X152537093Y-106715985D01*
X152399200Y-106973965D01*
X152314286Y-107253888D01*
X152285614Y-107544999D01*
X152314286Y-107836110D01*
X152399200Y-108116033D01*
X152537093Y-108374013D01*
X152722665Y-108600133D01*
X152948785Y-108785705D01*
X153003590Y-108814999D01*
X152948785Y-108844293D01*
X152722665Y-109029865D01*
X152537093Y-109255985D01*
X152399200Y-109513965D01*
X152314286Y-109793888D01*
X152285614Y-110084999D01*
X152314286Y-110376110D01*
X152399200Y-110656033D01*
X152537093Y-110914013D01*
X152722665Y-111140133D01*
X152948785Y-111325705D01*
X153003590Y-111354999D01*
X152948785Y-111384293D01*
X152722665Y-111569865D01*
X152537093Y-111795985D01*
X152399200Y-112053965D01*
X152314286Y-112333888D01*
X152285614Y-112624999D01*
X152314286Y-112916110D01*
X152399200Y-113196033D01*
X152537093Y-113454013D01*
X152722665Y-113680133D01*
X152948785Y-113865705D01*
X153003590Y-113894999D01*
X152948785Y-113924293D01*
X152722665Y-114109865D01*
X152537093Y-114335985D01*
X152399200Y-114593965D01*
X152314286Y-114873888D01*
X152285614Y-115164999D01*
X152314286Y-115456110D01*
X152399200Y-115736033D01*
X152537093Y-115994013D01*
X152722665Y-116220133D01*
X152752486Y-116244606D01*
X152683619Y-116265497D01*
X152573305Y-116324462D01*
X152476614Y-116403814D01*
X152397262Y-116500505D01*
X152338297Y-116610819D01*
X152301987Y-116730517D01*
X152289727Y-116854999D01*
X152289727Y-118554999D01*
X152301987Y-118679481D01*
X152338297Y-118799179D01*
X152397262Y-118909493D01*
X152476614Y-119006184D01*
X152573305Y-119085536D01*
X152683619Y-119144501D01*
X152803317Y-119180811D01*
X152927799Y-119193071D01*
X154627799Y-119193071D01*
X154752281Y-119180811D01*
X154871979Y-119144501D01*
X154982293Y-119085536D01*
X155078984Y-119006184D01*
X155123348Y-118952126D01*
X155892270Y-119721049D01*
X155919983Y-119754817D01*
X155953751Y-119782530D01*
X155953753Y-119782532D01*
X156014639Y-119832500D01*
X123944000Y-119832500D01*
X123944000Y-116854999D01*
X125789727Y-116854999D01*
X125789727Y-118554999D01*
X125801987Y-118679481D01*
X125838297Y-118799179D01*
X125897262Y-118909493D01*
X125976614Y-119006184D01*
X126073305Y-119085536D01*
X126183619Y-119144501D01*
X126303317Y-119180811D01*
X126427799Y-119193071D01*
X128127799Y-119193071D01*
X128252281Y-119180811D01*
X128371979Y-119144501D01*
X128482293Y-119085536D01*
X128578984Y-119006184D01*
X128658336Y-118909493D01*
X128717301Y-118799179D01*
X128753611Y-118679481D01*
X128765871Y-118554999D01*
X128765871Y-116854999D01*
X128753611Y-116730517D01*
X128717301Y-116610819D01*
X128658336Y-116500505D01*
X128578984Y-116403814D01*
X128482293Y-116324462D01*
X128371979Y-116265497D01*
X128291333Y-116241033D01*
X128375387Y-116165268D01*
X128549440Y-115931919D01*
X128674624Y-115669098D01*
X128719275Y-115521889D01*
X128597954Y-115291999D01*
X127404799Y-115291999D01*
X127404799Y-115311999D01*
X127150799Y-115311999D01*
X127150799Y-115291999D01*
X125957644Y-115291999D01*
X125836323Y-115521889D01*
X125880974Y-115669098D01*
X126006158Y-115931919D01*
X126180211Y-116165268D01*
X126264265Y-116241033D01*
X126183619Y-116265497D01*
X126073305Y-116324462D01*
X125976614Y-116403814D01*
X125897262Y-116500505D01*
X125838297Y-116610819D01*
X125801987Y-116730517D01*
X125789727Y-116854999D01*
X123944000Y-116854999D01*
X123944000Y-74524999D01*
X125785614Y-74524999D01*
X125814286Y-74816110D01*
X125899200Y-75096033D01*
X126037093Y-75354013D01*
X126222665Y-75580133D01*
X126448785Y-75765705D01*
X126503590Y-75794999D01*
X126448785Y-75824293D01*
X126222665Y-76009865D01*
X126037093Y-76235985D01*
X125899200Y-76493965D01*
X125814286Y-76773888D01*
X125785614Y-77064999D01*
X125814286Y-77356110D01*
X125899200Y-77636033D01*
X126037093Y-77894013D01*
X126222665Y-78120133D01*
X126448785Y-78305705D01*
X126503590Y-78334999D01*
X126448785Y-78364293D01*
X126222665Y-78549865D01*
X126037093Y-78775985D01*
X125899200Y-79033965D01*
X125814286Y-79313888D01*
X125785614Y-79604999D01*
X125814286Y-79896110D01*
X125899200Y-80176033D01*
X126037093Y-80434013D01*
X126222665Y-80660133D01*
X126448785Y-80845705D01*
X126503590Y-80874999D01*
X126448785Y-80904293D01*
X126222665Y-81089865D01*
X126037093Y-81315985D01*
X125899200Y-81573965D01*
X125814286Y-81853888D01*
X125785614Y-82144999D01*
X125814286Y-82436110D01*
X125899200Y-82716033D01*
X126037093Y-82974013D01*
X126222665Y-83200133D01*
X126448785Y-83385705D01*
X126503590Y-83414999D01*
X126448785Y-83444293D01*
X126222665Y-83629865D01*
X126037093Y-83855985D01*
X125899200Y-84113965D01*
X125814286Y-84393888D01*
X125785614Y-84684999D01*
X125814286Y-84976110D01*
X125899200Y-85256033D01*
X126037093Y-85514013D01*
X126222665Y-85740133D01*
X126448785Y-85925705D01*
X126503590Y-85954999D01*
X126448785Y-85984293D01*
X126222665Y-86169865D01*
X126037093Y-86395985D01*
X125899200Y-86653965D01*
X125814286Y-86933888D01*
X125785614Y-87224999D01*
X125814286Y-87516110D01*
X125899200Y-87796033D01*
X126037093Y-88054013D01*
X126222665Y-88280133D01*
X126448785Y-88465705D01*
X126503590Y-88494999D01*
X126448785Y-88524293D01*
X126222665Y-88709865D01*
X126037093Y-88935985D01*
X125899200Y-89193965D01*
X125814286Y-89473888D01*
X125785614Y-89764999D01*
X125814286Y-90056110D01*
X125899200Y-90336033D01*
X126037093Y-90594013D01*
X126222665Y-90820133D01*
X126448785Y-91005705D01*
X126503590Y-91034999D01*
X126448785Y-91064293D01*
X126222665Y-91249865D01*
X126037093Y-91475985D01*
X125899200Y-91733965D01*
X125814286Y-92013888D01*
X125785614Y-92304999D01*
X125814286Y-92596110D01*
X125899200Y-92876033D01*
X126037093Y-93134013D01*
X126222665Y-93360133D01*
X126448785Y-93545705D01*
X126503590Y-93574999D01*
X126448785Y-93604293D01*
X126222665Y-93789865D01*
X126037093Y-94015985D01*
X125899200Y-94273965D01*
X125814286Y-94553888D01*
X125785614Y-94844999D01*
X125814286Y-95136110D01*
X125899200Y-95416033D01*
X126037093Y-95674013D01*
X126222665Y-95900133D01*
X126448785Y-96085705D01*
X126503590Y-96114999D01*
X126448785Y-96144293D01*
X126222665Y-96329865D01*
X126037093Y-96555985D01*
X125899200Y-96813965D01*
X125814286Y-97093888D01*
X125785614Y-97384999D01*
X125814286Y-97676110D01*
X125899200Y-97956033D01*
X126037093Y-98214013D01*
X126222665Y-98440133D01*
X126448785Y-98625705D01*
X126503590Y-98654999D01*
X126448785Y-98684293D01*
X126222665Y-98869865D01*
X126037093Y-99095985D01*
X125899200Y-99353965D01*
X125814286Y-99633888D01*
X125785614Y-99924999D01*
X125814286Y-100216110D01*
X125899200Y-100496033D01*
X126037093Y-100754013D01*
X126222665Y-100980133D01*
X126448785Y-101165705D01*
X126503590Y-101194999D01*
X126448785Y-101224293D01*
X126222665Y-101409865D01*
X126037093Y-101635985D01*
X125899200Y-101893965D01*
X125814286Y-102173888D01*
X125785614Y-102464999D01*
X125814286Y-102756110D01*
X125899200Y-103036033D01*
X126037093Y-103294013D01*
X126222665Y-103520133D01*
X126448785Y-103705705D01*
X126503590Y-103734999D01*
X126448785Y-103764293D01*
X126222665Y-103949865D01*
X126037093Y-104175985D01*
X125899200Y-104433965D01*
X125814286Y-104713888D01*
X125785614Y-105004999D01*
X125814286Y-105296110D01*
X125899200Y-105576033D01*
X126037093Y-105834013D01*
X126222665Y-106060133D01*
X126448785Y-106245705D01*
X126503590Y-106274999D01*
X126448785Y-106304293D01*
X126222665Y-106489865D01*
X126037093Y-106715985D01*
X125899200Y-106973965D01*
X125814286Y-107253888D01*
X125785614Y-107544999D01*
X125814286Y-107836110D01*
X125899200Y-108116033D01*
X126037093Y-108374013D01*
X126222665Y-108600133D01*
X126448785Y-108785705D01*
X126503590Y-108814999D01*
X126448785Y-108844293D01*
X126222665Y-109029865D01*
X126037093Y-109255985D01*
X125899200Y-109513965D01*
X125814286Y-109793888D01*
X125785614Y-110084999D01*
X125814286Y-110376110D01*
X125899200Y-110656033D01*
X126037093Y-110914013D01*
X126222665Y-111140133D01*
X126448785Y-111325705D01*
X126503590Y-111354999D01*
X126448785Y-111384293D01*
X126222665Y-111569865D01*
X126037093Y-111795985D01*
X125899200Y-112053965D01*
X125814286Y-112333888D01*
X125785614Y-112624999D01*
X125814286Y-112916110D01*
X125899200Y-113196033D01*
X126037093Y-113454013D01*
X126222665Y-113680133D01*
X126448785Y-113865705D01*
X126513322Y-113900200D01*
X126396444Y-113969821D01*
X126180211Y-114164730D01*
X126006158Y-114398079D01*
X125880974Y-114660900D01*
X125836323Y-114808109D01*
X125957644Y-115037999D01*
X127150799Y-115037999D01*
X127150799Y-115017999D01*
X127404799Y-115017999D01*
X127404799Y-115037999D01*
X128597954Y-115037999D01*
X128719275Y-114808109D01*
X128674624Y-114660900D01*
X128549440Y-114398079D01*
X128375387Y-114164730D01*
X128159154Y-113969821D01*
X128042276Y-113900200D01*
X128106813Y-113865705D01*
X128332933Y-113680133D01*
X128518505Y-113454013D01*
X128656398Y-113196033D01*
X128741312Y-112916110D01*
X128769984Y-112624999D01*
X128741312Y-112333888D01*
X128656398Y-112053965D01*
X128518505Y-111795985D01*
X128332933Y-111569865D01*
X128106813Y-111384293D01*
X128052008Y-111354999D01*
X128106813Y-111325705D01*
X128332933Y-111140133D01*
X128518505Y-110914013D01*
X128656398Y-110656033D01*
X128741312Y-110376110D01*
X128769984Y-110084999D01*
X128741312Y-109793888D01*
X128656398Y-109513965D01*
X128518505Y-109255985D01*
X128332933Y-109029865D01*
X128106813Y-108844293D01*
X128052008Y-108814999D01*
X128106813Y-108785705D01*
X128332933Y-108600133D01*
X128518505Y-108374013D01*
X128656398Y-108116033D01*
X128741312Y-107836110D01*
X128769984Y-107544999D01*
X128741312Y-107253888D01*
X128656398Y-106973965D01*
X128518505Y-106715985D01*
X128332933Y-106489865D01*
X128106813Y-106304293D01*
X128052008Y-106274999D01*
X128106813Y-106245705D01*
X128332933Y-106060133D01*
X128518505Y-105834013D01*
X128656398Y-105576033D01*
X128741312Y-105296110D01*
X128769984Y-105004999D01*
X128741312Y-104713888D01*
X128656398Y-104433965D01*
X128518505Y-104175985D01*
X128332933Y-103949865D01*
X128106813Y-103764293D01*
X128052008Y-103734999D01*
X128106813Y-103705705D01*
X128332933Y-103520133D01*
X128518505Y-103294013D01*
X128656398Y-103036033D01*
X128741312Y-102756110D01*
X128769984Y-102464999D01*
X128741312Y-102173888D01*
X128656398Y-101893965D01*
X128518505Y-101635985D01*
X128332933Y-101409865D01*
X128106813Y-101224293D01*
X128052008Y-101194999D01*
X128106813Y-101165705D01*
X128332933Y-100980133D01*
X128518505Y-100754013D01*
X128656398Y-100496033D01*
X128741312Y-100216110D01*
X128769984Y-99924999D01*
X128741312Y-99633888D01*
X128656398Y-99353965D01*
X128518505Y-99095985D01*
X128332933Y-98869865D01*
X128106813Y-98684293D01*
X128052008Y-98654999D01*
X128106813Y-98625705D01*
X128332933Y-98440133D01*
X128518505Y-98214013D01*
X128656398Y-97956033D01*
X128741312Y-97676110D01*
X128769984Y-97384999D01*
X128741312Y-97093888D01*
X128656398Y-96813965D01*
X128518505Y-96555985D01*
X128332933Y-96329865D01*
X128106813Y-96144293D01*
X128052008Y-96114999D01*
X128106813Y-96085705D01*
X128332933Y-95900133D01*
X128518505Y-95674013D01*
X128656398Y-95416033D01*
X128741312Y-95136110D01*
X128769984Y-94844999D01*
X128741312Y-94553888D01*
X128656398Y-94273965D01*
X128518505Y-94015985D01*
X128332933Y-93789865D01*
X128106813Y-93604293D01*
X128052008Y-93574999D01*
X128106813Y-93545705D01*
X128332933Y-93360133D01*
X128518505Y-93134013D01*
X128656398Y-92876033D01*
X128741312Y-92596110D01*
X128769984Y-92304999D01*
X128741312Y-92013888D01*
X128656398Y-91733965D01*
X128518505Y-91475985D01*
X128332933Y-91249865D01*
X128106813Y-91064293D01*
X128052008Y-91034999D01*
X128106813Y-91005705D01*
X128332933Y-90820133D01*
X128518505Y-90594013D01*
X128656398Y-90336033D01*
X128741312Y-90056110D01*
X128769984Y-89764999D01*
X128741312Y-89473888D01*
X128656398Y-89193965D01*
X128518505Y-88935985D01*
X128332933Y-88709865D01*
X128106813Y-88524293D01*
X128052008Y-88494999D01*
X128106813Y-88465705D01*
X128332933Y-88280133D01*
X128518505Y-88054013D01*
X128656398Y-87796033D01*
X128741312Y-87516110D01*
X128769984Y-87224999D01*
X128741312Y-86933888D01*
X128656398Y-86653965D01*
X128518505Y-86395985D01*
X128332933Y-86169865D01*
X128106813Y-85984293D01*
X128052008Y-85954999D01*
X128106813Y-85925705D01*
X128332933Y-85740133D01*
X128518505Y-85514013D01*
X128656398Y-85256033D01*
X128741312Y-84976110D01*
X128769984Y-84684999D01*
X128741312Y-84393888D01*
X128656398Y-84113965D01*
X128518505Y-83855985D01*
X128332933Y-83629865D01*
X128106813Y-83444293D01*
X128052008Y-83414999D01*
X128106813Y-83385705D01*
X128332933Y-83200133D01*
X128518505Y-82974013D01*
X128656398Y-82716033D01*
X128741312Y-82436110D01*
X128769984Y-82144999D01*
X128741312Y-81853888D01*
X128656398Y-81573965D01*
X128518505Y-81315985D01*
X128332933Y-81089865D01*
X128106813Y-80904293D01*
X128052008Y-80874999D01*
X128106813Y-80845705D01*
X128332933Y-80660133D01*
X128518505Y-80434013D01*
X128656398Y-80176033D01*
X128741312Y-79896110D01*
X128769984Y-79604999D01*
X128741312Y-79313888D01*
X128656398Y-79033965D01*
X128518505Y-78775985D01*
X128332933Y-78549865D01*
X128106813Y-78364293D01*
X128052008Y-78334999D01*
X128106813Y-78305705D01*
X128332933Y-78120133D01*
X128518505Y-77894013D01*
X128656398Y-77636033D01*
X128741312Y-77356110D01*
X128769984Y-77064999D01*
X128741312Y-76773888D01*
X128656398Y-76493965D01*
X128518505Y-76235985D01*
X128332933Y-76009865D01*
X128106813Y-75824293D01*
X128052008Y-75794999D01*
X128106813Y-75765705D01*
X128332933Y-75580133D01*
X128518505Y-75354013D01*
X128656398Y-75096033D01*
X128741312Y-74816110D01*
X128769984Y-74524999D01*
X128741312Y-74233888D01*
X128656398Y-73953965D01*
X128518505Y-73695985D01*
X128332933Y-73469865D01*
X128106813Y-73284293D01*
X127848833Y-73146400D01*
X127568910Y-73061486D01*
X127350749Y-73039999D01*
X127204849Y-73039999D01*
X126986688Y-73061486D01*
X126706765Y-73146400D01*
X126448785Y-73284293D01*
X126222665Y-73469865D01*
X126037093Y-73695985D01*
X125899200Y-73953965D01*
X125814286Y-74233888D01*
X125785614Y-74524999D01*
X123944000Y-74524999D01*
X123944000Y-70223000D01*
X184158000Y-70223000D01*
X184158000Y-91720422D01*
G36*
X171682745Y-73684551D02*
G01*
X171591970Y-73983796D01*
X171561319Y-74295000D01*
X171591970Y-74606204D01*
X171682745Y-74905449D01*
X171830155Y-75181235D01*
X172028537Y-75422963D01*
X172207899Y-75570163D01*
X172022685Y-75725563D01*
X171828031Y-75968077D01*
X171684429Y-76243906D01*
X171613437Y-76462020D01*
X171733406Y-76708000D01*
X173077000Y-76708000D01*
X173077000Y-76688000D01*
X173331000Y-76688000D01*
X173331000Y-76708000D01*
X174674594Y-76708000D01*
X174794563Y-76462020D01*
X174723571Y-76243906D01*
X174579969Y-75968077D01*
X174385315Y-75725563D01*
X174200101Y-75570163D01*
X174379463Y-75422963D01*
X174577845Y-75181235D01*
X174578505Y-75180000D01*
X175655422Y-75180000D01*
X176534001Y-76058580D01*
X176534000Y-79585531D01*
X176529719Y-79629000D01*
X176534000Y-79672469D01*
X176534000Y-79672476D01*
X176546805Y-79802489D01*
X176597411Y-79969312D01*
X176679589Y-80123058D01*
X176790183Y-80257817D01*
X176823956Y-80285534D01*
X177397470Y-80859049D01*
X177425183Y-80892817D01*
X177458951Y-80920530D01*
X177458953Y-80920532D01*
X177559941Y-81003411D01*
X177713686Y-81085589D01*
X177880510Y-81136195D01*
X178010523Y-81149000D01*
X178010531Y-81149000D01*
X178054000Y-81153281D01*
X178097469Y-81149000D01*
X180923241Y-81149000D01*
X181062866Y-81319134D01*
X181288986Y-81504706D01*
X181343791Y-81534000D01*
X181288986Y-81563294D01*
X181062866Y-81748866D01*
X180923241Y-81919000D01*
X166839579Y-81919000D01*
X163827534Y-78906956D01*
X163799817Y-78873183D01*
X163665059Y-78762589D01*
X163511313Y-78680411D01*
X163344490Y-78629805D01*
X163214477Y-78617000D01*
X163214469Y-78617000D01*
X163171000Y-78612719D01*
X163127531Y-78617000D01*
X163045505Y-78617000D01*
X163044845Y-78615765D01*
X162886236Y-78422500D01*
X171565928Y-78422500D01*
X171565928Y-80327500D01*
X171578188Y-80451982D01*
X171614498Y-80571680D01*
X171673463Y-80681994D01*
X171752815Y-80778685D01*
X171849506Y-80858037D01*
X171959820Y-80917002D01*
X172079518Y-80953312D01*
X172204000Y-80965572D01*
X174204000Y-80965572D01*
X174328482Y-80953312D01*
X174448180Y-80917002D01*
X174558494Y-80858037D01*
X174655185Y-80778685D01*
X174734537Y-80681994D01*
X174793502Y-80571680D01*
X174829812Y-80451982D01*
X174842072Y-80327500D01*
X174842072Y-78422500D01*
X174829812Y-78298018D01*
X174793502Y-78178320D01*
X174734537Y-78068006D01*
X174655185Y-77971315D01*
X174558494Y-77891963D01*
X174466781Y-77842941D01*
X174579969Y-77701923D01*
X174723571Y-77426094D01*
X174794563Y-77207980D01*
X174674594Y-76962000D01*
X173331000Y-76962000D01*
X173331000Y-76982000D01*
X173077000Y-76982000D01*
X173077000Y-76962000D01*
X171733406Y-76962000D01*
X171613437Y-77207980D01*
X171684429Y-77426094D01*
X171828031Y-77701923D01*
X171941219Y-77842941D01*
X171849506Y-77891963D01*
X171752815Y-77971315D01*
X171673463Y-78068006D01*
X171614498Y-78178320D01*
X171578188Y-78298018D01*
X171565928Y-78422500D01*
X162886236Y-78422500D01*
X162846463Y-78374037D01*
X162667101Y-78226837D01*
X162852315Y-78071437D01*
X163046969Y-77828923D01*
X163190571Y-77553094D01*
X163261563Y-77334980D01*
X163141594Y-77089000D01*
X161798000Y-77089000D01*
X161798000Y-77109000D01*
X161544000Y-77109000D01*
X161544000Y-77089000D01*
X160200406Y-77089000D01*
X160080437Y-77334980D01*
X160151429Y-77553094D01*
X160295031Y-77828923D01*
X160489685Y-78071437D01*
X160674899Y-78226837D01*
X160495537Y-78374037D01*
X160297155Y-78615765D01*
X160149745Y-78891551D01*
X160058970Y-79190796D01*
X160028319Y-79502000D01*
X160058970Y-79813204D01*
X160149745Y-80112449D01*
X160297155Y-80388235D01*
X160495537Y-80629963D01*
X160737265Y-80828345D01*
X161013051Y-80975755D01*
X161312296Y-81066530D01*
X161545514Y-81089500D01*
X161796486Y-81089500D01*
X162029704Y-81066530D01*
X162328949Y-80975755D01*
X162604735Y-80828345D01*
X162846463Y-80629963D01*
X162937030Y-80519608D01*
X165816470Y-83399049D01*
X165844183Y-83432817D01*
X165877951Y-83460530D01*
X165877953Y-83460532D01*
X165949452Y-83519210D01*
X165978941Y-83543411D01*
X166132687Y-83625589D01*
X166299510Y-83676195D01*
X166429523Y-83689000D01*
X166429533Y-83689000D01*
X166472999Y-83693281D01*
X166516465Y-83689000D01*
X180923241Y-83689000D01*
X181062866Y-83859134D01*
X181092687Y-83883607D01*
X181023820Y-83904498D01*
X180913506Y-83963463D01*
X180816815Y-84042815D01*
X180737463Y-84139506D01*
X180678498Y-84249820D01*
X180642188Y-84369518D01*
X180629928Y-84494000D01*
X180629928Y-86194000D01*
X180642188Y-86318482D01*
X180678498Y-86438180D01*
X180737463Y-86548494D01*
X180816815Y-86645185D01*
X180913506Y-86724537D01*
X181023820Y-86783502D01*
X181143518Y-86819812D01*
X181233001Y-86828625D01*
X181233000Y-90888531D01*
X181228719Y-90932000D01*
X181233000Y-90975469D01*
X181233000Y-90975476D01*
X181245805Y-91105489D01*
X181296411Y-91272312D01*
X181378589Y-91426058D01*
X181489183Y-91560817D01*
X181522956Y-91588534D01*
X182884001Y-92949580D01*
X182884000Y-112790421D01*
X180146239Y-115528182D01*
X180120773Y-115290841D01*
X179965779Y-114795474D01*
X179742758Y-114378228D01*
X179375999Y-114162106D01*
X177708105Y-115830000D01*
X177722248Y-115844143D01*
X177542643Y-116023748D01*
X177528500Y-116009605D01*
X175860606Y-117677499D01*
X176076728Y-118044258D01*
X176452651Y-118241000D01*
X156915379Y-118241000D01*
X155784333Y-117109955D01*
X155756616Y-117076182D01*
X155621858Y-116965588D01*
X155468112Y-116883410D01*
X155301289Y-116832804D01*
X155263317Y-116829064D01*
X155253611Y-116730517D01*
X155217301Y-116610819D01*
X155158336Y-116500505D01*
X155078984Y-116403814D01*
X154982293Y-116324462D01*
X154871979Y-116265497D01*
X154803112Y-116244606D01*
X154832933Y-116220133D01*
X155018505Y-115994013D01*
X155093839Y-115853071D01*
X174880852Y-115853071D01*
X174936227Y-116369159D01*
X175091221Y-116864526D01*
X175314242Y-117281772D01*
X175681001Y-117497894D01*
X177348895Y-115830000D01*
X175681001Y-114162106D01*
X175314242Y-114378228D01*
X175073562Y-114838105D01*
X174927225Y-115336098D01*
X174880852Y-115853071D01*
X155093839Y-115853071D01*
X155156398Y-115736033D01*
X155241312Y-115456110D01*
X155269984Y-115164999D01*
X155241312Y-114873888D01*
X155156398Y-114593965D01*
X155018505Y-114335985D01*
X154832933Y-114109865D01*
X154677740Y-113982501D01*
X175860606Y-113982501D01*
X177528500Y-115650395D01*
X179196394Y-113982501D01*
X178980272Y-113615742D01*
X178520395Y-113375062D01*
X178022402Y-113228725D01*
X177505429Y-113182352D01*
X176989341Y-113237727D01*
X176493974Y-113392721D01*
X176076728Y-113615742D01*
X175860606Y-113982501D01*
X154677740Y-113982501D01*
X154606813Y-113924293D01*
X154552008Y-113894999D01*
X154606813Y-113865705D01*
X154832933Y-113680133D01*
X155018505Y-113454013D01*
X155156398Y-113196033D01*
X155241312Y-112916110D01*
X155269984Y-112624999D01*
X155241312Y-112333888D01*
X155156398Y-112053965D01*
X155018505Y-111795985D01*
X154832933Y-111569865D01*
X154606813Y-111384293D01*
X154552008Y-111354999D01*
X154606813Y-111325705D01*
X154832933Y-111140133D01*
X155018505Y-110914013D01*
X155156398Y-110656033D01*
X155241312Y-110376110D01*
X155269984Y-110084999D01*
X155248090Y-109862702D01*
X176415403Y-109862702D01*
X176486986Y-110106671D01*
X176742496Y-110227571D01*
X177016684Y-110296300D01*
X177299012Y-110310217D01*
X177578630Y-110268787D01*
X177844792Y-110173603D01*
X177970014Y-110106671D01*
X178041597Y-109862702D01*
X177228500Y-109049605D01*
X176415403Y-109862702D01*
X155248090Y-109862702D01*
X155241312Y-109793888D01*
X155156398Y-109513965D01*
X155018505Y-109255985D01*
X154832933Y-109029865D01*
X154724057Y-108940512D01*
X175788283Y-108940512D01*
X175829713Y-109220130D01*
X175924897Y-109486292D01*
X175991829Y-109611514D01*
X176235798Y-109683097D01*
X177048895Y-108870000D01*
X177408105Y-108870000D01*
X178221202Y-109683097D01*
X178465171Y-109611514D01*
X178586071Y-109356004D01*
X178654800Y-109081816D01*
X178668717Y-108799488D01*
X178627287Y-108519870D01*
X178532103Y-108253708D01*
X178465171Y-108128486D01*
X178221202Y-108056903D01*
X177408105Y-108870000D01*
X177048895Y-108870000D01*
X176235798Y-108056903D01*
X175991829Y-108128486D01*
X175870929Y-108383996D01*
X175802200Y-108658184D01*
X175788283Y-108940512D01*
X154724057Y-108940512D01*
X154606813Y-108844293D01*
X154552008Y-108814999D01*
X154606813Y-108785705D01*
X154832933Y-108600133D01*
X155018505Y-108374013D01*
X155156398Y-108116033D01*
X155241312Y-107836110D01*
X155269984Y-107544999D01*
X155241312Y-107253888D01*
X155210367Y-107151877D01*
X158101193Y-104261052D01*
X158129238Y-104238036D01*
X158221087Y-104126118D01*
X158289337Y-103998431D01*
X158331365Y-103859883D01*
X158342000Y-103751903D01*
X158345556Y-103715798D01*
X158342000Y-103679693D01*
X158342000Y-96990000D01*
X175790428Y-96990000D01*
X175790428Y-98590000D01*
X175802688Y-98714482D01*
X175838998Y-98834180D01*
X175897963Y-98944494D01*
X175977315Y-99041185D01*
X176074006Y-99120537D01*
X176184320Y-99179502D01*
X176304018Y-99215812D01*
X176428500Y-99228072D01*
X176694225Y-99228072D01*
X176548773Y-99288320D01*
X176313741Y-99445363D01*
X176113863Y-99645241D01*
X175956820Y-99880273D01*
X175848647Y-100141426D01*
X175793500Y-100418665D01*
X175793500Y-100701335D01*
X175848647Y-100978574D01*
X175956820Y-101239727D01*
X176113863Y-101474759D01*
X176313741Y-101674637D01*
X176548773Y-101831680D01*
X176809926Y-101939853D01*
X176835801Y-101945000D01*
X176809926Y-101950147D01*
X176548773Y-102058320D01*
X176313741Y-102215363D01*
X176113863Y-102415241D01*
X175956820Y-102650273D01*
X175848647Y-102911426D01*
X175793500Y-103188665D01*
X175793500Y-103471335D01*
X175848647Y-103748574D01*
X175956820Y-104009727D01*
X176113863Y-104244759D01*
X176313741Y-104444637D01*
X176548773Y-104601680D01*
X176809926Y-104709853D01*
X176835801Y-104715000D01*
X176809926Y-104720147D01*
X176548773Y-104828320D01*
X176313741Y-104985363D01*
X176113863Y-105185241D01*
X175956820Y-105420273D01*
X175848647Y-105681426D01*
X175793500Y-105958665D01*
X175793500Y-106241335D01*
X175848647Y-106518574D01*
X175956820Y-106779727D01*
X176113863Y-107014759D01*
X176313741Y-107214637D01*
X176548773Y-107371680D01*
X176809926Y-107479853D01*
X176838382Y-107485513D01*
X176612208Y-107566397D01*
X176486986Y-107633329D01*
X176415403Y-107877298D01*
X177228500Y-108690395D01*
X178041597Y-107877298D01*
X177970014Y-107633329D01*
X177714504Y-107512429D01*
X177612211Y-107486788D01*
X177647074Y-107479853D01*
X177908227Y-107371680D01*
X178143259Y-107214637D01*
X178343137Y-107014759D01*
X178500180Y-106779727D01*
X178608353Y-106518574D01*
X178663500Y-106241335D01*
X178663500Y-105958665D01*
X178608353Y-105681426D01*
X178500180Y-105420273D01*
X178343137Y-105185241D01*
X178143259Y-104985363D01*
X177908227Y-104828320D01*
X177647074Y-104720147D01*
X177621199Y-104715000D01*
X177647074Y-104709853D01*
X177908227Y-104601680D01*
X178143259Y-104444637D01*
X178343137Y-104244759D01*
X178500180Y-104009727D01*
X178608353Y-103748574D01*
X178663500Y-103471335D01*
X178663500Y-103188665D01*
X178608353Y-102911426D01*
X178500180Y-102650273D01*
X178343137Y-102415241D01*
X178143259Y-102215363D01*
X177908227Y-102058320D01*
X177647074Y-101950147D01*
X177621199Y-101945000D01*
X177647074Y-101939853D01*
X177908227Y-101831680D01*
X178143259Y-101674637D01*
X178343137Y-101474759D01*
X178500180Y-101239727D01*
X178608353Y-100978574D01*
X178663500Y-100701335D01*
X178663500Y-100418665D01*
X178608353Y-100141426D01*
X178500180Y-99880273D01*
X178343137Y-99645241D01*
X178143259Y-99445363D01*
X177908227Y-99288320D01*
X177762775Y-99228072D01*
X178028500Y-99228072D01*
X178152982Y-99215812D01*
X178272680Y-99179502D01*
X178382994Y-99120537D01*
X178479685Y-99041185D01*
X178485856Y-99033665D01*
X178633500Y-99033665D01*
X178633500Y-99316335D01*
X178688647Y-99593574D01*
X178796820Y-99854727D01*
X178953863Y-100089759D01*
X179153741Y-100289637D01*
X179388773Y-100446680D01*
X179649926Y-100554853D01*
X179675801Y-100560000D01*
X179649926Y-100565147D01*
X179388773Y-100673320D01*
X179153741Y-100830363D01*
X178953863Y-101030241D01*
X178796820Y-101265273D01*
X178688647Y-101526426D01*
X178633500Y-101803665D01*
X178633500Y-102086335D01*
X178688647Y-102363574D01*
X178796820Y-102624727D01*
X178953863Y-102859759D01*
X179153741Y-103059637D01*
X179388773Y-103216680D01*
X179649926Y-103324853D01*
X179675801Y-103330000D01*
X179649926Y-103335147D01*
X179388773Y-103443320D01*
X179153741Y-103600363D01*
X178953863Y-103800241D01*
X178796820Y-104035273D01*
X178688647Y-104296426D01*
X178633500Y-104573665D01*
X178633500Y-104856335D01*
X178688647Y-105133574D01*
X178796820Y-105394727D01*
X178953863Y-105629759D01*
X179153741Y-105829637D01*
X179388773Y-105986680D01*
X179649926Y-106094853D01*
X179675801Y-106100000D01*
X179649926Y-106105147D01*
X179388773Y-106213320D01*
X179153741Y-106370363D01*
X178953863Y-106570241D01*
X178796820Y-106805273D01*
X178688647Y-107066426D01*
X178633500Y-107343665D01*
X178633500Y-107626335D01*
X178688647Y-107903574D01*
X178796820Y-108164727D01*
X178953863Y-108399759D01*
X179153741Y-108599637D01*
X179388773Y-108756680D01*
X179649926Y-108864853D01*
X179927165Y-108920000D01*
X180209835Y-108920000D01*
X180487074Y-108864853D01*
X180748227Y-108756680D01*
X180983259Y-108599637D01*
X181183137Y-108399759D01*
X181340180Y-108164727D01*
X181448353Y-107903574D01*
X181503500Y-107626335D01*
X181503500Y-107343665D01*
X181448353Y-107066426D01*
X181340180Y-106805273D01*
X181183137Y-106570241D01*
X180983259Y-106370363D01*
X180748227Y-106213320D01*
X180487074Y-106105147D01*
X180461199Y-106100000D01*
X180487074Y-106094853D01*
X180748227Y-105986680D01*
X180983259Y-105829637D01*
X181183137Y-105629759D01*
X181340180Y-105394727D01*
X181448353Y-105133574D01*
X181503500Y-104856335D01*
X181503500Y-104573665D01*
X181448353Y-104296426D01*
X181340180Y-104035273D01*
X181183137Y-103800241D01*
X180983259Y-103600363D01*
X180748227Y-103443320D01*
X180487074Y-103335147D01*
X180461199Y-103330000D01*
X180487074Y-103324853D01*
X180748227Y-103216680D01*
X180983259Y-103059637D01*
X181183137Y-102859759D01*
X181340180Y-102624727D01*
X181448353Y-102363574D01*
X181503500Y-102086335D01*
X181503500Y-101803665D01*
X181448353Y-101526426D01*
X181340180Y-101265273D01*
X181183137Y-101030241D01*
X180983259Y-100830363D01*
X180748227Y-100673320D01*
X180487074Y-100565147D01*
X180461199Y-100560000D01*
X180487074Y-100554853D01*
X180748227Y-100446680D01*
X180983259Y-100289637D01*
X181183137Y-100089759D01*
X181340180Y-99854727D01*
X181448353Y-99593574D01*
X181503500Y-99316335D01*
X181503500Y-99033665D01*
X181448353Y-98756426D01*
X181340180Y-98495273D01*
X181183137Y-98260241D01*
X180983259Y-98060363D01*
X180748227Y-97903320D01*
X180487074Y-97795147D01*
X180209835Y-97740000D01*
X179927165Y-97740000D01*
X179649926Y-97795147D01*
X179388773Y-97903320D01*
X179153741Y-98060363D01*
X178953863Y-98260241D01*
X178796820Y-98495273D01*
X178688647Y-98756426D01*
X178633500Y-99033665D01*
X178485856Y-99033665D01*
X178559037Y-98944494D01*
X178618002Y-98834180D01*
X178654312Y-98714482D01*
X178666572Y-98590000D01*
X178666572Y-96990000D01*
X178654312Y-96865518D01*
X178618002Y-96745820D01*
X178559037Y-96635506D01*
X178479685Y-96538815D01*
X178382994Y-96459463D01*
X178272680Y-96400498D01*
X178152982Y-96364188D01*
X178028500Y-96351928D01*
X176428500Y-96351928D01*
X176304018Y-96364188D01*
X176184320Y-96400498D01*
X176074006Y-96459463D01*
X175977315Y-96538815D01*
X175897963Y-96635506D01*
X175838998Y-96745820D01*
X175802688Y-96865518D01*
X175790428Y-96990000D01*
X158342000Y-96990000D01*
X158342000Y-92677499D01*
X175860606Y-92677499D01*
X176076728Y-93044258D01*
X176536605Y-93284938D01*
X177034598Y-93431275D01*
X177551571Y-93477648D01*
X178067659Y-93422273D01*
X178563026Y-93267279D01*
X178980272Y-93044258D01*
X179196394Y-92677499D01*
X177528500Y-91009605D01*
X175860606Y-92677499D01*
X158342000Y-92677499D01*
X158342000Y-90853071D01*
X174880852Y-90853071D01*
X174936227Y-91369159D01*
X175091221Y-91864526D01*
X175314242Y-92281772D01*
X175681001Y-92497894D01*
X177348895Y-90830000D01*
X177708105Y-90830000D01*
X179375999Y-92497894D01*
X179742758Y-92281772D01*
X179983438Y-91821895D01*
X180129775Y-91323902D01*
X180176148Y-90806929D01*
X180120773Y-90290841D01*
X179965779Y-89795474D01*
X179742758Y-89378228D01*
X179375999Y-89162106D01*
X177708105Y-90830000D01*
X177348895Y-90830000D01*
X175681001Y-89162106D01*
X175314242Y-89378228D01*
X175073562Y-89838105D01*
X174927225Y-90336098D01*
X174880852Y-90853071D01*
X158342000Y-90853071D01*
X158342000Y-88982501D01*
X175860606Y-88982501D01*
X177528500Y-90650395D01*
X179196394Y-88982501D01*
X178980272Y-88615742D01*
X178520395Y-88375062D01*
X178022402Y-88228725D01*
X177505429Y-88182352D01*
X176989341Y-88237727D01*
X176493974Y-88392721D01*
X176076728Y-88615742D01*
X175860606Y-88982501D01*
X158342000Y-88982501D01*
X158342000Y-75234446D01*
X160032928Y-73543519D01*
X160032928Y-75374500D01*
X160045188Y-75498982D01*
X160081498Y-75618680D01*
X160140463Y-75728994D01*
X160219815Y-75825685D01*
X160316506Y-75905037D01*
X160408219Y-75954059D01*
X160295031Y-76095077D01*
X160151429Y-76370906D01*
X160080437Y-76589020D01*
X160200406Y-76835000D01*
X161544000Y-76835000D01*
X161544000Y-76815000D01*
X161798000Y-76815000D01*
X161798000Y-76835000D01*
X163141594Y-76835000D01*
X163261563Y-76589020D01*
X163190571Y-76370906D01*
X163046969Y-76095077D01*
X162933781Y-75954059D01*
X163025494Y-75905037D01*
X163122185Y-75825685D01*
X163201537Y-75728994D01*
X163260502Y-75618680D01*
X163296812Y-75498982D01*
X163309072Y-75374500D01*
X163309072Y-73506000D01*
X171778182Y-73506000D01*
X171682745Y-73684551D01*
X171682745Y-73684551D01*
G37*
X171682745Y-73684551D02*
X171591970Y-73983796D01*
X171561319Y-74295000D01*
X171591970Y-74606204D01*
X171682745Y-74905449D01*
X171830155Y-75181235D01*
X172028537Y-75422963D01*
X172207899Y-75570163D01*
X172022685Y-75725563D01*
X171828031Y-75968077D01*
X171684429Y-76243906D01*
X171613437Y-76462020D01*
X171733406Y-76708000D01*
X173077000Y-76708000D01*
X173077000Y-76688000D01*
X173331000Y-76688000D01*
X173331000Y-76708000D01*
X174674594Y-76708000D01*
X174794563Y-76462020D01*
X174723571Y-76243906D01*
X174579969Y-75968077D01*
X174385315Y-75725563D01*
X174200101Y-75570163D01*
X174379463Y-75422963D01*
X174577845Y-75181235D01*
X174578505Y-75180000D01*
X175655422Y-75180000D01*
X176534001Y-76058580D01*
X176534000Y-79585531D01*
X176529719Y-79629000D01*
X176534000Y-79672469D01*
X176534000Y-79672476D01*
X176546805Y-79802489D01*
X176597411Y-79969312D01*
X176679589Y-80123058D01*
X176790183Y-80257817D01*
X176823956Y-80285534D01*
X177397470Y-80859049D01*
X177425183Y-80892817D01*
X177458951Y-80920530D01*
X177458953Y-80920532D01*
X177559941Y-81003411D01*
X177713686Y-81085589D01*
X177880510Y-81136195D01*
X178010523Y-81149000D01*
X178010531Y-81149000D01*
X178054000Y-81153281D01*
X178097469Y-81149000D01*
X180923241Y-81149000D01*
X181062866Y-81319134D01*
X181288986Y-81504706D01*
X181343791Y-81534000D01*
X181288986Y-81563294D01*
X181062866Y-81748866D01*
X180923241Y-81919000D01*
X166839579Y-81919000D01*
X163827534Y-78906956D01*
X163799817Y-78873183D01*
X163665059Y-78762589D01*
X163511313Y-78680411D01*
X163344490Y-78629805D01*
X163214477Y-78617000D01*
X163214469Y-78617000D01*
X163171000Y-78612719D01*
X163127531Y-78617000D01*
X163045505Y-78617000D01*
X163044845Y-78615765D01*
X162886236Y-78422500D01*
X171565928Y-78422500D01*
X171565928Y-80327500D01*
X171578188Y-80451982D01*
X171614498Y-80571680D01*
X171673463Y-80681994D01*
X171752815Y-80778685D01*
X171849506Y-80858037D01*
X171959820Y-80917002D01*
X172079518Y-80953312D01*
X172204000Y-80965572D01*
X174204000Y-80965572D01*
X174328482Y-80953312D01*
X174448180Y-80917002D01*
X174558494Y-80858037D01*
X174655185Y-80778685D01*
X174734537Y-80681994D01*
X174793502Y-80571680D01*
X174829812Y-80451982D01*
X174842072Y-80327500D01*
X174842072Y-78422500D01*
X174829812Y-78298018D01*
X174793502Y-78178320D01*
X174734537Y-78068006D01*
X174655185Y-77971315D01*
X174558494Y-77891963D01*
X174466781Y-77842941D01*
X174579969Y-77701923D01*
X174723571Y-77426094D01*
X174794563Y-77207980D01*
X174674594Y-76962000D01*
X173331000Y-76962000D01*
X173331000Y-76982000D01*
X173077000Y-76982000D01*
X173077000Y-76962000D01*
X171733406Y-76962000D01*
X171613437Y-77207980D01*
X171684429Y-77426094D01*
X171828031Y-77701923D01*
X171941219Y-77842941D01*
X171849506Y-77891963D01*
X171752815Y-77971315D01*
X171673463Y-78068006D01*
X171614498Y-78178320D01*
X171578188Y-78298018D01*
X171565928Y-78422500D01*
X162886236Y-78422500D01*
X162846463Y-78374037D01*
X162667101Y-78226837D01*
X162852315Y-78071437D01*
X163046969Y-77828923D01*
X163190571Y-77553094D01*
X163261563Y-77334980D01*
X163141594Y-77089000D01*
X161798000Y-77089000D01*
X161798000Y-77109000D01*
X161544000Y-77109000D01*
X161544000Y-77089000D01*
X160200406Y-77089000D01*
X160080437Y-77334980D01*
X160151429Y-77553094D01*
X160295031Y-77828923D01*
X160489685Y-78071437D01*
X160674899Y-78226837D01*
X160495537Y-78374037D01*
X160297155Y-78615765D01*
X160149745Y-78891551D01*
X160058970Y-79190796D01*
X160028319Y-79502000D01*
X160058970Y-79813204D01*
X160149745Y-80112449D01*
X160297155Y-80388235D01*
X160495537Y-80629963D01*
X160737265Y-80828345D01*
X161013051Y-80975755D01*
X161312296Y-81066530D01*
X161545514Y-81089500D01*
X161796486Y-81089500D01*
X162029704Y-81066530D01*
X162328949Y-80975755D01*
X162604735Y-80828345D01*
X162846463Y-80629963D01*
X162937030Y-80519608D01*
X165816470Y-83399049D01*
X165844183Y-83432817D01*
X165877951Y-83460530D01*
X165877953Y-83460532D01*
X165949452Y-83519210D01*
X165978941Y-83543411D01*
X166132687Y-83625589D01*
X166299510Y-83676195D01*
X166429523Y-83689000D01*
X166429533Y-83689000D01*
X166472999Y-83693281D01*
X166516465Y-83689000D01*
X180923241Y-83689000D01*
X181062866Y-83859134D01*
X181092687Y-83883607D01*
X181023820Y-83904498D01*
X180913506Y-83963463D01*
X180816815Y-84042815D01*
X180737463Y-84139506D01*
X180678498Y-84249820D01*
X180642188Y-84369518D01*
X180629928Y-84494000D01*
X180629928Y-86194000D01*
X180642188Y-86318482D01*
X180678498Y-86438180D01*
X180737463Y-86548494D01*
X180816815Y-86645185D01*
X180913506Y-86724537D01*
X181023820Y-86783502D01*
X181143518Y-86819812D01*
X181233001Y-86828625D01*
X181233000Y-90888531D01*
X181228719Y-90932000D01*
X181233000Y-90975469D01*
X181233000Y-90975476D01*
X181245805Y-91105489D01*
X181296411Y-91272312D01*
X181378589Y-91426058D01*
X181489183Y-91560817D01*
X181522956Y-91588534D01*
X182884001Y-92949580D01*
X182884000Y-112790421D01*
X180146239Y-115528182D01*
X180120773Y-115290841D01*
X179965779Y-114795474D01*
X179742758Y-114378228D01*
X179375999Y-114162106D01*
X177708105Y-115830000D01*
X177722248Y-115844143D01*
X177542643Y-116023748D01*
X177528500Y-116009605D01*
X175860606Y-117677499D01*
X176076728Y-118044258D01*
X176452651Y-118241000D01*
X156915379Y-118241000D01*
X155784333Y-117109955D01*
X155756616Y-117076182D01*
X155621858Y-116965588D01*
X155468112Y-116883410D01*
X155301289Y-116832804D01*
X155263317Y-116829064D01*
X155253611Y-116730517D01*
X155217301Y-116610819D01*
X155158336Y-116500505D01*
X155078984Y-116403814D01*
X154982293Y-116324462D01*
X154871979Y-116265497D01*
X154803112Y-116244606D01*
X154832933Y-116220133D01*
X155018505Y-115994013D01*
X155093839Y-115853071D01*
X174880852Y-115853071D01*
X174936227Y-116369159D01*
X175091221Y-116864526D01*
X175314242Y-117281772D01*
X175681001Y-117497894D01*
X177348895Y-115830000D01*
X175681001Y-114162106D01*
X175314242Y-114378228D01*
X175073562Y-114838105D01*
X174927225Y-115336098D01*
X174880852Y-115853071D01*
X155093839Y-115853071D01*
X155156398Y-115736033D01*
X155241312Y-115456110D01*
X155269984Y-115164999D01*
X155241312Y-114873888D01*
X155156398Y-114593965D01*
X155018505Y-114335985D01*
X154832933Y-114109865D01*
X154677740Y-113982501D01*
X175860606Y-113982501D01*
X177528500Y-115650395D01*
X179196394Y-113982501D01*
X178980272Y-113615742D01*
X178520395Y-113375062D01*
X178022402Y-113228725D01*
X177505429Y-113182352D01*
X176989341Y-113237727D01*
X176493974Y-113392721D01*
X176076728Y-113615742D01*
X175860606Y-113982501D01*
X154677740Y-113982501D01*
X154606813Y-113924293D01*
X154552008Y-113894999D01*
X154606813Y-113865705D01*
X154832933Y-113680133D01*
X155018505Y-113454013D01*
X155156398Y-113196033D01*
X155241312Y-112916110D01*
X155269984Y-112624999D01*
X155241312Y-112333888D01*
X155156398Y-112053965D01*
X155018505Y-111795985D01*
X154832933Y-111569865D01*
X154606813Y-111384293D01*
X154552008Y-111354999D01*
X154606813Y-111325705D01*
X154832933Y-111140133D01*
X155018505Y-110914013D01*
X155156398Y-110656033D01*
X155241312Y-110376110D01*
X155269984Y-110084999D01*
X155248090Y-109862702D01*
X176415403Y-109862702D01*
X176486986Y-110106671D01*
X176742496Y-110227571D01*
X177016684Y-110296300D01*
X177299012Y-110310217D01*
X177578630Y-110268787D01*
X177844792Y-110173603D01*
X177970014Y-110106671D01*
X178041597Y-109862702D01*
X177228500Y-109049605D01*
X176415403Y-109862702D01*
X155248090Y-109862702D01*
X155241312Y-109793888D01*
X155156398Y-109513965D01*
X155018505Y-109255985D01*
X154832933Y-109029865D01*
X154724057Y-108940512D01*
X175788283Y-108940512D01*
X175829713Y-109220130D01*
X175924897Y-109486292D01*
X175991829Y-109611514D01*
X176235798Y-109683097D01*
X177048895Y-108870000D01*
X177408105Y-108870000D01*
X178221202Y-109683097D01*
X178465171Y-109611514D01*
X178586071Y-109356004D01*
X178654800Y-109081816D01*
X178668717Y-108799488D01*
X178627287Y-108519870D01*
X178532103Y-108253708D01*
X178465171Y-108128486D01*
X178221202Y-108056903D01*
X177408105Y-108870000D01*
X177048895Y-108870000D01*
X176235798Y-108056903D01*
X175991829Y-108128486D01*
X175870929Y-108383996D01*
X175802200Y-108658184D01*
X175788283Y-108940512D01*
X154724057Y-108940512D01*
X154606813Y-108844293D01*
X154552008Y-108814999D01*
X154606813Y-108785705D01*
X154832933Y-108600133D01*
X155018505Y-108374013D01*
X155156398Y-108116033D01*
X155241312Y-107836110D01*
X155269984Y-107544999D01*
X155241312Y-107253888D01*
X155210367Y-107151877D01*
X158101193Y-104261052D01*
X158129238Y-104238036D01*
X158221087Y-104126118D01*
X158289337Y-103998431D01*
X158331365Y-103859883D01*
X158342000Y-103751903D01*
X158345556Y-103715798D01*
X158342000Y-103679693D01*
X158342000Y-96990000D01*
X175790428Y-96990000D01*
X175790428Y-98590000D01*
X175802688Y-98714482D01*
X175838998Y-98834180D01*
X175897963Y-98944494D01*
X175977315Y-99041185D01*
X176074006Y-99120537D01*
X176184320Y-99179502D01*
X176304018Y-99215812D01*
X176428500Y-99228072D01*
X176694225Y-99228072D01*
X176548773Y-99288320D01*
X176313741Y-99445363D01*
X176113863Y-99645241D01*
X175956820Y-99880273D01*
X175848647Y-100141426D01*
X175793500Y-100418665D01*
X175793500Y-100701335D01*
X175848647Y-100978574D01*
X175956820Y-101239727D01*
X176113863Y-101474759D01*
X176313741Y-101674637D01*
X176548773Y-101831680D01*
X176809926Y-101939853D01*
X176835801Y-101945000D01*
X176809926Y-101950147D01*
X176548773Y-102058320D01*
X176313741Y-102215363D01*
X176113863Y-102415241D01*
X175956820Y-102650273D01*
X175848647Y-102911426D01*
X175793500Y-103188665D01*
X175793500Y-103471335D01*
X175848647Y-103748574D01*
X175956820Y-104009727D01*
X176113863Y-104244759D01*
X176313741Y-104444637D01*
X176548773Y-104601680D01*
X176809926Y-104709853D01*
X176835801Y-104715000D01*
X176809926Y-104720147D01*
X176548773Y-104828320D01*
X176313741Y-104985363D01*
X176113863Y-105185241D01*
X175956820Y-105420273D01*
X175848647Y-105681426D01*
X175793500Y-105958665D01*
X175793500Y-106241335D01*
X175848647Y-106518574D01*
X175956820Y-106779727D01*
X176113863Y-107014759D01*
X176313741Y-107214637D01*
X176548773Y-107371680D01*
X176809926Y-107479853D01*
X176838382Y-107485513D01*
X176612208Y-107566397D01*
X176486986Y-107633329D01*
X176415403Y-107877298D01*
X177228500Y-108690395D01*
X178041597Y-107877298D01*
X177970014Y-107633329D01*
X177714504Y-107512429D01*
X177612211Y-107486788D01*
X177647074Y-107479853D01*
X177908227Y-107371680D01*
X178143259Y-107214637D01*
X178343137Y-107014759D01*
X178500180Y-106779727D01*
X178608353Y-106518574D01*
X178663500Y-106241335D01*
X178663500Y-105958665D01*
X178608353Y-105681426D01*
X178500180Y-105420273D01*
X178343137Y-105185241D01*
X178143259Y-104985363D01*
X177908227Y-104828320D01*
X177647074Y-104720147D01*
X177621199Y-104715000D01*
X177647074Y-104709853D01*
X177908227Y-104601680D01*
X178143259Y-104444637D01*
X178343137Y-104244759D01*
X178500180Y-104009727D01*
X178608353Y-103748574D01*
X178663500Y-103471335D01*
X178663500Y-103188665D01*
X178608353Y-102911426D01*
X178500180Y-102650273D01*
X178343137Y-102415241D01*
X178143259Y-102215363D01*
X177908227Y-102058320D01*
X177647074Y-101950147D01*
X177621199Y-101945000D01*
X177647074Y-101939853D01*
X177908227Y-101831680D01*
X178143259Y-101674637D01*
X178343137Y-101474759D01*
X178500180Y-101239727D01*
X178608353Y-100978574D01*
X178663500Y-100701335D01*
X178663500Y-100418665D01*
X178608353Y-100141426D01*
X178500180Y-99880273D01*
X178343137Y-99645241D01*
X178143259Y-99445363D01*
X177908227Y-99288320D01*
X177762775Y-99228072D01*
X178028500Y-99228072D01*
X178152982Y-99215812D01*
X178272680Y-99179502D01*
X178382994Y-99120537D01*
X178479685Y-99041185D01*
X178485856Y-99033665D01*
X178633500Y-99033665D01*
X178633500Y-99316335D01*
X178688647Y-99593574D01*
X178796820Y-99854727D01*
X178953863Y-100089759D01*
X179153741Y-100289637D01*
X179388773Y-100446680D01*
X179649926Y-100554853D01*
X179675801Y-100560000D01*
X179649926Y-100565147D01*
X179388773Y-100673320D01*
X179153741Y-100830363D01*
X178953863Y-101030241D01*
X178796820Y-101265273D01*
X178688647Y-101526426D01*
X178633500Y-101803665D01*
X178633500Y-102086335D01*
X178688647Y-102363574D01*
X178796820Y-102624727D01*
X178953863Y-102859759D01*
X179153741Y-103059637D01*
X179388773Y-103216680D01*
X179649926Y-103324853D01*
X179675801Y-103330000D01*
X179649926Y-103335147D01*
X179388773Y-103443320D01*
X179153741Y-103600363D01*
X178953863Y-103800241D01*
X178796820Y-104035273D01*
X178688647Y-104296426D01*
X178633500Y-104573665D01*
X178633500Y-104856335D01*
X178688647Y-105133574D01*
X178796820Y-105394727D01*
X178953863Y-105629759D01*
X179153741Y-105829637D01*
X179388773Y-105986680D01*
X179649926Y-106094853D01*
X179675801Y-106100000D01*
X179649926Y-106105147D01*
X179388773Y-106213320D01*
X179153741Y-106370363D01*
X178953863Y-106570241D01*
X178796820Y-106805273D01*
X178688647Y-107066426D01*
X178633500Y-107343665D01*
X178633500Y-107626335D01*
X178688647Y-107903574D01*
X178796820Y-108164727D01*
X178953863Y-108399759D01*
X179153741Y-108599637D01*
X179388773Y-108756680D01*
X179649926Y-108864853D01*
X179927165Y-108920000D01*
X180209835Y-108920000D01*
X180487074Y-108864853D01*
X180748227Y-108756680D01*
X180983259Y-108599637D01*
X181183137Y-108399759D01*
X181340180Y-108164727D01*
X181448353Y-107903574D01*
X181503500Y-107626335D01*
X181503500Y-107343665D01*
X181448353Y-107066426D01*
X181340180Y-106805273D01*
X181183137Y-106570241D01*
X180983259Y-106370363D01*
X180748227Y-106213320D01*
X180487074Y-106105147D01*
X180461199Y-106100000D01*
X180487074Y-106094853D01*
X180748227Y-105986680D01*
X180983259Y-105829637D01*
X181183137Y-105629759D01*
X181340180Y-105394727D01*
X181448353Y-105133574D01*
X181503500Y-104856335D01*
X181503500Y-104573665D01*
X181448353Y-104296426D01*
X181340180Y-104035273D01*
X181183137Y-103800241D01*
X180983259Y-103600363D01*
X180748227Y-103443320D01*
X180487074Y-103335147D01*
X180461199Y-103330000D01*
X180487074Y-103324853D01*
X180748227Y-103216680D01*
X180983259Y-103059637D01*
X181183137Y-102859759D01*
X181340180Y-102624727D01*
X181448353Y-102363574D01*
X181503500Y-102086335D01*
X181503500Y-101803665D01*
X181448353Y-101526426D01*
X181340180Y-101265273D01*
X181183137Y-101030241D01*
X180983259Y-100830363D01*
X180748227Y-100673320D01*
X180487074Y-100565147D01*
X180461199Y-100560000D01*
X180487074Y-100554853D01*
X180748227Y-100446680D01*
X180983259Y-100289637D01*
X181183137Y-100089759D01*
X181340180Y-99854727D01*
X181448353Y-99593574D01*
X181503500Y-99316335D01*
X181503500Y-99033665D01*
X181448353Y-98756426D01*
X181340180Y-98495273D01*
X181183137Y-98260241D01*
X180983259Y-98060363D01*
X180748227Y-97903320D01*
X180487074Y-97795147D01*
X180209835Y-97740000D01*
X179927165Y-97740000D01*
X179649926Y-97795147D01*
X179388773Y-97903320D01*
X179153741Y-98060363D01*
X178953863Y-98260241D01*
X178796820Y-98495273D01*
X178688647Y-98756426D01*
X178633500Y-99033665D01*
X178485856Y-99033665D01*
X178559037Y-98944494D01*
X178618002Y-98834180D01*
X178654312Y-98714482D01*
X178666572Y-98590000D01*
X178666572Y-96990000D01*
X178654312Y-96865518D01*
X178618002Y-96745820D01*
X178559037Y-96635506D01*
X178479685Y-96538815D01*
X178382994Y-96459463D01*
X178272680Y-96400498D01*
X178152982Y-96364188D01*
X178028500Y-96351928D01*
X176428500Y-96351928D01*
X176304018Y-96364188D01*
X176184320Y-96400498D01*
X176074006Y-96459463D01*
X175977315Y-96538815D01*
X175897963Y-96635506D01*
X175838998Y-96745820D01*
X175802688Y-96865518D01*
X175790428Y-96990000D01*
X158342000Y-96990000D01*
X158342000Y-92677499D01*
X175860606Y-92677499D01*
X176076728Y-93044258D01*
X176536605Y-93284938D01*
X177034598Y-93431275D01*
X177551571Y-93477648D01*
X178067659Y-93422273D01*
X178563026Y-93267279D01*
X178980272Y-93044258D01*
X179196394Y-92677499D01*
X177528500Y-91009605D01*
X175860606Y-92677499D01*
X158342000Y-92677499D01*
X158342000Y-90853071D01*
X174880852Y-90853071D01*
X174936227Y-91369159D01*
X175091221Y-91864526D01*
X175314242Y-92281772D01*
X175681001Y-92497894D01*
X177348895Y-90830000D01*
X177708105Y-90830000D01*
X179375999Y-92497894D01*
X179742758Y-92281772D01*
X179983438Y-91821895D01*
X180129775Y-91323902D01*
X180176148Y-90806929D01*
X180120773Y-90290841D01*
X179965779Y-89795474D01*
X179742758Y-89378228D01*
X179375999Y-89162106D01*
X177708105Y-90830000D01*
X177348895Y-90830000D01*
X175681001Y-89162106D01*
X175314242Y-89378228D01*
X175073562Y-89838105D01*
X174927225Y-90336098D01*
X174880852Y-90853071D01*
X158342000Y-90853071D01*
X158342000Y-88982501D01*
X175860606Y-88982501D01*
X177528500Y-90650395D01*
X179196394Y-88982501D01*
X178980272Y-88615742D01*
X178520395Y-88375062D01*
X178022402Y-88228725D01*
X177505429Y-88182352D01*
X176989341Y-88237727D01*
X176493974Y-88392721D01*
X176076728Y-88615742D01*
X175860606Y-88982501D01*
X158342000Y-88982501D01*
X158342000Y-75234446D01*
X160032928Y-73543519D01*
X160032928Y-75374500D01*
X160045188Y-75498982D01*
X160081498Y-75618680D01*
X160140463Y-75728994D01*
X160219815Y-75825685D01*
X160316506Y-75905037D01*
X160408219Y-75954059D01*
X160295031Y-76095077D01*
X160151429Y-76370906D01*
X160080437Y-76589020D01*
X160200406Y-76835000D01*
X161544000Y-76835000D01*
X161544000Y-76815000D01*
X161798000Y-76815000D01*
X161798000Y-76835000D01*
X163141594Y-76835000D01*
X163261563Y-76589020D01*
X163190571Y-76370906D01*
X163046969Y-76095077D01*
X162933781Y-75954059D01*
X163025494Y-75905037D01*
X163122185Y-75825685D01*
X163201537Y-75728994D01*
X163260502Y-75618680D01*
X163296812Y-75498982D01*
X163309072Y-75374500D01*
X163309072Y-73506000D01*
X171778182Y-73506000D01*
X171682745Y-73684551D01*
M02*
