G04 #@! TF.GenerationSoftware,KiCad,Pcbnew,5.1.4+dfsg1-1*
G04 #@! TF.CreationDate,2020-03-04T00:22:41+00:00*
G04 #@! TF.ProjectId,UaElectrex_Phase1,5561456c-6563-4747-9265-785f50686173,rev?*
G04 #@! TF.SameCoordinates,Original*
G04 #@! TF.FileFunction,Soldermask,Top*
G04 #@! TF.FilePolarity,Negative*
%FSLAX46Y46*%
G04 Gerber Fmt 4.6, Leading zero omitted, Abs format (unit mm)*
G04 Created by KiCad (PCBNEW 5.1.4+dfsg1-1) date 2020-03-04 00:22:41*
%MOMM*%
%LPD*%
G04 APERTURE LIST*
%ADD10C,0.100000*%
G04 APERTURE END LIST*
D10*
G36*
X154678799Y-118605999D02*
G01*
X152876799Y-118605999D01*
X152876799Y-116803999D01*
X154678799Y-116803999D01*
X154678799Y-118605999D01*
X154678799Y-118605999D01*
G37*
G36*
X128178799Y-118605999D02*
G01*
X126376799Y-118605999D01*
X126376799Y-116803999D01*
X128178799Y-116803999D01*
X128178799Y-118605999D01*
X128178799Y-118605999D01*
G37*
G36*
X178126754Y-113857818D02*
G01*
X178500011Y-114012426D01*
X178500013Y-114012427D01*
X178835936Y-114236884D01*
X179121616Y-114522564D01*
X179319377Y-114818533D01*
X179346074Y-114858489D01*
X179500682Y-115231746D01*
X179579500Y-115627993D01*
X179579500Y-116032007D01*
X179500682Y-116428254D01*
X179428153Y-116603354D01*
X179346073Y-116801513D01*
X179121616Y-117137436D01*
X178835936Y-117423116D01*
X178500013Y-117647573D01*
X178500012Y-117647574D01*
X178500011Y-117647574D01*
X178126754Y-117802182D01*
X177730507Y-117881000D01*
X177326493Y-117881000D01*
X176930246Y-117802182D01*
X176556989Y-117647574D01*
X176556988Y-117647574D01*
X176556987Y-117647573D01*
X176221064Y-117423116D01*
X175935384Y-117137436D01*
X175710927Y-116801513D01*
X175628847Y-116603354D01*
X175556318Y-116428254D01*
X175477500Y-116032007D01*
X175477500Y-115627993D01*
X175556318Y-115231746D01*
X175710926Y-114858489D01*
X175737624Y-114818533D01*
X175935384Y-114522564D01*
X176221064Y-114236884D01*
X176556987Y-114012427D01*
X176556989Y-114012426D01*
X176930246Y-113857818D01*
X177326493Y-113779000D01*
X177730507Y-113779000D01*
X178126754Y-113857818D01*
X178126754Y-113857818D01*
G37*
G36*
X161690499Y-116445445D02*
G01*
X161727995Y-116456820D01*
X161762554Y-116475292D01*
X161792847Y-116500153D01*
X161817708Y-116530446D01*
X161836180Y-116565005D01*
X161847555Y-116602501D01*
X161852000Y-116647638D01*
X161852000Y-117286362D01*
X161847555Y-117331499D01*
X161836180Y-117368995D01*
X161817708Y-117403554D01*
X161792847Y-117433847D01*
X161762554Y-117458708D01*
X161727995Y-117477180D01*
X161690499Y-117488555D01*
X161645362Y-117493000D01*
X160906638Y-117493000D01*
X160861501Y-117488555D01*
X160824005Y-117477180D01*
X160789446Y-117458708D01*
X160759153Y-117433847D01*
X160734292Y-117403554D01*
X160715820Y-117368995D01*
X160704445Y-117331499D01*
X160700000Y-117286362D01*
X160700000Y-116647638D01*
X160704445Y-116602501D01*
X160715820Y-116565005D01*
X160734292Y-116530446D01*
X160759153Y-116500153D01*
X160789446Y-116475292D01*
X160824005Y-116456820D01*
X160861501Y-116445445D01*
X160906638Y-116441000D01*
X161645362Y-116441000D01*
X161690499Y-116445445D01*
X161690499Y-116445445D01*
G37*
G36*
X166008499Y-116445445D02*
G01*
X166045995Y-116456820D01*
X166080554Y-116475292D01*
X166110847Y-116500153D01*
X166135708Y-116530446D01*
X166154180Y-116565005D01*
X166165555Y-116602501D01*
X166170000Y-116647638D01*
X166170000Y-117286362D01*
X166165555Y-117331499D01*
X166154180Y-117368995D01*
X166135708Y-117403554D01*
X166110847Y-117433847D01*
X166080554Y-117458708D01*
X166045995Y-117477180D01*
X166008499Y-117488555D01*
X165963362Y-117493000D01*
X165224638Y-117493000D01*
X165179501Y-117488555D01*
X165142005Y-117477180D01*
X165107446Y-117458708D01*
X165077153Y-117433847D01*
X165052292Y-117403554D01*
X165033820Y-117368995D01*
X165022445Y-117331499D01*
X165018000Y-117286362D01*
X165018000Y-116647638D01*
X165022445Y-116602501D01*
X165033820Y-116565005D01*
X165052292Y-116530446D01*
X165077153Y-116500153D01*
X165107446Y-116475292D01*
X165142005Y-116456820D01*
X165179501Y-116445445D01*
X165224638Y-116441000D01*
X165963362Y-116441000D01*
X166008499Y-116445445D01*
X166008499Y-116445445D01*
G37*
G36*
X159940499Y-116445445D02*
G01*
X159977995Y-116456820D01*
X160012554Y-116475292D01*
X160042847Y-116500153D01*
X160067708Y-116530446D01*
X160086180Y-116565005D01*
X160097555Y-116602501D01*
X160102000Y-116647638D01*
X160102000Y-117286362D01*
X160097555Y-117331499D01*
X160086180Y-117368995D01*
X160067708Y-117403554D01*
X160042847Y-117433847D01*
X160012554Y-117458708D01*
X159977995Y-117477180D01*
X159940499Y-117488555D01*
X159895362Y-117493000D01*
X159156638Y-117493000D01*
X159111501Y-117488555D01*
X159074005Y-117477180D01*
X159039446Y-117458708D01*
X159009153Y-117433847D01*
X158984292Y-117403554D01*
X158965820Y-117368995D01*
X158954445Y-117331499D01*
X158950000Y-117286362D01*
X158950000Y-116647638D01*
X158954445Y-116602501D01*
X158965820Y-116565005D01*
X158984292Y-116530446D01*
X159009153Y-116500153D01*
X159039446Y-116475292D01*
X159074005Y-116456820D01*
X159111501Y-116445445D01*
X159156638Y-116441000D01*
X159895362Y-116441000D01*
X159940499Y-116445445D01*
X159940499Y-116445445D01*
G37*
G36*
X164258499Y-116445445D02*
G01*
X164295995Y-116456820D01*
X164330554Y-116475292D01*
X164360847Y-116500153D01*
X164385708Y-116530446D01*
X164404180Y-116565005D01*
X164415555Y-116602501D01*
X164420000Y-116647638D01*
X164420000Y-117286362D01*
X164415555Y-117331499D01*
X164404180Y-117368995D01*
X164385708Y-117403554D01*
X164360847Y-117433847D01*
X164330554Y-117458708D01*
X164295995Y-117477180D01*
X164258499Y-117488555D01*
X164213362Y-117493000D01*
X163474638Y-117493000D01*
X163429501Y-117488555D01*
X163392005Y-117477180D01*
X163357446Y-117458708D01*
X163327153Y-117433847D01*
X163302292Y-117403554D01*
X163283820Y-117368995D01*
X163272445Y-117331499D01*
X163268000Y-117286362D01*
X163268000Y-116647638D01*
X163272445Y-116602501D01*
X163283820Y-116565005D01*
X163302292Y-116530446D01*
X163327153Y-116500153D01*
X163357446Y-116475292D01*
X163392005Y-116456820D01*
X163429501Y-116445445D01*
X163474638Y-116441000D01*
X164213362Y-116441000D01*
X164258499Y-116445445D01*
X164258499Y-116445445D01*
G37*
G36*
X153888242Y-114270518D02*
G01*
X153954426Y-114277036D01*
X154124265Y-114328556D01*
X154280790Y-114412221D01*
X154316528Y-114441551D01*
X154417985Y-114524813D01*
X154501247Y-114626270D01*
X154530577Y-114662008D01*
X154614242Y-114818533D01*
X154665762Y-114988372D01*
X154683158Y-115164999D01*
X154665762Y-115341626D01*
X154614242Y-115511465D01*
X154530577Y-115667990D01*
X154501247Y-115703728D01*
X154417985Y-115805185D01*
X154316528Y-115888447D01*
X154280790Y-115917777D01*
X154124265Y-116001442D01*
X153954426Y-116052962D01*
X153888241Y-116059481D01*
X153822059Y-116065999D01*
X153733539Y-116065999D01*
X153667357Y-116059481D01*
X153601172Y-116052962D01*
X153431333Y-116001442D01*
X153274808Y-115917777D01*
X153239070Y-115888447D01*
X153137613Y-115805185D01*
X153054351Y-115703728D01*
X153025021Y-115667990D01*
X152941356Y-115511465D01*
X152889836Y-115341626D01*
X152872440Y-115164999D01*
X152889836Y-114988372D01*
X152941356Y-114818533D01*
X153025021Y-114662008D01*
X153054351Y-114626270D01*
X153137613Y-114524813D01*
X153239070Y-114441551D01*
X153274808Y-114412221D01*
X153431333Y-114328556D01*
X153601172Y-114277036D01*
X153667356Y-114270518D01*
X153733539Y-114263999D01*
X153822059Y-114263999D01*
X153888242Y-114270518D01*
X153888242Y-114270518D01*
G37*
G36*
X127388242Y-114270518D02*
G01*
X127454426Y-114277036D01*
X127624265Y-114328556D01*
X127780790Y-114412221D01*
X127816528Y-114441551D01*
X127917985Y-114524813D01*
X128001247Y-114626270D01*
X128030577Y-114662008D01*
X128114242Y-114818533D01*
X128165762Y-114988372D01*
X128183158Y-115164999D01*
X128165762Y-115341626D01*
X128114242Y-115511465D01*
X128030577Y-115667990D01*
X128001247Y-115703728D01*
X127917985Y-115805185D01*
X127816528Y-115888447D01*
X127780790Y-115917777D01*
X127624265Y-116001442D01*
X127454426Y-116052962D01*
X127388241Y-116059481D01*
X127322059Y-116065999D01*
X127233539Y-116065999D01*
X127167357Y-116059481D01*
X127101172Y-116052962D01*
X126931333Y-116001442D01*
X126774808Y-115917777D01*
X126739070Y-115888447D01*
X126637613Y-115805185D01*
X126554351Y-115703728D01*
X126525021Y-115667990D01*
X126441356Y-115511465D01*
X126389836Y-115341626D01*
X126372440Y-115164999D01*
X126389836Y-114988372D01*
X126441356Y-114818533D01*
X126525021Y-114662008D01*
X126554351Y-114626270D01*
X126637613Y-114524813D01*
X126739070Y-114441551D01*
X126774808Y-114412221D01*
X126931333Y-114328556D01*
X127101172Y-114277036D01*
X127167356Y-114270518D01*
X127233539Y-114263999D01*
X127322059Y-114263999D01*
X127388242Y-114270518D01*
X127388242Y-114270518D01*
G37*
G36*
X127388241Y-111730517D02*
G01*
X127454426Y-111737036D01*
X127624265Y-111788556D01*
X127780790Y-111872221D01*
X127816528Y-111901551D01*
X127917985Y-111984813D01*
X128001247Y-112086270D01*
X128030577Y-112122008D01*
X128114242Y-112278533D01*
X128165762Y-112448372D01*
X128183158Y-112624999D01*
X128165762Y-112801626D01*
X128114242Y-112971465D01*
X128030577Y-113127990D01*
X128001247Y-113163728D01*
X127917985Y-113265185D01*
X127827365Y-113339554D01*
X127780790Y-113377777D01*
X127624265Y-113461442D01*
X127454426Y-113512962D01*
X127388242Y-113519480D01*
X127322059Y-113525999D01*
X127233539Y-113525999D01*
X127167356Y-113519480D01*
X127101172Y-113512962D01*
X126931333Y-113461442D01*
X126774808Y-113377777D01*
X126728233Y-113339554D01*
X126637613Y-113265185D01*
X126554351Y-113163728D01*
X126525021Y-113127990D01*
X126441356Y-112971465D01*
X126389836Y-112801626D01*
X126372440Y-112624999D01*
X126389836Y-112448372D01*
X126441356Y-112278533D01*
X126525021Y-112122008D01*
X126554351Y-112086270D01*
X126637613Y-111984813D01*
X126739070Y-111901551D01*
X126774808Y-111872221D01*
X126931333Y-111788556D01*
X127101172Y-111737036D01*
X127167357Y-111730517D01*
X127233539Y-111723999D01*
X127322059Y-111723999D01*
X127388241Y-111730517D01*
X127388241Y-111730517D01*
G37*
G36*
X153888241Y-111730517D02*
G01*
X153954426Y-111737036D01*
X154124265Y-111788556D01*
X154280790Y-111872221D01*
X154316528Y-111901551D01*
X154417985Y-111984813D01*
X154501247Y-112086270D01*
X154530577Y-112122008D01*
X154614242Y-112278533D01*
X154665762Y-112448372D01*
X154683158Y-112624999D01*
X154665762Y-112801626D01*
X154614242Y-112971465D01*
X154530577Y-113127990D01*
X154501247Y-113163728D01*
X154417985Y-113265185D01*
X154327365Y-113339554D01*
X154280790Y-113377777D01*
X154124265Y-113461442D01*
X153954426Y-113512962D01*
X153888242Y-113519480D01*
X153822059Y-113525999D01*
X153733539Y-113525999D01*
X153667356Y-113519480D01*
X153601172Y-113512962D01*
X153431333Y-113461442D01*
X153274808Y-113377777D01*
X153228233Y-113339554D01*
X153137613Y-113265185D01*
X153054351Y-113163728D01*
X153025021Y-113127990D01*
X152941356Y-112971465D01*
X152889836Y-112801626D01*
X152872440Y-112624999D01*
X152889836Y-112448372D01*
X152941356Y-112278533D01*
X153025021Y-112122008D01*
X153054351Y-112086270D01*
X153137613Y-111984813D01*
X153239070Y-111901551D01*
X153274808Y-111872221D01*
X153431333Y-111788556D01*
X153601172Y-111737036D01*
X153667357Y-111730517D01*
X153733539Y-111723999D01*
X153822059Y-111723999D01*
X153888241Y-111730517D01*
X153888241Y-111730517D01*
G37*
G36*
X161563499Y-112381445D02*
G01*
X161600995Y-112392820D01*
X161635554Y-112411292D01*
X161665847Y-112436153D01*
X161690708Y-112466446D01*
X161709180Y-112501005D01*
X161720555Y-112538501D01*
X161725000Y-112583638D01*
X161725000Y-113222362D01*
X161720555Y-113267499D01*
X161709180Y-113304995D01*
X161690708Y-113339554D01*
X161665847Y-113369847D01*
X161635554Y-113394708D01*
X161600995Y-113413180D01*
X161563499Y-113424555D01*
X161518362Y-113429000D01*
X160779638Y-113429000D01*
X160734501Y-113424555D01*
X160697005Y-113413180D01*
X160662446Y-113394708D01*
X160632153Y-113369847D01*
X160607292Y-113339554D01*
X160588820Y-113304995D01*
X160577445Y-113267499D01*
X160573000Y-113222362D01*
X160573000Y-112583638D01*
X160577445Y-112538501D01*
X160588820Y-112501005D01*
X160607292Y-112466446D01*
X160632153Y-112436153D01*
X160662446Y-112411292D01*
X160697005Y-112392820D01*
X160734501Y-112381445D01*
X160779638Y-112377000D01*
X161518362Y-112377000D01*
X161563499Y-112381445D01*
X161563499Y-112381445D01*
G37*
G36*
X159813499Y-112381445D02*
G01*
X159850995Y-112392820D01*
X159885554Y-112411292D01*
X159915847Y-112436153D01*
X159940708Y-112466446D01*
X159959180Y-112501005D01*
X159970555Y-112538501D01*
X159975000Y-112583638D01*
X159975000Y-113222362D01*
X159970555Y-113267499D01*
X159959180Y-113304995D01*
X159940708Y-113339554D01*
X159915847Y-113369847D01*
X159885554Y-113394708D01*
X159850995Y-113413180D01*
X159813499Y-113424555D01*
X159768362Y-113429000D01*
X159029638Y-113429000D01*
X158984501Y-113424555D01*
X158947005Y-113413180D01*
X158912446Y-113394708D01*
X158882153Y-113369847D01*
X158857292Y-113339554D01*
X158838820Y-113304995D01*
X158827445Y-113267499D01*
X158823000Y-113222362D01*
X158823000Y-112583638D01*
X158827445Y-112538501D01*
X158838820Y-112501005D01*
X158857292Y-112466446D01*
X158882153Y-112436153D01*
X158912446Y-112411292D01*
X158947005Y-112392820D01*
X158984501Y-112381445D01*
X159029638Y-112377000D01*
X159768362Y-112377000D01*
X159813499Y-112381445D01*
X159813499Y-112381445D01*
G37*
G36*
X166008499Y-112381445D02*
G01*
X166045995Y-112392820D01*
X166080554Y-112411292D01*
X166110847Y-112436153D01*
X166135708Y-112466446D01*
X166154180Y-112501005D01*
X166165555Y-112538501D01*
X166170000Y-112583638D01*
X166170000Y-113222362D01*
X166165555Y-113267499D01*
X166154180Y-113304995D01*
X166135708Y-113339554D01*
X166110847Y-113369847D01*
X166080554Y-113394708D01*
X166045995Y-113413180D01*
X166008499Y-113424555D01*
X165963362Y-113429000D01*
X165224638Y-113429000D01*
X165179501Y-113424555D01*
X165142005Y-113413180D01*
X165107446Y-113394708D01*
X165077153Y-113369847D01*
X165052292Y-113339554D01*
X165033820Y-113304995D01*
X165022445Y-113267499D01*
X165018000Y-113222362D01*
X165018000Y-112583638D01*
X165022445Y-112538501D01*
X165033820Y-112501005D01*
X165052292Y-112466446D01*
X165077153Y-112436153D01*
X165107446Y-112411292D01*
X165142005Y-112392820D01*
X165179501Y-112381445D01*
X165224638Y-112377000D01*
X165963362Y-112377000D01*
X166008499Y-112381445D01*
X166008499Y-112381445D01*
G37*
G36*
X164258499Y-112381445D02*
G01*
X164295995Y-112392820D01*
X164330554Y-112411292D01*
X164360847Y-112436153D01*
X164385708Y-112466446D01*
X164404180Y-112501005D01*
X164415555Y-112538501D01*
X164420000Y-112583638D01*
X164420000Y-113222362D01*
X164415555Y-113267499D01*
X164404180Y-113304995D01*
X164385708Y-113339554D01*
X164360847Y-113369847D01*
X164330554Y-113394708D01*
X164295995Y-113413180D01*
X164258499Y-113424555D01*
X164213362Y-113429000D01*
X163474638Y-113429000D01*
X163429501Y-113424555D01*
X163392005Y-113413180D01*
X163357446Y-113394708D01*
X163327153Y-113369847D01*
X163302292Y-113339554D01*
X163283820Y-113304995D01*
X163272445Y-113267499D01*
X163268000Y-113222362D01*
X163268000Y-112583638D01*
X163272445Y-112538501D01*
X163283820Y-112501005D01*
X163302292Y-112466446D01*
X163327153Y-112436153D01*
X163357446Y-112411292D01*
X163392005Y-112392820D01*
X163429501Y-112381445D01*
X163474638Y-112377000D01*
X164213362Y-112377000D01*
X164258499Y-112381445D01*
X164258499Y-112381445D01*
G37*
G36*
X127388241Y-109190517D02*
G01*
X127454426Y-109197036D01*
X127624265Y-109248556D01*
X127780790Y-109332221D01*
X127816528Y-109361551D01*
X127917985Y-109444813D01*
X127988728Y-109531015D01*
X128030577Y-109582008D01*
X128114242Y-109738533D01*
X128165762Y-109908372D01*
X128183158Y-110084999D01*
X128165762Y-110261626D01*
X128114242Y-110431465D01*
X128030577Y-110587990D01*
X128001247Y-110623728D01*
X127917985Y-110725185D01*
X127816528Y-110808447D01*
X127780790Y-110837777D01*
X127624265Y-110921442D01*
X127454426Y-110972962D01*
X127388242Y-110979480D01*
X127322059Y-110985999D01*
X127233539Y-110985999D01*
X127167356Y-110979480D01*
X127101172Y-110972962D01*
X126931333Y-110921442D01*
X126774808Y-110837777D01*
X126739070Y-110808447D01*
X126637613Y-110725185D01*
X126554351Y-110623728D01*
X126525021Y-110587990D01*
X126441356Y-110431465D01*
X126389836Y-110261626D01*
X126372440Y-110084999D01*
X126389836Y-109908372D01*
X126441356Y-109738533D01*
X126525021Y-109582008D01*
X126566870Y-109531015D01*
X126637613Y-109444813D01*
X126739070Y-109361551D01*
X126774808Y-109332221D01*
X126931333Y-109248556D01*
X127101172Y-109197036D01*
X127167357Y-109190517D01*
X127233539Y-109183999D01*
X127322059Y-109183999D01*
X127388241Y-109190517D01*
X127388241Y-109190517D01*
G37*
G36*
X153888241Y-109190517D02*
G01*
X153954426Y-109197036D01*
X154124265Y-109248556D01*
X154280790Y-109332221D01*
X154316528Y-109361551D01*
X154417985Y-109444813D01*
X154488728Y-109531015D01*
X154530577Y-109582008D01*
X154614242Y-109738533D01*
X154665762Y-109908372D01*
X154683158Y-110084999D01*
X154665762Y-110261626D01*
X154614242Y-110431465D01*
X154530577Y-110587990D01*
X154501247Y-110623728D01*
X154417985Y-110725185D01*
X154316528Y-110808447D01*
X154280790Y-110837777D01*
X154124265Y-110921442D01*
X153954426Y-110972962D01*
X153888242Y-110979480D01*
X153822059Y-110985999D01*
X153733539Y-110985999D01*
X153667356Y-110979480D01*
X153601172Y-110972962D01*
X153431333Y-110921442D01*
X153274808Y-110837777D01*
X153239070Y-110808447D01*
X153137613Y-110725185D01*
X153054351Y-110623728D01*
X153025021Y-110587990D01*
X152941356Y-110431465D01*
X152889836Y-110261626D01*
X152872440Y-110084999D01*
X152889836Y-109908372D01*
X152941356Y-109738533D01*
X153025021Y-109582008D01*
X153066870Y-109531015D01*
X153137613Y-109444813D01*
X153239070Y-109361551D01*
X153274808Y-109332221D01*
X153431333Y-109248556D01*
X153601172Y-109197036D01*
X153667357Y-109190517D01*
X153733539Y-109183999D01*
X153822059Y-109183999D01*
X153888241Y-109190517D01*
X153888241Y-109190517D01*
G37*
G36*
X177476728Y-108051703D02*
G01*
X177631600Y-108115853D01*
X177770981Y-108208985D01*
X177889515Y-108327519D01*
X177982647Y-108466900D01*
X178046797Y-108621772D01*
X178079500Y-108786184D01*
X178079500Y-108953816D01*
X178046797Y-109118228D01*
X177982647Y-109273100D01*
X177889515Y-109412481D01*
X177770981Y-109531015D01*
X177631600Y-109624147D01*
X177476728Y-109688297D01*
X177312316Y-109721000D01*
X177144684Y-109721000D01*
X176980272Y-109688297D01*
X176825400Y-109624147D01*
X176686019Y-109531015D01*
X176567485Y-109412481D01*
X176474353Y-109273100D01*
X176410203Y-109118228D01*
X176377500Y-108953816D01*
X176377500Y-108786184D01*
X176410203Y-108621772D01*
X176474353Y-108466900D01*
X176567485Y-108327519D01*
X176686019Y-108208985D01*
X176825400Y-108115853D01*
X176980272Y-108051703D01*
X177144684Y-108019000D01*
X177312316Y-108019000D01*
X177476728Y-108051703D01*
X177476728Y-108051703D01*
G37*
G36*
X127388241Y-106650517D02*
G01*
X127454426Y-106657036D01*
X127624265Y-106708556D01*
X127780790Y-106792221D01*
X127816528Y-106821551D01*
X127917985Y-106904813D01*
X128001247Y-107006270D01*
X128030577Y-107042008D01*
X128114242Y-107198533D01*
X128165762Y-107368372D01*
X128183158Y-107544999D01*
X128165762Y-107721626D01*
X128114242Y-107891465D01*
X128030577Y-108047990D01*
X128027528Y-108051705D01*
X127917985Y-108185185D01*
X127816528Y-108268447D01*
X127780790Y-108297777D01*
X127624265Y-108381442D01*
X127454426Y-108432962D01*
X127388241Y-108439481D01*
X127322059Y-108445999D01*
X127233539Y-108445999D01*
X127167357Y-108439481D01*
X127101172Y-108432962D01*
X126931333Y-108381442D01*
X126774808Y-108297777D01*
X126739070Y-108268447D01*
X126637613Y-108185185D01*
X126528070Y-108051705D01*
X126525021Y-108047990D01*
X126441356Y-107891465D01*
X126389836Y-107721626D01*
X126372440Y-107544999D01*
X126389836Y-107368372D01*
X126441356Y-107198533D01*
X126525021Y-107042008D01*
X126554351Y-107006270D01*
X126637613Y-106904813D01*
X126739070Y-106821551D01*
X126774808Y-106792221D01*
X126931333Y-106708556D01*
X127101172Y-106657036D01*
X127167357Y-106650517D01*
X127233539Y-106643999D01*
X127322059Y-106643999D01*
X127388241Y-106650517D01*
X127388241Y-106650517D01*
G37*
G36*
X153888241Y-106650517D02*
G01*
X153954426Y-106657036D01*
X154124265Y-106708556D01*
X154280790Y-106792221D01*
X154316528Y-106821551D01*
X154417985Y-106904813D01*
X154501247Y-107006270D01*
X154530577Y-107042008D01*
X154614242Y-107198533D01*
X154665762Y-107368372D01*
X154683158Y-107544999D01*
X154665762Y-107721626D01*
X154614242Y-107891465D01*
X154530577Y-108047990D01*
X154527528Y-108051705D01*
X154417985Y-108185185D01*
X154316528Y-108268447D01*
X154280790Y-108297777D01*
X154124265Y-108381442D01*
X153954426Y-108432962D01*
X153888241Y-108439481D01*
X153822059Y-108445999D01*
X153733539Y-108445999D01*
X153667357Y-108439481D01*
X153601172Y-108432962D01*
X153431333Y-108381442D01*
X153274808Y-108297777D01*
X153239070Y-108268447D01*
X153137613Y-108185185D01*
X153028070Y-108051705D01*
X153025021Y-108047990D01*
X152941356Y-107891465D01*
X152889836Y-107721626D01*
X152872440Y-107544999D01*
X152889836Y-107368372D01*
X152941356Y-107198533D01*
X153025021Y-107042008D01*
X153054351Y-107006270D01*
X153137613Y-106904813D01*
X153239070Y-106821551D01*
X153274808Y-106792221D01*
X153431333Y-106708556D01*
X153601172Y-106657036D01*
X153667357Y-106650517D01*
X153733539Y-106643999D01*
X153822059Y-106643999D01*
X153888241Y-106650517D01*
X153888241Y-106650517D01*
G37*
G36*
X180316728Y-106666703D02*
G01*
X180471600Y-106730853D01*
X180610981Y-106823985D01*
X180729515Y-106942519D01*
X180822647Y-107081900D01*
X180886797Y-107236772D01*
X180919500Y-107401184D01*
X180919500Y-107568816D01*
X180886797Y-107733228D01*
X180822647Y-107888100D01*
X180729515Y-108027481D01*
X180610981Y-108146015D01*
X180471600Y-108239147D01*
X180316728Y-108303297D01*
X180152316Y-108336000D01*
X179984684Y-108336000D01*
X179820272Y-108303297D01*
X179665400Y-108239147D01*
X179526019Y-108146015D01*
X179407485Y-108027481D01*
X179314353Y-107888100D01*
X179250203Y-107733228D01*
X179217500Y-107568816D01*
X179217500Y-107401184D01*
X179250203Y-107236772D01*
X179314353Y-107081900D01*
X179407485Y-106942519D01*
X179526019Y-106823985D01*
X179665400Y-106730853D01*
X179820272Y-106666703D01*
X179984684Y-106634000D01*
X180152316Y-106634000D01*
X180316728Y-106666703D01*
X180316728Y-106666703D01*
G37*
G36*
X177476728Y-105281703D02*
G01*
X177631600Y-105345853D01*
X177770981Y-105438985D01*
X177889515Y-105557519D01*
X177982647Y-105696900D01*
X178046797Y-105851772D01*
X178079500Y-106016184D01*
X178079500Y-106183816D01*
X178046797Y-106348228D01*
X177982647Y-106503100D01*
X177889515Y-106642481D01*
X177770981Y-106761015D01*
X177631600Y-106854147D01*
X177476728Y-106918297D01*
X177312316Y-106951000D01*
X177144684Y-106951000D01*
X176980272Y-106918297D01*
X176825400Y-106854147D01*
X176686019Y-106761015D01*
X176567485Y-106642481D01*
X176474353Y-106503100D01*
X176410203Y-106348228D01*
X176377500Y-106183816D01*
X176377500Y-106016184D01*
X176410203Y-105851772D01*
X176474353Y-105696900D01*
X176567485Y-105557519D01*
X176686019Y-105438985D01*
X176825400Y-105345853D01*
X176980272Y-105281703D01*
X177144684Y-105249000D01*
X177312316Y-105249000D01*
X177476728Y-105281703D01*
X177476728Y-105281703D01*
G37*
G36*
X127388242Y-104110518D02*
G01*
X127454426Y-104117036D01*
X127624265Y-104168556D01*
X127780790Y-104252221D01*
X127792949Y-104262200D01*
X127917985Y-104364813D01*
X128001247Y-104466270D01*
X128030577Y-104502008D01*
X128114242Y-104658533D01*
X128165762Y-104828372D01*
X128183158Y-105004999D01*
X128165762Y-105181626D01*
X128114242Y-105351465D01*
X128030577Y-105507990D01*
X128009808Y-105533297D01*
X127917985Y-105645185D01*
X127816528Y-105728447D01*
X127780790Y-105757777D01*
X127624265Y-105841442D01*
X127454426Y-105892962D01*
X127388241Y-105899481D01*
X127322059Y-105905999D01*
X127233539Y-105905999D01*
X127167357Y-105899481D01*
X127101172Y-105892962D01*
X126931333Y-105841442D01*
X126774808Y-105757777D01*
X126739070Y-105728447D01*
X126637613Y-105645185D01*
X126545790Y-105533297D01*
X126525021Y-105507990D01*
X126441356Y-105351465D01*
X126389836Y-105181626D01*
X126372440Y-105004999D01*
X126389836Y-104828372D01*
X126441356Y-104658533D01*
X126525021Y-104502008D01*
X126554351Y-104466270D01*
X126637613Y-104364813D01*
X126762649Y-104262200D01*
X126774808Y-104252221D01*
X126931333Y-104168556D01*
X127101172Y-104117036D01*
X127167356Y-104110518D01*
X127233539Y-104103999D01*
X127322059Y-104103999D01*
X127388242Y-104110518D01*
X127388242Y-104110518D01*
G37*
G36*
X153888242Y-104110518D02*
G01*
X153954426Y-104117036D01*
X154124265Y-104168556D01*
X154280790Y-104252221D01*
X154292949Y-104262200D01*
X154417985Y-104364813D01*
X154501247Y-104466270D01*
X154530577Y-104502008D01*
X154614242Y-104658533D01*
X154665762Y-104828372D01*
X154683158Y-105004999D01*
X154665762Y-105181626D01*
X154614242Y-105351465D01*
X154530577Y-105507990D01*
X154509808Y-105533297D01*
X154417985Y-105645185D01*
X154316528Y-105728447D01*
X154280790Y-105757777D01*
X154124265Y-105841442D01*
X153954426Y-105892962D01*
X153888241Y-105899481D01*
X153822059Y-105905999D01*
X153733539Y-105905999D01*
X153667357Y-105899481D01*
X153601172Y-105892962D01*
X153431333Y-105841442D01*
X153274808Y-105757777D01*
X153239070Y-105728447D01*
X153137613Y-105645185D01*
X153045790Y-105533297D01*
X153025021Y-105507990D01*
X152941356Y-105351465D01*
X152889836Y-105181626D01*
X152872440Y-105004999D01*
X152889836Y-104828372D01*
X152941356Y-104658533D01*
X153025021Y-104502008D01*
X153054351Y-104466270D01*
X153137613Y-104364813D01*
X153262649Y-104262200D01*
X153274808Y-104252221D01*
X153431333Y-104168556D01*
X153601172Y-104117036D01*
X153667356Y-104110518D01*
X153733539Y-104103999D01*
X153822059Y-104103999D01*
X153888242Y-104110518D01*
X153888242Y-104110518D01*
G37*
G36*
X180316728Y-103896703D02*
G01*
X180471600Y-103960853D01*
X180610981Y-104053985D01*
X180729515Y-104172519D01*
X180822647Y-104311900D01*
X180886797Y-104466772D01*
X180919500Y-104631184D01*
X180919500Y-104798816D01*
X180886797Y-104963228D01*
X180822647Y-105118100D01*
X180729515Y-105257481D01*
X180610981Y-105376015D01*
X180471600Y-105469147D01*
X180316728Y-105533297D01*
X180152316Y-105566000D01*
X179984684Y-105566000D01*
X179820272Y-105533297D01*
X179665400Y-105469147D01*
X179526019Y-105376015D01*
X179407485Y-105257481D01*
X179314353Y-105118100D01*
X179250203Y-104963228D01*
X179217500Y-104798816D01*
X179217500Y-104631184D01*
X179250203Y-104466772D01*
X179314353Y-104311900D01*
X179407485Y-104172519D01*
X179526019Y-104053985D01*
X179665400Y-103960853D01*
X179820272Y-103896703D01*
X179984684Y-103864000D01*
X180152316Y-103864000D01*
X180316728Y-103896703D01*
X180316728Y-103896703D01*
G37*
G36*
X163825200Y-104262200D02*
G01*
X163072800Y-104262200D01*
X163072800Y-102559800D01*
X163825200Y-102559800D01*
X163825200Y-104262200D01*
X163825200Y-104262200D01*
G37*
G36*
X165095200Y-104262200D02*
G01*
X164342800Y-104262200D01*
X164342800Y-102559800D01*
X165095200Y-102559800D01*
X165095200Y-104262200D01*
X165095200Y-104262200D01*
G37*
G36*
X166365200Y-104262200D02*
G01*
X165612800Y-104262200D01*
X165612800Y-102559800D01*
X166365200Y-102559800D01*
X166365200Y-104262200D01*
X166365200Y-104262200D01*
G37*
G36*
X167635200Y-104262200D02*
G01*
X166882800Y-104262200D01*
X166882800Y-102559800D01*
X167635200Y-102559800D01*
X167635200Y-104262200D01*
X167635200Y-104262200D01*
G37*
G36*
X177476728Y-102511703D02*
G01*
X177631600Y-102575853D01*
X177770981Y-102668985D01*
X177889515Y-102787519D01*
X177982647Y-102926900D01*
X178046797Y-103081772D01*
X178079500Y-103246184D01*
X178079500Y-103413816D01*
X178046797Y-103578228D01*
X177982647Y-103733100D01*
X177889515Y-103872481D01*
X177770981Y-103991015D01*
X177631600Y-104084147D01*
X177476728Y-104148297D01*
X177312316Y-104181000D01*
X177144684Y-104181000D01*
X176980272Y-104148297D01*
X176825400Y-104084147D01*
X176686019Y-103991015D01*
X176567485Y-103872481D01*
X176474353Y-103733100D01*
X176410203Y-103578228D01*
X176377500Y-103413816D01*
X176377500Y-103246184D01*
X176410203Y-103081772D01*
X176474353Y-102926900D01*
X176567485Y-102787519D01*
X176686019Y-102668985D01*
X176825400Y-102575853D01*
X176980272Y-102511703D01*
X177144684Y-102479000D01*
X177312316Y-102479000D01*
X177476728Y-102511703D01*
X177476728Y-102511703D01*
G37*
G36*
X147463000Y-103624000D02*
G01*
X146161000Y-103624000D01*
X146161000Y-102622000D01*
X147463000Y-102622000D01*
X147463000Y-103624000D01*
X147463000Y-103624000D01*
G37*
G36*
X127388242Y-101570518D02*
G01*
X127454426Y-101577036D01*
X127624265Y-101628556D01*
X127780790Y-101712221D01*
X127816528Y-101741551D01*
X127917985Y-101824813D01*
X128001247Y-101926270D01*
X128030577Y-101962008D01*
X128114242Y-102118533D01*
X128165762Y-102288372D01*
X128183158Y-102464999D01*
X128165762Y-102641626D01*
X128114242Y-102811465D01*
X128030577Y-102967990D01*
X128001247Y-103003728D01*
X127917985Y-103105185D01*
X127816528Y-103188447D01*
X127780790Y-103217777D01*
X127624265Y-103301442D01*
X127454426Y-103352962D01*
X127388242Y-103359480D01*
X127322059Y-103365999D01*
X127233539Y-103365999D01*
X127167356Y-103359480D01*
X127101172Y-103352962D01*
X126931333Y-103301442D01*
X126774808Y-103217777D01*
X126739070Y-103188447D01*
X126637613Y-103105185D01*
X126554351Y-103003728D01*
X126525021Y-102967990D01*
X126441356Y-102811465D01*
X126389836Y-102641626D01*
X126372440Y-102464999D01*
X126389836Y-102288372D01*
X126441356Y-102118533D01*
X126525021Y-101962008D01*
X126554351Y-101926270D01*
X126637613Y-101824813D01*
X126739070Y-101741551D01*
X126774808Y-101712221D01*
X126931333Y-101628556D01*
X127101172Y-101577036D01*
X127167357Y-101570517D01*
X127233539Y-101563999D01*
X127322059Y-101563999D01*
X127388242Y-101570518D01*
X127388242Y-101570518D01*
G37*
G36*
X153888242Y-101570518D02*
G01*
X153954426Y-101577036D01*
X154124265Y-101628556D01*
X154280790Y-101712221D01*
X154316528Y-101741551D01*
X154417985Y-101824813D01*
X154501247Y-101926270D01*
X154530577Y-101962008D01*
X154614242Y-102118533D01*
X154665762Y-102288372D01*
X154683158Y-102464999D01*
X154665762Y-102641626D01*
X154614242Y-102811465D01*
X154530577Y-102967990D01*
X154501247Y-103003728D01*
X154417985Y-103105185D01*
X154316528Y-103188447D01*
X154280790Y-103217777D01*
X154124265Y-103301442D01*
X153954426Y-103352962D01*
X153888242Y-103359480D01*
X153822059Y-103365999D01*
X153733539Y-103365999D01*
X153667356Y-103359480D01*
X153601172Y-103352962D01*
X153431333Y-103301442D01*
X153274808Y-103217777D01*
X153239070Y-103188447D01*
X153137613Y-103105185D01*
X153054351Y-103003728D01*
X153025021Y-102967990D01*
X152941356Y-102811465D01*
X152889836Y-102641626D01*
X152872440Y-102464999D01*
X152889836Y-102288372D01*
X152941356Y-102118533D01*
X153025021Y-101962008D01*
X153054351Y-101926270D01*
X153137613Y-101824813D01*
X153239070Y-101741551D01*
X153274808Y-101712221D01*
X153431333Y-101628556D01*
X153601172Y-101577036D01*
X153667357Y-101570517D01*
X153733539Y-101563999D01*
X153822059Y-101563999D01*
X153888242Y-101570518D01*
X153888242Y-101570518D01*
G37*
G36*
X180316728Y-101126703D02*
G01*
X180471600Y-101190853D01*
X180610981Y-101283985D01*
X180729515Y-101402519D01*
X180822647Y-101541900D01*
X180886797Y-101696772D01*
X180919500Y-101861184D01*
X180919500Y-102028816D01*
X180886797Y-102193228D01*
X180822647Y-102348100D01*
X180729515Y-102487481D01*
X180610981Y-102606015D01*
X180471600Y-102699147D01*
X180316728Y-102763297D01*
X180152316Y-102796000D01*
X179984684Y-102796000D01*
X179820272Y-102763297D01*
X179665400Y-102699147D01*
X179526019Y-102606015D01*
X179407485Y-102487481D01*
X179314353Y-102348100D01*
X179250203Y-102193228D01*
X179217500Y-102028816D01*
X179217500Y-101861184D01*
X179250203Y-101696772D01*
X179314353Y-101541900D01*
X179407485Y-101402519D01*
X179526019Y-101283985D01*
X179665400Y-101190853D01*
X179820272Y-101126703D01*
X179984684Y-101094000D01*
X180152316Y-101094000D01*
X180316728Y-101126703D01*
X180316728Y-101126703D01*
G37*
G36*
X177476728Y-99741703D02*
G01*
X177631600Y-99805853D01*
X177770981Y-99898985D01*
X177889515Y-100017519D01*
X177982647Y-100156900D01*
X178046797Y-100311772D01*
X178079500Y-100476184D01*
X178079500Y-100643816D01*
X178046797Y-100808228D01*
X177982647Y-100963100D01*
X177889515Y-101102481D01*
X177770981Y-101221015D01*
X177631600Y-101314147D01*
X177476728Y-101378297D01*
X177312316Y-101411000D01*
X177144684Y-101411000D01*
X176980272Y-101378297D01*
X176825400Y-101314147D01*
X176686019Y-101221015D01*
X176567485Y-101102481D01*
X176474353Y-100963100D01*
X176410203Y-100808228D01*
X176377500Y-100643816D01*
X176377500Y-100476184D01*
X176410203Y-100311772D01*
X176474353Y-100156900D01*
X176567485Y-100017519D01*
X176686019Y-99898985D01*
X176825400Y-99805853D01*
X176980272Y-99741703D01*
X177144684Y-99709000D01*
X177312316Y-99709000D01*
X177476728Y-99741703D01*
X177476728Y-99741703D01*
G37*
G36*
X127388242Y-99030518D02*
G01*
X127454426Y-99037036D01*
X127624265Y-99088556D01*
X127624267Y-99088557D01*
X127702527Y-99130388D01*
X127780790Y-99172221D01*
X127816528Y-99201551D01*
X127917985Y-99284813D01*
X128001247Y-99386270D01*
X128030577Y-99422008D01*
X128114242Y-99578533D01*
X128165762Y-99748372D01*
X128183158Y-99924999D01*
X128165762Y-100101626D01*
X128114242Y-100271465D01*
X128030577Y-100427990D01*
X128001247Y-100463728D01*
X127917985Y-100565185D01*
X127822173Y-100643815D01*
X127780790Y-100677777D01*
X127624265Y-100761442D01*
X127454426Y-100812962D01*
X127388242Y-100819480D01*
X127322059Y-100825999D01*
X127233539Y-100825999D01*
X127167356Y-100819480D01*
X127101172Y-100812962D01*
X126931333Y-100761442D01*
X126774808Y-100677777D01*
X126733425Y-100643815D01*
X126637613Y-100565185D01*
X126554351Y-100463728D01*
X126525021Y-100427990D01*
X126441356Y-100271465D01*
X126389836Y-100101626D01*
X126372440Y-99924999D01*
X126389836Y-99748372D01*
X126441356Y-99578533D01*
X126525021Y-99422008D01*
X126554351Y-99386270D01*
X126637613Y-99284813D01*
X126739070Y-99201551D01*
X126774808Y-99172221D01*
X126853071Y-99130388D01*
X126931331Y-99088557D01*
X126931333Y-99088556D01*
X127101172Y-99037036D01*
X127167357Y-99030517D01*
X127233539Y-99023999D01*
X127322059Y-99023999D01*
X127388242Y-99030518D01*
X127388242Y-99030518D01*
G37*
G36*
X153888242Y-99030518D02*
G01*
X153954426Y-99037036D01*
X154124265Y-99088556D01*
X154124267Y-99088557D01*
X154202527Y-99130388D01*
X154280790Y-99172221D01*
X154316528Y-99201551D01*
X154417985Y-99284813D01*
X154501247Y-99386270D01*
X154530577Y-99422008D01*
X154614242Y-99578533D01*
X154665762Y-99748372D01*
X154683158Y-99924999D01*
X154665762Y-100101626D01*
X154614242Y-100271465D01*
X154530577Y-100427990D01*
X154501247Y-100463728D01*
X154417985Y-100565185D01*
X154322173Y-100643815D01*
X154280790Y-100677777D01*
X154124265Y-100761442D01*
X153954426Y-100812962D01*
X153888242Y-100819480D01*
X153822059Y-100825999D01*
X153733539Y-100825999D01*
X153667356Y-100819480D01*
X153601172Y-100812962D01*
X153431333Y-100761442D01*
X153274808Y-100677777D01*
X153233425Y-100643815D01*
X153137613Y-100565185D01*
X153054351Y-100463728D01*
X153025021Y-100427990D01*
X152941356Y-100271465D01*
X152889836Y-100101626D01*
X152872440Y-99924999D01*
X152889836Y-99748372D01*
X152941356Y-99578533D01*
X153025021Y-99422008D01*
X153054351Y-99386270D01*
X153137613Y-99284813D01*
X153239070Y-99201551D01*
X153274808Y-99172221D01*
X153353071Y-99130388D01*
X153431331Y-99088557D01*
X153431333Y-99088556D01*
X153601172Y-99037036D01*
X153667357Y-99030517D01*
X153733539Y-99023999D01*
X153822059Y-99023999D01*
X153888242Y-99030518D01*
X153888242Y-99030518D01*
G37*
G36*
X147463000Y-100324000D02*
G01*
X146161000Y-100324000D01*
X146161000Y-99322000D01*
X147463000Y-99322000D01*
X147463000Y-100324000D01*
X147463000Y-100324000D01*
G37*
G36*
X180316728Y-98356703D02*
G01*
X180471600Y-98420853D01*
X180610981Y-98513985D01*
X180729515Y-98632519D01*
X180822647Y-98771900D01*
X180886797Y-98926772D01*
X180919500Y-99091184D01*
X180919500Y-99258816D01*
X180886797Y-99423228D01*
X180822647Y-99578100D01*
X180729515Y-99717481D01*
X180610981Y-99836015D01*
X180471600Y-99929147D01*
X180316728Y-99993297D01*
X180152316Y-100026000D01*
X179984684Y-100026000D01*
X179820272Y-99993297D01*
X179665400Y-99929147D01*
X179526019Y-99836015D01*
X179407485Y-99717481D01*
X179314353Y-99578100D01*
X179250203Y-99423228D01*
X179217500Y-99258816D01*
X179217500Y-99091184D01*
X179250203Y-98926772D01*
X179314353Y-98771900D01*
X179407485Y-98632519D01*
X179526019Y-98513985D01*
X179665400Y-98420853D01*
X179820272Y-98356703D01*
X179984684Y-98324000D01*
X180152316Y-98324000D01*
X180316728Y-98356703D01*
X180316728Y-98356703D01*
G37*
G36*
X166365200Y-98862200D02*
G01*
X165612800Y-98862200D01*
X165612800Y-97159800D01*
X166365200Y-97159800D01*
X166365200Y-98862200D01*
X166365200Y-98862200D01*
G37*
G36*
X165095200Y-98862200D02*
G01*
X164342800Y-98862200D01*
X164342800Y-97159800D01*
X165095200Y-97159800D01*
X165095200Y-98862200D01*
X165095200Y-98862200D01*
G37*
G36*
X167635200Y-98862200D02*
G01*
X166882800Y-98862200D01*
X166882800Y-97159800D01*
X167635200Y-97159800D01*
X167635200Y-98862200D01*
X167635200Y-98862200D01*
G37*
G36*
X163825200Y-98862200D02*
G01*
X163072800Y-98862200D01*
X163072800Y-97159800D01*
X163825200Y-97159800D01*
X163825200Y-98862200D01*
X163825200Y-98862200D01*
G37*
G36*
X178079500Y-98641000D02*
G01*
X176377500Y-98641000D01*
X176377500Y-96939000D01*
X178079500Y-96939000D01*
X178079500Y-98641000D01*
X178079500Y-98641000D01*
G37*
G36*
X153888241Y-96490517D02*
G01*
X153954426Y-96497036D01*
X154124265Y-96548556D01*
X154280790Y-96632221D01*
X154316528Y-96661551D01*
X154417985Y-96744813D01*
X154467378Y-96805000D01*
X154530577Y-96882008D01*
X154614242Y-97038533D01*
X154665762Y-97208372D01*
X154683158Y-97384999D01*
X154665762Y-97561626D01*
X154614242Y-97731465D01*
X154530577Y-97887990D01*
X154501247Y-97923728D01*
X154417985Y-98025185D01*
X154316528Y-98108447D01*
X154280790Y-98137777D01*
X154124265Y-98221442D01*
X153954426Y-98272962D01*
X153888241Y-98279481D01*
X153822059Y-98285999D01*
X153733539Y-98285999D01*
X153667357Y-98279481D01*
X153601172Y-98272962D01*
X153431333Y-98221442D01*
X153274808Y-98137777D01*
X153239070Y-98108447D01*
X153137613Y-98025185D01*
X153054351Y-97923728D01*
X153025021Y-97887990D01*
X152941356Y-97731465D01*
X152889836Y-97561626D01*
X152872440Y-97384999D01*
X152889836Y-97208372D01*
X152941356Y-97038533D01*
X153025021Y-96882008D01*
X153088220Y-96805000D01*
X153137613Y-96744813D01*
X153239070Y-96661551D01*
X153274808Y-96632221D01*
X153431333Y-96548556D01*
X153601172Y-96497036D01*
X153667357Y-96490517D01*
X153733539Y-96483999D01*
X153822059Y-96483999D01*
X153888241Y-96490517D01*
X153888241Y-96490517D01*
G37*
G36*
X127388241Y-96490517D02*
G01*
X127454426Y-96497036D01*
X127624265Y-96548556D01*
X127780790Y-96632221D01*
X127816528Y-96661551D01*
X127917985Y-96744813D01*
X127967378Y-96805000D01*
X128030577Y-96882008D01*
X128114242Y-97038533D01*
X128165762Y-97208372D01*
X128183158Y-97384999D01*
X128165762Y-97561626D01*
X128114242Y-97731465D01*
X128030577Y-97887990D01*
X128001247Y-97923728D01*
X127917985Y-98025185D01*
X127816528Y-98108447D01*
X127780790Y-98137777D01*
X127624265Y-98221442D01*
X127454426Y-98272962D01*
X127388241Y-98279481D01*
X127322059Y-98285999D01*
X127233539Y-98285999D01*
X127167357Y-98279481D01*
X127101172Y-98272962D01*
X126931333Y-98221442D01*
X126774808Y-98137777D01*
X126739070Y-98108447D01*
X126637613Y-98025185D01*
X126554351Y-97923728D01*
X126525021Y-97887990D01*
X126441356Y-97731465D01*
X126389836Y-97561626D01*
X126372440Y-97384999D01*
X126389836Y-97208372D01*
X126441356Y-97038533D01*
X126525021Y-96882008D01*
X126588220Y-96805000D01*
X126637613Y-96744813D01*
X126739070Y-96661551D01*
X126774808Y-96632221D01*
X126931333Y-96548556D01*
X127101172Y-96497036D01*
X127167357Y-96490517D01*
X127233539Y-96483999D01*
X127322059Y-96483999D01*
X127388241Y-96490517D01*
X127388241Y-96490517D01*
G37*
G36*
X147176499Y-95920445D02*
G01*
X147213995Y-95931820D01*
X147248554Y-95950292D01*
X147278847Y-95975153D01*
X147303708Y-96005446D01*
X147322180Y-96040005D01*
X147333555Y-96077501D01*
X147338000Y-96122638D01*
X147338000Y-96861362D01*
X147333555Y-96906499D01*
X147322180Y-96943995D01*
X147303708Y-96978554D01*
X147278847Y-97008847D01*
X147248554Y-97033708D01*
X147213995Y-97052180D01*
X147176499Y-97063555D01*
X147131362Y-97068000D01*
X146492638Y-97068000D01*
X146447501Y-97063555D01*
X146410005Y-97052180D01*
X146375446Y-97033708D01*
X146345153Y-97008847D01*
X146320292Y-96978554D01*
X146301820Y-96943995D01*
X146290445Y-96906499D01*
X146286000Y-96861362D01*
X146286000Y-96122638D01*
X146290445Y-96077501D01*
X146301820Y-96040005D01*
X146320292Y-96005446D01*
X146345153Y-95975153D01*
X146375446Y-95950292D01*
X146410005Y-95931820D01*
X146447501Y-95920445D01*
X146492638Y-95916000D01*
X147131362Y-95916000D01*
X147176499Y-95920445D01*
X147176499Y-95920445D01*
G37*
G36*
X153888242Y-93950518D02*
G01*
X153954426Y-93957036D01*
X154124265Y-94008556D01*
X154280790Y-94092221D01*
X154316528Y-94121551D01*
X154417985Y-94204813D01*
X154482056Y-94282885D01*
X154530577Y-94342008D01*
X154614242Y-94498533D01*
X154665762Y-94668372D01*
X154683158Y-94844999D01*
X154665762Y-95021626D01*
X154614242Y-95191465D01*
X154530577Y-95347990D01*
X154501247Y-95383728D01*
X154417985Y-95485185D01*
X154316528Y-95568447D01*
X154280790Y-95597777D01*
X154124265Y-95681442D01*
X153954426Y-95732962D01*
X153888241Y-95739481D01*
X153822059Y-95745999D01*
X153733539Y-95745999D01*
X153667357Y-95739481D01*
X153601172Y-95732962D01*
X153431333Y-95681442D01*
X153274808Y-95597777D01*
X153239070Y-95568447D01*
X153137613Y-95485185D01*
X153054351Y-95383728D01*
X153025021Y-95347990D01*
X152941356Y-95191465D01*
X152889836Y-95021626D01*
X152872440Y-94844999D01*
X152889836Y-94668372D01*
X152941356Y-94498533D01*
X153025021Y-94342008D01*
X153073542Y-94282885D01*
X153137613Y-94204813D01*
X153239070Y-94121551D01*
X153274808Y-94092221D01*
X153431333Y-94008556D01*
X153601172Y-93957036D01*
X153667356Y-93950518D01*
X153733539Y-93943999D01*
X153822059Y-93943999D01*
X153888242Y-93950518D01*
X153888242Y-93950518D01*
G37*
G36*
X127388242Y-93950518D02*
G01*
X127454426Y-93957036D01*
X127624265Y-94008556D01*
X127780790Y-94092221D01*
X127816528Y-94121551D01*
X127917985Y-94204813D01*
X127982056Y-94282885D01*
X128030577Y-94342008D01*
X128114242Y-94498533D01*
X128165762Y-94668372D01*
X128183158Y-94844999D01*
X128165762Y-95021626D01*
X128114242Y-95191465D01*
X128030577Y-95347990D01*
X128001247Y-95383728D01*
X127917985Y-95485185D01*
X127816528Y-95568447D01*
X127780790Y-95597777D01*
X127624265Y-95681442D01*
X127454426Y-95732962D01*
X127388241Y-95739481D01*
X127322059Y-95745999D01*
X127233539Y-95745999D01*
X127167357Y-95739481D01*
X127101172Y-95732962D01*
X126931333Y-95681442D01*
X126774808Y-95597777D01*
X126739070Y-95568447D01*
X126637613Y-95485185D01*
X126554351Y-95383728D01*
X126525021Y-95347990D01*
X126441356Y-95191465D01*
X126389836Y-95021626D01*
X126372440Y-94844999D01*
X126389836Y-94668372D01*
X126441356Y-94498533D01*
X126525021Y-94342008D01*
X126573542Y-94282885D01*
X126637613Y-94204813D01*
X126739070Y-94121551D01*
X126774808Y-94092221D01*
X126931333Y-94008556D01*
X127101172Y-93957036D01*
X127167356Y-93950518D01*
X127233539Y-93943999D01*
X127322059Y-93943999D01*
X127388242Y-93950518D01*
X127388242Y-93950518D01*
G37*
G36*
X147176499Y-94170445D02*
G01*
X147213995Y-94181820D01*
X147248554Y-94200292D01*
X147278847Y-94225153D01*
X147303708Y-94255446D01*
X147322180Y-94290005D01*
X147333555Y-94327501D01*
X147338000Y-94372638D01*
X147338000Y-95111362D01*
X147333555Y-95156499D01*
X147322180Y-95193995D01*
X147303708Y-95228554D01*
X147278847Y-95258847D01*
X147248554Y-95283708D01*
X147213995Y-95302180D01*
X147176499Y-95313555D01*
X147131362Y-95318000D01*
X146492638Y-95318000D01*
X146447501Y-95313555D01*
X146410005Y-95302180D01*
X146375446Y-95283708D01*
X146345153Y-95258847D01*
X146320292Y-95228554D01*
X146301820Y-95193995D01*
X146290445Y-95156499D01*
X146286000Y-95111362D01*
X146286000Y-94372638D01*
X146290445Y-94327501D01*
X146301820Y-94290005D01*
X146320292Y-94255446D01*
X146345153Y-94225153D01*
X146375446Y-94200292D01*
X146410005Y-94181820D01*
X146447501Y-94170445D01*
X146492638Y-94166000D01*
X147131362Y-94166000D01*
X147176499Y-94170445D01*
X147176499Y-94170445D01*
G37*
G36*
X127388241Y-91410517D02*
G01*
X127454426Y-91417036D01*
X127624265Y-91468556D01*
X127780790Y-91552221D01*
X127816528Y-91581551D01*
X127917985Y-91664813D01*
X128001247Y-91766270D01*
X128030577Y-91802008D01*
X128114242Y-91958533D01*
X128165762Y-92128372D01*
X128183158Y-92304999D01*
X128165762Y-92481626D01*
X128114242Y-92651465D01*
X128030577Y-92807990D01*
X128001247Y-92843728D01*
X127917985Y-92945185D01*
X127816528Y-93028447D01*
X127780790Y-93057777D01*
X127624265Y-93141442D01*
X127454426Y-93192962D01*
X127388242Y-93199480D01*
X127322059Y-93205999D01*
X127233539Y-93205999D01*
X127167356Y-93199480D01*
X127101172Y-93192962D01*
X126931333Y-93141442D01*
X126774808Y-93057777D01*
X126739070Y-93028447D01*
X126637613Y-92945185D01*
X126554351Y-92843728D01*
X126525021Y-92807990D01*
X126441356Y-92651465D01*
X126389836Y-92481626D01*
X126372440Y-92304999D01*
X126389836Y-92128372D01*
X126441356Y-91958533D01*
X126525021Y-91802008D01*
X126554351Y-91766270D01*
X126637613Y-91664813D01*
X126739070Y-91581551D01*
X126774808Y-91552221D01*
X126931333Y-91468556D01*
X127101172Y-91417036D01*
X127167357Y-91410517D01*
X127233539Y-91403999D01*
X127322059Y-91403999D01*
X127388241Y-91410517D01*
X127388241Y-91410517D01*
G37*
G36*
X153888241Y-91410517D02*
G01*
X153954426Y-91417036D01*
X154124265Y-91468556D01*
X154280790Y-91552221D01*
X154316528Y-91581551D01*
X154417985Y-91664813D01*
X154501247Y-91766270D01*
X154530577Y-91802008D01*
X154614242Y-91958533D01*
X154665762Y-92128372D01*
X154683158Y-92304999D01*
X154665762Y-92481626D01*
X154614242Y-92651465D01*
X154530577Y-92807990D01*
X154501247Y-92843728D01*
X154417985Y-92945185D01*
X154316528Y-93028447D01*
X154280790Y-93057777D01*
X154124265Y-93141442D01*
X153954426Y-93192962D01*
X153888241Y-93199481D01*
X153822059Y-93205999D01*
X153733539Y-93205999D01*
X153667356Y-93199480D01*
X153601172Y-93192962D01*
X153431333Y-93141442D01*
X153274808Y-93057777D01*
X153239070Y-93028447D01*
X153137613Y-92945185D01*
X153054351Y-92843728D01*
X153025021Y-92807990D01*
X152941356Y-92651465D01*
X152889836Y-92481626D01*
X152872440Y-92304999D01*
X152889836Y-92128372D01*
X152941356Y-91958533D01*
X153025021Y-91802008D01*
X153054351Y-91766270D01*
X153137613Y-91664813D01*
X153239070Y-91581551D01*
X153274808Y-91552221D01*
X153431333Y-91468556D01*
X153601172Y-91417036D01*
X153667357Y-91410517D01*
X153733539Y-91403999D01*
X153822059Y-91403999D01*
X153888241Y-91410517D01*
X153888241Y-91410517D01*
G37*
G36*
X178126754Y-88857818D02*
G01*
X178499516Y-89012221D01*
X178500013Y-89012427D01*
X178835936Y-89236884D01*
X179121616Y-89522564D01*
X179346074Y-89858489D01*
X179500682Y-90231746D01*
X179579500Y-90627993D01*
X179579500Y-91032007D01*
X179500682Y-91428254D01*
X179346074Y-91801511D01*
X179346073Y-91801513D01*
X179121616Y-92137436D01*
X178835936Y-92423116D01*
X178500013Y-92647573D01*
X178500012Y-92647574D01*
X178500011Y-92647574D01*
X178126754Y-92802182D01*
X177730507Y-92881000D01*
X177326493Y-92881000D01*
X176930246Y-92802182D01*
X176556989Y-92647574D01*
X176556988Y-92647574D01*
X176556987Y-92647573D01*
X176221064Y-92423116D01*
X175935384Y-92137436D01*
X175710927Y-91801513D01*
X175710926Y-91801511D01*
X175556318Y-91428254D01*
X175477500Y-91032007D01*
X175477500Y-90627993D01*
X175556318Y-90231746D01*
X175710926Y-89858489D01*
X175935384Y-89522564D01*
X176221064Y-89236884D01*
X176556987Y-89012427D01*
X176557484Y-89012221D01*
X176930246Y-88857818D01*
X177326493Y-88779000D01*
X177730507Y-88779000D01*
X178126754Y-88857818D01*
X178126754Y-88857818D01*
G37*
G36*
X127388242Y-88870518D02*
G01*
X127454426Y-88877036D01*
X127624265Y-88928556D01*
X127780790Y-89012221D01*
X127816528Y-89041551D01*
X127917985Y-89124813D01*
X128001247Y-89226270D01*
X128030577Y-89262008D01*
X128114242Y-89418533D01*
X128165762Y-89588372D01*
X128183158Y-89764999D01*
X128165762Y-89941626D01*
X128114242Y-90111465D01*
X128030577Y-90267990D01*
X128001247Y-90303728D01*
X127917985Y-90405185D01*
X127816528Y-90488447D01*
X127780790Y-90517777D01*
X127624265Y-90601442D01*
X127454426Y-90652962D01*
X127388242Y-90659480D01*
X127322059Y-90665999D01*
X127233539Y-90665999D01*
X127167356Y-90659480D01*
X127101172Y-90652962D01*
X126931333Y-90601442D01*
X126774808Y-90517777D01*
X126739070Y-90488447D01*
X126637613Y-90405185D01*
X126554351Y-90303728D01*
X126525021Y-90267990D01*
X126441356Y-90111465D01*
X126389836Y-89941626D01*
X126372440Y-89764999D01*
X126389836Y-89588372D01*
X126441356Y-89418533D01*
X126525021Y-89262008D01*
X126554351Y-89226270D01*
X126637613Y-89124813D01*
X126739070Y-89041551D01*
X126774808Y-89012221D01*
X126931333Y-88928556D01*
X127101172Y-88877036D01*
X127167356Y-88870518D01*
X127233539Y-88863999D01*
X127322059Y-88863999D01*
X127388242Y-88870518D01*
X127388242Y-88870518D01*
G37*
G36*
X153888242Y-88870518D02*
G01*
X153954426Y-88877036D01*
X154124265Y-88928556D01*
X154280790Y-89012221D01*
X154316528Y-89041551D01*
X154417985Y-89124813D01*
X154501247Y-89226270D01*
X154530577Y-89262008D01*
X154614242Y-89418533D01*
X154665762Y-89588372D01*
X154683158Y-89764999D01*
X154665762Y-89941626D01*
X154614242Y-90111465D01*
X154530577Y-90267990D01*
X154501247Y-90303728D01*
X154417985Y-90405185D01*
X154316528Y-90488447D01*
X154280790Y-90517777D01*
X154124265Y-90601442D01*
X153954426Y-90652962D01*
X153888242Y-90659480D01*
X153822059Y-90665999D01*
X153733539Y-90665999D01*
X153667356Y-90659480D01*
X153601172Y-90652962D01*
X153431333Y-90601442D01*
X153274808Y-90517777D01*
X153239070Y-90488447D01*
X153137613Y-90405185D01*
X153054351Y-90303728D01*
X153025021Y-90267990D01*
X152941356Y-90111465D01*
X152889836Y-89941626D01*
X152872440Y-89764999D01*
X152889836Y-89588372D01*
X152941356Y-89418533D01*
X153025021Y-89262008D01*
X153054351Y-89226270D01*
X153137613Y-89124813D01*
X153239070Y-89041551D01*
X153274808Y-89012221D01*
X153431333Y-88928556D01*
X153601172Y-88877036D01*
X153667356Y-88870518D01*
X153733539Y-88863999D01*
X153822059Y-88863999D01*
X153888242Y-88870518D01*
X153888242Y-88870518D01*
G37*
G36*
X168464000Y-90042000D02*
G01*
X166562000Y-90042000D01*
X166562000Y-87440000D01*
X168464000Y-87440000D01*
X168464000Y-90042000D01*
X168464000Y-90042000D01*
G37*
G36*
X153888241Y-86330517D02*
G01*
X153954426Y-86337036D01*
X154124265Y-86388556D01*
X154280790Y-86472221D01*
X154316528Y-86501551D01*
X154417985Y-86584813D01*
X154501247Y-86686270D01*
X154530577Y-86722008D01*
X154614242Y-86878533D01*
X154665762Y-87048372D01*
X154683158Y-87224999D01*
X154665762Y-87401626D01*
X154614242Y-87571465D01*
X154530577Y-87727990D01*
X154501247Y-87763728D01*
X154417985Y-87865185D01*
X154316528Y-87948447D01*
X154280790Y-87977777D01*
X154124265Y-88061442D01*
X153954426Y-88112962D01*
X153888241Y-88119481D01*
X153822059Y-88125999D01*
X153733539Y-88125999D01*
X153667357Y-88119481D01*
X153601172Y-88112962D01*
X153431333Y-88061442D01*
X153274808Y-87977777D01*
X153239070Y-87948447D01*
X153137613Y-87865185D01*
X153054351Y-87763728D01*
X153025021Y-87727990D01*
X152941356Y-87571465D01*
X152889836Y-87401626D01*
X152872440Y-87224999D01*
X152889836Y-87048372D01*
X152941356Y-86878533D01*
X153025021Y-86722008D01*
X153054351Y-86686270D01*
X153137613Y-86584813D01*
X153239070Y-86501551D01*
X153274808Y-86472221D01*
X153431333Y-86388556D01*
X153601172Y-86337036D01*
X153667357Y-86330517D01*
X153733539Y-86323999D01*
X153822059Y-86323999D01*
X153888241Y-86330517D01*
X153888241Y-86330517D01*
G37*
G36*
X127388241Y-86330517D02*
G01*
X127454426Y-86337036D01*
X127624265Y-86388556D01*
X127780790Y-86472221D01*
X127816528Y-86501551D01*
X127917985Y-86584813D01*
X128001247Y-86686270D01*
X128030577Y-86722008D01*
X128114242Y-86878533D01*
X128165762Y-87048372D01*
X128183158Y-87224999D01*
X128165762Y-87401626D01*
X128114242Y-87571465D01*
X128030577Y-87727990D01*
X128001247Y-87763728D01*
X127917985Y-87865185D01*
X127816528Y-87948447D01*
X127780790Y-87977777D01*
X127624265Y-88061442D01*
X127454426Y-88112962D01*
X127388241Y-88119481D01*
X127322059Y-88125999D01*
X127233539Y-88125999D01*
X127167357Y-88119481D01*
X127101172Y-88112962D01*
X126931333Y-88061442D01*
X126774808Y-87977777D01*
X126739070Y-87948447D01*
X126637613Y-87865185D01*
X126554351Y-87763728D01*
X126525021Y-87727990D01*
X126441356Y-87571465D01*
X126389836Y-87401626D01*
X126372440Y-87224999D01*
X126389836Y-87048372D01*
X126441356Y-86878533D01*
X126525021Y-86722008D01*
X126554351Y-86686270D01*
X126637613Y-86584813D01*
X126739070Y-86501551D01*
X126774808Y-86472221D01*
X126931333Y-86388556D01*
X127101172Y-86337036D01*
X127167357Y-86330517D01*
X127233539Y-86323999D01*
X127322059Y-86323999D01*
X127388241Y-86330517D01*
X127388241Y-86330517D01*
G37*
G36*
X183019000Y-86245000D02*
G01*
X181217000Y-86245000D01*
X181217000Y-84443000D01*
X183019000Y-84443000D01*
X183019000Y-86245000D01*
X183019000Y-86245000D01*
G37*
G36*
X168464000Y-86042000D02*
G01*
X166562000Y-86042000D01*
X166562000Y-83440000D01*
X168464000Y-83440000D01*
X168464000Y-86042000D01*
X168464000Y-86042000D01*
G37*
G36*
X153888241Y-83790517D02*
G01*
X153954426Y-83797036D01*
X154124265Y-83848556D01*
X154280790Y-83932221D01*
X154316528Y-83961551D01*
X154417985Y-84044813D01*
X154501247Y-84146270D01*
X154530577Y-84182008D01*
X154614242Y-84338533D01*
X154665762Y-84508372D01*
X154683158Y-84684999D01*
X154665762Y-84861626D01*
X154614242Y-85031465D01*
X154530577Y-85187990D01*
X154501247Y-85223728D01*
X154417985Y-85325185D01*
X154316528Y-85408447D01*
X154280790Y-85437777D01*
X154124265Y-85521442D01*
X153954426Y-85572962D01*
X153888241Y-85579481D01*
X153822059Y-85585999D01*
X153733539Y-85585999D01*
X153667357Y-85579481D01*
X153601172Y-85572962D01*
X153431333Y-85521442D01*
X153274808Y-85437777D01*
X153239070Y-85408447D01*
X153137613Y-85325185D01*
X153054351Y-85223728D01*
X153025021Y-85187990D01*
X152941356Y-85031465D01*
X152889836Y-84861626D01*
X152872440Y-84684999D01*
X152889836Y-84508372D01*
X152941356Y-84338533D01*
X153025021Y-84182008D01*
X153054351Y-84146270D01*
X153137613Y-84044813D01*
X153239070Y-83961551D01*
X153274808Y-83932221D01*
X153431333Y-83848556D01*
X153601172Y-83797036D01*
X153667357Y-83790517D01*
X153733539Y-83783999D01*
X153822059Y-83783999D01*
X153888241Y-83790517D01*
X153888241Y-83790517D01*
G37*
G36*
X127388241Y-83790517D02*
G01*
X127454426Y-83797036D01*
X127624265Y-83848556D01*
X127780790Y-83932221D01*
X127816528Y-83961551D01*
X127917985Y-84044813D01*
X128001247Y-84146270D01*
X128030577Y-84182008D01*
X128114242Y-84338533D01*
X128165762Y-84508372D01*
X128183158Y-84684999D01*
X128165762Y-84861626D01*
X128114242Y-85031465D01*
X128030577Y-85187990D01*
X128001247Y-85223728D01*
X127917985Y-85325185D01*
X127816528Y-85408447D01*
X127780790Y-85437777D01*
X127624265Y-85521442D01*
X127454426Y-85572962D01*
X127388241Y-85579481D01*
X127322059Y-85585999D01*
X127233539Y-85585999D01*
X127167357Y-85579481D01*
X127101172Y-85572962D01*
X126931333Y-85521442D01*
X126774808Y-85437777D01*
X126739070Y-85408447D01*
X126637613Y-85325185D01*
X126554351Y-85223728D01*
X126525021Y-85187990D01*
X126441356Y-85031465D01*
X126389836Y-84861626D01*
X126372440Y-84684999D01*
X126389836Y-84508372D01*
X126441356Y-84338533D01*
X126525021Y-84182008D01*
X126554351Y-84146270D01*
X126637613Y-84044813D01*
X126739070Y-83961551D01*
X126774808Y-83932221D01*
X126931333Y-83848556D01*
X127101172Y-83797036D01*
X127167357Y-83790517D01*
X127233539Y-83783999D01*
X127322059Y-83783999D01*
X127388241Y-83790517D01*
X127388241Y-83790517D01*
G37*
G36*
X182228442Y-81909518D02*
G01*
X182294627Y-81916037D01*
X182464466Y-81967557D01*
X182464468Y-81967558D01*
X182542728Y-82009389D01*
X182620991Y-82051222D01*
X182656729Y-82080552D01*
X182758186Y-82163814D01*
X182841448Y-82265271D01*
X182870778Y-82301009D01*
X182954443Y-82457534D01*
X183005963Y-82627373D01*
X183023359Y-82804000D01*
X183005963Y-82980627D01*
X182954443Y-83150466D01*
X182870778Y-83306991D01*
X182841448Y-83342729D01*
X182758186Y-83444186D01*
X182656729Y-83527448D01*
X182620991Y-83556778D01*
X182464466Y-83640443D01*
X182294627Y-83691963D01*
X182228442Y-83698482D01*
X182162260Y-83705000D01*
X182073740Y-83705000D01*
X182007558Y-83698482D01*
X181941373Y-83691963D01*
X181771534Y-83640443D01*
X181615009Y-83556778D01*
X181579271Y-83527448D01*
X181477814Y-83444186D01*
X181394552Y-83342729D01*
X181365222Y-83306991D01*
X181281557Y-83150466D01*
X181230037Y-82980627D01*
X181212641Y-82804000D01*
X181230037Y-82627373D01*
X181281557Y-82457534D01*
X181365222Y-82301009D01*
X181394552Y-82265271D01*
X181477814Y-82163814D01*
X181579271Y-82080552D01*
X181615009Y-82051222D01*
X181693271Y-82009390D01*
X181771532Y-81967558D01*
X181771534Y-81967557D01*
X181941373Y-81916037D01*
X182007558Y-81909518D01*
X182073740Y-81903000D01*
X182162260Y-81903000D01*
X182228442Y-81909518D01*
X182228442Y-81909518D01*
G37*
G36*
X153888241Y-81250517D02*
G01*
X153954426Y-81257036D01*
X154124265Y-81308556D01*
X154280790Y-81392221D01*
X154298798Y-81407000D01*
X154417985Y-81504813D01*
X154494555Y-81598115D01*
X154530577Y-81642008D01*
X154614242Y-81798533D01*
X154665762Y-81968372D01*
X154683158Y-82144999D01*
X154665762Y-82321626D01*
X154614242Y-82491465D01*
X154530577Y-82647990D01*
X154501247Y-82683728D01*
X154417985Y-82785185D01*
X154316528Y-82868447D01*
X154280790Y-82897777D01*
X154280788Y-82897778D01*
X154125794Y-82980625D01*
X154124265Y-82981442D01*
X153954426Y-83032962D01*
X153888242Y-83039480D01*
X153822059Y-83045999D01*
X153733539Y-83045999D01*
X153667356Y-83039480D01*
X153601172Y-83032962D01*
X153431333Y-82981442D01*
X153429805Y-82980625D01*
X153274810Y-82897778D01*
X153274808Y-82897777D01*
X153239070Y-82868447D01*
X153137613Y-82785185D01*
X153054351Y-82683728D01*
X153025021Y-82647990D01*
X152941356Y-82491465D01*
X152889836Y-82321626D01*
X152872440Y-82144999D01*
X152889836Y-81968372D01*
X152941356Y-81798533D01*
X153025021Y-81642008D01*
X153061043Y-81598115D01*
X153137613Y-81504813D01*
X153256800Y-81407000D01*
X153274808Y-81392221D01*
X153431333Y-81308556D01*
X153601172Y-81257036D01*
X153667357Y-81250517D01*
X153733539Y-81243999D01*
X153822059Y-81243999D01*
X153888241Y-81250517D01*
X153888241Y-81250517D01*
G37*
G36*
X127388241Y-81250517D02*
G01*
X127454426Y-81257036D01*
X127624265Y-81308556D01*
X127780790Y-81392221D01*
X127798798Y-81407000D01*
X127917985Y-81504813D01*
X127994555Y-81598115D01*
X128030577Y-81642008D01*
X128114242Y-81798533D01*
X128165762Y-81968372D01*
X128183158Y-82144999D01*
X128165762Y-82321626D01*
X128114242Y-82491465D01*
X128030577Y-82647990D01*
X128001247Y-82683728D01*
X127917985Y-82785185D01*
X127816528Y-82868447D01*
X127780790Y-82897777D01*
X127780788Y-82897778D01*
X127625794Y-82980625D01*
X127624265Y-82981442D01*
X127454426Y-83032962D01*
X127388242Y-83039480D01*
X127322059Y-83045999D01*
X127233539Y-83045999D01*
X127167356Y-83039480D01*
X127101172Y-83032962D01*
X126931333Y-82981442D01*
X126929805Y-82980625D01*
X126774810Y-82897778D01*
X126774808Y-82897777D01*
X126739070Y-82868447D01*
X126637613Y-82785185D01*
X126554351Y-82683728D01*
X126525021Y-82647990D01*
X126441356Y-82491465D01*
X126389836Y-82321626D01*
X126372440Y-82144999D01*
X126389836Y-81968372D01*
X126441356Y-81798533D01*
X126525021Y-81642008D01*
X126561043Y-81598115D01*
X126637613Y-81504813D01*
X126756800Y-81407000D01*
X126774808Y-81392221D01*
X126931333Y-81308556D01*
X127101172Y-81257036D01*
X127167357Y-81250517D01*
X127233539Y-81243999D01*
X127322059Y-81243999D01*
X127388241Y-81250517D01*
X127388241Y-81250517D01*
G37*
G36*
X158733499Y-80567445D02*
G01*
X158770995Y-80578820D01*
X158805554Y-80597292D01*
X158835847Y-80622153D01*
X158860708Y-80652446D01*
X158879180Y-80687005D01*
X158890555Y-80724501D01*
X158895000Y-80769638D01*
X158895000Y-81508362D01*
X158890555Y-81553499D01*
X158879180Y-81590995D01*
X158860708Y-81625554D01*
X158835847Y-81655847D01*
X158805554Y-81680708D01*
X158770995Y-81699180D01*
X158733499Y-81710555D01*
X158688362Y-81715000D01*
X158049638Y-81715000D01*
X158004501Y-81710555D01*
X157967005Y-81699180D01*
X157932446Y-81680708D01*
X157902153Y-81655847D01*
X157877292Y-81625554D01*
X157858820Y-81590995D01*
X157847445Y-81553499D01*
X157843000Y-81508362D01*
X157843000Y-80769638D01*
X157847445Y-80724501D01*
X157858820Y-80687005D01*
X157877292Y-80652446D01*
X157902153Y-80622153D01*
X157932446Y-80597292D01*
X157967005Y-80578820D01*
X158004501Y-80567445D01*
X158049638Y-80563000D01*
X158688362Y-80563000D01*
X158733499Y-80567445D01*
X158733499Y-80567445D01*
G37*
G36*
X177880674Y-80159465D02*
G01*
X177918367Y-80170899D01*
X177953103Y-80189466D01*
X177983548Y-80214452D01*
X178008534Y-80244897D01*
X178027101Y-80279633D01*
X178038535Y-80317326D01*
X178043000Y-80362661D01*
X178043000Y-81199339D01*
X178038535Y-81244674D01*
X178027101Y-81282367D01*
X178008534Y-81317103D01*
X177983548Y-81347548D01*
X177953103Y-81372534D01*
X177918367Y-81391101D01*
X177880674Y-81402535D01*
X177835339Y-81407000D01*
X176748661Y-81407000D01*
X176703326Y-81402535D01*
X176665633Y-81391101D01*
X176630897Y-81372534D01*
X176600452Y-81347548D01*
X176575466Y-81317103D01*
X176556899Y-81282367D01*
X176545465Y-81244674D01*
X176541000Y-81199339D01*
X176541000Y-80362661D01*
X176545465Y-80317326D01*
X176556899Y-80279633D01*
X176575466Y-80244897D01*
X176600452Y-80214452D01*
X176630897Y-80189466D01*
X176665633Y-80170899D01*
X176703326Y-80159465D01*
X176748661Y-80155000D01*
X177835339Y-80155000D01*
X177880674Y-80159465D01*
X177880674Y-80159465D01*
G37*
G36*
X182228442Y-79369518D02*
G01*
X182294627Y-79376037D01*
X182464466Y-79427557D01*
X182464468Y-79427558D01*
X182542728Y-79469389D01*
X182620991Y-79511222D01*
X182656729Y-79540552D01*
X182758186Y-79623814D01*
X182841448Y-79725271D01*
X182870778Y-79761009D01*
X182954443Y-79917534D01*
X183005963Y-80087373D01*
X183023359Y-80264000D01*
X183005963Y-80440627D01*
X182954443Y-80610466D01*
X182870778Y-80766991D01*
X182841448Y-80802729D01*
X182758186Y-80904186D01*
X182656729Y-80987448D01*
X182620991Y-81016778D01*
X182464466Y-81100443D01*
X182294627Y-81151963D01*
X182228443Y-81158481D01*
X182162260Y-81165000D01*
X182073740Y-81165000D01*
X182007557Y-81158481D01*
X181941373Y-81151963D01*
X181771534Y-81100443D01*
X181615009Y-81016778D01*
X181579271Y-80987448D01*
X181477814Y-80904186D01*
X181394552Y-80802729D01*
X181365222Y-80766991D01*
X181281557Y-80610466D01*
X181230037Y-80440627D01*
X181212641Y-80264000D01*
X181230037Y-80087373D01*
X181281557Y-79917534D01*
X181365222Y-79761009D01*
X181394552Y-79725271D01*
X181477814Y-79623814D01*
X181579271Y-79540552D01*
X181615009Y-79511222D01*
X181693271Y-79469390D01*
X181771532Y-79427558D01*
X181771534Y-79427557D01*
X181941373Y-79376037D01*
X182007558Y-79369518D01*
X182073740Y-79363000D01*
X182162260Y-79363000D01*
X182228442Y-79369518D01*
X182228442Y-79369518D01*
G37*
G36*
X127388242Y-78710518D02*
G01*
X127454426Y-78717036D01*
X127624265Y-78768556D01*
X127624267Y-78768557D01*
X127657534Y-78786339D01*
X127780790Y-78852221D01*
X127801682Y-78869367D01*
X127917985Y-78964813D01*
X128001247Y-79066270D01*
X128030577Y-79102008D01*
X128114242Y-79258533D01*
X128165762Y-79428372D01*
X128183158Y-79604999D01*
X128165762Y-79781626D01*
X128114242Y-79951465D01*
X128030577Y-80107990D01*
X128001247Y-80143728D01*
X127917985Y-80245185D01*
X127823145Y-80323017D01*
X127780790Y-80357777D01*
X127780788Y-80357778D01*
X127625794Y-80440625D01*
X127624265Y-80441442D01*
X127454426Y-80492962D01*
X127388241Y-80499481D01*
X127322059Y-80505999D01*
X127233539Y-80505999D01*
X127167357Y-80499481D01*
X127101172Y-80492962D01*
X126931333Y-80441442D01*
X126929805Y-80440625D01*
X126774810Y-80357778D01*
X126774808Y-80357777D01*
X126732453Y-80323017D01*
X126637613Y-80245185D01*
X126554351Y-80143728D01*
X126525021Y-80107990D01*
X126441356Y-79951465D01*
X126389836Y-79781626D01*
X126372440Y-79604999D01*
X126389836Y-79428372D01*
X126441356Y-79258533D01*
X126525021Y-79102008D01*
X126554351Y-79066270D01*
X126637613Y-78964813D01*
X126753916Y-78869367D01*
X126774808Y-78852221D01*
X126898064Y-78786339D01*
X126931331Y-78768557D01*
X126931333Y-78768556D01*
X127101172Y-78717036D01*
X127167356Y-78710518D01*
X127233539Y-78703999D01*
X127322059Y-78703999D01*
X127388242Y-78710518D01*
X127388242Y-78710518D01*
G37*
G36*
X153888242Y-78710518D02*
G01*
X153954426Y-78717036D01*
X154124265Y-78768556D01*
X154124267Y-78768557D01*
X154157534Y-78786339D01*
X154280790Y-78852221D01*
X154301682Y-78869367D01*
X154417985Y-78964813D01*
X154501247Y-79066270D01*
X154530577Y-79102008D01*
X154614242Y-79258533D01*
X154665762Y-79428372D01*
X154683158Y-79604999D01*
X154665762Y-79781626D01*
X154614242Y-79951465D01*
X154530577Y-80107990D01*
X154501247Y-80143728D01*
X154417985Y-80245185D01*
X154323145Y-80323017D01*
X154280790Y-80357777D01*
X154280788Y-80357778D01*
X154125794Y-80440625D01*
X154124265Y-80441442D01*
X153954426Y-80492962D01*
X153888241Y-80499481D01*
X153822059Y-80505999D01*
X153733539Y-80505999D01*
X153667357Y-80499481D01*
X153601172Y-80492962D01*
X153431333Y-80441442D01*
X153429805Y-80440625D01*
X153274810Y-80357778D01*
X153274808Y-80357777D01*
X153232453Y-80323017D01*
X153137613Y-80245185D01*
X153054351Y-80143728D01*
X153025021Y-80107990D01*
X152941356Y-79951465D01*
X152889836Y-79781626D01*
X152872440Y-79604999D01*
X152889836Y-79428372D01*
X152941356Y-79258533D01*
X153025021Y-79102008D01*
X153054351Y-79066270D01*
X153137613Y-78964813D01*
X153253916Y-78869367D01*
X153274808Y-78852221D01*
X153398064Y-78786339D01*
X153431331Y-78768557D01*
X153431333Y-78768556D01*
X153601172Y-78717036D01*
X153667356Y-78710518D01*
X153733539Y-78703999D01*
X153822059Y-78703999D01*
X153888242Y-78710518D01*
X153888242Y-78710518D01*
G37*
G36*
X161816936Y-78503340D02*
G01*
X161915220Y-78513020D01*
X162104381Y-78570401D01*
X162278712Y-78663583D01*
X162431515Y-78788985D01*
X162556917Y-78941788D01*
X162650099Y-79116119D01*
X162707480Y-79305280D01*
X162726855Y-79502000D01*
X162707480Y-79698720D01*
X162650099Y-79887881D01*
X162556917Y-80062212D01*
X162431515Y-80215015D01*
X162278712Y-80340417D01*
X162104381Y-80433599D01*
X161915220Y-80490980D01*
X161816936Y-80500660D01*
X161767795Y-80505500D01*
X161574205Y-80505500D01*
X161525064Y-80500660D01*
X161426780Y-80490980D01*
X161237619Y-80433599D01*
X161063288Y-80340417D01*
X160910485Y-80215015D01*
X160785083Y-80062212D01*
X160691901Y-79887881D01*
X160634520Y-79698720D01*
X160615145Y-79502000D01*
X160634520Y-79305280D01*
X160691901Y-79116119D01*
X160785083Y-78941788D01*
X160910485Y-78788985D01*
X161063288Y-78663583D01*
X161237619Y-78570401D01*
X161426780Y-78513020D01*
X161525064Y-78503340D01*
X161574205Y-78498500D01*
X161767795Y-78498500D01*
X161816936Y-78503340D01*
X161816936Y-78503340D01*
G37*
G36*
X174255000Y-80378500D02*
G01*
X172153000Y-80378500D01*
X172153000Y-78371500D01*
X174255000Y-78371500D01*
X174255000Y-80378500D01*
X174255000Y-80378500D01*
G37*
G36*
X158733499Y-78817445D02*
G01*
X158770995Y-78828820D01*
X158805554Y-78847292D01*
X158835847Y-78872153D01*
X158860708Y-78902446D01*
X158879180Y-78937005D01*
X158890555Y-78974501D01*
X158895000Y-79019638D01*
X158895000Y-79758362D01*
X158890555Y-79803499D01*
X158879180Y-79840995D01*
X158860708Y-79875554D01*
X158835847Y-79905847D01*
X158805554Y-79930708D01*
X158770995Y-79949180D01*
X158733499Y-79960555D01*
X158688362Y-79965000D01*
X158049638Y-79965000D01*
X158004501Y-79960555D01*
X157967005Y-79949180D01*
X157932446Y-79930708D01*
X157902153Y-79905847D01*
X157877292Y-79875554D01*
X157858820Y-79840995D01*
X157847445Y-79803499D01*
X157843000Y-79758362D01*
X157843000Y-79019638D01*
X157847445Y-78974501D01*
X157858820Y-78937005D01*
X157877292Y-78902446D01*
X157902153Y-78872153D01*
X157932446Y-78847292D01*
X157967005Y-78828820D01*
X158004501Y-78817445D01*
X158049638Y-78813000D01*
X158688362Y-78813000D01*
X158733499Y-78817445D01*
X158733499Y-78817445D01*
G37*
G36*
X177880674Y-78109465D02*
G01*
X177918367Y-78120899D01*
X177953103Y-78139466D01*
X177983548Y-78164452D01*
X178008534Y-78194897D01*
X178027101Y-78229633D01*
X178038535Y-78267326D01*
X178043000Y-78312661D01*
X178043000Y-79149339D01*
X178038535Y-79194674D01*
X178027101Y-79232367D01*
X178008534Y-79267103D01*
X177983548Y-79297548D01*
X177953103Y-79322534D01*
X177918367Y-79341101D01*
X177880674Y-79352535D01*
X177835339Y-79357000D01*
X176748661Y-79357000D01*
X176703326Y-79352535D01*
X176665633Y-79341101D01*
X176630897Y-79322534D01*
X176600452Y-79297548D01*
X176575466Y-79267103D01*
X176556899Y-79232367D01*
X176545465Y-79194674D01*
X176541000Y-79149339D01*
X176541000Y-78312661D01*
X176545465Y-78267326D01*
X176556899Y-78229633D01*
X176575466Y-78194897D01*
X176600452Y-78164452D01*
X176630897Y-78139466D01*
X176665633Y-78120899D01*
X176703326Y-78109465D01*
X176748661Y-78105000D01*
X177835339Y-78105000D01*
X177880674Y-78109465D01*
X177880674Y-78109465D01*
G37*
G36*
X168101674Y-77746465D02*
G01*
X168139367Y-77757899D01*
X168174103Y-77776466D01*
X168204548Y-77801452D01*
X168229534Y-77831897D01*
X168248101Y-77866633D01*
X168259535Y-77904326D01*
X168264000Y-77949661D01*
X168264000Y-78786339D01*
X168259535Y-78831674D01*
X168248101Y-78869367D01*
X168229534Y-78904103D01*
X168204548Y-78934548D01*
X168174103Y-78959534D01*
X168139367Y-78978101D01*
X168101674Y-78989535D01*
X168056339Y-78994000D01*
X166969661Y-78994000D01*
X166924326Y-78989535D01*
X166886633Y-78978101D01*
X166851897Y-78959534D01*
X166821452Y-78934548D01*
X166796466Y-78904103D01*
X166777899Y-78869367D01*
X166766465Y-78831674D01*
X166762000Y-78786339D01*
X166762000Y-77949661D01*
X166766465Y-77904326D01*
X166777899Y-77866633D01*
X166796466Y-77831897D01*
X166821452Y-77801452D01*
X166851897Y-77776466D01*
X166886633Y-77757899D01*
X166924326Y-77746465D01*
X166969661Y-77742000D01*
X168056339Y-77742000D01*
X168101674Y-77746465D01*
X168101674Y-77746465D01*
G37*
G36*
X182228443Y-76829519D02*
G01*
X182294627Y-76836037D01*
X182464466Y-76887557D01*
X182464468Y-76887558D01*
X182505582Y-76909534D01*
X182620991Y-76971222D01*
X182656729Y-77000552D01*
X182758186Y-77083814D01*
X182841448Y-77185271D01*
X182870778Y-77221009D01*
X182954443Y-77377534D01*
X183005963Y-77547373D01*
X183023359Y-77724000D01*
X183005963Y-77900627D01*
X182954443Y-78070466D01*
X182870778Y-78226991D01*
X182841448Y-78262729D01*
X182758186Y-78364186D01*
X182656729Y-78447448D01*
X182620991Y-78476778D01*
X182464466Y-78560443D01*
X182294627Y-78611963D01*
X182228442Y-78618482D01*
X182162260Y-78625000D01*
X182073740Y-78625000D01*
X182007558Y-78618482D01*
X181941373Y-78611963D01*
X181771534Y-78560443D01*
X181615009Y-78476778D01*
X181579271Y-78447448D01*
X181477814Y-78364186D01*
X181394552Y-78262729D01*
X181365222Y-78226991D01*
X181281557Y-78070466D01*
X181230037Y-77900627D01*
X181212641Y-77724000D01*
X181230037Y-77547373D01*
X181281557Y-77377534D01*
X181365222Y-77221009D01*
X181394552Y-77185271D01*
X181477814Y-77083814D01*
X181579271Y-77000552D01*
X181615009Y-76971222D01*
X181730418Y-76909534D01*
X181771532Y-76887558D01*
X181771534Y-76887557D01*
X181941373Y-76836037D01*
X182007557Y-76829519D01*
X182073740Y-76823000D01*
X182162260Y-76823000D01*
X182228443Y-76829519D01*
X182228443Y-76829519D01*
G37*
G36*
X127388242Y-76170518D02*
G01*
X127454426Y-76177036D01*
X127624265Y-76228556D01*
X127780790Y-76312221D01*
X127816528Y-76341551D01*
X127917985Y-76424813D01*
X128001247Y-76526270D01*
X128030577Y-76562008D01*
X128114242Y-76718533D01*
X128165762Y-76888372D01*
X128183158Y-77064999D01*
X128165762Y-77241626D01*
X128114242Y-77411465D01*
X128030577Y-77567990D01*
X128025670Y-77573969D01*
X127917985Y-77705185D01*
X127817233Y-77787869D01*
X127780790Y-77817777D01*
X127742020Y-77838500D01*
X127625794Y-77900625D01*
X127624265Y-77901442D01*
X127454426Y-77952962D01*
X127388241Y-77959481D01*
X127322059Y-77965999D01*
X127233539Y-77965999D01*
X127167357Y-77959481D01*
X127101172Y-77952962D01*
X126931333Y-77901442D01*
X126929805Y-77900625D01*
X126813578Y-77838500D01*
X126774808Y-77817777D01*
X126738365Y-77787869D01*
X126637613Y-77705185D01*
X126529928Y-77573969D01*
X126525021Y-77567990D01*
X126441356Y-77411465D01*
X126389836Y-77241626D01*
X126372440Y-77064999D01*
X126389836Y-76888372D01*
X126441356Y-76718533D01*
X126525021Y-76562008D01*
X126554351Y-76526270D01*
X126637613Y-76424813D01*
X126739070Y-76341551D01*
X126774808Y-76312221D01*
X126931333Y-76228556D01*
X127101172Y-76177036D01*
X127167356Y-76170518D01*
X127233539Y-76163999D01*
X127322059Y-76163999D01*
X127388242Y-76170518D01*
X127388242Y-76170518D01*
G37*
G36*
X153888242Y-76170518D02*
G01*
X153954426Y-76177036D01*
X154124265Y-76228556D01*
X154280790Y-76312221D01*
X154316528Y-76341551D01*
X154417985Y-76424813D01*
X154501247Y-76526270D01*
X154530577Y-76562008D01*
X154614242Y-76718533D01*
X154665762Y-76888372D01*
X154683158Y-77064999D01*
X154665762Y-77241626D01*
X154614242Y-77411465D01*
X154530577Y-77567990D01*
X154525670Y-77573969D01*
X154417985Y-77705185D01*
X154317233Y-77787869D01*
X154280790Y-77817777D01*
X154242020Y-77838500D01*
X154125794Y-77900625D01*
X154124265Y-77901442D01*
X153954426Y-77952962D01*
X153888241Y-77959481D01*
X153822059Y-77965999D01*
X153733539Y-77965999D01*
X153667357Y-77959481D01*
X153601172Y-77952962D01*
X153431333Y-77901442D01*
X153429805Y-77900625D01*
X153313578Y-77838500D01*
X153274808Y-77817777D01*
X153238365Y-77787869D01*
X153137613Y-77705185D01*
X153029928Y-77573969D01*
X153025021Y-77567990D01*
X152941356Y-77411465D01*
X152889836Y-77241626D01*
X152872440Y-77064999D01*
X152889836Y-76888372D01*
X152941356Y-76718533D01*
X153025021Y-76562008D01*
X153054351Y-76526270D01*
X153137613Y-76424813D01*
X153239070Y-76341551D01*
X153274808Y-76312221D01*
X153431333Y-76228556D01*
X153601172Y-76177036D01*
X153667356Y-76170518D01*
X153733539Y-76163999D01*
X153822059Y-76163999D01*
X153888242Y-76170518D01*
X153888242Y-76170518D01*
G37*
G36*
X161816936Y-75963340D02*
G01*
X161915220Y-75973020D01*
X162104381Y-76030401D01*
X162278712Y-76123583D01*
X162431515Y-76248985D01*
X162556917Y-76401788D01*
X162650099Y-76576119D01*
X162707480Y-76765280D01*
X162726855Y-76962000D01*
X162707480Y-77158720D01*
X162650099Y-77347881D01*
X162556917Y-77522212D01*
X162431515Y-77675015D01*
X162278712Y-77800417D01*
X162104381Y-77893599D01*
X161915220Y-77950980D01*
X161816936Y-77960660D01*
X161767795Y-77965500D01*
X161574205Y-77965500D01*
X161525064Y-77960660D01*
X161426780Y-77950980D01*
X161237619Y-77893599D01*
X161063288Y-77800417D01*
X160910485Y-77675015D01*
X160785083Y-77522212D01*
X160691901Y-77347881D01*
X160634520Y-77158720D01*
X160615145Y-76962000D01*
X160634520Y-76765280D01*
X160691901Y-76576119D01*
X160785083Y-76401788D01*
X160910485Y-76248985D01*
X161063288Y-76123583D01*
X161237619Y-76030401D01*
X161426780Y-75973020D01*
X161525064Y-75963340D01*
X161574205Y-75958500D01*
X161767795Y-75958500D01*
X161816936Y-75963340D01*
X161816936Y-75963340D01*
G37*
G36*
X173349936Y-75836340D02*
G01*
X173448220Y-75846020D01*
X173637381Y-75903401D01*
X173811712Y-75996583D01*
X173964515Y-76121985D01*
X174089917Y-76274788D01*
X174183099Y-76449119D01*
X174240480Y-76638280D01*
X174259855Y-76835000D01*
X174240480Y-77031720D01*
X174183099Y-77220881D01*
X174089917Y-77395212D01*
X173964515Y-77548015D01*
X173811712Y-77673417D01*
X173637381Y-77766599D01*
X173448220Y-77823980D01*
X173367836Y-77831897D01*
X173300795Y-77838500D01*
X173107205Y-77838500D01*
X173040164Y-77831897D01*
X172959780Y-77823980D01*
X172770619Y-77766599D01*
X172596288Y-77673417D01*
X172443485Y-77548015D01*
X172318083Y-77395212D01*
X172224901Y-77220881D01*
X172167520Y-77031720D01*
X172148145Y-76835000D01*
X172167520Y-76638280D01*
X172224901Y-76449119D01*
X172318083Y-76274788D01*
X172443485Y-76121985D01*
X172596288Y-75996583D01*
X172770619Y-75903401D01*
X172959780Y-75846020D01*
X173058064Y-75836340D01*
X173107205Y-75831500D01*
X173300795Y-75831500D01*
X173349936Y-75836340D01*
X173349936Y-75836340D01*
G37*
G36*
X158733499Y-76503445D02*
G01*
X158770995Y-76514820D01*
X158805554Y-76533292D01*
X158835847Y-76558153D01*
X158860708Y-76588446D01*
X158879180Y-76623005D01*
X158890555Y-76660501D01*
X158895000Y-76705638D01*
X158895000Y-77444362D01*
X158890555Y-77489499D01*
X158879180Y-77526995D01*
X158860708Y-77561554D01*
X158835847Y-77591847D01*
X158805554Y-77616708D01*
X158770995Y-77635180D01*
X158733499Y-77646555D01*
X158688362Y-77651000D01*
X158049638Y-77651000D01*
X158004501Y-77646555D01*
X157967005Y-77635180D01*
X157932446Y-77616708D01*
X157902153Y-77591847D01*
X157877292Y-77561554D01*
X157858820Y-77526995D01*
X157847445Y-77489499D01*
X157843000Y-77444362D01*
X157843000Y-76705638D01*
X157847445Y-76660501D01*
X157858820Y-76623005D01*
X157877292Y-76588446D01*
X157902153Y-76558153D01*
X157932446Y-76533292D01*
X157967005Y-76514820D01*
X158004501Y-76503445D01*
X158049638Y-76499000D01*
X158688362Y-76499000D01*
X158733499Y-76503445D01*
X158733499Y-76503445D01*
G37*
G36*
X168101674Y-75696465D02*
G01*
X168139367Y-75707899D01*
X168174103Y-75726466D01*
X168204548Y-75751452D01*
X168229534Y-75781897D01*
X168248101Y-75816633D01*
X168259535Y-75854326D01*
X168264000Y-75899661D01*
X168264000Y-76736339D01*
X168259535Y-76781674D01*
X168248101Y-76819367D01*
X168229534Y-76854103D01*
X168204548Y-76884548D01*
X168174103Y-76909534D01*
X168139367Y-76928101D01*
X168101674Y-76939535D01*
X168056339Y-76944000D01*
X166969661Y-76944000D01*
X166924326Y-76939535D01*
X166886633Y-76928101D01*
X166851897Y-76909534D01*
X166821452Y-76884548D01*
X166796466Y-76854103D01*
X166777899Y-76819367D01*
X166766465Y-76781674D01*
X166762000Y-76736339D01*
X166762000Y-75899661D01*
X166766465Y-75854326D01*
X166777899Y-75816633D01*
X166796466Y-75781897D01*
X166821452Y-75751452D01*
X166851897Y-75726466D01*
X166886633Y-75707899D01*
X166924326Y-75696465D01*
X166969661Y-75692000D01*
X168056339Y-75692000D01*
X168101674Y-75696465D01*
X168101674Y-75696465D01*
G37*
G36*
X177880674Y-75587465D02*
G01*
X177918367Y-75598899D01*
X177953103Y-75617466D01*
X177983548Y-75642452D01*
X178008534Y-75672897D01*
X178027101Y-75707633D01*
X178038535Y-75745326D01*
X178043000Y-75790661D01*
X178043000Y-76627339D01*
X178038535Y-76672674D01*
X178027101Y-76710367D01*
X178008534Y-76745103D01*
X177983548Y-76775548D01*
X177953103Y-76800534D01*
X177918367Y-76819101D01*
X177880674Y-76830535D01*
X177835339Y-76835000D01*
X176748661Y-76835000D01*
X176703326Y-76830535D01*
X176665633Y-76819101D01*
X176630897Y-76800534D01*
X176600452Y-76775548D01*
X176575466Y-76745103D01*
X176556899Y-76710367D01*
X176545465Y-76672674D01*
X176541000Y-76627339D01*
X176541000Y-75790661D01*
X176545465Y-75745326D01*
X176556899Y-75707633D01*
X176575466Y-75672897D01*
X176600452Y-75642452D01*
X176630897Y-75617466D01*
X176665633Y-75598899D01*
X176703326Y-75587465D01*
X176748661Y-75583000D01*
X177835339Y-75583000D01*
X177880674Y-75587465D01*
X177880674Y-75587465D01*
G37*
G36*
X182228442Y-74289518D02*
G01*
X182294627Y-74296037D01*
X182464466Y-74347557D01*
X182464468Y-74347558D01*
X182542729Y-74389390D01*
X182620991Y-74431222D01*
X182656729Y-74460552D01*
X182758186Y-74543814D01*
X182841448Y-74645271D01*
X182870778Y-74681009D01*
X182870779Y-74681011D01*
X182948295Y-74826031D01*
X182954443Y-74837534D01*
X183005963Y-75007373D01*
X183023359Y-75184000D01*
X183005963Y-75360627D01*
X182954443Y-75530466D01*
X182870778Y-75686991D01*
X182862375Y-75697230D01*
X182758186Y-75824186D01*
X182656729Y-75907448D01*
X182620991Y-75936778D01*
X182464466Y-76020443D01*
X182294627Y-76071963D01*
X182228443Y-76078481D01*
X182162260Y-76085000D01*
X182073740Y-76085000D01*
X182007557Y-76078481D01*
X181941373Y-76071963D01*
X181771534Y-76020443D01*
X181615009Y-75936778D01*
X181579271Y-75907448D01*
X181477814Y-75824186D01*
X181373625Y-75697230D01*
X181365222Y-75686991D01*
X181281557Y-75530466D01*
X181230037Y-75360627D01*
X181212641Y-75184000D01*
X181230037Y-75007373D01*
X181281557Y-74837534D01*
X181287706Y-74826031D01*
X181365221Y-74681011D01*
X181365222Y-74681009D01*
X181394552Y-74645271D01*
X181477814Y-74543814D01*
X181579271Y-74460552D01*
X181615009Y-74431222D01*
X181693271Y-74389390D01*
X181771532Y-74347558D01*
X181771534Y-74347557D01*
X181941373Y-74296037D01*
X182007558Y-74289518D01*
X182073740Y-74283000D01*
X182162260Y-74283000D01*
X182228442Y-74289518D01*
X182228442Y-74289518D01*
G37*
G36*
X158733499Y-74753445D02*
G01*
X158770995Y-74764820D01*
X158805554Y-74783292D01*
X158835847Y-74808153D01*
X158860708Y-74838446D01*
X158879180Y-74873005D01*
X158890555Y-74910501D01*
X158895000Y-74955638D01*
X158895000Y-75694362D01*
X158890555Y-75739499D01*
X158879180Y-75776995D01*
X158860708Y-75811554D01*
X158835847Y-75841847D01*
X158805554Y-75866708D01*
X158770995Y-75885180D01*
X158733499Y-75896555D01*
X158688362Y-75901000D01*
X158049638Y-75901000D01*
X158004501Y-75896555D01*
X157967005Y-75885180D01*
X157932446Y-75866708D01*
X157902153Y-75841847D01*
X157877292Y-75811554D01*
X157858820Y-75776995D01*
X157847445Y-75739499D01*
X157843000Y-75694362D01*
X157843000Y-74955638D01*
X157847445Y-74910501D01*
X157858820Y-74873005D01*
X157877292Y-74838446D01*
X157902153Y-74808153D01*
X157932446Y-74783292D01*
X157967005Y-74764820D01*
X158004501Y-74753445D01*
X158049638Y-74749000D01*
X158688362Y-74749000D01*
X158733499Y-74753445D01*
X158733499Y-74753445D01*
G37*
G36*
X127388241Y-73630517D02*
G01*
X127454426Y-73637036D01*
X127624265Y-73688556D01*
X127780790Y-73772221D01*
X127816528Y-73801551D01*
X127917985Y-73884813D01*
X128001247Y-73986270D01*
X128030577Y-74022008D01*
X128114242Y-74178533D01*
X128165762Y-74348372D01*
X128183158Y-74524999D01*
X128165762Y-74701626D01*
X128114242Y-74871465D01*
X128030577Y-75027990D01*
X128001247Y-75063728D01*
X127917985Y-75165185D01*
X127816528Y-75248447D01*
X127780790Y-75277777D01*
X127780788Y-75277778D01*
X127625794Y-75360625D01*
X127624265Y-75361442D01*
X127454426Y-75412962D01*
X127388241Y-75419481D01*
X127322059Y-75425999D01*
X127233539Y-75425999D01*
X127167357Y-75419481D01*
X127101172Y-75412962D01*
X126931333Y-75361442D01*
X126929805Y-75360625D01*
X126774810Y-75277778D01*
X126774808Y-75277777D01*
X126739070Y-75248447D01*
X126637613Y-75165185D01*
X126554351Y-75063728D01*
X126525021Y-75027990D01*
X126441356Y-74871465D01*
X126389836Y-74701626D01*
X126372440Y-74524999D01*
X126389836Y-74348372D01*
X126441356Y-74178533D01*
X126525021Y-74022008D01*
X126554351Y-73986270D01*
X126637613Y-73884813D01*
X126739070Y-73801551D01*
X126774808Y-73772221D01*
X126931333Y-73688556D01*
X127101172Y-73637036D01*
X127167357Y-73630517D01*
X127233539Y-73623999D01*
X127322059Y-73623999D01*
X127388241Y-73630517D01*
X127388241Y-73630517D01*
G37*
G36*
X153888241Y-73630517D02*
G01*
X153954426Y-73637036D01*
X154124265Y-73688556D01*
X154280790Y-73772221D01*
X154316528Y-73801551D01*
X154417985Y-73884813D01*
X154501247Y-73986270D01*
X154530577Y-74022008D01*
X154614242Y-74178533D01*
X154665762Y-74348372D01*
X154683158Y-74524999D01*
X154665762Y-74701626D01*
X154614242Y-74871465D01*
X154530577Y-75027990D01*
X154501247Y-75063728D01*
X154417985Y-75165185D01*
X154316528Y-75248447D01*
X154280790Y-75277777D01*
X154280788Y-75277778D01*
X154125794Y-75360625D01*
X154124265Y-75361442D01*
X153954426Y-75412962D01*
X153888241Y-75419481D01*
X153822059Y-75425999D01*
X153733539Y-75425999D01*
X153667357Y-75419481D01*
X153601172Y-75412962D01*
X153431333Y-75361442D01*
X153429805Y-75360625D01*
X153274810Y-75277778D01*
X153274808Y-75277777D01*
X153239070Y-75248447D01*
X153137613Y-75165185D01*
X153054351Y-75063728D01*
X153025021Y-75027990D01*
X152941356Y-74871465D01*
X152889836Y-74701626D01*
X152872440Y-74524999D01*
X152889836Y-74348372D01*
X152941356Y-74178533D01*
X153025021Y-74022008D01*
X153054351Y-73986270D01*
X153137613Y-73884813D01*
X153239070Y-73801551D01*
X153274808Y-73772221D01*
X153431333Y-73688556D01*
X153601172Y-73637036D01*
X153667357Y-73630517D01*
X153733539Y-73623999D01*
X153822059Y-73623999D01*
X153888241Y-73630517D01*
X153888241Y-73630517D01*
G37*
G36*
X162722000Y-75425500D02*
G01*
X160620000Y-75425500D01*
X160620000Y-73418500D01*
X162722000Y-73418500D01*
X162722000Y-75425500D01*
X162722000Y-75425500D01*
G37*
G36*
X173349936Y-73296340D02*
G01*
X173448220Y-73306020D01*
X173637381Y-73363401D01*
X173811712Y-73456583D01*
X173964515Y-73581985D01*
X174089917Y-73734788D01*
X174183099Y-73909119D01*
X174240480Y-74098280D01*
X174259855Y-74295000D01*
X174240480Y-74491720D01*
X174183099Y-74680881D01*
X174089917Y-74855212D01*
X173964515Y-75008015D01*
X173811712Y-75133417D01*
X173637381Y-75226599D01*
X173448220Y-75283980D01*
X173349936Y-75293660D01*
X173300795Y-75298500D01*
X173107205Y-75298500D01*
X173058064Y-75293660D01*
X172959780Y-75283980D01*
X172770619Y-75226599D01*
X172596288Y-75133417D01*
X172443485Y-75008015D01*
X172318083Y-74855212D01*
X172224901Y-74680881D01*
X172167520Y-74491720D01*
X172148145Y-74295000D01*
X172167520Y-74098280D01*
X172224901Y-73909119D01*
X172318083Y-73734788D01*
X172443485Y-73581985D01*
X172596288Y-73456583D01*
X172770619Y-73363401D01*
X172959780Y-73306020D01*
X173058064Y-73296340D01*
X173107205Y-73291500D01*
X173300795Y-73291500D01*
X173349936Y-73296340D01*
X173349936Y-73296340D01*
G37*
G36*
X177880674Y-73537465D02*
G01*
X177918367Y-73548899D01*
X177953103Y-73567466D01*
X177983548Y-73592452D01*
X178008534Y-73622897D01*
X178027101Y-73657633D01*
X178038535Y-73695326D01*
X178043000Y-73740661D01*
X178043000Y-74577339D01*
X178038535Y-74622674D01*
X178027101Y-74660367D01*
X178008534Y-74695103D01*
X177983548Y-74725548D01*
X177953103Y-74750534D01*
X177918367Y-74769101D01*
X177880674Y-74780535D01*
X177835339Y-74785000D01*
X176748661Y-74785000D01*
X176703326Y-74780535D01*
X176665633Y-74769101D01*
X176630897Y-74750534D01*
X176600452Y-74725548D01*
X176575466Y-74695103D01*
X176556899Y-74660367D01*
X176545465Y-74622674D01*
X176541000Y-74577339D01*
X176541000Y-73740661D01*
X176545465Y-73695326D01*
X176556899Y-73657633D01*
X176575466Y-73622897D01*
X176600452Y-73592452D01*
X176630897Y-73567466D01*
X176665633Y-73548899D01*
X176703326Y-73537465D01*
X176748661Y-73533000D01*
X177835339Y-73533000D01*
X177880674Y-73537465D01*
X177880674Y-73537465D01*
G37*
G36*
X182228442Y-71749518D02*
G01*
X182294627Y-71756037D01*
X182464466Y-71807557D01*
X182620991Y-71891222D01*
X182656729Y-71920552D01*
X182758186Y-72003814D01*
X182841448Y-72105271D01*
X182870778Y-72141009D01*
X182954443Y-72297534D01*
X183005963Y-72467373D01*
X183023359Y-72644000D01*
X183005963Y-72820627D01*
X182954443Y-72990466D01*
X182870778Y-73146991D01*
X182841448Y-73182729D01*
X182758186Y-73284186D01*
X182656729Y-73367448D01*
X182620991Y-73396778D01*
X182464466Y-73480443D01*
X182294627Y-73531963D01*
X182238763Y-73537465D01*
X182162260Y-73545000D01*
X182073740Y-73545000D01*
X181997237Y-73537465D01*
X181941373Y-73531963D01*
X181771534Y-73480443D01*
X181615009Y-73396778D01*
X181579271Y-73367448D01*
X181477814Y-73284186D01*
X181394552Y-73182729D01*
X181365222Y-73146991D01*
X181281557Y-72990466D01*
X181230037Y-72820627D01*
X181212641Y-72644000D01*
X181230037Y-72467373D01*
X181281557Y-72297534D01*
X181365222Y-72141009D01*
X181394552Y-72105271D01*
X181477814Y-72003814D01*
X181579271Y-71920552D01*
X181615009Y-71891222D01*
X181771534Y-71807557D01*
X181941373Y-71756037D01*
X182007558Y-71749518D01*
X182073740Y-71743000D01*
X182162260Y-71743000D01*
X182228442Y-71749518D01*
X182228442Y-71749518D01*
G37*
M02*
