G04 #@! TF.GenerationSoftware,KiCad,Pcbnew,5.1.4+dfsg1-1*
G04 #@! TF.CreationDate,2020-03-04T11:39:30+00:00*
G04 #@! TF.ProjectId,UaElectrex_Phase1,5561456c-6563-4747-9265-785f50686173,V0*
G04 #@! TF.SameCoordinates,Original*
G04 #@! TF.FileFunction,Legend,Top*
G04 #@! TF.FilePolarity,Positive*
%FSLAX46Y46*%
G04 Gerber Fmt 4.6, Leading zero omitted, Abs format (unit mm)*
G04 Created by KiCad (PCBNEW 5.1.4+dfsg1-1) date 2020-03-04 11:39:30*
%MOMM*%
%LPD*%
G04 APERTURE LIST*
%ADD10C,0.120000*%
%ADD11C,0.203200*%
%ADD12C,0.150000*%
%ADD13C,0.152400*%
G04 APERTURE END LIST*
D10*
X174007175Y-97790000D02*
X173574162Y-98040000D01*
X173574162Y-97540000D02*
X174007175Y-97790000D01*
X173574162Y-98040000D02*
X173574162Y-97540000D01*
X174468500Y-87845000D02*
X184948500Y-87845000D01*
X174468500Y-118815000D02*
X174468500Y-87845000D01*
X184948500Y-118815000D02*
X174468500Y-118815000D01*
X128607799Y-116434999D02*
X125947799Y-116434999D01*
X125947799Y-119034999D02*
X125947799Y-117704999D01*
X127277799Y-119034999D02*
X125947799Y-119034999D01*
X125947799Y-116434999D02*
X125947799Y-73194999D01*
X128607799Y-73194999D02*
X125947799Y-73194999D01*
X128607799Y-116434999D02*
X128607799Y-73194999D01*
X153777799Y-119034999D02*
X152447799Y-119034999D01*
X152447799Y-119034999D02*
X152447799Y-117704999D01*
X152447799Y-116434999D02*
X152447799Y-73194999D01*
X155107799Y-73194999D02*
X152447799Y-73194999D01*
X155107799Y-116434999D02*
X155107799Y-73194999D01*
X155107799Y-116434999D02*
X152447799Y-116434999D01*
D11*
X167651553Y-96433000D02*
G75*
G03X167651553Y-96433000I-353553J0D01*
G01*
X167854000Y-102711000D02*
X167854000Y-98711000D01*
X162854000Y-102711000D02*
X167854000Y-102711000D01*
X162854000Y-98711000D02*
X162854000Y-102711000D01*
X167854000Y-98711000D02*
X162854000Y-98711000D01*
X167854000Y-99711000D02*
X162854000Y-99711000D01*
D10*
X169934000Y-81955000D02*
X169934000Y-71715000D01*
X174575000Y-81955000D02*
X174575000Y-71715000D01*
X169934000Y-81955000D02*
X174575000Y-81955000D01*
X169934000Y-71715000D02*
X174575000Y-71715000D01*
X171444000Y-81955000D02*
X171444000Y-71715000D01*
X169934000Y-78685000D02*
X171444000Y-78685000D01*
X169934000Y-74984000D02*
X171444000Y-74984000D01*
X164941000Y-78813000D02*
X163431000Y-78813000D01*
X164941000Y-75112000D02*
X163431000Y-75112000D01*
X163431000Y-71842000D02*
X163431000Y-82082000D01*
X164941000Y-82082000D02*
X160300000Y-82082000D01*
X164941000Y-71842000D02*
X160300000Y-71842000D01*
X160300000Y-71842000D02*
X160300000Y-82082000D01*
X164941000Y-71842000D02*
X164941000Y-82082000D01*
X164547733Y-113413000D02*
X164890267Y-113413000D01*
X164547733Y-112393000D02*
X164890267Y-112393000D01*
X164547733Y-117477000D02*
X164890267Y-117477000D01*
X164547733Y-116457000D02*
X164890267Y-116457000D01*
X158879000Y-80435267D02*
X158879000Y-80092733D01*
X157859000Y-80435267D02*
X157859000Y-80092733D01*
X147322000Y-95788267D02*
X147322000Y-95445733D01*
X146302000Y-95788267D02*
X146302000Y-95445733D01*
X182118000Y-86674000D02*
X180788000Y-86674000D01*
X180788000Y-86674000D02*
X180788000Y-85344000D01*
X180788000Y-84074000D02*
X180788000Y-71314000D01*
X183448000Y-71314000D02*
X180788000Y-71314000D01*
X183448000Y-84074000D02*
X183448000Y-71314000D01*
X183448000Y-84074000D02*
X180788000Y-84074000D01*
X161934000Y-112168000D02*
X159474000Y-112168000D01*
X161934000Y-113638000D02*
X161934000Y-112168000D01*
X159474000Y-113638000D02*
X161934000Y-113638000D01*
X162061000Y-116232000D02*
X159601000Y-116232000D01*
X162061000Y-117702000D02*
X162061000Y-116232000D01*
X159601000Y-117702000D02*
X162061000Y-117702000D01*
X145812000Y-103723000D02*
X145812000Y-99823000D01*
X147812000Y-103723000D02*
X147812000Y-99823000D01*
X145812000Y-103723000D02*
X147812000Y-103723000D01*
X157634000Y-74540000D02*
X157634000Y-77000000D01*
X159104000Y-74540000D02*
X157634000Y-74540000D01*
X159104000Y-77000000D02*
X159104000Y-74540000D01*
X169163000Y-83341000D02*
X169163000Y-88741000D01*
X165863000Y-83341000D02*
X165863000Y-88741000D01*
X169163000Y-83341000D02*
X165863000Y-83341000D01*
X168223000Y-77604252D02*
X168223000Y-77081748D01*
X166803000Y-77604252D02*
X166803000Y-77081748D01*
X178002000Y-74922748D02*
X178002000Y-75445252D01*
X176582000Y-74922748D02*
X176582000Y-75445252D01*
X178002000Y-80017252D02*
X178002000Y-79494748D01*
X176582000Y-80017252D02*
X176582000Y-79494748D01*
D12*
X172426380Y-115903333D02*
X173140666Y-115903333D01*
X173283523Y-115950952D01*
X173378761Y-116046190D01*
X173426380Y-116189047D01*
X173426380Y-116284285D01*
X172521619Y-115474761D02*
X172474000Y-115427142D01*
X172426380Y-115331904D01*
X172426380Y-115093809D01*
X172474000Y-114998571D01*
X172521619Y-114950952D01*
X172616857Y-114903333D01*
X172712095Y-114903333D01*
X172854952Y-114950952D01*
X173426380Y-115522380D01*
X173426380Y-114903333D01*
X139954095Y-119086380D02*
X139954095Y-119895904D01*
X140001714Y-119991142D01*
X140049333Y-120038761D01*
X140144571Y-120086380D01*
X140335047Y-120086380D01*
X140430285Y-120038761D01*
X140477904Y-119991142D01*
X140525523Y-119895904D01*
X140525523Y-119086380D01*
X140906476Y-119086380D02*
X141525523Y-119086380D01*
X141192190Y-119467333D01*
X141335047Y-119467333D01*
X141430285Y-119514952D01*
X141477904Y-119562571D01*
X141525523Y-119657809D01*
X141525523Y-119895904D01*
X141477904Y-119991142D01*
X141430285Y-120038761D01*
X141335047Y-120086380D01*
X141049333Y-120086380D01*
X140954095Y-120038761D01*
X140906476Y-119991142D01*
D13*
X161126714Y-101291571D02*
X161743571Y-101291571D01*
X161816142Y-101255285D01*
X161852428Y-101219000D01*
X161888714Y-101146428D01*
X161888714Y-101001285D01*
X161852428Y-100928714D01*
X161816142Y-100892428D01*
X161743571Y-100856142D01*
X161126714Y-100856142D01*
X161199285Y-100529571D02*
X161163000Y-100493285D01*
X161126714Y-100420714D01*
X161126714Y-100239285D01*
X161163000Y-100166714D01*
X161199285Y-100130428D01*
X161271857Y-100094142D01*
X161344428Y-100094142D01*
X161453285Y-100130428D01*
X161888714Y-100565857D01*
X161888714Y-100094142D01*
D12*
X174839380Y-73913904D02*
X175648904Y-73913904D01*
X175744142Y-73866285D01*
X175791761Y-73818666D01*
X175839380Y-73723428D01*
X175839380Y-73532952D01*
X175791761Y-73437714D01*
X175744142Y-73390095D01*
X175648904Y-73342476D01*
X174839380Y-73342476D01*
X175839380Y-72342476D02*
X175839380Y-72913904D01*
X175839380Y-72628190D02*
X174839380Y-72628190D01*
X174982238Y-72723428D01*
X175077476Y-72818666D01*
X175125095Y-72913904D01*
X165441380Y-73532904D02*
X166250904Y-73532904D01*
X166346142Y-73485285D01*
X166393761Y-73437666D01*
X166441380Y-73342428D01*
X166441380Y-73151952D01*
X166393761Y-73056714D01*
X166346142Y-73009095D01*
X166250904Y-72961476D01*
X165441380Y-72961476D01*
X165774714Y-72056714D02*
X166441380Y-72056714D01*
X165393761Y-72294809D02*
X166108047Y-72532904D01*
X166108047Y-71913857D01*
X164552333Y-111925380D02*
X164219000Y-111449190D01*
X163980904Y-111925380D02*
X163980904Y-110925380D01*
X164361857Y-110925380D01*
X164457095Y-110973000D01*
X164504714Y-111020619D01*
X164552333Y-111115857D01*
X164552333Y-111258714D01*
X164504714Y-111353952D01*
X164457095Y-111401571D01*
X164361857Y-111449190D01*
X163980904Y-111449190D01*
X165409476Y-111258714D02*
X165409476Y-111925380D01*
X165171380Y-110877761D02*
X164933285Y-111592047D01*
X165552333Y-111592047D01*
X164552333Y-115989380D02*
X164219000Y-115513190D01*
X163980904Y-115989380D02*
X163980904Y-114989380D01*
X164361857Y-114989380D01*
X164457095Y-115037000D01*
X164504714Y-115084619D01*
X164552333Y-115179857D01*
X164552333Y-115322714D01*
X164504714Y-115417952D01*
X164457095Y-115465571D01*
X164361857Y-115513190D01*
X163980904Y-115513190D01*
X164933285Y-115084619D02*
X164980904Y-115037000D01*
X165076142Y-114989380D01*
X165314238Y-114989380D01*
X165409476Y-115037000D01*
X165457095Y-115084619D01*
X165504714Y-115179857D01*
X165504714Y-115275095D01*
X165457095Y-115417952D01*
X164885666Y-115989380D01*
X165504714Y-115989380D01*
X157170380Y-80430666D02*
X156694190Y-80764000D01*
X157170380Y-81002095D02*
X156170380Y-81002095D01*
X156170380Y-80621142D01*
X156218000Y-80525904D01*
X156265619Y-80478285D01*
X156360857Y-80430666D01*
X156503714Y-80430666D01*
X156598952Y-80478285D01*
X156646571Y-80525904D01*
X156694190Y-80621142D01*
X156694190Y-81002095D01*
X156170380Y-80097333D02*
X156170380Y-79478285D01*
X156551333Y-79811619D01*
X156551333Y-79668761D01*
X156598952Y-79573523D01*
X156646571Y-79525904D01*
X156741809Y-79478285D01*
X156979904Y-79478285D01*
X157075142Y-79525904D01*
X157122761Y-79573523D01*
X157170380Y-79668761D01*
X157170380Y-79954476D01*
X157122761Y-80049714D01*
X157075142Y-80097333D01*
X145834380Y-95783666D02*
X145358190Y-96117000D01*
X145834380Y-96355095D02*
X144834380Y-96355095D01*
X144834380Y-95974142D01*
X144882000Y-95878904D01*
X144929619Y-95831285D01*
X145024857Y-95783666D01*
X145167714Y-95783666D01*
X145262952Y-95831285D01*
X145310571Y-95878904D01*
X145358190Y-95974142D01*
X145358190Y-96355095D01*
X145834380Y-94831285D02*
X145834380Y-95402714D01*
X145834380Y-95117000D02*
X144834380Y-95117000D01*
X144977238Y-95212238D01*
X145072476Y-95307476D01*
X145120095Y-95402714D01*
X181911666Y-69810380D02*
X181911666Y-70524666D01*
X181864047Y-70667523D01*
X181768809Y-70762761D01*
X181625952Y-70810380D01*
X181530714Y-70810380D01*
X182911666Y-70810380D02*
X182340238Y-70810380D01*
X182625952Y-70810380D02*
X182625952Y-69810380D01*
X182530714Y-69953238D01*
X182435476Y-70048476D01*
X182340238Y-70096095D01*
X159281904Y-114498380D02*
X159281904Y-113498380D01*
X159520000Y-113498380D01*
X159662857Y-113546000D01*
X159758095Y-113641238D01*
X159805714Y-113736476D01*
X159853333Y-113926952D01*
X159853333Y-114069809D01*
X159805714Y-114260285D01*
X159758095Y-114355523D01*
X159662857Y-114450761D01*
X159520000Y-114498380D01*
X159281904Y-114498380D01*
X160758095Y-113498380D02*
X160281904Y-113498380D01*
X160234285Y-113974571D01*
X160281904Y-113926952D01*
X160377142Y-113879333D01*
X160615238Y-113879333D01*
X160710476Y-113926952D01*
X160758095Y-113974571D01*
X160805714Y-114069809D01*
X160805714Y-114307904D01*
X160758095Y-114403142D01*
X160710476Y-114450761D01*
X160615238Y-114498380D01*
X160377142Y-114498380D01*
X160281904Y-114450761D01*
X160234285Y-114403142D01*
X159662904Y-118849380D02*
X159662904Y-117849380D01*
X159901000Y-117849380D01*
X160043857Y-117897000D01*
X160139095Y-117992238D01*
X160186714Y-118087476D01*
X160234333Y-118277952D01*
X160234333Y-118420809D01*
X160186714Y-118611285D01*
X160139095Y-118706523D01*
X160043857Y-118801761D01*
X159901000Y-118849380D01*
X159662904Y-118849380D01*
X160567666Y-117849380D02*
X161186714Y-117849380D01*
X160853380Y-118230333D01*
X160996238Y-118230333D01*
X161091476Y-118277952D01*
X161139095Y-118325571D01*
X161186714Y-118420809D01*
X161186714Y-118658904D01*
X161139095Y-118754142D01*
X161091476Y-118801761D01*
X160996238Y-118849380D01*
X160710523Y-118849380D01*
X160615285Y-118801761D01*
X160567666Y-118754142D01*
X145264380Y-102211095D02*
X144264380Y-102211095D01*
X144264380Y-101973000D01*
X144312000Y-101830142D01*
X144407238Y-101734904D01*
X144502476Y-101687285D01*
X144692952Y-101639666D01*
X144835809Y-101639666D01*
X145026285Y-101687285D01*
X145121523Y-101734904D01*
X145216761Y-101830142D01*
X145264380Y-101973000D01*
X145264380Y-102211095D01*
X144359619Y-101258714D02*
X144312000Y-101211095D01*
X144264380Y-101115857D01*
X144264380Y-100877761D01*
X144312000Y-100782523D01*
X144359619Y-100734904D01*
X144454857Y-100687285D01*
X144550095Y-100687285D01*
X144692952Y-100734904D01*
X145264380Y-101306333D01*
X145264380Y-100687285D01*
X157170380Y-77065095D02*
X156170380Y-77065095D01*
X156170380Y-76827000D01*
X156218000Y-76684142D01*
X156313238Y-76588904D01*
X156408476Y-76541285D01*
X156598952Y-76493666D01*
X156741809Y-76493666D01*
X156932285Y-76541285D01*
X157027523Y-76588904D01*
X157122761Y-76684142D01*
X157170380Y-76827000D01*
X157170380Y-77065095D01*
X156503714Y-75636523D02*
X157170380Y-75636523D01*
X156122761Y-75874619D02*
X156837047Y-76112714D01*
X156837047Y-75493666D01*
X170465380Y-87479095D02*
X169465380Y-87479095D01*
X169465380Y-87241000D01*
X169513000Y-87098142D01*
X169608238Y-87002904D01*
X169703476Y-86955285D01*
X169893952Y-86907666D01*
X170036809Y-86907666D01*
X170227285Y-86955285D01*
X170322523Y-87002904D01*
X170417761Y-87098142D01*
X170465380Y-87241000D01*
X170465380Y-87479095D01*
X170465380Y-85955285D02*
X170465380Y-86526714D01*
X170465380Y-86241000D02*
X169465380Y-86241000D01*
X169608238Y-86336238D01*
X169703476Y-86431476D01*
X169751095Y-86526714D01*
X168124142Y-80430666D02*
X168171761Y-80478285D01*
X168219380Y-80621142D01*
X168219380Y-80716380D01*
X168171761Y-80859238D01*
X168076523Y-80954476D01*
X167981285Y-81002095D01*
X167790809Y-81049714D01*
X167647952Y-81049714D01*
X167457476Y-81002095D01*
X167362238Y-80954476D01*
X167267000Y-80859238D01*
X167219380Y-80716380D01*
X167219380Y-80621142D01*
X167267000Y-80478285D01*
X167314619Y-80430666D01*
X167219380Y-80097333D02*
X167219380Y-79478285D01*
X167600333Y-79811619D01*
X167600333Y-79668761D01*
X167647952Y-79573523D01*
X167695571Y-79525904D01*
X167790809Y-79478285D01*
X168028904Y-79478285D01*
X168124142Y-79525904D01*
X168171761Y-79573523D01*
X168219380Y-79668761D01*
X168219380Y-79954476D01*
X168171761Y-80049714D01*
X168124142Y-80097333D01*
X177395142Y-72429666D02*
X177442761Y-72477285D01*
X177490380Y-72620142D01*
X177490380Y-72715380D01*
X177442761Y-72858238D01*
X177347523Y-72953476D01*
X177252285Y-73001095D01*
X177061809Y-73048714D01*
X176918952Y-73048714D01*
X176728476Y-73001095D01*
X176633238Y-72953476D01*
X176538000Y-72858238D01*
X176490380Y-72715380D01*
X176490380Y-72620142D01*
X176538000Y-72477285D01*
X176585619Y-72429666D01*
X176585619Y-72048714D02*
X176538000Y-72001095D01*
X176490380Y-71905857D01*
X176490380Y-71667761D01*
X176538000Y-71572523D01*
X176585619Y-71524904D01*
X176680857Y-71477285D01*
X176776095Y-71477285D01*
X176918952Y-71524904D01*
X177490380Y-72096333D01*
X177490380Y-71477285D01*
X175998142Y-79287666D02*
X176045761Y-79335285D01*
X176093380Y-79478142D01*
X176093380Y-79573380D01*
X176045761Y-79716238D01*
X175950523Y-79811476D01*
X175855285Y-79859095D01*
X175664809Y-79906714D01*
X175521952Y-79906714D01*
X175331476Y-79859095D01*
X175236238Y-79811476D01*
X175141000Y-79716238D01*
X175093380Y-79573380D01*
X175093380Y-79478142D01*
X175141000Y-79335285D01*
X175188619Y-79287666D01*
X176093380Y-78335285D02*
X176093380Y-78906714D01*
X176093380Y-78621000D02*
X175093380Y-78621000D01*
X175236238Y-78716238D01*
X175331476Y-78811476D01*
X175379095Y-78906714D01*
M02*
