G04 #@! TF.GenerationSoftware,KiCad,Pcbnew,5.1.4+dfsg1-1*
G04 #@! TF.CreationDate,2020-03-04T11:39:30+00:00*
G04 #@! TF.ProjectId,UaElectrex_Phase1,5561456c-6563-4747-9265-785f50686173,V0*
G04 #@! TF.SameCoordinates,Original*
G04 #@! TF.FileFunction,Paste,Top*
G04 #@! TF.FilePolarity,Positive*
%FSLAX46Y46*%
G04 Gerber Fmt 4.6, Leading zero omitted, Abs format (unit mm)*
G04 Created by KiCad (PCBNEW 5.1.4+dfsg1-1) date 2020-03-04 11:39:30*
%MOMM*%
%LPD*%
G04 APERTURE LIST*
%ADD10R,0.549200X1.499200*%
%ADD11C,0.100000*%
%ADD12C,0.950000*%
%ADD13R,1.200000X0.900000*%
%ADD14R,1.800000X2.500000*%
%ADD15C,1.150000*%
G04 APERTURE END LIST*
D10*
X167259000Y-103411000D03*
X165989000Y-103411000D03*
X164719000Y-103411000D03*
X163449000Y-103411000D03*
X163449000Y-98011000D03*
X164719000Y-98011000D03*
X165989000Y-98011000D03*
X167259000Y-98011000D03*
D11*
G36*
X165904779Y-112429144D02*
G01*
X165927834Y-112432563D01*
X165950443Y-112438227D01*
X165972387Y-112446079D01*
X165993457Y-112456044D01*
X166013448Y-112468026D01*
X166032168Y-112481910D01*
X166049438Y-112497562D01*
X166065090Y-112514832D01*
X166078974Y-112533552D01*
X166090956Y-112553543D01*
X166100921Y-112574613D01*
X166108773Y-112596557D01*
X166114437Y-112619166D01*
X166117856Y-112642221D01*
X166119000Y-112665500D01*
X166119000Y-113140500D01*
X166117856Y-113163779D01*
X166114437Y-113186834D01*
X166108773Y-113209443D01*
X166100921Y-113231387D01*
X166090956Y-113252457D01*
X166078974Y-113272448D01*
X166065090Y-113291168D01*
X166049438Y-113308438D01*
X166032168Y-113324090D01*
X166013448Y-113337974D01*
X165993457Y-113349956D01*
X165972387Y-113359921D01*
X165950443Y-113367773D01*
X165927834Y-113373437D01*
X165904779Y-113376856D01*
X165881500Y-113378000D01*
X165306500Y-113378000D01*
X165283221Y-113376856D01*
X165260166Y-113373437D01*
X165237557Y-113367773D01*
X165215613Y-113359921D01*
X165194543Y-113349956D01*
X165174552Y-113337974D01*
X165155832Y-113324090D01*
X165138562Y-113308438D01*
X165122910Y-113291168D01*
X165109026Y-113272448D01*
X165097044Y-113252457D01*
X165087079Y-113231387D01*
X165079227Y-113209443D01*
X165073563Y-113186834D01*
X165070144Y-113163779D01*
X165069000Y-113140500D01*
X165069000Y-112665500D01*
X165070144Y-112642221D01*
X165073563Y-112619166D01*
X165079227Y-112596557D01*
X165087079Y-112574613D01*
X165097044Y-112553543D01*
X165109026Y-112533552D01*
X165122910Y-112514832D01*
X165138562Y-112497562D01*
X165155832Y-112481910D01*
X165174552Y-112468026D01*
X165194543Y-112456044D01*
X165215613Y-112446079D01*
X165237557Y-112438227D01*
X165260166Y-112432563D01*
X165283221Y-112429144D01*
X165306500Y-112428000D01*
X165881500Y-112428000D01*
X165904779Y-112429144D01*
X165904779Y-112429144D01*
G37*
D12*
X165594000Y-112903000D03*
D11*
G36*
X164154779Y-112429144D02*
G01*
X164177834Y-112432563D01*
X164200443Y-112438227D01*
X164222387Y-112446079D01*
X164243457Y-112456044D01*
X164263448Y-112468026D01*
X164282168Y-112481910D01*
X164299438Y-112497562D01*
X164315090Y-112514832D01*
X164328974Y-112533552D01*
X164340956Y-112553543D01*
X164350921Y-112574613D01*
X164358773Y-112596557D01*
X164364437Y-112619166D01*
X164367856Y-112642221D01*
X164369000Y-112665500D01*
X164369000Y-113140500D01*
X164367856Y-113163779D01*
X164364437Y-113186834D01*
X164358773Y-113209443D01*
X164350921Y-113231387D01*
X164340956Y-113252457D01*
X164328974Y-113272448D01*
X164315090Y-113291168D01*
X164299438Y-113308438D01*
X164282168Y-113324090D01*
X164263448Y-113337974D01*
X164243457Y-113349956D01*
X164222387Y-113359921D01*
X164200443Y-113367773D01*
X164177834Y-113373437D01*
X164154779Y-113376856D01*
X164131500Y-113378000D01*
X163556500Y-113378000D01*
X163533221Y-113376856D01*
X163510166Y-113373437D01*
X163487557Y-113367773D01*
X163465613Y-113359921D01*
X163444543Y-113349956D01*
X163424552Y-113337974D01*
X163405832Y-113324090D01*
X163388562Y-113308438D01*
X163372910Y-113291168D01*
X163359026Y-113272448D01*
X163347044Y-113252457D01*
X163337079Y-113231387D01*
X163329227Y-113209443D01*
X163323563Y-113186834D01*
X163320144Y-113163779D01*
X163319000Y-113140500D01*
X163319000Y-112665500D01*
X163320144Y-112642221D01*
X163323563Y-112619166D01*
X163329227Y-112596557D01*
X163337079Y-112574613D01*
X163347044Y-112553543D01*
X163359026Y-112533552D01*
X163372910Y-112514832D01*
X163388562Y-112497562D01*
X163405832Y-112481910D01*
X163424552Y-112468026D01*
X163444543Y-112456044D01*
X163465613Y-112446079D01*
X163487557Y-112438227D01*
X163510166Y-112432563D01*
X163533221Y-112429144D01*
X163556500Y-112428000D01*
X164131500Y-112428000D01*
X164154779Y-112429144D01*
X164154779Y-112429144D01*
G37*
D12*
X163844000Y-112903000D03*
D11*
G36*
X165904779Y-116493144D02*
G01*
X165927834Y-116496563D01*
X165950443Y-116502227D01*
X165972387Y-116510079D01*
X165993457Y-116520044D01*
X166013448Y-116532026D01*
X166032168Y-116545910D01*
X166049438Y-116561562D01*
X166065090Y-116578832D01*
X166078974Y-116597552D01*
X166090956Y-116617543D01*
X166100921Y-116638613D01*
X166108773Y-116660557D01*
X166114437Y-116683166D01*
X166117856Y-116706221D01*
X166119000Y-116729500D01*
X166119000Y-117204500D01*
X166117856Y-117227779D01*
X166114437Y-117250834D01*
X166108773Y-117273443D01*
X166100921Y-117295387D01*
X166090956Y-117316457D01*
X166078974Y-117336448D01*
X166065090Y-117355168D01*
X166049438Y-117372438D01*
X166032168Y-117388090D01*
X166013448Y-117401974D01*
X165993457Y-117413956D01*
X165972387Y-117423921D01*
X165950443Y-117431773D01*
X165927834Y-117437437D01*
X165904779Y-117440856D01*
X165881500Y-117442000D01*
X165306500Y-117442000D01*
X165283221Y-117440856D01*
X165260166Y-117437437D01*
X165237557Y-117431773D01*
X165215613Y-117423921D01*
X165194543Y-117413956D01*
X165174552Y-117401974D01*
X165155832Y-117388090D01*
X165138562Y-117372438D01*
X165122910Y-117355168D01*
X165109026Y-117336448D01*
X165097044Y-117316457D01*
X165087079Y-117295387D01*
X165079227Y-117273443D01*
X165073563Y-117250834D01*
X165070144Y-117227779D01*
X165069000Y-117204500D01*
X165069000Y-116729500D01*
X165070144Y-116706221D01*
X165073563Y-116683166D01*
X165079227Y-116660557D01*
X165087079Y-116638613D01*
X165097044Y-116617543D01*
X165109026Y-116597552D01*
X165122910Y-116578832D01*
X165138562Y-116561562D01*
X165155832Y-116545910D01*
X165174552Y-116532026D01*
X165194543Y-116520044D01*
X165215613Y-116510079D01*
X165237557Y-116502227D01*
X165260166Y-116496563D01*
X165283221Y-116493144D01*
X165306500Y-116492000D01*
X165881500Y-116492000D01*
X165904779Y-116493144D01*
X165904779Y-116493144D01*
G37*
D12*
X165594000Y-116967000D03*
D11*
G36*
X164154779Y-116493144D02*
G01*
X164177834Y-116496563D01*
X164200443Y-116502227D01*
X164222387Y-116510079D01*
X164243457Y-116520044D01*
X164263448Y-116532026D01*
X164282168Y-116545910D01*
X164299438Y-116561562D01*
X164315090Y-116578832D01*
X164328974Y-116597552D01*
X164340956Y-116617543D01*
X164350921Y-116638613D01*
X164358773Y-116660557D01*
X164364437Y-116683166D01*
X164367856Y-116706221D01*
X164369000Y-116729500D01*
X164369000Y-117204500D01*
X164367856Y-117227779D01*
X164364437Y-117250834D01*
X164358773Y-117273443D01*
X164350921Y-117295387D01*
X164340956Y-117316457D01*
X164328974Y-117336448D01*
X164315090Y-117355168D01*
X164299438Y-117372438D01*
X164282168Y-117388090D01*
X164263448Y-117401974D01*
X164243457Y-117413956D01*
X164222387Y-117423921D01*
X164200443Y-117431773D01*
X164177834Y-117437437D01*
X164154779Y-117440856D01*
X164131500Y-117442000D01*
X163556500Y-117442000D01*
X163533221Y-117440856D01*
X163510166Y-117437437D01*
X163487557Y-117431773D01*
X163465613Y-117423921D01*
X163444543Y-117413956D01*
X163424552Y-117401974D01*
X163405832Y-117388090D01*
X163388562Y-117372438D01*
X163372910Y-117355168D01*
X163359026Y-117336448D01*
X163347044Y-117316457D01*
X163337079Y-117295387D01*
X163329227Y-117273443D01*
X163323563Y-117250834D01*
X163320144Y-117227779D01*
X163319000Y-117204500D01*
X163319000Y-116729500D01*
X163320144Y-116706221D01*
X163323563Y-116683166D01*
X163329227Y-116660557D01*
X163337079Y-116638613D01*
X163347044Y-116617543D01*
X163359026Y-116597552D01*
X163372910Y-116578832D01*
X163388562Y-116561562D01*
X163405832Y-116545910D01*
X163424552Y-116532026D01*
X163444543Y-116520044D01*
X163465613Y-116510079D01*
X163487557Y-116502227D01*
X163510166Y-116496563D01*
X163533221Y-116493144D01*
X163556500Y-116492000D01*
X164131500Y-116492000D01*
X164154779Y-116493144D01*
X164154779Y-116493144D01*
G37*
D12*
X163844000Y-116967000D03*
D11*
G36*
X158629779Y-78865144D02*
G01*
X158652834Y-78868563D01*
X158675443Y-78874227D01*
X158697387Y-78882079D01*
X158718457Y-78892044D01*
X158738448Y-78904026D01*
X158757168Y-78917910D01*
X158774438Y-78933562D01*
X158790090Y-78950832D01*
X158803974Y-78969552D01*
X158815956Y-78989543D01*
X158825921Y-79010613D01*
X158833773Y-79032557D01*
X158839437Y-79055166D01*
X158842856Y-79078221D01*
X158844000Y-79101500D01*
X158844000Y-79676500D01*
X158842856Y-79699779D01*
X158839437Y-79722834D01*
X158833773Y-79745443D01*
X158825921Y-79767387D01*
X158815956Y-79788457D01*
X158803974Y-79808448D01*
X158790090Y-79827168D01*
X158774438Y-79844438D01*
X158757168Y-79860090D01*
X158738448Y-79873974D01*
X158718457Y-79885956D01*
X158697387Y-79895921D01*
X158675443Y-79903773D01*
X158652834Y-79909437D01*
X158629779Y-79912856D01*
X158606500Y-79914000D01*
X158131500Y-79914000D01*
X158108221Y-79912856D01*
X158085166Y-79909437D01*
X158062557Y-79903773D01*
X158040613Y-79895921D01*
X158019543Y-79885956D01*
X157999552Y-79873974D01*
X157980832Y-79860090D01*
X157963562Y-79844438D01*
X157947910Y-79827168D01*
X157934026Y-79808448D01*
X157922044Y-79788457D01*
X157912079Y-79767387D01*
X157904227Y-79745443D01*
X157898563Y-79722834D01*
X157895144Y-79699779D01*
X157894000Y-79676500D01*
X157894000Y-79101500D01*
X157895144Y-79078221D01*
X157898563Y-79055166D01*
X157904227Y-79032557D01*
X157912079Y-79010613D01*
X157922044Y-78989543D01*
X157934026Y-78969552D01*
X157947910Y-78950832D01*
X157963562Y-78933562D01*
X157980832Y-78917910D01*
X157999552Y-78904026D01*
X158019543Y-78892044D01*
X158040613Y-78882079D01*
X158062557Y-78874227D01*
X158085166Y-78868563D01*
X158108221Y-78865144D01*
X158131500Y-78864000D01*
X158606500Y-78864000D01*
X158629779Y-78865144D01*
X158629779Y-78865144D01*
G37*
D12*
X158369000Y-79389000D03*
D11*
G36*
X158629779Y-80615144D02*
G01*
X158652834Y-80618563D01*
X158675443Y-80624227D01*
X158697387Y-80632079D01*
X158718457Y-80642044D01*
X158738448Y-80654026D01*
X158757168Y-80667910D01*
X158774438Y-80683562D01*
X158790090Y-80700832D01*
X158803974Y-80719552D01*
X158815956Y-80739543D01*
X158825921Y-80760613D01*
X158833773Y-80782557D01*
X158839437Y-80805166D01*
X158842856Y-80828221D01*
X158844000Y-80851500D01*
X158844000Y-81426500D01*
X158842856Y-81449779D01*
X158839437Y-81472834D01*
X158833773Y-81495443D01*
X158825921Y-81517387D01*
X158815956Y-81538457D01*
X158803974Y-81558448D01*
X158790090Y-81577168D01*
X158774438Y-81594438D01*
X158757168Y-81610090D01*
X158738448Y-81623974D01*
X158718457Y-81635956D01*
X158697387Y-81645921D01*
X158675443Y-81653773D01*
X158652834Y-81659437D01*
X158629779Y-81662856D01*
X158606500Y-81664000D01*
X158131500Y-81664000D01*
X158108221Y-81662856D01*
X158085166Y-81659437D01*
X158062557Y-81653773D01*
X158040613Y-81645921D01*
X158019543Y-81635956D01*
X157999552Y-81623974D01*
X157980832Y-81610090D01*
X157963562Y-81594438D01*
X157947910Y-81577168D01*
X157934026Y-81558448D01*
X157922044Y-81538457D01*
X157912079Y-81517387D01*
X157904227Y-81495443D01*
X157898563Y-81472834D01*
X157895144Y-81449779D01*
X157894000Y-81426500D01*
X157894000Y-80851500D01*
X157895144Y-80828221D01*
X157898563Y-80805166D01*
X157904227Y-80782557D01*
X157912079Y-80760613D01*
X157922044Y-80739543D01*
X157934026Y-80719552D01*
X157947910Y-80700832D01*
X157963562Y-80683562D01*
X157980832Y-80667910D01*
X157999552Y-80654026D01*
X158019543Y-80642044D01*
X158040613Y-80632079D01*
X158062557Y-80624227D01*
X158085166Y-80618563D01*
X158108221Y-80615144D01*
X158131500Y-80614000D01*
X158606500Y-80614000D01*
X158629779Y-80615144D01*
X158629779Y-80615144D01*
G37*
D12*
X158369000Y-81139000D03*
D11*
G36*
X147072779Y-94218144D02*
G01*
X147095834Y-94221563D01*
X147118443Y-94227227D01*
X147140387Y-94235079D01*
X147161457Y-94245044D01*
X147181448Y-94257026D01*
X147200168Y-94270910D01*
X147217438Y-94286562D01*
X147233090Y-94303832D01*
X147246974Y-94322552D01*
X147258956Y-94342543D01*
X147268921Y-94363613D01*
X147276773Y-94385557D01*
X147282437Y-94408166D01*
X147285856Y-94431221D01*
X147287000Y-94454500D01*
X147287000Y-95029500D01*
X147285856Y-95052779D01*
X147282437Y-95075834D01*
X147276773Y-95098443D01*
X147268921Y-95120387D01*
X147258956Y-95141457D01*
X147246974Y-95161448D01*
X147233090Y-95180168D01*
X147217438Y-95197438D01*
X147200168Y-95213090D01*
X147181448Y-95226974D01*
X147161457Y-95238956D01*
X147140387Y-95248921D01*
X147118443Y-95256773D01*
X147095834Y-95262437D01*
X147072779Y-95265856D01*
X147049500Y-95267000D01*
X146574500Y-95267000D01*
X146551221Y-95265856D01*
X146528166Y-95262437D01*
X146505557Y-95256773D01*
X146483613Y-95248921D01*
X146462543Y-95238956D01*
X146442552Y-95226974D01*
X146423832Y-95213090D01*
X146406562Y-95197438D01*
X146390910Y-95180168D01*
X146377026Y-95161448D01*
X146365044Y-95141457D01*
X146355079Y-95120387D01*
X146347227Y-95098443D01*
X146341563Y-95075834D01*
X146338144Y-95052779D01*
X146337000Y-95029500D01*
X146337000Y-94454500D01*
X146338144Y-94431221D01*
X146341563Y-94408166D01*
X146347227Y-94385557D01*
X146355079Y-94363613D01*
X146365044Y-94342543D01*
X146377026Y-94322552D01*
X146390910Y-94303832D01*
X146406562Y-94286562D01*
X146423832Y-94270910D01*
X146442552Y-94257026D01*
X146462543Y-94245044D01*
X146483613Y-94235079D01*
X146505557Y-94227227D01*
X146528166Y-94221563D01*
X146551221Y-94218144D01*
X146574500Y-94217000D01*
X147049500Y-94217000D01*
X147072779Y-94218144D01*
X147072779Y-94218144D01*
G37*
D12*
X146812000Y-94742000D03*
D11*
G36*
X147072779Y-95968144D02*
G01*
X147095834Y-95971563D01*
X147118443Y-95977227D01*
X147140387Y-95985079D01*
X147161457Y-95995044D01*
X147181448Y-96007026D01*
X147200168Y-96020910D01*
X147217438Y-96036562D01*
X147233090Y-96053832D01*
X147246974Y-96072552D01*
X147258956Y-96092543D01*
X147268921Y-96113613D01*
X147276773Y-96135557D01*
X147282437Y-96158166D01*
X147285856Y-96181221D01*
X147287000Y-96204500D01*
X147287000Y-96779500D01*
X147285856Y-96802779D01*
X147282437Y-96825834D01*
X147276773Y-96848443D01*
X147268921Y-96870387D01*
X147258956Y-96891457D01*
X147246974Y-96911448D01*
X147233090Y-96930168D01*
X147217438Y-96947438D01*
X147200168Y-96963090D01*
X147181448Y-96976974D01*
X147161457Y-96988956D01*
X147140387Y-96998921D01*
X147118443Y-97006773D01*
X147095834Y-97012437D01*
X147072779Y-97015856D01*
X147049500Y-97017000D01*
X146574500Y-97017000D01*
X146551221Y-97015856D01*
X146528166Y-97012437D01*
X146505557Y-97006773D01*
X146483613Y-96998921D01*
X146462543Y-96988956D01*
X146442552Y-96976974D01*
X146423832Y-96963090D01*
X146406562Y-96947438D01*
X146390910Y-96930168D01*
X146377026Y-96911448D01*
X146365044Y-96891457D01*
X146355079Y-96870387D01*
X146347227Y-96848443D01*
X146341563Y-96825834D01*
X146338144Y-96802779D01*
X146337000Y-96779500D01*
X146337000Y-96204500D01*
X146338144Y-96181221D01*
X146341563Y-96158166D01*
X146347227Y-96135557D01*
X146355079Y-96113613D01*
X146365044Y-96092543D01*
X146377026Y-96072552D01*
X146390910Y-96053832D01*
X146406562Y-96036562D01*
X146423832Y-96020910D01*
X146442552Y-96007026D01*
X146462543Y-95995044D01*
X146483613Y-95985079D01*
X146505557Y-95977227D01*
X146528166Y-95971563D01*
X146551221Y-95968144D01*
X146574500Y-95967000D01*
X147049500Y-95967000D01*
X147072779Y-95968144D01*
X147072779Y-95968144D01*
G37*
D12*
X146812000Y-96492000D03*
D11*
G36*
X159709779Y-112429144D02*
G01*
X159732834Y-112432563D01*
X159755443Y-112438227D01*
X159777387Y-112446079D01*
X159798457Y-112456044D01*
X159818448Y-112468026D01*
X159837168Y-112481910D01*
X159854438Y-112497562D01*
X159870090Y-112514832D01*
X159883974Y-112533552D01*
X159895956Y-112553543D01*
X159905921Y-112574613D01*
X159913773Y-112596557D01*
X159919437Y-112619166D01*
X159922856Y-112642221D01*
X159924000Y-112665500D01*
X159924000Y-113140500D01*
X159922856Y-113163779D01*
X159919437Y-113186834D01*
X159913773Y-113209443D01*
X159905921Y-113231387D01*
X159895956Y-113252457D01*
X159883974Y-113272448D01*
X159870090Y-113291168D01*
X159854438Y-113308438D01*
X159837168Y-113324090D01*
X159818448Y-113337974D01*
X159798457Y-113349956D01*
X159777387Y-113359921D01*
X159755443Y-113367773D01*
X159732834Y-113373437D01*
X159709779Y-113376856D01*
X159686500Y-113378000D01*
X159111500Y-113378000D01*
X159088221Y-113376856D01*
X159065166Y-113373437D01*
X159042557Y-113367773D01*
X159020613Y-113359921D01*
X158999543Y-113349956D01*
X158979552Y-113337974D01*
X158960832Y-113324090D01*
X158943562Y-113308438D01*
X158927910Y-113291168D01*
X158914026Y-113272448D01*
X158902044Y-113252457D01*
X158892079Y-113231387D01*
X158884227Y-113209443D01*
X158878563Y-113186834D01*
X158875144Y-113163779D01*
X158874000Y-113140500D01*
X158874000Y-112665500D01*
X158875144Y-112642221D01*
X158878563Y-112619166D01*
X158884227Y-112596557D01*
X158892079Y-112574613D01*
X158902044Y-112553543D01*
X158914026Y-112533552D01*
X158927910Y-112514832D01*
X158943562Y-112497562D01*
X158960832Y-112481910D01*
X158979552Y-112468026D01*
X158999543Y-112456044D01*
X159020613Y-112446079D01*
X159042557Y-112438227D01*
X159065166Y-112432563D01*
X159088221Y-112429144D01*
X159111500Y-112428000D01*
X159686500Y-112428000D01*
X159709779Y-112429144D01*
X159709779Y-112429144D01*
G37*
D12*
X159399000Y-112903000D03*
D11*
G36*
X161459779Y-112429144D02*
G01*
X161482834Y-112432563D01*
X161505443Y-112438227D01*
X161527387Y-112446079D01*
X161548457Y-112456044D01*
X161568448Y-112468026D01*
X161587168Y-112481910D01*
X161604438Y-112497562D01*
X161620090Y-112514832D01*
X161633974Y-112533552D01*
X161645956Y-112553543D01*
X161655921Y-112574613D01*
X161663773Y-112596557D01*
X161669437Y-112619166D01*
X161672856Y-112642221D01*
X161674000Y-112665500D01*
X161674000Y-113140500D01*
X161672856Y-113163779D01*
X161669437Y-113186834D01*
X161663773Y-113209443D01*
X161655921Y-113231387D01*
X161645956Y-113252457D01*
X161633974Y-113272448D01*
X161620090Y-113291168D01*
X161604438Y-113308438D01*
X161587168Y-113324090D01*
X161568448Y-113337974D01*
X161548457Y-113349956D01*
X161527387Y-113359921D01*
X161505443Y-113367773D01*
X161482834Y-113373437D01*
X161459779Y-113376856D01*
X161436500Y-113378000D01*
X160861500Y-113378000D01*
X160838221Y-113376856D01*
X160815166Y-113373437D01*
X160792557Y-113367773D01*
X160770613Y-113359921D01*
X160749543Y-113349956D01*
X160729552Y-113337974D01*
X160710832Y-113324090D01*
X160693562Y-113308438D01*
X160677910Y-113291168D01*
X160664026Y-113272448D01*
X160652044Y-113252457D01*
X160642079Y-113231387D01*
X160634227Y-113209443D01*
X160628563Y-113186834D01*
X160625144Y-113163779D01*
X160624000Y-113140500D01*
X160624000Y-112665500D01*
X160625144Y-112642221D01*
X160628563Y-112619166D01*
X160634227Y-112596557D01*
X160642079Y-112574613D01*
X160652044Y-112553543D01*
X160664026Y-112533552D01*
X160677910Y-112514832D01*
X160693562Y-112497562D01*
X160710832Y-112481910D01*
X160729552Y-112468026D01*
X160749543Y-112456044D01*
X160770613Y-112446079D01*
X160792557Y-112438227D01*
X160815166Y-112432563D01*
X160838221Y-112429144D01*
X160861500Y-112428000D01*
X161436500Y-112428000D01*
X161459779Y-112429144D01*
X161459779Y-112429144D01*
G37*
D12*
X161149000Y-112903000D03*
D11*
G36*
X159836779Y-116493144D02*
G01*
X159859834Y-116496563D01*
X159882443Y-116502227D01*
X159904387Y-116510079D01*
X159925457Y-116520044D01*
X159945448Y-116532026D01*
X159964168Y-116545910D01*
X159981438Y-116561562D01*
X159997090Y-116578832D01*
X160010974Y-116597552D01*
X160022956Y-116617543D01*
X160032921Y-116638613D01*
X160040773Y-116660557D01*
X160046437Y-116683166D01*
X160049856Y-116706221D01*
X160051000Y-116729500D01*
X160051000Y-117204500D01*
X160049856Y-117227779D01*
X160046437Y-117250834D01*
X160040773Y-117273443D01*
X160032921Y-117295387D01*
X160022956Y-117316457D01*
X160010974Y-117336448D01*
X159997090Y-117355168D01*
X159981438Y-117372438D01*
X159964168Y-117388090D01*
X159945448Y-117401974D01*
X159925457Y-117413956D01*
X159904387Y-117423921D01*
X159882443Y-117431773D01*
X159859834Y-117437437D01*
X159836779Y-117440856D01*
X159813500Y-117442000D01*
X159238500Y-117442000D01*
X159215221Y-117440856D01*
X159192166Y-117437437D01*
X159169557Y-117431773D01*
X159147613Y-117423921D01*
X159126543Y-117413956D01*
X159106552Y-117401974D01*
X159087832Y-117388090D01*
X159070562Y-117372438D01*
X159054910Y-117355168D01*
X159041026Y-117336448D01*
X159029044Y-117316457D01*
X159019079Y-117295387D01*
X159011227Y-117273443D01*
X159005563Y-117250834D01*
X159002144Y-117227779D01*
X159001000Y-117204500D01*
X159001000Y-116729500D01*
X159002144Y-116706221D01*
X159005563Y-116683166D01*
X159011227Y-116660557D01*
X159019079Y-116638613D01*
X159029044Y-116617543D01*
X159041026Y-116597552D01*
X159054910Y-116578832D01*
X159070562Y-116561562D01*
X159087832Y-116545910D01*
X159106552Y-116532026D01*
X159126543Y-116520044D01*
X159147613Y-116510079D01*
X159169557Y-116502227D01*
X159192166Y-116496563D01*
X159215221Y-116493144D01*
X159238500Y-116492000D01*
X159813500Y-116492000D01*
X159836779Y-116493144D01*
X159836779Y-116493144D01*
G37*
D12*
X159526000Y-116967000D03*
D11*
G36*
X161586779Y-116493144D02*
G01*
X161609834Y-116496563D01*
X161632443Y-116502227D01*
X161654387Y-116510079D01*
X161675457Y-116520044D01*
X161695448Y-116532026D01*
X161714168Y-116545910D01*
X161731438Y-116561562D01*
X161747090Y-116578832D01*
X161760974Y-116597552D01*
X161772956Y-116617543D01*
X161782921Y-116638613D01*
X161790773Y-116660557D01*
X161796437Y-116683166D01*
X161799856Y-116706221D01*
X161801000Y-116729500D01*
X161801000Y-117204500D01*
X161799856Y-117227779D01*
X161796437Y-117250834D01*
X161790773Y-117273443D01*
X161782921Y-117295387D01*
X161772956Y-117316457D01*
X161760974Y-117336448D01*
X161747090Y-117355168D01*
X161731438Y-117372438D01*
X161714168Y-117388090D01*
X161695448Y-117401974D01*
X161675457Y-117413956D01*
X161654387Y-117423921D01*
X161632443Y-117431773D01*
X161609834Y-117437437D01*
X161586779Y-117440856D01*
X161563500Y-117442000D01*
X160988500Y-117442000D01*
X160965221Y-117440856D01*
X160942166Y-117437437D01*
X160919557Y-117431773D01*
X160897613Y-117423921D01*
X160876543Y-117413956D01*
X160856552Y-117401974D01*
X160837832Y-117388090D01*
X160820562Y-117372438D01*
X160804910Y-117355168D01*
X160791026Y-117336448D01*
X160779044Y-117316457D01*
X160769079Y-117295387D01*
X160761227Y-117273443D01*
X160755563Y-117250834D01*
X160752144Y-117227779D01*
X160751000Y-117204500D01*
X160751000Y-116729500D01*
X160752144Y-116706221D01*
X160755563Y-116683166D01*
X160761227Y-116660557D01*
X160769079Y-116638613D01*
X160779044Y-116617543D01*
X160791026Y-116597552D01*
X160804910Y-116578832D01*
X160820562Y-116561562D01*
X160837832Y-116545910D01*
X160856552Y-116532026D01*
X160876543Y-116520044D01*
X160897613Y-116510079D01*
X160919557Y-116502227D01*
X160942166Y-116496563D01*
X160965221Y-116493144D01*
X160988500Y-116492000D01*
X161563500Y-116492000D01*
X161586779Y-116493144D01*
X161586779Y-116493144D01*
G37*
D12*
X161276000Y-116967000D03*
D13*
X146812000Y-99823000D03*
X146812000Y-103123000D03*
D11*
G36*
X158629779Y-76551144D02*
G01*
X158652834Y-76554563D01*
X158675443Y-76560227D01*
X158697387Y-76568079D01*
X158718457Y-76578044D01*
X158738448Y-76590026D01*
X158757168Y-76603910D01*
X158774438Y-76619562D01*
X158790090Y-76636832D01*
X158803974Y-76655552D01*
X158815956Y-76675543D01*
X158825921Y-76696613D01*
X158833773Y-76718557D01*
X158839437Y-76741166D01*
X158842856Y-76764221D01*
X158844000Y-76787500D01*
X158844000Y-77362500D01*
X158842856Y-77385779D01*
X158839437Y-77408834D01*
X158833773Y-77431443D01*
X158825921Y-77453387D01*
X158815956Y-77474457D01*
X158803974Y-77494448D01*
X158790090Y-77513168D01*
X158774438Y-77530438D01*
X158757168Y-77546090D01*
X158738448Y-77559974D01*
X158718457Y-77571956D01*
X158697387Y-77581921D01*
X158675443Y-77589773D01*
X158652834Y-77595437D01*
X158629779Y-77598856D01*
X158606500Y-77600000D01*
X158131500Y-77600000D01*
X158108221Y-77598856D01*
X158085166Y-77595437D01*
X158062557Y-77589773D01*
X158040613Y-77581921D01*
X158019543Y-77571956D01*
X157999552Y-77559974D01*
X157980832Y-77546090D01*
X157963562Y-77530438D01*
X157947910Y-77513168D01*
X157934026Y-77494448D01*
X157922044Y-77474457D01*
X157912079Y-77453387D01*
X157904227Y-77431443D01*
X157898563Y-77408834D01*
X157895144Y-77385779D01*
X157894000Y-77362500D01*
X157894000Y-76787500D01*
X157895144Y-76764221D01*
X157898563Y-76741166D01*
X157904227Y-76718557D01*
X157912079Y-76696613D01*
X157922044Y-76675543D01*
X157934026Y-76655552D01*
X157947910Y-76636832D01*
X157963562Y-76619562D01*
X157980832Y-76603910D01*
X157999552Y-76590026D01*
X158019543Y-76578044D01*
X158040613Y-76568079D01*
X158062557Y-76560227D01*
X158085166Y-76554563D01*
X158108221Y-76551144D01*
X158131500Y-76550000D01*
X158606500Y-76550000D01*
X158629779Y-76551144D01*
X158629779Y-76551144D01*
G37*
D12*
X158369000Y-77075000D03*
D11*
G36*
X158629779Y-74801144D02*
G01*
X158652834Y-74804563D01*
X158675443Y-74810227D01*
X158697387Y-74818079D01*
X158718457Y-74828044D01*
X158738448Y-74840026D01*
X158757168Y-74853910D01*
X158774438Y-74869562D01*
X158790090Y-74886832D01*
X158803974Y-74905552D01*
X158815956Y-74925543D01*
X158825921Y-74946613D01*
X158833773Y-74968557D01*
X158839437Y-74991166D01*
X158842856Y-75014221D01*
X158844000Y-75037500D01*
X158844000Y-75612500D01*
X158842856Y-75635779D01*
X158839437Y-75658834D01*
X158833773Y-75681443D01*
X158825921Y-75703387D01*
X158815956Y-75724457D01*
X158803974Y-75744448D01*
X158790090Y-75763168D01*
X158774438Y-75780438D01*
X158757168Y-75796090D01*
X158738448Y-75809974D01*
X158718457Y-75821956D01*
X158697387Y-75831921D01*
X158675443Y-75839773D01*
X158652834Y-75845437D01*
X158629779Y-75848856D01*
X158606500Y-75850000D01*
X158131500Y-75850000D01*
X158108221Y-75848856D01*
X158085166Y-75845437D01*
X158062557Y-75839773D01*
X158040613Y-75831921D01*
X158019543Y-75821956D01*
X157999552Y-75809974D01*
X157980832Y-75796090D01*
X157963562Y-75780438D01*
X157947910Y-75763168D01*
X157934026Y-75744448D01*
X157922044Y-75724457D01*
X157912079Y-75703387D01*
X157904227Y-75681443D01*
X157898563Y-75658834D01*
X157895144Y-75635779D01*
X157894000Y-75612500D01*
X157894000Y-75037500D01*
X157895144Y-75014221D01*
X157898563Y-74991166D01*
X157904227Y-74968557D01*
X157912079Y-74946613D01*
X157922044Y-74925543D01*
X157934026Y-74905552D01*
X157947910Y-74886832D01*
X157963562Y-74869562D01*
X157980832Y-74853910D01*
X157999552Y-74840026D01*
X158019543Y-74828044D01*
X158040613Y-74818079D01*
X158062557Y-74810227D01*
X158085166Y-74804563D01*
X158108221Y-74801144D01*
X158131500Y-74800000D01*
X158606500Y-74800000D01*
X158629779Y-74801144D01*
X158629779Y-74801144D01*
G37*
D12*
X158369000Y-75325000D03*
D14*
X167513000Y-88741000D03*
X167513000Y-84741000D03*
D11*
G36*
X167987505Y-75744204D02*
G01*
X168011773Y-75747804D01*
X168035572Y-75753765D01*
X168058671Y-75762030D01*
X168080850Y-75772520D01*
X168101893Y-75785132D01*
X168121599Y-75799747D01*
X168139777Y-75816223D01*
X168156253Y-75834401D01*
X168170868Y-75854107D01*
X168183480Y-75875150D01*
X168193970Y-75897329D01*
X168202235Y-75920428D01*
X168208196Y-75944227D01*
X168211796Y-75968495D01*
X168213000Y-75992999D01*
X168213000Y-76643001D01*
X168211796Y-76667505D01*
X168208196Y-76691773D01*
X168202235Y-76715572D01*
X168193970Y-76738671D01*
X168183480Y-76760850D01*
X168170868Y-76781893D01*
X168156253Y-76801599D01*
X168139777Y-76819777D01*
X168121599Y-76836253D01*
X168101893Y-76850868D01*
X168080850Y-76863480D01*
X168058671Y-76873970D01*
X168035572Y-76882235D01*
X168011773Y-76888196D01*
X167987505Y-76891796D01*
X167963001Y-76893000D01*
X167062999Y-76893000D01*
X167038495Y-76891796D01*
X167014227Y-76888196D01*
X166990428Y-76882235D01*
X166967329Y-76873970D01*
X166945150Y-76863480D01*
X166924107Y-76850868D01*
X166904401Y-76836253D01*
X166886223Y-76819777D01*
X166869747Y-76801599D01*
X166855132Y-76781893D01*
X166842520Y-76760850D01*
X166832030Y-76738671D01*
X166823765Y-76715572D01*
X166817804Y-76691773D01*
X166814204Y-76667505D01*
X166813000Y-76643001D01*
X166813000Y-75992999D01*
X166814204Y-75968495D01*
X166817804Y-75944227D01*
X166823765Y-75920428D01*
X166832030Y-75897329D01*
X166842520Y-75875150D01*
X166855132Y-75854107D01*
X166869747Y-75834401D01*
X166886223Y-75816223D01*
X166904401Y-75799747D01*
X166924107Y-75785132D01*
X166945150Y-75772520D01*
X166967329Y-75762030D01*
X166990428Y-75753765D01*
X167014227Y-75747804D01*
X167038495Y-75744204D01*
X167062999Y-75743000D01*
X167963001Y-75743000D01*
X167987505Y-75744204D01*
X167987505Y-75744204D01*
G37*
D15*
X167513000Y-76318000D03*
D11*
G36*
X167987505Y-77794204D02*
G01*
X168011773Y-77797804D01*
X168035572Y-77803765D01*
X168058671Y-77812030D01*
X168080850Y-77822520D01*
X168101893Y-77835132D01*
X168121599Y-77849747D01*
X168139777Y-77866223D01*
X168156253Y-77884401D01*
X168170868Y-77904107D01*
X168183480Y-77925150D01*
X168193970Y-77947329D01*
X168202235Y-77970428D01*
X168208196Y-77994227D01*
X168211796Y-78018495D01*
X168213000Y-78042999D01*
X168213000Y-78693001D01*
X168211796Y-78717505D01*
X168208196Y-78741773D01*
X168202235Y-78765572D01*
X168193970Y-78788671D01*
X168183480Y-78810850D01*
X168170868Y-78831893D01*
X168156253Y-78851599D01*
X168139777Y-78869777D01*
X168121599Y-78886253D01*
X168101893Y-78900868D01*
X168080850Y-78913480D01*
X168058671Y-78923970D01*
X168035572Y-78932235D01*
X168011773Y-78938196D01*
X167987505Y-78941796D01*
X167963001Y-78943000D01*
X167062999Y-78943000D01*
X167038495Y-78941796D01*
X167014227Y-78938196D01*
X166990428Y-78932235D01*
X166967329Y-78923970D01*
X166945150Y-78913480D01*
X166924107Y-78900868D01*
X166904401Y-78886253D01*
X166886223Y-78869777D01*
X166869747Y-78851599D01*
X166855132Y-78831893D01*
X166842520Y-78810850D01*
X166832030Y-78788671D01*
X166823765Y-78765572D01*
X166817804Y-78741773D01*
X166814204Y-78717505D01*
X166813000Y-78693001D01*
X166813000Y-78042999D01*
X166814204Y-78018495D01*
X166817804Y-77994227D01*
X166823765Y-77970428D01*
X166832030Y-77947329D01*
X166842520Y-77925150D01*
X166855132Y-77904107D01*
X166869747Y-77884401D01*
X166886223Y-77866223D01*
X166904401Y-77849747D01*
X166924107Y-77835132D01*
X166945150Y-77822520D01*
X166967329Y-77812030D01*
X166990428Y-77803765D01*
X167014227Y-77797804D01*
X167038495Y-77794204D01*
X167062999Y-77793000D01*
X167963001Y-77793000D01*
X167987505Y-77794204D01*
X167987505Y-77794204D01*
G37*
D15*
X167513000Y-78368000D03*
D11*
G36*
X177766505Y-73585204D02*
G01*
X177790773Y-73588804D01*
X177814572Y-73594765D01*
X177837671Y-73603030D01*
X177859850Y-73613520D01*
X177880893Y-73626132D01*
X177900599Y-73640747D01*
X177918777Y-73657223D01*
X177935253Y-73675401D01*
X177949868Y-73695107D01*
X177962480Y-73716150D01*
X177972970Y-73738329D01*
X177981235Y-73761428D01*
X177987196Y-73785227D01*
X177990796Y-73809495D01*
X177992000Y-73833999D01*
X177992000Y-74484001D01*
X177990796Y-74508505D01*
X177987196Y-74532773D01*
X177981235Y-74556572D01*
X177972970Y-74579671D01*
X177962480Y-74601850D01*
X177949868Y-74622893D01*
X177935253Y-74642599D01*
X177918777Y-74660777D01*
X177900599Y-74677253D01*
X177880893Y-74691868D01*
X177859850Y-74704480D01*
X177837671Y-74714970D01*
X177814572Y-74723235D01*
X177790773Y-74729196D01*
X177766505Y-74732796D01*
X177742001Y-74734000D01*
X176841999Y-74734000D01*
X176817495Y-74732796D01*
X176793227Y-74729196D01*
X176769428Y-74723235D01*
X176746329Y-74714970D01*
X176724150Y-74704480D01*
X176703107Y-74691868D01*
X176683401Y-74677253D01*
X176665223Y-74660777D01*
X176648747Y-74642599D01*
X176634132Y-74622893D01*
X176621520Y-74601850D01*
X176611030Y-74579671D01*
X176602765Y-74556572D01*
X176596804Y-74532773D01*
X176593204Y-74508505D01*
X176592000Y-74484001D01*
X176592000Y-73833999D01*
X176593204Y-73809495D01*
X176596804Y-73785227D01*
X176602765Y-73761428D01*
X176611030Y-73738329D01*
X176621520Y-73716150D01*
X176634132Y-73695107D01*
X176648747Y-73675401D01*
X176665223Y-73657223D01*
X176683401Y-73640747D01*
X176703107Y-73626132D01*
X176724150Y-73613520D01*
X176746329Y-73603030D01*
X176769428Y-73594765D01*
X176793227Y-73588804D01*
X176817495Y-73585204D01*
X176841999Y-73584000D01*
X177742001Y-73584000D01*
X177766505Y-73585204D01*
X177766505Y-73585204D01*
G37*
D15*
X177292000Y-74159000D03*
D11*
G36*
X177766505Y-75635204D02*
G01*
X177790773Y-75638804D01*
X177814572Y-75644765D01*
X177837671Y-75653030D01*
X177859850Y-75663520D01*
X177880893Y-75676132D01*
X177900599Y-75690747D01*
X177918777Y-75707223D01*
X177935253Y-75725401D01*
X177949868Y-75745107D01*
X177962480Y-75766150D01*
X177972970Y-75788329D01*
X177981235Y-75811428D01*
X177987196Y-75835227D01*
X177990796Y-75859495D01*
X177992000Y-75883999D01*
X177992000Y-76534001D01*
X177990796Y-76558505D01*
X177987196Y-76582773D01*
X177981235Y-76606572D01*
X177972970Y-76629671D01*
X177962480Y-76651850D01*
X177949868Y-76672893D01*
X177935253Y-76692599D01*
X177918777Y-76710777D01*
X177900599Y-76727253D01*
X177880893Y-76741868D01*
X177859850Y-76754480D01*
X177837671Y-76764970D01*
X177814572Y-76773235D01*
X177790773Y-76779196D01*
X177766505Y-76782796D01*
X177742001Y-76784000D01*
X176841999Y-76784000D01*
X176817495Y-76782796D01*
X176793227Y-76779196D01*
X176769428Y-76773235D01*
X176746329Y-76764970D01*
X176724150Y-76754480D01*
X176703107Y-76741868D01*
X176683401Y-76727253D01*
X176665223Y-76710777D01*
X176648747Y-76692599D01*
X176634132Y-76672893D01*
X176621520Y-76651850D01*
X176611030Y-76629671D01*
X176602765Y-76606572D01*
X176596804Y-76582773D01*
X176593204Y-76558505D01*
X176592000Y-76534001D01*
X176592000Y-75883999D01*
X176593204Y-75859495D01*
X176596804Y-75835227D01*
X176602765Y-75811428D01*
X176611030Y-75788329D01*
X176621520Y-75766150D01*
X176634132Y-75745107D01*
X176648747Y-75725401D01*
X176665223Y-75707223D01*
X176683401Y-75690747D01*
X176703107Y-75676132D01*
X176724150Y-75663520D01*
X176746329Y-75653030D01*
X176769428Y-75644765D01*
X176793227Y-75638804D01*
X176817495Y-75635204D01*
X176841999Y-75634000D01*
X177742001Y-75634000D01*
X177766505Y-75635204D01*
X177766505Y-75635204D01*
G37*
D15*
X177292000Y-76209000D03*
D11*
G36*
X177766505Y-78157204D02*
G01*
X177790773Y-78160804D01*
X177814572Y-78166765D01*
X177837671Y-78175030D01*
X177859850Y-78185520D01*
X177880893Y-78198132D01*
X177900599Y-78212747D01*
X177918777Y-78229223D01*
X177935253Y-78247401D01*
X177949868Y-78267107D01*
X177962480Y-78288150D01*
X177972970Y-78310329D01*
X177981235Y-78333428D01*
X177987196Y-78357227D01*
X177990796Y-78381495D01*
X177992000Y-78405999D01*
X177992000Y-79056001D01*
X177990796Y-79080505D01*
X177987196Y-79104773D01*
X177981235Y-79128572D01*
X177972970Y-79151671D01*
X177962480Y-79173850D01*
X177949868Y-79194893D01*
X177935253Y-79214599D01*
X177918777Y-79232777D01*
X177900599Y-79249253D01*
X177880893Y-79263868D01*
X177859850Y-79276480D01*
X177837671Y-79286970D01*
X177814572Y-79295235D01*
X177790773Y-79301196D01*
X177766505Y-79304796D01*
X177742001Y-79306000D01*
X176841999Y-79306000D01*
X176817495Y-79304796D01*
X176793227Y-79301196D01*
X176769428Y-79295235D01*
X176746329Y-79286970D01*
X176724150Y-79276480D01*
X176703107Y-79263868D01*
X176683401Y-79249253D01*
X176665223Y-79232777D01*
X176648747Y-79214599D01*
X176634132Y-79194893D01*
X176621520Y-79173850D01*
X176611030Y-79151671D01*
X176602765Y-79128572D01*
X176596804Y-79104773D01*
X176593204Y-79080505D01*
X176592000Y-79056001D01*
X176592000Y-78405999D01*
X176593204Y-78381495D01*
X176596804Y-78357227D01*
X176602765Y-78333428D01*
X176611030Y-78310329D01*
X176621520Y-78288150D01*
X176634132Y-78267107D01*
X176648747Y-78247401D01*
X176665223Y-78229223D01*
X176683401Y-78212747D01*
X176703107Y-78198132D01*
X176724150Y-78185520D01*
X176746329Y-78175030D01*
X176769428Y-78166765D01*
X176793227Y-78160804D01*
X176817495Y-78157204D01*
X176841999Y-78156000D01*
X177742001Y-78156000D01*
X177766505Y-78157204D01*
X177766505Y-78157204D01*
G37*
D15*
X177292000Y-78731000D03*
D11*
G36*
X177766505Y-80207204D02*
G01*
X177790773Y-80210804D01*
X177814572Y-80216765D01*
X177837671Y-80225030D01*
X177859850Y-80235520D01*
X177880893Y-80248132D01*
X177900599Y-80262747D01*
X177918777Y-80279223D01*
X177935253Y-80297401D01*
X177949868Y-80317107D01*
X177962480Y-80338150D01*
X177972970Y-80360329D01*
X177981235Y-80383428D01*
X177987196Y-80407227D01*
X177990796Y-80431495D01*
X177992000Y-80455999D01*
X177992000Y-81106001D01*
X177990796Y-81130505D01*
X177987196Y-81154773D01*
X177981235Y-81178572D01*
X177972970Y-81201671D01*
X177962480Y-81223850D01*
X177949868Y-81244893D01*
X177935253Y-81264599D01*
X177918777Y-81282777D01*
X177900599Y-81299253D01*
X177880893Y-81313868D01*
X177859850Y-81326480D01*
X177837671Y-81336970D01*
X177814572Y-81345235D01*
X177790773Y-81351196D01*
X177766505Y-81354796D01*
X177742001Y-81356000D01*
X176841999Y-81356000D01*
X176817495Y-81354796D01*
X176793227Y-81351196D01*
X176769428Y-81345235D01*
X176746329Y-81336970D01*
X176724150Y-81326480D01*
X176703107Y-81313868D01*
X176683401Y-81299253D01*
X176665223Y-81282777D01*
X176648747Y-81264599D01*
X176634132Y-81244893D01*
X176621520Y-81223850D01*
X176611030Y-81201671D01*
X176602765Y-81178572D01*
X176596804Y-81154773D01*
X176593204Y-81130505D01*
X176592000Y-81106001D01*
X176592000Y-80455999D01*
X176593204Y-80431495D01*
X176596804Y-80407227D01*
X176602765Y-80383428D01*
X176611030Y-80360329D01*
X176621520Y-80338150D01*
X176634132Y-80317107D01*
X176648747Y-80297401D01*
X176665223Y-80279223D01*
X176683401Y-80262747D01*
X176703107Y-80248132D01*
X176724150Y-80235520D01*
X176746329Y-80225030D01*
X176769428Y-80216765D01*
X176793227Y-80210804D01*
X176817495Y-80207204D01*
X176841999Y-80206000D01*
X177742001Y-80206000D01*
X177766505Y-80207204D01*
X177766505Y-80207204D01*
G37*
D15*
X177292000Y-80781000D03*
M02*
