G04 #@! TF.GenerationSoftware,KiCad,Pcbnew,5.1.4+dfsg1-1*
G04 #@! TF.CreationDate,2020-03-04T00:22:40+00:00*
G04 #@! TF.ProjectId,UaElectrex_Phase1,5561456c-6563-4747-9265-785f50686173,rev?*
G04 #@! TF.SameCoordinates,Original*
G04 #@! TF.FileFunction,Copper,L1,Top*
G04 #@! TF.FilePolarity,Positive*
%FSLAX46Y46*%
G04 Gerber Fmt 4.6, Leading zero omitted, Abs format (unit mm)*
G04 Created by KiCad (PCBNEW 5.1.4+dfsg1-1) date 2020-03-04 00:22:40*
%MOMM*%
%LPD*%
G04 APERTURE LIST*
%ADD10C,4.000000*%
%ADD11C,1.600000*%
%ADD12R,1.600000X1.600000*%
%ADD13O,1.700000X1.700000*%
%ADD14R,1.700000X1.700000*%
%ADD15R,0.600000X1.550000*%
%ADD16O,2.000000X1.905000*%
%ADD17R,2.000000X1.905000*%
%ADD18C,0.100000*%
%ADD19C,0.950000*%
%ADD20R,1.200000X0.900000*%
%ADD21R,1.800000X2.500000*%
%ADD22C,1.150000*%
%ADD23C,0.500000*%
%ADD24C,0.200000*%
%ADD25C,0.254000*%
G04 APERTURE END LIST*
D10*
X177528500Y-90830000D03*
X177528500Y-115830000D03*
D11*
X180068500Y-107485000D03*
X180068500Y-104715000D03*
X180068500Y-101945000D03*
X180068500Y-99175000D03*
X177228500Y-108870000D03*
X177228500Y-106100000D03*
X177228500Y-103330000D03*
X177228500Y-100560000D03*
D12*
X177228500Y-97790000D03*
D13*
X127277799Y-110084999D03*
D14*
X127277799Y-117704999D03*
D13*
X127277799Y-112624999D03*
X127277799Y-115164999D03*
X127277799Y-74524999D03*
X127277799Y-89764999D03*
X127277799Y-105004999D03*
X127277799Y-87224999D03*
X127277799Y-107544999D03*
X127277799Y-82144999D03*
X127277799Y-102464999D03*
X127277799Y-77064999D03*
X127277799Y-79604999D03*
X127277799Y-97384999D03*
X127277799Y-94844999D03*
X127277799Y-92304999D03*
X127277799Y-84684999D03*
X127277799Y-99924999D03*
X153777799Y-74524999D03*
X153777799Y-77064999D03*
X153777799Y-79604999D03*
X153777799Y-82144999D03*
X153777799Y-84684999D03*
X153777799Y-87224999D03*
X153777799Y-89764999D03*
X153777799Y-92304999D03*
X153777799Y-94844999D03*
X153777799Y-97384999D03*
X153777799Y-99924999D03*
X153777799Y-102464999D03*
X153777799Y-105004999D03*
X153777799Y-107544999D03*
X153777799Y-110084999D03*
X153777799Y-112624999D03*
X153777799Y-115164999D03*
D14*
X153777799Y-117704999D03*
D15*
X167259000Y-103411000D03*
X165989000Y-103411000D03*
X164719000Y-103411000D03*
X163449000Y-103411000D03*
X163449000Y-98011000D03*
X164719000Y-98011000D03*
X165989000Y-98011000D03*
X167259000Y-98011000D03*
D16*
X173204000Y-74295000D03*
X173204000Y-76835000D03*
D17*
X173204000Y-79375000D03*
D16*
X161671000Y-79502000D03*
X161671000Y-76962000D03*
D17*
X161671000Y-74422000D03*
D18*
G36*
X165904779Y-112429144D02*
G01*
X165927834Y-112432563D01*
X165950443Y-112438227D01*
X165972387Y-112446079D01*
X165993457Y-112456044D01*
X166013448Y-112468026D01*
X166032168Y-112481910D01*
X166049438Y-112497562D01*
X166065090Y-112514832D01*
X166078974Y-112533552D01*
X166090956Y-112553543D01*
X166100921Y-112574613D01*
X166108773Y-112596557D01*
X166114437Y-112619166D01*
X166117856Y-112642221D01*
X166119000Y-112665500D01*
X166119000Y-113140500D01*
X166117856Y-113163779D01*
X166114437Y-113186834D01*
X166108773Y-113209443D01*
X166100921Y-113231387D01*
X166090956Y-113252457D01*
X166078974Y-113272448D01*
X166065090Y-113291168D01*
X166049438Y-113308438D01*
X166032168Y-113324090D01*
X166013448Y-113337974D01*
X165993457Y-113349956D01*
X165972387Y-113359921D01*
X165950443Y-113367773D01*
X165927834Y-113373437D01*
X165904779Y-113376856D01*
X165881500Y-113378000D01*
X165306500Y-113378000D01*
X165283221Y-113376856D01*
X165260166Y-113373437D01*
X165237557Y-113367773D01*
X165215613Y-113359921D01*
X165194543Y-113349956D01*
X165174552Y-113337974D01*
X165155832Y-113324090D01*
X165138562Y-113308438D01*
X165122910Y-113291168D01*
X165109026Y-113272448D01*
X165097044Y-113252457D01*
X165087079Y-113231387D01*
X165079227Y-113209443D01*
X165073563Y-113186834D01*
X165070144Y-113163779D01*
X165069000Y-113140500D01*
X165069000Y-112665500D01*
X165070144Y-112642221D01*
X165073563Y-112619166D01*
X165079227Y-112596557D01*
X165087079Y-112574613D01*
X165097044Y-112553543D01*
X165109026Y-112533552D01*
X165122910Y-112514832D01*
X165138562Y-112497562D01*
X165155832Y-112481910D01*
X165174552Y-112468026D01*
X165194543Y-112456044D01*
X165215613Y-112446079D01*
X165237557Y-112438227D01*
X165260166Y-112432563D01*
X165283221Y-112429144D01*
X165306500Y-112428000D01*
X165881500Y-112428000D01*
X165904779Y-112429144D01*
X165904779Y-112429144D01*
G37*
D19*
X165594000Y-112903000D03*
D18*
G36*
X164154779Y-112429144D02*
G01*
X164177834Y-112432563D01*
X164200443Y-112438227D01*
X164222387Y-112446079D01*
X164243457Y-112456044D01*
X164263448Y-112468026D01*
X164282168Y-112481910D01*
X164299438Y-112497562D01*
X164315090Y-112514832D01*
X164328974Y-112533552D01*
X164340956Y-112553543D01*
X164350921Y-112574613D01*
X164358773Y-112596557D01*
X164364437Y-112619166D01*
X164367856Y-112642221D01*
X164369000Y-112665500D01*
X164369000Y-113140500D01*
X164367856Y-113163779D01*
X164364437Y-113186834D01*
X164358773Y-113209443D01*
X164350921Y-113231387D01*
X164340956Y-113252457D01*
X164328974Y-113272448D01*
X164315090Y-113291168D01*
X164299438Y-113308438D01*
X164282168Y-113324090D01*
X164263448Y-113337974D01*
X164243457Y-113349956D01*
X164222387Y-113359921D01*
X164200443Y-113367773D01*
X164177834Y-113373437D01*
X164154779Y-113376856D01*
X164131500Y-113378000D01*
X163556500Y-113378000D01*
X163533221Y-113376856D01*
X163510166Y-113373437D01*
X163487557Y-113367773D01*
X163465613Y-113359921D01*
X163444543Y-113349956D01*
X163424552Y-113337974D01*
X163405832Y-113324090D01*
X163388562Y-113308438D01*
X163372910Y-113291168D01*
X163359026Y-113272448D01*
X163347044Y-113252457D01*
X163337079Y-113231387D01*
X163329227Y-113209443D01*
X163323563Y-113186834D01*
X163320144Y-113163779D01*
X163319000Y-113140500D01*
X163319000Y-112665500D01*
X163320144Y-112642221D01*
X163323563Y-112619166D01*
X163329227Y-112596557D01*
X163337079Y-112574613D01*
X163347044Y-112553543D01*
X163359026Y-112533552D01*
X163372910Y-112514832D01*
X163388562Y-112497562D01*
X163405832Y-112481910D01*
X163424552Y-112468026D01*
X163444543Y-112456044D01*
X163465613Y-112446079D01*
X163487557Y-112438227D01*
X163510166Y-112432563D01*
X163533221Y-112429144D01*
X163556500Y-112428000D01*
X164131500Y-112428000D01*
X164154779Y-112429144D01*
X164154779Y-112429144D01*
G37*
D19*
X163844000Y-112903000D03*
D18*
G36*
X165904779Y-116493144D02*
G01*
X165927834Y-116496563D01*
X165950443Y-116502227D01*
X165972387Y-116510079D01*
X165993457Y-116520044D01*
X166013448Y-116532026D01*
X166032168Y-116545910D01*
X166049438Y-116561562D01*
X166065090Y-116578832D01*
X166078974Y-116597552D01*
X166090956Y-116617543D01*
X166100921Y-116638613D01*
X166108773Y-116660557D01*
X166114437Y-116683166D01*
X166117856Y-116706221D01*
X166119000Y-116729500D01*
X166119000Y-117204500D01*
X166117856Y-117227779D01*
X166114437Y-117250834D01*
X166108773Y-117273443D01*
X166100921Y-117295387D01*
X166090956Y-117316457D01*
X166078974Y-117336448D01*
X166065090Y-117355168D01*
X166049438Y-117372438D01*
X166032168Y-117388090D01*
X166013448Y-117401974D01*
X165993457Y-117413956D01*
X165972387Y-117423921D01*
X165950443Y-117431773D01*
X165927834Y-117437437D01*
X165904779Y-117440856D01*
X165881500Y-117442000D01*
X165306500Y-117442000D01*
X165283221Y-117440856D01*
X165260166Y-117437437D01*
X165237557Y-117431773D01*
X165215613Y-117423921D01*
X165194543Y-117413956D01*
X165174552Y-117401974D01*
X165155832Y-117388090D01*
X165138562Y-117372438D01*
X165122910Y-117355168D01*
X165109026Y-117336448D01*
X165097044Y-117316457D01*
X165087079Y-117295387D01*
X165079227Y-117273443D01*
X165073563Y-117250834D01*
X165070144Y-117227779D01*
X165069000Y-117204500D01*
X165069000Y-116729500D01*
X165070144Y-116706221D01*
X165073563Y-116683166D01*
X165079227Y-116660557D01*
X165087079Y-116638613D01*
X165097044Y-116617543D01*
X165109026Y-116597552D01*
X165122910Y-116578832D01*
X165138562Y-116561562D01*
X165155832Y-116545910D01*
X165174552Y-116532026D01*
X165194543Y-116520044D01*
X165215613Y-116510079D01*
X165237557Y-116502227D01*
X165260166Y-116496563D01*
X165283221Y-116493144D01*
X165306500Y-116492000D01*
X165881500Y-116492000D01*
X165904779Y-116493144D01*
X165904779Y-116493144D01*
G37*
D19*
X165594000Y-116967000D03*
D18*
G36*
X164154779Y-116493144D02*
G01*
X164177834Y-116496563D01*
X164200443Y-116502227D01*
X164222387Y-116510079D01*
X164243457Y-116520044D01*
X164263448Y-116532026D01*
X164282168Y-116545910D01*
X164299438Y-116561562D01*
X164315090Y-116578832D01*
X164328974Y-116597552D01*
X164340956Y-116617543D01*
X164350921Y-116638613D01*
X164358773Y-116660557D01*
X164364437Y-116683166D01*
X164367856Y-116706221D01*
X164369000Y-116729500D01*
X164369000Y-117204500D01*
X164367856Y-117227779D01*
X164364437Y-117250834D01*
X164358773Y-117273443D01*
X164350921Y-117295387D01*
X164340956Y-117316457D01*
X164328974Y-117336448D01*
X164315090Y-117355168D01*
X164299438Y-117372438D01*
X164282168Y-117388090D01*
X164263448Y-117401974D01*
X164243457Y-117413956D01*
X164222387Y-117423921D01*
X164200443Y-117431773D01*
X164177834Y-117437437D01*
X164154779Y-117440856D01*
X164131500Y-117442000D01*
X163556500Y-117442000D01*
X163533221Y-117440856D01*
X163510166Y-117437437D01*
X163487557Y-117431773D01*
X163465613Y-117423921D01*
X163444543Y-117413956D01*
X163424552Y-117401974D01*
X163405832Y-117388090D01*
X163388562Y-117372438D01*
X163372910Y-117355168D01*
X163359026Y-117336448D01*
X163347044Y-117316457D01*
X163337079Y-117295387D01*
X163329227Y-117273443D01*
X163323563Y-117250834D01*
X163320144Y-117227779D01*
X163319000Y-117204500D01*
X163319000Y-116729500D01*
X163320144Y-116706221D01*
X163323563Y-116683166D01*
X163329227Y-116660557D01*
X163337079Y-116638613D01*
X163347044Y-116617543D01*
X163359026Y-116597552D01*
X163372910Y-116578832D01*
X163388562Y-116561562D01*
X163405832Y-116545910D01*
X163424552Y-116532026D01*
X163444543Y-116520044D01*
X163465613Y-116510079D01*
X163487557Y-116502227D01*
X163510166Y-116496563D01*
X163533221Y-116493144D01*
X163556500Y-116492000D01*
X164131500Y-116492000D01*
X164154779Y-116493144D01*
X164154779Y-116493144D01*
G37*
D19*
X163844000Y-116967000D03*
D18*
G36*
X158629779Y-78865144D02*
G01*
X158652834Y-78868563D01*
X158675443Y-78874227D01*
X158697387Y-78882079D01*
X158718457Y-78892044D01*
X158738448Y-78904026D01*
X158757168Y-78917910D01*
X158774438Y-78933562D01*
X158790090Y-78950832D01*
X158803974Y-78969552D01*
X158815956Y-78989543D01*
X158825921Y-79010613D01*
X158833773Y-79032557D01*
X158839437Y-79055166D01*
X158842856Y-79078221D01*
X158844000Y-79101500D01*
X158844000Y-79676500D01*
X158842856Y-79699779D01*
X158839437Y-79722834D01*
X158833773Y-79745443D01*
X158825921Y-79767387D01*
X158815956Y-79788457D01*
X158803974Y-79808448D01*
X158790090Y-79827168D01*
X158774438Y-79844438D01*
X158757168Y-79860090D01*
X158738448Y-79873974D01*
X158718457Y-79885956D01*
X158697387Y-79895921D01*
X158675443Y-79903773D01*
X158652834Y-79909437D01*
X158629779Y-79912856D01*
X158606500Y-79914000D01*
X158131500Y-79914000D01*
X158108221Y-79912856D01*
X158085166Y-79909437D01*
X158062557Y-79903773D01*
X158040613Y-79895921D01*
X158019543Y-79885956D01*
X157999552Y-79873974D01*
X157980832Y-79860090D01*
X157963562Y-79844438D01*
X157947910Y-79827168D01*
X157934026Y-79808448D01*
X157922044Y-79788457D01*
X157912079Y-79767387D01*
X157904227Y-79745443D01*
X157898563Y-79722834D01*
X157895144Y-79699779D01*
X157894000Y-79676500D01*
X157894000Y-79101500D01*
X157895144Y-79078221D01*
X157898563Y-79055166D01*
X157904227Y-79032557D01*
X157912079Y-79010613D01*
X157922044Y-78989543D01*
X157934026Y-78969552D01*
X157947910Y-78950832D01*
X157963562Y-78933562D01*
X157980832Y-78917910D01*
X157999552Y-78904026D01*
X158019543Y-78892044D01*
X158040613Y-78882079D01*
X158062557Y-78874227D01*
X158085166Y-78868563D01*
X158108221Y-78865144D01*
X158131500Y-78864000D01*
X158606500Y-78864000D01*
X158629779Y-78865144D01*
X158629779Y-78865144D01*
G37*
D19*
X158369000Y-79389000D03*
D18*
G36*
X158629779Y-80615144D02*
G01*
X158652834Y-80618563D01*
X158675443Y-80624227D01*
X158697387Y-80632079D01*
X158718457Y-80642044D01*
X158738448Y-80654026D01*
X158757168Y-80667910D01*
X158774438Y-80683562D01*
X158790090Y-80700832D01*
X158803974Y-80719552D01*
X158815956Y-80739543D01*
X158825921Y-80760613D01*
X158833773Y-80782557D01*
X158839437Y-80805166D01*
X158842856Y-80828221D01*
X158844000Y-80851500D01*
X158844000Y-81426500D01*
X158842856Y-81449779D01*
X158839437Y-81472834D01*
X158833773Y-81495443D01*
X158825921Y-81517387D01*
X158815956Y-81538457D01*
X158803974Y-81558448D01*
X158790090Y-81577168D01*
X158774438Y-81594438D01*
X158757168Y-81610090D01*
X158738448Y-81623974D01*
X158718457Y-81635956D01*
X158697387Y-81645921D01*
X158675443Y-81653773D01*
X158652834Y-81659437D01*
X158629779Y-81662856D01*
X158606500Y-81664000D01*
X158131500Y-81664000D01*
X158108221Y-81662856D01*
X158085166Y-81659437D01*
X158062557Y-81653773D01*
X158040613Y-81645921D01*
X158019543Y-81635956D01*
X157999552Y-81623974D01*
X157980832Y-81610090D01*
X157963562Y-81594438D01*
X157947910Y-81577168D01*
X157934026Y-81558448D01*
X157922044Y-81538457D01*
X157912079Y-81517387D01*
X157904227Y-81495443D01*
X157898563Y-81472834D01*
X157895144Y-81449779D01*
X157894000Y-81426500D01*
X157894000Y-80851500D01*
X157895144Y-80828221D01*
X157898563Y-80805166D01*
X157904227Y-80782557D01*
X157912079Y-80760613D01*
X157922044Y-80739543D01*
X157934026Y-80719552D01*
X157947910Y-80700832D01*
X157963562Y-80683562D01*
X157980832Y-80667910D01*
X157999552Y-80654026D01*
X158019543Y-80642044D01*
X158040613Y-80632079D01*
X158062557Y-80624227D01*
X158085166Y-80618563D01*
X158108221Y-80615144D01*
X158131500Y-80614000D01*
X158606500Y-80614000D01*
X158629779Y-80615144D01*
X158629779Y-80615144D01*
G37*
D19*
X158369000Y-81139000D03*
D18*
G36*
X147072779Y-94218144D02*
G01*
X147095834Y-94221563D01*
X147118443Y-94227227D01*
X147140387Y-94235079D01*
X147161457Y-94245044D01*
X147181448Y-94257026D01*
X147200168Y-94270910D01*
X147217438Y-94286562D01*
X147233090Y-94303832D01*
X147246974Y-94322552D01*
X147258956Y-94342543D01*
X147268921Y-94363613D01*
X147276773Y-94385557D01*
X147282437Y-94408166D01*
X147285856Y-94431221D01*
X147287000Y-94454500D01*
X147287000Y-95029500D01*
X147285856Y-95052779D01*
X147282437Y-95075834D01*
X147276773Y-95098443D01*
X147268921Y-95120387D01*
X147258956Y-95141457D01*
X147246974Y-95161448D01*
X147233090Y-95180168D01*
X147217438Y-95197438D01*
X147200168Y-95213090D01*
X147181448Y-95226974D01*
X147161457Y-95238956D01*
X147140387Y-95248921D01*
X147118443Y-95256773D01*
X147095834Y-95262437D01*
X147072779Y-95265856D01*
X147049500Y-95267000D01*
X146574500Y-95267000D01*
X146551221Y-95265856D01*
X146528166Y-95262437D01*
X146505557Y-95256773D01*
X146483613Y-95248921D01*
X146462543Y-95238956D01*
X146442552Y-95226974D01*
X146423832Y-95213090D01*
X146406562Y-95197438D01*
X146390910Y-95180168D01*
X146377026Y-95161448D01*
X146365044Y-95141457D01*
X146355079Y-95120387D01*
X146347227Y-95098443D01*
X146341563Y-95075834D01*
X146338144Y-95052779D01*
X146337000Y-95029500D01*
X146337000Y-94454500D01*
X146338144Y-94431221D01*
X146341563Y-94408166D01*
X146347227Y-94385557D01*
X146355079Y-94363613D01*
X146365044Y-94342543D01*
X146377026Y-94322552D01*
X146390910Y-94303832D01*
X146406562Y-94286562D01*
X146423832Y-94270910D01*
X146442552Y-94257026D01*
X146462543Y-94245044D01*
X146483613Y-94235079D01*
X146505557Y-94227227D01*
X146528166Y-94221563D01*
X146551221Y-94218144D01*
X146574500Y-94217000D01*
X147049500Y-94217000D01*
X147072779Y-94218144D01*
X147072779Y-94218144D01*
G37*
D19*
X146812000Y-94742000D03*
D18*
G36*
X147072779Y-95968144D02*
G01*
X147095834Y-95971563D01*
X147118443Y-95977227D01*
X147140387Y-95985079D01*
X147161457Y-95995044D01*
X147181448Y-96007026D01*
X147200168Y-96020910D01*
X147217438Y-96036562D01*
X147233090Y-96053832D01*
X147246974Y-96072552D01*
X147258956Y-96092543D01*
X147268921Y-96113613D01*
X147276773Y-96135557D01*
X147282437Y-96158166D01*
X147285856Y-96181221D01*
X147287000Y-96204500D01*
X147287000Y-96779500D01*
X147285856Y-96802779D01*
X147282437Y-96825834D01*
X147276773Y-96848443D01*
X147268921Y-96870387D01*
X147258956Y-96891457D01*
X147246974Y-96911448D01*
X147233090Y-96930168D01*
X147217438Y-96947438D01*
X147200168Y-96963090D01*
X147181448Y-96976974D01*
X147161457Y-96988956D01*
X147140387Y-96998921D01*
X147118443Y-97006773D01*
X147095834Y-97012437D01*
X147072779Y-97015856D01*
X147049500Y-97017000D01*
X146574500Y-97017000D01*
X146551221Y-97015856D01*
X146528166Y-97012437D01*
X146505557Y-97006773D01*
X146483613Y-96998921D01*
X146462543Y-96988956D01*
X146442552Y-96976974D01*
X146423832Y-96963090D01*
X146406562Y-96947438D01*
X146390910Y-96930168D01*
X146377026Y-96911448D01*
X146365044Y-96891457D01*
X146355079Y-96870387D01*
X146347227Y-96848443D01*
X146341563Y-96825834D01*
X146338144Y-96802779D01*
X146337000Y-96779500D01*
X146337000Y-96204500D01*
X146338144Y-96181221D01*
X146341563Y-96158166D01*
X146347227Y-96135557D01*
X146355079Y-96113613D01*
X146365044Y-96092543D01*
X146377026Y-96072552D01*
X146390910Y-96053832D01*
X146406562Y-96036562D01*
X146423832Y-96020910D01*
X146442552Y-96007026D01*
X146462543Y-95995044D01*
X146483613Y-95985079D01*
X146505557Y-95977227D01*
X146528166Y-95971563D01*
X146551221Y-95968144D01*
X146574500Y-95967000D01*
X147049500Y-95967000D01*
X147072779Y-95968144D01*
X147072779Y-95968144D01*
G37*
D19*
X146812000Y-96492000D03*
D13*
X182118000Y-72644000D03*
X182118000Y-75184000D03*
X182118000Y-77724000D03*
X182118000Y-80264000D03*
X182118000Y-82804000D03*
D14*
X182118000Y-85344000D03*
D18*
G36*
X159709779Y-112429144D02*
G01*
X159732834Y-112432563D01*
X159755443Y-112438227D01*
X159777387Y-112446079D01*
X159798457Y-112456044D01*
X159818448Y-112468026D01*
X159837168Y-112481910D01*
X159854438Y-112497562D01*
X159870090Y-112514832D01*
X159883974Y-112533552D01*
X159895956Y-112553543D01*
X159905921Y-112574613D01*
X159913773Y-112596557D01*
X159919437Y-112619166D01*
X159922856Y-112642221D01*
X159924000Y-112665500D01*
X159924000Y-113140500D01*
X159922856Y-113163779D01*
X159919437Y-113186834D01*
X159913773Y-113209443D01*
X159905921Y-113231387D01*
X159895956Y-113252457D01*
X159883974Y-113272448D01*
X159870090Y-113291168D01*
X159854438Y-113308438D01*
X159837168Y-113324090D01*
X159818448Y-113337974D01*
X159798457Y-113349956D01*
X159777387Y-113359921D01*
X159755443Y-113367773D01*
X159732834Y-113373437D01*
X159709779Y-113376856D01*
X159686500Y-113378000D01*
X159111500Y-113378000D01*
X159088221Y-113376856D01*
X159065166Y-113373437D01*
X159042557Y-113367773D01*
X159020613Y-113359921D01*
X158999543Y-113349956D01*
X158979552Y-113337974D01*
X158960832Y-113324090D01*
X158943562Y-113308438D01*
X158927910Y-113291168D01*
X158914026Y-113272448D01*
X158902044Y-113252457D01*
X158892079Y-113231387D01*
X158884227Y-113209443D01*
X158878563Y-113186834D01*
X158875144Y-113163779D01*
X158874000Y-113140500D01*
X158874000Y-112665500D01*
X158875144Y-112642221D01*
X158878563Y-112619166D01*
X158884227Y-112596557D01*
X158892079Y-112574613D01*
X158902044Y-112553543D01*
X158914026Y-112533552D01*
X158927910Y-112514832D01*
X158943562Y-112497562D01*
X158960832Y-112481910D01*
X158979552Y-112468026D01*
X158999543Y-112456044D01*
X159020613Y-112446079D01*
X159042557Y-112438227D01*
X159065166Y-112432563D01*
X159088221Y-112429144D01*
X159111500Y-112428000D01*
X159686500Y-112428000D01*
X159709779Y-112429144D01*
X159709779Y-112429144D01*
G37*
D19*
X159399000Y-112903000D03*
D18*
G36*
X161459779Y-112429144D02*
G01*
X161482834Y-112432563D01*
X161505443Y-112438227D01*
X161527387Y-112446079D01*
X161548457Y-112456044D01*
X161568448Y-112468026D01*
X161587168Y-112481910D01*
X161604438Y-112497562D01*
X161620090Y-112514832D01*
X161633974Y-112533552D01*
X161645956Y-112553543D01*
X161655921Y-112574613D01*
X161663773Y-112596557D01*
X161669437Y-112619166D01*
X161672856Y-112642221D01*
X161674000Y-112665500D01*
X161674000Y-113140500D01*
X161672856Y-113163779D01*
X161669437Y-113186834D01*
X161663773Y-113209443D01*
X161655921Y-113231387D01*
X161645956Y-113252457D01*
X161633974Y-113272448D01*
X161620090Y-113291168D01*
X161604438Y-113308438D01*
X161587168Y-113324090D01*
X161568448Y-113337974D01*
X161548457Y-113349956D01*
X161527387Y-113359921D01*
X161505443Y-113367773D01*
X161482834Y-113373437D01*
X161459779Y-113376856D01*
X161436500Y-113378000D01*
X160861500Y-113378000D01*
X160838221Y-113376856D01*
X160815166Y-113373437D01*
X160792557Y-113367773D01*
X160770613Y-113359921D01*
X160749543Y-113349956D01*
X160729552Y-113337974D01*
X160710832Y-113324090D01*
X160693562Y-113308438D01*
X160677910Y-113291168D01*
X160664026Y-113272448D01*
X160652044Y-113252457D01*
X160642079Y-113231387D01*
X160634227Y-113209443D01*
X160628563Y-113186834D01*
X160625144Y-113163779D01*
X160624000Y-113140500D01*
X160624000Y-112665500D01*
X160625144Y-112642221D01*
X160628563Y-112619166D01*
X160634227Y-112596557D01*
X160642079Y-112574613D01*
X160652044Y-112553543D01*
X160664026Y-112533552D01*
X160677910Y-112514832D01*
X160693562Y-112497562D01*
X160710832Y-112481910D01*
X160729552Y-112468026D01*
X160749543Y-112456044D01*
X160770613Y-112446079D01*
X160792557Y-112438227D01*
X160815166Y-112432563D01*
X160838221Y-112429144D01*
X160861500Y-112428000D01*
X161436500Y-112428000D01*
X161459779Y-112429144D01*
X161459779Y-112429144D01*
G37*
D19*
X161149000Y-112903000D03*
D18*
G36*
X159836779Y-116493144D02*
G01*
X159859834Y-116496563D01*
X159882443Y-116502227D01*
X159904387Y-116510079D01*
X159925457Y-116520044D01*
X159945448Y-116532026D01*
X159964168Y-116545910D01*
X159981438Y-116561562D01*
X159997090Y-116578832D01*
X160010974Y-116597552D01*
X160022956Y-116617543D01*
X160032921Y-116638613D01*
X160040773Y-116660557D01*
X160046437Y-116683166D01*
X160049856Y-116706221D01*
X160051000Y-116729500D01*
X160051000Y-117204500D01*
X160049856Y-117227779D01*
X160046437Y-117250834D01*
X160040773Y-117273443D01*
X160032921Y-117295387D01*
X160022956Y-117316457D01*
X160010974Y-117336448D01*
X159997090Y-117355168D01*
X159981438Y-117372438D01*
X159964168Y-117388090D01*
X159945448Y-117401974D01*
X159925457Y-117413956D01*
X159904387Y-117423921D01*
X159882443Y-117431773D01*
X159859834Y-117437437D01*
X159836779Y-117440856D01*
X159813500Y-117442000D01*
X159238500Y-117442000D01*
X159215221Y-117440856D01*
X159192166Y-117437437D01*
X159169557Y-117431773D01*
X159147613Y-117423921D01*
X159126543Y-117413956D01*
X159106552Y-117401974D01*
X159087832Y-117388090D01*
X159070562Y-117372438D01*
X159054910Y-117355168D01*
X159041026Y-117336448D01*
X159029044Y-117316457D01*
X159019079Y-117295387D01*
X159011227Y-117273443D01*
X159005563Y-117250834D01*
X159002144Y-117227779D01*
X159001000Y-117204500D01*
X159001000Y-116729500D01*
X159002144Y-116706221D01*
X159005563Y-116683166D01*
X159011227Y-116660557D01*
X159019079Y-116638613D01*
X159029044Y-116617543D01*
X159041026Y-116597552D01*
X159054910Y-116578832D01*
X159070562Y-116561562D01*
X159087832Y-116545910D01*
X159106552Y-116532026D01*
X159126543Y-116520044D01*
X159147613Y-116510079D01*
X159169557Y-116502227D01*
X159192166Y-116496563D01*
X159215221Y-116493144D01*
X159238500Y-116492000D01*
X159813500Y-116492000D01*
X159836779Y-116493144D01*
X159836779Y-116493144D01*
G37*
D19*
X159526000Y-116967000D03*
D18*
G36*
X161586779Y-116493144D02*
G01*
X161609834Y-116496563D01*
X161632443Y-116502227D01*
X161654387Y-116510079D01*
X161675457Y-116520044D01*
X161695448Y-116532026D01*
X161714168Y-116545910D01*
X161731438Y-116561562D01*
X161747090Y-116578832D01*
X161760974Y-116597552D01*
X161772956Y-116617543D01*
X161782921Y-116638613D01*
X161790773Y-116660557D01*
X161796437Y-116683166D01*
X161799856Y-116706221D01*
X161801000Y-116729500D01*
X161801000Y-117204500D01*
X161799856Y-117227779D01*
X161796437Y-117250834D01*
X161790773Y-117273443D01*
X161782921Y-117295387D01*
X161772956Y-117316457D01*
X161760974Y-117336448D01*
X161747090Y-117355168D01*
X161731438Y-117372438D01*
X161714168Y-117388090D01*
X161695448Y-117401974D01*
X161675457Y-117413956D01*
X161654387Y-117423921D01*
X161632443Y-117431773D01*
X161609834Y-117437437D01*
X161586779Y-117440856D01*
X161563500Y-117442000D01*
X160988500Y-117442000D01*
X160965221Y-117440856D01*
X160942166Y-117437437D01*
X160919557Y-117431773D01*
X160897613Y-117423921D01*
X160876543Y-117413956D01*
X160856552Y-117401974D01*
X160837832Y-117388090D01*
X160820562Y-117372438D01*
X160804910Y-117355168D01*
X160791026Y-117336448D01*
X160779044Y-117316457D01*
X160769079Y-117295387D01*
X160761227Y-117273443D01*
X160755563Y-117250834D01*
X160752144Y-117227779D01*
X160751000Y-117204500D01*
X160751000Y-116729500D01*
X160752144Y-116706221D01*
X160755563Y-116683166D01*
X160761227Y-116660557D01*
X160769079Y-116638613D01*
X160779044Y-116617543D01*
X160791026Y-116597552D01*
X160804910Y-116578832D01*
X160820562Y-116561562D01*
X160837832Y-116545910D01*
X160856552Y-116532026D01*
X160876543Y-116520044D01*
X160897613Y-116510079D01*
X160919557Y-116502227D01*
X160942166Y-116496563D01*
X160965221Y-116493144D01*
X160988500Y-116492000D01*
X161563500Y-116492000D01*
X161586779Y-116493144D01*
X161586779Y-116493144D01*
G37*
D19*
X161276000Y-116967000D03*
D20*
X146812000Y-99823000D03*
X146812000Y-103123000D03*
D18*
G36*
X158629779Y-76551144D02*
G01*
X158652834Y-76554563D01*
X158675443Y-76560227D01*
X158697387Y-76568079D01*
X158718457Y-76578044D01*
X158738448Y-76590026D01*
X158757168Y-76603910D01*
X158774438Y-76619562D01*
X158790090Y-76636832D01*
X158803974Y-76655552D01*
X158815956Y-76675543D01*
X158825921Y-76696613D01*
X158833773Y-76718557D01*
X158839437Y-76741166D01*
X158842856Y-76764221D01*
X158844000Y-76787500D01*
X158844000Y-77362500D01*
X158842856Y-77385779D01*
X158839437Y-77408834D01*
X158833773Y-77431443D01*
X158825921Y-77453387D01*
X158815956Y-77474457D01*
X158803974Y-77494448D01*
X158790090Y-77513168D01*
X158774438Y-77530438D01*
X158757168Y-77546090D01*
X158738448Y-77559974D01*
X158718457Y-77571956D01*
X158697387Y-77581921D01*
X158675443Y-77589773D01*
X158652834Y-77595437D01*
X158629779Y-77598856D01*
X158606500Y-77600000D01*
X158131500Y-77600000D01*
X158108221Y-77598856D01*
X158085166Y-77595437D01*
X158062557Y-77589773D01*
X158040613Y-77581921D01*
X158019543Y-77571956D01*
X157999552Y-77559974D01*
X157980832Y-77546090D01*
X157963562Y-77530438D01*
X157947910Y-77513168D01*
X157934026Y-77494448D01*
X157922044Y-77474457D01*
X157912079Y-77453387D01*
X157904227Y-77431443D01*
X157898563Y-77408834D01*
X157895144Y-77385779D01*
X157894000Y-77362500D01*
X157894000Y-76787500D01*
X157895144Y-76764221D01*
X157898563Y-76741166D01*
X157904227Y-76718557D01*
X157912079Y-76696613D01*
X157922044Y-76675543D01*
X157934026Y-76655552D01*
X157947910Y-76636832D01*
X157963562Y-76619562D01*
X157980832Y-76603910D01*
X157999552Y-76590026D01*
X158019543Y-76578044D01*
X158040613Y-76568079D01*
X158062557Y-76560227D01*
X158085166Y-76554563D01*
X158108221Y-76551144D01*
X158131500Y-76550000D01*
X158606500Y-76550000D01*
X158629779Y-76551144D01*
X158629779Y-76551144D01*
G37*
D19*
X158369000Y-77075000D03*
D18*
G36*
X158629779Y-74801144D02*
G01*
X158652834Y-74804563D01*
X158675443Y-74810227D01*
X158697387Y-74818079D01*
X158718457Y-74828044D01*
X158738448Y-74840026D01*
X158757168Y-74853910D01*
X158774438Y-74869562D01*
X158790090Y-74886832D01*
X158803974Y-74905552D01*
X158815956Y-74925543D01*
X158825921Y-74946613D01*
X158833773Y-74968557D01*
X158839437Y-74991166D01*
X158842856Y-75014221D01*
X158844000Y-75037500D01*
X158844000Y-75612500D01*
X158842856Y-75635779D01*
X158839437Y-75658834D01*
X158833773Y-75681443D01*
X158825921Y-75703387D01*
X158815956Y-75724457D01*
X158803974Y-75744448D01*
X158790090Y-75763168D01*
X158774438Y-75780438D01*
X158757168Y-75796090D01*
X158738448Y-75809974D01*
X158718457Y-75821956D01*
X158697387Y-75831921D01*
X158675443Y-75839773D01*
X158652834Y-75845437D01*
X158629779Y-75848856D01*
X158606500Y-75850000D01*
X158131500Y-75850000D01*
X158108221Y-75848856D01*
X158085166Y-75845437D01*
X158062557Y-75839773D01*
X158040613Y-75831921D01*
X158019543Y-75821956D01*
X157999552Y-75809974D01*
X157980832Y-75796090D01*
X157963562Y-75780438D01*
X157947910Y-75763168D01*
X157934026Y-75744448D01*
X157922044Y-75724457D01*
X157912079Y-75703387D01*
X157904227Y-75681443D01*
X157898563Y-75658834D01*
X157895144Y-75635779D01*
X157894000Y-75612500D01*
X157894000Y-75037500D01*
X157895144Y-75014221D01*
X157898563Y-74991166D01*
X157904227Y-74968557D01*
X157912079Y-74946613D01*
X157922044Y-74925543D01*
X157934026Y-74905552D01*
X157947910Y-74886832D01*
X157963562Y-74869562D01*
X157980832Y-74853910D01*
X157999552Y-74840026D01*
X158019543Y-74828044D01*
X158040613Y-74818079D01*
X158062557Y-74810227D01*
X158085166Y-74804563D01*
X158108221Y-74801144D01*
X158131500Y-74800000D01*
X158606500Y-74800000D01*
X158629779Y-74801144D01*
X158629779Y-74801144D01*
G37*
D19*
X158369000Y-75325000D03*
D21*
X167513000Y-88741000D03*
X167513000Y-84741000D03*
D18*
G36*
X167987505Y-75744204D02*
G01*
X168011773Y-75747804D01*
X168035572Y-75753765D01*
X168058671Y-75762030D01*
X168080850Y-75772520D01*
X168101893Y-75785132D01*
X168121599Y-75799747D01*
X168139777Y-75816223D01*
X168156253Y-75834401D01*
X168170868Y-75854107D01*
X168183480Y-75875150D01*
X168193970Y-75897329D01*
X168202235Y-75920428D01*
X168208196Y-75944227D01*
X168211796Y-75968495D01*
X168213000Y-75992999D01*
X168213000Y-76643001D01*
X168211796Y-76667505D01*
X168208196Y-76691773D01*
X168202235Y-76715572D01*
X168193970Y-76738671D01*
X168183480Y-76760850D01*
X168170868Y-76781893D01*
X168156253Y-76801599D01*
X168139777Y-76819777D01*
X168121599Y-76836253D01*
X168101893Y-76850868D01*
X168080850Y-76863480D01*
X168058671Y-76873970D01*
X168035572Y-76882235D01*
X168011773Y-76888196D01*
X167987505Y-76891796D01*
X167963001Y-76893000D01*
X167062999Y-76893000D01*
X167038495Y-76891796D01*
X167014227Y-76888196D01*
X166990428Y-76882235D01*
X166967329Y-76873970D01*
X166945150Y-76863480D01*
X166924107Y-76850868D01*
X166904401Y-76836253D01*
X166886223Y-76819777D01*
X166869747Y-76801599D01*
X166855132Y-76781893D01*
X166842520Y-76760850D01*
X166832030Y-76738671D01*
X166823765Y-76715572D01*
X166817804Y-76691773D01*
X166814204Y-76667505D01*
X166813000Y-76643001D01*
X166813000Y-75992999D01*
X166814204Y-75968495D01*
X166817804Y-75944227D01*
X166823765Y-75920428D01*
X166832030Y-75897329D01*
X166842520Y-75875150D01*
X166855132Y-75854107D01*
X166869747Y-75834401D01*
X166886223Y-75816223D01*
X166904401Y-75799747D01*
X166924107Y-75785132D01*
X166945150Y-75772520D01*
X166967329Y-75762030D01*
X166990428Y-75753765D01*
X167014227Y-75747804D01*
X167038495Y-75744204D01*
X167062999Y-75743000D01*
X167963001Y-75743000D01*
X167987505Y-75744204D01*
X167987505Y-75744204D01*
G37*
D22*
X167513000Y-76318000D03*
D18*
G36*
X167987505Y-77794204D02*
G01*
X168011773Y-77797804D01*
X168035572Y-77803765D01*
X168058671Y-77812030D01*
X168080850Y-77822520D01*
X168101893Y-77835132D01*
X168121599Y-77849747D01*
X168139777Y-77866223D01*
X168156253Y-77884401D01*
X168170868Y-77904107D01*
X168183480Y-77925150D01*
X168193970Y-77947329D01*
X168202235Y-77970428D01*
X168208196Y-77994227D01*
X168211796Y-78018495D01*
X168213000Y-78042999D01*
X168213000Y-78693001D01*
X168211796Y-78717505D01*
X168208196Y-78741773D01*
X168202235Y-78765572D01*
X168193970Y-78788671D01*
X168183480Y-78810850D01*
X168170868Y-78831893D01*
X168156253Y-78851599D01*
X168139777Y-78869777D01*
X168121599Y-78886253D01*
X168101893Y-78900868D01*
X168080850Y-78913480D01*
X168058671Y-78923970D01*
X168035572Y-78932235D01*
X168011773Y-78938196D01*
X167987505Y-78941796D01*
X167963001Y-78943000D01*
X167062999Y-78943000D01*
X167038495Y-78941796D01*
X167014227Y-78938196D01*
X166990428Y-78932235D01*
X166967329Y-78923970D01*
X166945150Y-78913480D01*
X166924107Y-78900868D01*
X166904401Y-78886253D01*
X166886223Y-78869777D01*
X166869747Y-78851599D01*
X166855132Y-78831893D01*
X166842520Y-78810850D01*
X166832030Y-78788671D01*
X166823765Y-78765572D01*
X166817804Y-78741773D01*
X166814204Y-78717505D01*
X166813000Y-78693001D01*
X166813000Y-78042999D01*
X166814204Y-78018495D01*
X166817804Y-77994227D01*
X166823765Y-77970428D01*
X166832030Y-77947329D01*
X166842520Y-77925150D01*
X166855132Y-77904107D01*
X166869747Y-77884401D01*
X166886223Y-77866223D01*
X166904401Y-77849747D01*
X166924107Y-77835132D01*
X166945150Y-77822520D01*
X166967329Y-77812030D01*
X166990428Y-77803765D01*
X167014227Y-77797804D01*
X167038495Y-77794204D01*
X167062999Y-77793000D01*
X167963001Y-77793000D01*
X167987505Y-77794204D01*
X167987505Y-77794204D01*
G37*
D22*
X167513000Y-78368000D03*
D18*
G36*
X177766505Y-75635204D02*
G01*
X177790773Y-75638804D01*
X177814572Y-75644765D01*
X177837671Y-75653030D01*
X177859850Y-75663520D01*
X177880893Y-75676132D01*
X177900599Y-75690747D01*
X177918777Y-75707223D01*
X177935253Y-75725401D01*
X177949868Y-75745107D01*
X177962480Y-75766150D01*
X177972970Y-75788329D01*
X177981235Y-75811428D01*
X177987196Y-75835227D01*
X177990796Y-75859495D01*
X177992000Y-75883999D01*
X177992000Y-76534001D01*
X177990796Y-76558505D01*
X177987196Y-76582773D01*
X177981235Y-76606572D01*
X177972970Y-76629671D01*
X177962480Y-76651850D01*
X177949868Y-76672893D01*
X177935253Y-76692599D01*
X177918777Y-76710777D01*
X177900599Y-76727253D01*
X177880893Y-76741868D01*
X177859850Y-76754480D01*
X177837671Y-76764970D01*
X177814572Y-76773235D01*
X177790773Y-76779196D01*
X177766505Y-76782796D01*
X177742001Y-76784000D01*
X176841999Y-76784000D01*
X176817495Y-76782796D01*
X176793227Y-76779196D01*
X176769428Y-76773235D01*
X176746329Y-76764970D01*
X176724150Y-76754480D01*
X176703107Y-76741868D01*
X176683401Y-76727253D01*
X176665223Y-76710777D01*
X176648747Y-76692599D01*
X176634132Y-76672893D01*
X176621520Y-76651850D01*
X176611030Y-76629671D01*
X176602765Y-76606572D01*
X176596804Y-76582773D01*
X176593204Y-76558505D01*
X176592000Y-76534001D01*
X176592000Y-75883999D01*
X176593204Y-75859495D01*
X176596804Y-75835227D01*
X176602765Y-75811428D01*
X176611030Y-75788329D01*
X176621520Y-75766150D01*
X176634132Y-75745107D01*
X176648747Y-75725401D01*
X176665223Y-75707223D01*
X176683401Y-75690747D01*
X176703107Y-75676132D01*
X176724150Y-75663520D01*
X176746329Y-75653030D01*
X176769428Y-75644765D01*
X176793227Y-75638804D01*
X176817495Y-75635204D01*
X176841999Y-75634000D01*
X177742001Y-75634000D01*
X177766505Y-75635204D01*
X177766505Y-75635204D01*
G37*
D22*
X177292000Y-76209000D03*
D18*
G36*
X177766505Y-73585204D02*
G01*
X177790773Y-73588804D01*
X177814572Y-73594765D01*
X177837671Y-73603030D01*
X177859850Y-73613520D01*
X177880893Y-73626132D01*
X177900599Y-73640747D01*
X177918777Y-73657223D01*
X177935253Y-73675401D01*
X177949868Y-73695107D01*
X177962480Y-73716150D01*
X177972970Y-73738329D01*
X177981235Y-73761428D01*
X177987196Y-73785227D01*
X177990796Y-73809495D01*
X177992000Y-73833999D01*
X177992000Y-74484001D01*
X177990796Y-74508505D01*
X177987196Y-74532773D01*
X177981235Y-74556572D01*
X177972970Y-74579671D01*
X177962480Y-74601850D01*
X177949868Y-74622893D01*
X177935253Y-74642599D01*
X177918777Y-74660777D01*
X177900599Y-74677253D01*
X177880893Y-74691868D01*
X177859850Y-74704480D01*
X177837671Y-74714970D01*
X177814572Y-74723235D01*
X177790773Y-74729196D01*
X177766505Y-74732796D01*
X177742001Y-74734000D01*
X176841999Y-74734000D01*
X176817495Y-74732796D01*
X176793227Y-74729196D01*
X176769428Y-74723235D01*
X176746329Y-74714970D01*
X176724150Y-74704480D01*
X176703107Y-74691868D01*
X176683401Y-74677253D01*
X176665223Y-74660777D01*
X176648747Y-74642599D01*
X176634132Y-74622893D01*
X176621520Y-74601850D01*
X176611030Y-74579671D01*
X176602765Y-74556572D01*
X176596804Y-74532773D01*
X176593204Y-74508505D01*
X176592000Y-74484001D01*
X176592000Y-73833999D01*
X176593204Y-73809495D01*
X176596804Y-73785227D01*
X176602765Y-73761428D01*
X176611030Y-73738329D01*
X176621520Y-73716150D01*
X176634132Y-73695107D01*
X176648747Y-73675401D01*
X176665223Y-73657223D01*
X176683401Y-73640747D01*
X176703107Y-73626132D01*
X176724150Y-73613520D01*
X176746329Y-73603030D01*
X176769428Y-73594765D01*
X176793227Y-73588804D01*
X176817495Y-73585204D01*
X176841999Y-73584000D01*
X177742001Y-73584000D01*
X177766505Y-73585204D01*
X177766505Y-73585204D01*
G37*
D22*
X177292000Y-74159000D03*
D18*
G36*
X177766505Y-78157204D02*
G01*
X177790773Y-78160804D01*
X177814572Y-78166765D01*
X177837671Y-78175030D01*
X177859850Y-78185520D01*
X177880893Y-78198132D01*
X177900599Y-78212747D01*
X177918777Y-78229223D01*
X177935253Y-78247401D01*
X177949868Y-78267107D01*
X177962480Y-78288150D01*
X177972970Y-78310329D01*
X177981235Y-78333428D01*
X177987196Y-78357227D01*
X177990796Y-78381495D01*
X177992000Y-78405999D01*
X177992000Y-79056001D01*
X177990796Y-79080505D01*
X177987196Y-79104773D01*
X177981235Y-79128572D01*
X177972970Y-79151671D01*
X177962480Y-79173850D01*
X177949868Y-79194893D01*
X177935253Y-79214599D01*
X177918777Y-79232777D01*
X177900599Y-79249253D01*
X177880893Y-79263868D01*
X177859850Y-79276480D01*
X177837671Y-79286970D01*
X177814572Y-79295235D01*
X177790773Y-79301196D01*
X177766505Y-79304796D01*
X177742001Y-79306000D01*
X176841999Y-79306000D01*
X176817495Y-79304796D01*
X176793227Y-79301196D01*
X176769428Y-79295235D01*
X176746329Y-79286970D01*
X176724150Y-79276480D01*
X176703107Y-79263868D01*
X176683401Y-79249253D01*
X176665223Y-79232777D01*
X176648747Y-79214599D01*
X176634132Y-79194893D01*
X176621520Y-79173850D01*
X176611030Y-79151671D01*
X176602765Y-79128572D01*
X176596804Y-79104773D01*
X176593204Y-79080505D01*
X176592000Y-79056001D01*
X176592000Y-78405999D01*
X176593204Y-78381495D01*
X176596804Y-78357227D01*
X176602765Y-78333428D01*
X176611030Y-78310329D01*
X176621520Y-78288150D01*
X176634132Y-78267107D01*
X176648747Y-78247401D01*
X176665223Y-78229223D01*
X176683401Y-78212747D01*
X176703107Y-78198132D01*
X176724150Y-78185520D01*
X176746329Y-78175030D01*
X176769428Y-78166765D01*
X176793227Y-78160804D01*
X176817495Y-78157204D01*
X176841999Y-78156000D01*
X177742001Y-78156000D01*
X177766505Y-78157204D01*
X177766505Y-78157204D01*
G37*
D22*
X177292000Y-78731000D03*
D18*
G36*
X177766505Y-80207204D02*
G01*
X177790773Y-80210804D01*
X177814572Y-80216765D01*
X177837671Y-80225030D01*
X177859850Y-80235520D01*
X177880893Y-80248132D01*
X177900599Y-80262747D01*
X177918777Y-80279223D01*
X177935253Y-80297401D01*
X177949868Y-80317107D01*
X177962480Y-80338150D01*
X177972970Y-80360329D01*
X177981235Y-80383428D01*
X177987196Y-80407227D01*
X177990796Y-80431495D01*
X177992000Y-80455999D01*
X177992000Y-81106001D01*
X177990796Y-81130505D01*
X177987196Y-81154773D01*
X177981235Y-81178572D01*
X177972970Y-81201671D01*
X177962480Y-81223850D01*
X177949868Y-81244893D01*
X177935253Y-81264599D01*
X177918777Y-81282777D01*
X177900599Y-81299253D01*
X177880893Y-81313868D01*
X177859850Y-81326480D01*
X177837671Y-81336970D01*
X177814572Y-81345235D01*
X177790773Y-81351196D01*
X177766505Y-81354796D01*
X177742001Y-81356000D01*
X176841999Y-81356000D01*
X176817495Y-81354796D01*
X176793227Y-81351196D01*
X176769428Y-81345235D01*
X176746329Y-81336970D01*
X176724150Y-81326480D01*
X176703107Y-81313868D01*
X176683401Y-81299253D01*
X176665223Y-81282777D01*
X176648747Y-81264599D01*
X176634132Y-81244893D01*
X176621520Y-81223850D01*
X176611030Y-81201671D01*
X176602765Y-81178572D01*
X176596804Y-81154773D01*
X176593204Y-81130505D01*
X176592000Y-81106001D01*
X176592000Y-80455999D01*
X176593204Y-80431495D01*
X176596804Y-80407227D01*
X176602765Y-80383428D01*
X176611030Y-80360329D01*
X176621520Y-80338150D01*
X176634132Y-80317107D01*
X176648747Y-80297401D01*
X176665223Y-80279223D01*
X176683401Y-80262747D01*
X176703107Y-80248132D01*
X176724150Y-80235520D01*
X176746329Y-80225030D01*
X176769428Y-80216765D01*
X176793227Y-80210804D01*
X176817495Y-80207204D01*
X176841999Y-80206000D01*
X177742001Y-80206000D01*
X177766505Y-80207204D01*
X177766505Y-80207204D01*
G37*
D22*
X177292000Y-80781000D03*
D23*
X176666000Y-76835000D02*
X177292000Y-76209000D01*
X173204000Y-76835000D02*
X176666000Y-76835000D01*
X160171000Y-76962000D02*
X159512000Y-76303000D01*
X161671000Y-76962000D02*
X160171000Y-76962000D01*
X159512000Y-76303000D02*
X159512000Y-75565000D01*
X159272000Y-75325000D02*
X158369000Y-75325000D01*
X159512000Y-75565000D02*
X159272000Y-75325000D01*
X177292000Y-78731000D02*
X177292000Y-76209000D01*
D24*
X163449000Y-98011000D02*
X163449000Y-98486000D01*
D23*
X181111000Y-78731000D02*
X182118000Y-77724000D01*
X177292000Y-78731000D02*
X181111000Y-78731000D01*
X167513000Y-75643000D02*
X167308000Y-75438000D01*
X167513000Y-76318000D02*
X167513000Y-75643000D01*
X167308000Y-75438000D02*
X165608000Y-75438000D01*
X164084000Y-76962000D02*
X161671000Y-76962000D01*
X165608000Y-75438000D02*
X164084000Y-76962000D01*
X172687000Y-76318000D02*
X173204000Y-76835000D01*
X167513000Y-76318000D02*
X172687000Y-76318000D01*
D24*
X164992370Y-101238370D02*
X163449000Y-99695000D01*
X171608000Y-108870000D02*
X169418000Y-106680000D01*
X163449000Y-99695000D02*
X163449000Y-98011000D01*
X167894000Y-101238370D02*
X164992370Y-101238370D01*
X169418000Y-106680000D02*
X169418000Y-102762370D01*
X169418000Y-102762370D02*
X167894000Y-101238370D01*
X165594000Y-112903000D02*
X165594000Y-116967000D01*
X175820000Y-116967000D02*
X176957000Y-115830000D01*
D23*
X179070000Y-79709000D02*
X179070000Y-89288500D01*
X177292000Y-78731000D02*
X178092000Y-78731000D01*
X178092000Y-78731000D02*
X179070000Y-79709000D01*
D24*
X171608000Y-108870000D02*
X177228500Y-108870000D01*
X176391500Y-116967000D02*
X177528500Y-115830000D01*
X165594000Y-116967000D02*
X176391500Y-116967000D01*
D23*
X179070000Y-89288500D02*
X177528500Y-90830000D01*
X132207000Y-78422500D02*
X132207000Y-113030000D01*
X130072001Y-115164999D02*
X127277799Y-115164999D01*
X178743500Y-76209000D02*
X179641500Y-75311000D01*
X179641500Y-75311000D02*
X179641500Y-72009000D01*
X139255500Y-71374000D02*
X132207000Y-78422500D01*
X177292000Y-76209000D02*
X178743500Y-76209000D01*
X132207000Y-113030000D02*
X130072001Y-115164999D01*
X179641500Y-72009000D02*
X179006500Y-71374000D01*
X179006500Y-71374000D02*
X139255500Y-71374000D01*
X171704000Y-79375000D02*
X173204000Y-79375000D01*
X171129000Y-79375000D02*
X171704000Y-79375000D01*
X167513000Y-82991000D02*
X171129000Y-79375000D01*
X167513000Y-84741000D02*
X167513000Y-82991000D01*
X174610000Y-80781000D02*
X173204000Y-79375000D01*
X177292000Y-80781000D02*
X174610000Y-80781000D01*
X173077000Y-74422000D02*
X173204000Y-74295000D01*
X161671000Y-74422000D02*
X173077000Y-74422000D01*
X177156000Y-74295000D02*
X177292000Y-74159000D01*
X173204000Y-74295000D02*
X177156000Y-74295000D01*
X161623500Y-74422000D02*
X161671000Y-74422000D01*
X159845500Y-72644000D02*
X161623500Y-74422000D01*
X130199001Y-117704999D02*
X133604000Y-114300000D01*
X127277799Y-117704999D02*
X130199001Y-117704999D01*
X133604000Y-80772000D02*
X141732000Y-72644000D01*
X141732000Y-72644000D02*
X159845500Y-72644000D01*
X133604000Y-114300000D02*
X133604000Y-80772000D01*
X161671000Y-79502000D02*
X166379000Y-79502000D01*
X160034000Y-81139000D02*
X161671000Y-79502000D01*
X158369000Y-81139000D02*
X160034000Y-81139000D01*
D24*
X161671000Y-90678000D02*
X161671000Y-90424000D01*
X167259000Y-96266000D02*
X161671000Y-90678000D01*
X167259000Y-98011000D02*
X167259000Y-96266000D01*
X161671000Y-90424000D02*
X161671000Y-79502000D01*
D23*
X166379000Y-79502000D02*
X167513000Y-78368000D01*
X167513000Y-90491000D02*
X173355000Y-96333000D01*
X167513000Y-88741000D02*
X167513000Y-90491000D01*
X173355000Y-96333000D02*
X173355000Y-105156000D01*
X173355000Y-105156000D02*
X174299000Y-106100000D01*
X174299000Y-106100000D02*
X177228500Y-106100000D01*
X158369000Y-77075000D02*
X158369000Y-79389000D01*
D24*
X146812000Y-96492000D02*
X146812000Y-99823000D01*
X151682719Y-96492000D02*
X146812000Y-96492000D01*
X153777799Y-97384999D02*
X152575718Y-97384999D01*
X152575718Y-97384999D02*
X151682719Y-96492000D01*
X146812000Y-103773000D02*
X146812000Y-103123000D01*
X152727799Y-117704999D02*
X146812000Y-111789200D01*
X146812000Y-111789200D02*
X146812000Y-103773000D01*
X153777799Y-117704999D02*
X152727799Y-117704999D01*
X153777799Y-102464999D02*
X156083000Y-104770200D01*
X156083000Y-115697000D02*
X157353000Y-116967000D01*
X156083000Y-104770200D02*
X156083000Y-115697000D01*
X159526000Y-116967000D02*
X157353000Y-116967000D01*
X163844000Y-116967000D02*
X161276000Y-116967000D01*
X153777799Y-99924999D02*
X156718000Y-102865200D01*
X156718000Y-102865200D02*
X156718000Y-111887000D01*
X156718000Y-111887000D02*
X157734000Y-112903000D01*
X157734000Y-112903000D02*
X159399000Y-112903000D01*
X163844000Y-112903000D02*
X163219000Y-112903000D01*
X161149000Y-112903000D02*
X163844000Y-112903000D01*
X181356000Y-107632500D02*
X181208500Y-107485000D01*
X167259000Y-107061000D02*
X171069000Y-110871000D01*
X167259000Y-103411000D02*
X167259000Y-107061000D01*
X180594000Y-110871000D02*
X181356000Y-110109000D01*
X181208500Y-107485000D02*
X180068500Y-107485000D01*
X171069000Y-110871000D02*
X180594000Y-110871000D01*
X181356000Y-110109000D02*
X181356000Y-107632500D01*
X180661000Y-104715000D02*
X179497000Y-104715000D01*
X181864000Y-105219500D02*
X181359500Y-104715000D01*
X181864000Y-110363000D02*
X181864000Y-105219500D01*
X165989000Y-106934000D02*
X170434000Y-111379000D01*
X165989000Y-103411000D02*
X165989000Y-106934000D01*
X181359500Y-104715000D02*
X180068500Y-104715000D01*
X170434000Y-111379000D02*
X180848000Y-111379000D01*
X180848000Y-111379000D02*
X181864000Y-110363000D01*
X182499000Y-102870000D02*
X181574000Y-101945000D01*
X164719000Y-106807000D02*
X169926000Y-112014000D01*
X180975000Y-112014000D02*
X182499000Y-110490000D01*
X164719000Y-103411000D02*
X164719000Y-106807000D01*
X181574000Y-101945000D02*
X180068500Y-101945000D01*
X169926000Y-112014000D02*
X180975000Y-112014000D01*
X182499000Y-110490000D02*
X182499000Y-102870000D01*
X182423500Y-99175000D02*
X180068500Y-99175000D01*
X183388000Y-100139500D02*
X182423500Y-99175000D01*
X183388000Y-110744000D02*
X183388000Y-100139500D01*
X163449000Y-106807000D02*
X169291000Y-112649000D01*
X163449000Y-103411000D02*
X163449000Y-106807000D01*
X169291000Y-112649000D02*
X181483000Y-112649000D01*
X181483000Y-112649000D02*
X183388000Y-110744000D01*
X165989000Y-98011000D02*
X165989000Y-96589302D01*
X165989000Y-96589302D02*
X163094696Y-93694998D01*
X146812000Y-94742000D02*
X146812000Y-93853000D01*
X146812000Y-93853000D02*
X147066000Y-93599000D01*
X163094696Y-93694998D02*
X163094696Y-93689196D01*
X163094696Y-93689196D02*
X163004500Y-93599000D01*
X163004500Y-93599000D02*
X153987500Y-93599000D01*
X147066000Y-93599000D02*
X153987500Y-93599000D01*
X153987500Y-93599000D02*
X154051000Y-93599000D01*
X153777799Y-94844999D02*
X162916999Y-94844999D01*
X164719000Y-96647000D02*
X164719000Y-98011000D01*
X162916999Y-94844999D02*
X164719000Y-96647000D01*
D25*
G36*
X184158001Y-119832500D02*
G01*
X123944000Y-119832500D01*
X123944000Y-116854999D01*
X125789727Y-116854999D01*
X125789727Y-118554999D01*
X125801987Y-118679481D01*
X125838297Y-118799179D01*
X125897262Y-118909493D01*
X125976614Y-119006184D01*
X126073305Y-119085536D01*
X126183619Y-119144501D01*
X126303317Y-119180811D01*
X126427799Y-119193071D01*
X128127799Y-119193071D01*
X128252281Y-119180811D01*
X128371979Y-119144501D01*
X128482293Y-119085536D01*
X128578984Y-119006184D01*
X128658336Y-118909493D01*
X128717301Y-118799179D01*
X128753611Y-118679481D01*
X128762424Y-118589999D01*
X130155532Y-118589999D01*
X130199001Y-118594280D01*
X130242470Y-118589999D01*
X130242478Y-118589999D01*
X130372491Y-118577194D01*
X130539314Y-118526588D01*
X130693060Y-118444410D01*
X130827818Y-118333816D01*
X130855535Y-118300043D01*
X134199050Y-114956529D01*
X134232817Y-114928817D01*
X134277897Y-114873888D01*
X134343411Y-114794059D01*
X134425588Y-114640314D01*
X134425589Y-114640313D01*
X134476195Y-114473490D01*
X134489000Y-114343477D01*
X134489000Y-114343469D01*
X134493281Y-114300000D01*
X134489000Y-114256531D01*
X134489000Y-81138578D01*
X142098579Y-73529000D01*
X152674134Y-73529000D01*
X152537093Y-73695985D01*
X152399200Y-73953965D01*
X152314286Y-74233888D01*
X152285614Y-74524999D01*
X152314286Y-74816110D01*
X152399200Y-75096033D01*
X152537093Y-75354013D01*
X152722665Y-75580133D01*
X152948785Y-75765705D01*
X153003590Y-75794999D01*
X152948785Y-75824293D01*
X152722665Y-76009865D01*
X152537093Y-76235985D01*
X152399200Y-76493965D01*
X152314286Y-76773888D01*
X152285614Y-77064999D01*
X152314286Y-77356110D01*
X152399200Y-77636033D01*
X152537093Y-77894013D01*
X152722665Y-78120133D01*
X152948785Y-78305705D01*
X153003590Y-78334999D01*
X152948785Y-78364293D01*
X152722665Y-78549865D01*
X152537093Y-78775985D01*
X152399200Y-79033965D01*
X152314286Y-79313888D01*
X152285614Y-79604999D01*
X152314286Y-79896110D01*
X152399200Y-80176033D01*
X152537093Y-80434013D01*
X152722665Y-80660133D01*
X152948785Y-80845705D01*
X153003590Y-80874999D01*
X152948785Y-80904293D01*
X152722665Y-81089865D01*
X152537093Y-81315985D01*
X152399200Y-81573965D01*
X152314286Y-81853888D01*
X152285614Y-82144999D01*
X152314286Y-82436110D01*
X152399200Y-82716033D01*
X152537093Y-82974013D01*
X152722665Y-83200133D01*
X152948785Y-83385705D01*
X153003590Y-83414999D01*
X152948785Y-83444293D01*
X152722665Y-83629865D01*
X152537093Y-83855985D01*
X152399200Y-84113965D01*
X152314286Y-84393888D01*
X152285614Y-84684999D01*
X152314286Y-84976110D01*
X152399200Y-85256033D01*
X152537093Y-85514013D01*
X152722665Y-85740133D01*
X152948785Y-85925705D01*
X153003590Y-85954999D01*
X152948785Y-85984293D01*
X152722665Y-86169865D01*
X152537093Y-86395985D01*
X152399200Y-86653965D01*
X152314286Y-86933888D01*
X152285614Y-87224999D01*
X152314286Y-87516110D01*
X152399200Y-87796033D01*
X152537093Y-88054013D01*
X152722665Y-88280133D01*
X152948785Y-88465705D01*
X153003590Y-88494999D01*
X152948785Y-88524293D01*
X152722665Y-88709865D01*
X152537093Y-88935985D01*
X152399200Y-89193965D01*
X152314286Y-89473888D01*
X152285614Y-89764999D01*
X152314286Y-90056110D01*
X152399200Y-90336033D01*
X152537093Y-90594013D01*
X152722665Y-90820133D01*
X152948785Y-91005705D01*
X153003590Y-91034999D01*
X152948785Y-91064293D01*
X152722665Y-91249865D01*
X152537093Y-91475985D01*
X152399200Y-91733965D01*
X152314286Y-92013888D01*
X152285614Y-92304999D01*
X152314286Y-92596110D01*
X152395550Y-92864000D01*
X147102094Y-92864000D01*
X147065999Y-92860445D01*
X147029904Y-92864000D01*
X147029895Y-92864000D01*
X146921915Y-92874635D01*
X146783367Y-92916663D01*
X146655680Y-92984913D01*
X146543762Y-93076762D01*
X146520741Y-93104813D01*
X146317808Y-93307746D01*
X146289763Y-93330762D01*
X146197914Y-93442680D01*
X146143164Y-93545111D01*
X146129664Y-93570367D01*
X146087635Y-93708915D01*
X146085715Y-93728411D01*
X145955377Y-93835377D01*
X145846488Y-93968058D01*
X145765577Y-94119433D01*
X145715752Y-94283684D01*
X145698928Y-94454500D01*
X145698928Y-95029500D01*
X145715752Y-95200316D01*
X145765577Y-95364567D01*
X145846488Y-95515942D01*
X145929425Y-95617000D01*
X145846488Y-95718058D01*
X145765577Y-95869433D01*
X145715752Y-96033684D01*
X145698928Y-96204500D01*
X145698928Y-96779500D01*
X145715752Y-96950316D01*
X145765577Y-97114567D01*
X145846488Y-97265942D01*
X145955377Y-97398623D01*
X146077000Y-97498437D01*
X146077001Y-98750378D01*
X145967820Y-98783498D01*
X145857506Y-98842463D01*
X145760815Y-98921815D01*
X145681463Y-99018506D01*
X145622498Y-99128820D01*
X145586188Y-99248518D01*
X145573928Y-99373000D01*
X145573928Y-100273000D01*
X145586188Y-100397482D01*
X145622498Y-100517180D01*
X145681463Y-100627494D01*
X145760815Y-100724185D01*
X145857506Y-100803537D01*
X145967820Y-100862502D01*
X146087518Y-100898812D01*
X146212000Y-100911072D01*
X147412000Y-100911072D01*
X147536482Y-100898812D01*
X147656180Y-100862502D01*
X147766494Y-100803537D01*
X147863185Y-100724185D01*
X147942537Y-100627494D01*
X148001502Y-100517180D01*
X148037812Y-100397482D01*
X148050072Y-100273000D01*
X148050072Y-99373000D01*
X148037812Y-99248518D01*
X148001502Y-99128820D01*
X147942537Y-99018506D01*
X147863185Y-98921815D01*
X147766494Y-98842463D01*
X147656180Y-98783498D01*
X147547000Y-98750379D01*
X147547000Y-97498437D01*
X147668623Y-97398623D01*
X147777512Y-97265942D01*
X147798327Y-97227000D01*
X151378273Y-97227000D01*
X152030464Y-97879192D01*
X152053480Y-97907237D01*
X152165398Y-97999086D01*
X152293085Y-98067336D01*
X152431633Y-98109364D01*
X152483909Y-98114513D01*
X152537093Y-98214013D01*
X152722665Y-98440133D01*
X152948785Y-98625705D01*
X153003590Y-98654999D01*
X152948785Y-98684293D01*
X152722665Y-98869865D01*
X152537093Y-99095985D01*
X152399200Y-99353965D01*
X152314286Y-99633888D01*
X152285614Y-99924999D01*
X152314286Y-100216110D01*
X152399200Y-100496033D01*
X152537093Y-100754013D01*
X152722665Y-100980133D01*
X152948785Y-101165705D01*
X153003590Y-101194999D01*
X152948785Y-101224293D01*
X152722665Y-101409865D01*
X152537093Y-101635985D01*
X152399200Y-101893965D01*
X152314286Y-102173888D01*
X152285614Y-102464999D01*
X152314286Y-102756110D01*
X152399200Y-103036033D01*
X152537093Y-103294013D01*
X152722665Y-103520133D01*
X152948785Y-103705705D01*
X153003590Y-103734999D01*
X152948785Y-103764293D01*
X152722665Y-103949865D01*
X152537093Y-104175985D01*
X152399200Y-104433965D01*
X152314286Y-104713888D01*
X152285614Y-105004999D01*
X152314286Y-105296110D01*
X152399200Y-105576033D01*
X152537093Y-105834013D01*
X152722665Y-106060133D01*
X152948785Y-106245705D01*
X153003590Y-106274999D01*
X152948785Y-106304293D01*
X152722665Y-106489865D01*
X152537093Y-106715985D01*
X152399200Y-106973965D01*
X152314286Y-107253888D01*
X152285614Y-107544999D01*
X152314286Y-107836110D01*
X152399200Y-108116033D01*
X152537093Y-108374013D01*
X152722665Y-108600133D01*
X152948785Y-108785705D01*
X153003590Y-108814999D01*
X152948785Y-108844293D01*
X152722665Y-109029865D01*
X152537093Y-109255985D01*
X152399200Y-109513965D01*
X152314286Y-109793888D01*
X152285614Y-110084999D01*
X152314286Y-110376110D01*
X152399200Y-110656033D01*
X152537093Y-110914013D01*
X152722665Y-111140133D01*
X152948785Y-111325705D01*
X153003590Y-111354999D01*
X152948785Y-111384293D01*
X152722665Y-111569865D01*
X152537093Y-111795985D01*
X152399200Y-112053965D01*
X152314286Y-112333888D01*
X152285614Y-112624999D01*
X152314286Y-112916110D01*
X152399200Y-113196033D01*
X152537093Y-113454013D01*
X152722665Y-113680133D01*
X152948785Y-113865705D01*
X153003590Y-113894999D01*
X152948785Y-113924293D01*
X152722665Y-114109865D01*
X152537093Y-114335985D01*
X152399200Y-114593965D01*
X152314286Y-114873888D01*
X152285614Y-115164999D01*
X152314286Y-115456110D01*
X152399200Y-115736033D01*
X152537093Y-115994013D01*
X152722665Y-116220133D01*
X152752486Y-116244606D01*
X152683619Y-116265497D01*
X152573305Y-116324462D01*
X152476614Y-116403814D01*
X152471857Y-116409610D01*
X147547000Y-111484754D01*
X147547000Y-104195621D01*
X147656180Y-104162502D01*
X147766494Y-104103537D01*
X147863185Y-104024185D01*
X147942537Y-103927494D01*
X148001502Y-103817180D01*
X148037812Y-103697482D01*
X148050072Y-103573000D01*
X148050072Y-102673000D01*
X148037812Y-102548518D01*
X148001502Y-102428820D01*
X147942537Y-102318506D01*
X147863185Y-102221815D01*
X147766494Y-102142463D01*
X147656180Y-102083498D01*
X147536482Y-102047188D01*
X147412000Y-102034928D01*
X146212000Y-102034928D01*
X146087518Y-102047188D01*
X145967820Y-102083498D01*
X145857506Y-102142463D01*
X145760815Y-102221815D01*
X145681463Y-102318506D01*
X145622498Y-102428820D01*
X145586188Y-102548518D01*
X145573928Y-102673000D01*
X145573928Y-103573000D01*
X145586188Y-103697482D01*
X145622498Y-103817180D01*
X145681463Y-103927494D01*
X145760815Y-104024185D01*
X145857506Y-104103537D01*
X145967820Y-104162502D01*
X146077001Y-104195622D01*
X146077000Y-111753095D01*
X146073444Y-111789200D01*
X146087635Y-111933285D01*
X146097760Y-111966663D01*
X146129663Y-112071832D01*
X146197913Y-112199519D01*
X146289762Y-112311437D01*
X146317808Y-112334454D01*
X152182545Y-118199192D01*
X152205561Y-118227237D01*
X152289727Y-118296310D01*
X152289727Y-118554999D01*
X152301987Y-118679481D01*
X152338297Y-118799179D01*
X152397262Y-118909493D01*
X152476614Y-119006184D01*
X152573305Y-119085536D01*
X152683619Y-119144501D01*
X152803317Y-119180811D01*
X152927799Y-119193071D01*
X154627799Y-119193071D01*
X154752281Y-119180811D01*
X154871979Y-119144501D01*
X154982293Y-119085536D01*
X155078984Y-119006184D01*
X155158336Y-118909493D01*
X155217301Y-118799179D01*
X155253611Y-118679481D01*
X155265871Y-118554999D01*
X155265871Y-116854999D01*
X155253611Y-116730517D01*
X155217301Y-116610819D01*
X155158336Y-116500505D01*
X155078984Y-116403814D01*
X154982293Y-116324462D01*
X154871979Y-116265497D01*
X154803112Y-116244606D01*
X154832933Y-116220133D01*
X155018505Y-115994013D01*
X155156398Y-115736033D01*
X155241312Y-115456110D01*
X155269984Y-115164999D01*
X155241312Y-114873888D01*
X155156398Y-114593965D01*
X155018505Y-114335985D01*
X154832933Y-114109865D01*
X154606813Y-113924293D01*
X154552008Y-113894999D01*
X154606813Y-113865705D01*
X154832933Y-113680133D01*
X155018505Y-113454013D01*
X155156398Y-113196033D01*
X155241312Y-112916110D01*
X155269984Y-112624999D01*
X155241312Y-112333888D01*
X155156398Y-112053965D01*
X155018505Y-111795985D01*
X154832933Y-111569865D01*
X154606813Y-111384293D01*
X154552008Y-111354999D01*
X154606813Y-111325705D01*
X154832933Y-111140133D01*
X155018505Y-110914013D01*
X155156398Y-110656033D01*
X155241312Y-110376110D01*
X155269984Y-110084999D01*
X155241312Y-109793888D01*
X155156398Y-109513965D01*
X155018505Y-109255985D01*
X154832933Y-109029865D01*
X154606813Y-108844293D01*
X154552008Y-108814999D01*
X154606813Y-108785705D01*
X154832933Y-108600133D01*
X155018505Y-108374013D01*
X155156398Y-108116033D01*
X155241312Y-107836110D01*
X155269984Y-107544999D01*
X155241312Y-107253888D01*
X155156398Y-106973965D01*
X155018505Y-106715985D01*
X154832933Y-106489865D01*
X154606813Y-106304293D01*
X154552008Y-106274999D01*
X154606813Y-106245705D01*
X154832933Y-106060133D01*
X155018505Y-105834013D01*
X155156398Y-105576033D01*
X155241312Y-105296110D01*
X155269984Y-105004999D01*
X155269070Y-104995717D01*
X155348000Y-105074647D01*
X155348001Y-115660885D01*
X155344444Y-115697000D01*
X155358635Y-115841085D01*
X155386190Y-115931919D01*
X155400664Y-115979633D01*
X155468914Y-116107320D01*
X155560763Y-116219238D01*
X155588808Y-116242254D01*
X156807746Y-117461193D01*
X156830762Y-117489238D01*
X156942680Y-117581087D01*
X157070367Y-117649337D01*
X157208915Y-117691365D01*
X157316895Y-117702000D01*
X157316904Y-117702000D01*
X157352999Y-117705555D01*
X157389094Y-117702000D01*
X158519563Y-117702000D01*
X158619377Y-117823623D01*
X158752058Y-117932512D01*
X158903433Y-118013423D01*
X159067684Y-118063248D01*
X159238500Y-118080072D01*
X159813500Y-118080072D01*
X159984316Y-118063248D01*
X160148567Y-118013423D01*
X160299942Y-117932512D01*
X160401000Y-117849575D01*
X160502058Y-117932512D01*
X160653433Y-118013423D01*
X160817684Y-118063248D01*
X160988500Y-118080072D01*
X161563500Y-118080072D01*
X161734316Y-118063248D01*
X161898567Y-118013423D01*
X162049942Y-117932512D01*
X162182623Y-117823623D01*
X162282437Y-117702000D01*
X162837563Y-117702000D01*
X162937377Y-117823623D01*
X163070058Y-117932512D01*
X163221433Y-118013423D01*
X163385684Y-118063248D01*
X163556500Y-118080072D01*
X164131500Y-118080072D01*
X164302316Y-118063248D01*
X164466567Y-118013423D01*
X164617942Y-117932512D01*
X164641839Y-117912901D01*
X164714506Y-117972537D01*
X164824820Y-118031502D01*
X164944518Y-118067812D01*
X165069000Y-118080072D01*
X165308250Y-118077000D01*
X165467000Y-117918250D01*
X165467000Y-117094000D01*
X165721000Y-117094000D01*
X165721000Y-117918250D01*
X165879750Y-118077000D01*
X166119000Y-118080072D01*
X166243482Y-118067812D01*
X166363180Y-118031502D01*
X166473494Y-117972537D01*
X166570185Y-117893185D01*
X166649537Y-117796494D01*
X166708502Y-117686180D01*
X166711135Y-117677499D01*
X175860606Y-117677499D01*
X176076728Y-118044258D01*
X176536605Y-118284938D01*
X177034598Y-118431275D01*
X177551571Y-118477648D01*
X178067659Y-118422273D01*
X178563026Y-118267279D01*
X178980272Y-118044258D01*
X179196394Y-117677499D01*
X177528500Y-116009605D01*
X175860606Y-117677499D01*
X166711135Y-117677499D01*
X166744812Y-117566482D01*
X166757072Y-117442000D01*
X166754000Y-117252750D01*
X166595250Y-117094000D01*
X165721000Y-117094000D01*
X165467000Y-117094000D01*
X165447000Y-117094000D01*
X165447000Y-116840000D01*
X165467000Y-116840000D01*
X165467000Y-116015750D01*
X165721000Y-116015750D01*
X165721000Y-116840000D01*
X166595250Y-116840000D01*
X166754000Y-116681250D01*
X166757072Y-116492000D01*
X166744812Y-116367518D01*
X166708502Y-116247820D01*
X166649537Y-116137506D01*
X166570185Y-116040815D01*
X166473494Y-115961463D01*
X166363180Y-115902498D01*
X166243482Y-115866188D01*
X166119000Y-115853928D01*
X165879750Y-115857000D01*
X165721000Y-116015750D01*
X165467000Y-116015750D01*
X165308250Y-115857000D01*
X165069000Y-115853928D01*
X164944518Y-115866188D01*
X164824820Y-115902498D01*
X164714506Y-115961463D01*
X164641839Y-116021099D01*
X164617942Y-116001488D01*
X164466567Y-115920577D01*
X164302316Y-115870752D01*
X164131500Y-115853928D01*
X163556500Y-115853928D01*
X163385684Y-115870752D01*
X163221433Y-115920577D01*
X163070058Y-116001488D01*
X162937377Y-116110377D01*
X162837563Y-116232000D01*
X162282437Y-116232000D01*
X162182623Y-116110377D01*
X162049942Y-116001488D01*
X161898567Y-115920577D01*
X161734316Y-115870752D01*
X161563500Y-115853928D01*
X160988500Y-115853928D01*
X160817684Y-115870752D01*
X160653433Y-115920577D01*
X160502058Y-116001488D01*
X160401000Y-116084425D01*
X160299942Y-116001488D01*
X160148567Y-115920577D01*
X159984316Y-115870752D01*
X159813500Y-115853928D01*
X159238500Y-115853928D01*
X159067684Y-115870752D01*
X158903433Y-115920577D01*
X158752058Y-116001488D01*
X158619377Y-116110377D01*
X158519563Y-116232000D01*
X157657447Y-116232000D01*
X157278518Y-115853071D01*
X174880852Y-115853071D01*
X174936227Y-116369159D01*
X175091221Y-116864526D01*
X175314242Y-117281772D01*
X175681001Y-117497894D01*
X177348895Y-115830000D01*
X177708105Y-115830000D01*
X179375999Y-117497894D01*
X179742758Y-117281772D01*
X179983438Y-116821895D01*
X180129775Y-116323902D01*
X180176148Y-115806929D01*
X180120773Y-115290841D01*
X179965779Y-114795474D01*
X179742758Y-114378228D01*
X179375999Y-114162106D01*
X177708105Y-115830000D01*
X177348895Y-115830000D01*
X175681001Y-114162106D01*
X175314242Y-114378228D01*
X175073562Y-114838105D01*
X174927225Y-115336098D01*
X174880852Y-115853071D01*
X157278518Y-115853071D01*
X156818000Y-115392554D01*
X156818000Y-113026447D01*
X157188746Y-113397193D01*
X157211762Y-113425238D01*
X157323680Y-113517087D01*
X157451367Y-113585337D01*
X157547886Y-113614616D01*
X157589914Y-113627365D01*
X157734000Y-113641556D01*
X157770105Y-113638000D01*
X158392563Y-113638000D01*
X158492377Y-113759623D01*
X158625058Y-113868512D01*
X158776433Y-113949423D01*
X158940684Y-113999248D01*
X159111500Y-114016072D01*
X159686500Y-114016072D01*
X159857316Y-113999248D01*
X160021567Y-113949423D01*
X160172942Y-113868512D01*
X160274000Y-113785575D01*
X160375058Y-113868512D01*
X160526433Y-113949423D01*
X160690684Y-113999248D01*
X160861500Y-114016072D01*
X161436500Y-114016072D01*
X161607316Y-113999248D01*
X161771567Y-113949423D01*
X161922942Y-113868512D01*
X162055623Y-113759623D01*
X162155437Y-113638000D01*
X162837563Y-113638000D01*
X162937377Y-113759623D01*
X163070058Y-113868512D01*
X163221433Y-113949423D01*
X163385684Y-113999248D01*
X163556500Y-114016072D01*
X164131500Y-114016072D01*
X164302316Y-113999248D01*
X164466567Y-113949423D01*
X164617942Y-113868512D01*
X164641839Y-113848901D01*
X164714506Y-113908537D01*
X164824820Y-113967502D01*
X164944518Y-114003812D01*
X165069000Y-114016072D01*
X165308250Y-114013000D01*
X165467000Y-113854250D01*
X165467000Y-113030000D01*
X165721000Y-113030000D01*
X165721000Y-113854250D01*
X165879750Y-114013000D01*
X166119000Y-114016072D01*
X166243482Y-114003812D01*
X166363180Y-113967502D01*
X166473494Y-113908537D01*
X166570185Y-113829185D01*
X166649537Y-113732494D01*
X166708502Y-113622180D01*
X166744812Y-113502482D01*
X166757072Y-113378000D01*
X166754000Y-113188750D01*
X166595250Y-113030000D01*
X165721000Y-113030000D01*
X165467000Y-113030000D01*
X165447000Y-113030000D01*
X165447000Y-112776000D01*
X165467000Y-112776000D01*
X165467000Y-111951750D01*
X165721000Y-111951750D01*
X165721000Y-112776000D01*
X166595250Y-112776000D01*
X166754000Y-112617250D01*
X166757072Y-112428000D01*
X166744812Y-112303518D01*
X166708502Y-112183820D01*
X166649537Y-112073506D01*
X166570185Y-111976815D01*
X166473494Y-111897463D01*
X166363180Y-111838498D01*
X166243482Y-111802188D01*
X166119000Y-111789928D01*
X165879750Y-111793000D01*
X165721000Y-111951750D01*
X165467000Y-111951750D01*
X165308250Y-111793000D01*
X165069000Y-111789928D01*
X164944518Y-111802188D01*
X164824820Y-111838498D01*
X164714506Y-111897463D01*
X164641839Y-111957099D01*
X164617942Y-111937488D01*
X164466567Y-111856577D01*
X164302316Y-111806752D01*
X164131500Y-111789928D01*
X163556500Y-111789928D01*
X163385684Y-111806752D01*
X163221433Y-111856577D01*
X163070058Y-111937488D01*
X162937377Y-112046377D01*
X162837563Y-112168000D01*
X162155437Y-112168000D01*
X162055623Y-112046377D01*
X161922942Y-111937488D01*
X161771567Y-111856577D01*
X161607316Y-111806752D01*
X161436500Y-111789928D01*
X160861500Y-111789928D01*
X160690684Y-111806752D01*
X160526433Y-111856577D01*
X160375058Y-111937488D01*
X160274000Y-112020425D01*
X160172942Y-111937488D01*
X160021567Y-111856577D01*
X159857316Y-111806752D01*
X159686500Y-111789928D01*
X159111500Y-111789928D01*
X158940684Y-111806752D01*
X158776433Y-111856577D01*
X158625058Y-111937488D01*
X158492377Y-112046377D01*
X158392563Y-112168000D01*
X158038447Y-112168000D01*
X157453000Y-111582554D01*
X157453000Y-102901296D01*
X157456555Y-102865199D01*
X157453000Y-102829102D01*
X157453000Y-102829095D01*
X157442365Y-102721115D01*
X157439807Y-102712680D01*
X157429616Y-102679086D01*
X157416546Y-102636000D01*
X162510928Y-102636000D01*
X162510928Y-104186000D01*
X162523188Y-104310482D01*
X162559498Y-104430180D01*
X162618463Y-104540494D01*
X162697815Y-104637185D01*
X162714000Y-104650468D01*
X162714001Y-106770885D01*
X162710444Y-106807000D01*
X162724635Y-106951085D01*
X162757978Y-107061000D01*
X162766664Y-107089633D01*
X162834914Y-107217320D01*
X162926763Y-107329238D01*
X162954808Y-107352254D01*
X168745746Y-113143193D01*
X168768762Y-113171238D01*
X168796806Y-113194253D01*
X168880680Y-113263087D01*
X169008366Y-113331337D01*
X169146915Y-113373365D01*
X169291000Y-113387556D01*
X169327105Y-113384000D01*
X176521847Y-113384000D01*
X176493974Y-113392721D01*
X176076728Y-113615742D01*
X175860606Y-113982501D01*
X177528500Y-115650395D01*
X179196394Y-113982501D01*
X178980272Y-113615742D01*
X178537473Y-113384000D01*
X181446895Y-113384000D01*
X181483000Y-113387556D01*
X181519105Y-113384000D01*
X181627085Y-113373365D01*
X181765633Y-113331337D01*
X181893320Y-113263087D01*
X182005238Y-113171238D01*
X182028258Y-113143188D01*
X183882197Y-111289250D01*
X183910237Y-111266238D01*
X183933250Y-111238197D01*
X183933253Y-111238194D01*
X183960770Y-111204664D01*
X184002087Y-111154320D01*
X184070337Y-111026633D01*
X184112365Y-110888085D01*
X184123000Y-110780105D01*
X184123000Y-110780104D01*
X184126556Y-110744000D01*
X184123000Y-110707895D01*
X184123000Y-100175605D01*
X184126556Y-100139500D01*
X184112365Y-99995414D01*
X184099616Y-99953386D01*
X184070337Y-99856867D01*
X184002087Y-99729180D01*
X183910238Y-99617262D01*
X183882193Y-99594246D01*
X182968758Y-98680812D01*
X182945738Y-98652762D01*
X182833820Y-98560913D01*
X182706133Y-98492663D01*
X182567585Y-98450635D01*
X182459605Y-98440000D01*
X182423500Y-98436444D01*
X182387395Y-98440000D01*
X181303248Y-98440000D01*
X181183137Y-98260241D01*
X180983259Y-98060363D01*
X180748227Y-97903320D01*
X180487074Y-97795147D01*
X180209835Y-97740000D01*
X179927165Y-97740000D01*
X179649926Y-97795147D01*
X179388773Y-97903320D01*
X179153741Y-98060363D01*
X178953863Y-98260241D01*
X178796820Y-98495273D01*
X178688647Y-98756426D01*
X178633500Y-99033665D01*
X178633500Y-99316335D01*
X178688647Y-99593574D01*
X178796820Y-99854727D01*
X178953863Y-100089759D01*
X179153741Y-100289637D01*
X179388773Y-100446680D01*
X179649926Y-100554853D01*
X179675801Y-100560000D01*
X179649926Y-100565147D01*
X179388773Y-100673320D01*
X179153741Y-100830363D01*
X178953863Y-101030241D01*
X178796820Y-101265273D01*
X178688647Y-101526426D01*
X178633500Y-101803665D01*
X178633500Y-102086335D01*
X178688647Y-102363574D01*
X178796820Y-102624727D01*
X178953863Y-102859759D01*
X179153741Y-103059637D01*
X179388773Y-103216680D01*
X179649926Y-103324853D01*
X179675801Y-103330000D01*
X179649926Y-103335147D01*
X179388773Y-103443320D01*
X179153741Y-103600363D01*
X178953863Y-103800241D01*
X178796820Y-104035273D01*
X178688647Y-104296426D01*
X178633500Y-104573665D01*
X178633500Y-104856335D01*
X178688647Y-105133574D01*
X178796820Y-105394727D01*
X178953863Y-105629759D01*
X179153741Y-105829637D01*
X179388773Y-105986680D01*
X179649926Y-106094853D01*
X179675801Y-106100000D01*
X179649926Y-106105147D01*
X179388773Y-106213320D01*
X179153741Y-106370363D01*
X178953863Y-106570241D01*
X178796820Y-106805273D01*
X178688647Y-107066426D01*
X178633500Y-107343665D01*
X178633500Y-107626335D01*
X178688647Y-107903574D01*
X178796820Y-108164727D01*
X178953863Y-108399759D01*
X179153741Y-108599637D01*
X179388773Y-108756680D01*
X179649926Y-108864853D01*
X179927165Y-108920000D01*
X180209835Y-108920000D01*
X180487074Y-108864853D01*
X180621001Y-108809379D01*
X180621000Y-109804553D01*
X180289554Y-110136000D01*
X177915143Y-110136000D01*
X177970014Y-110106671D01*
X178041597Y-109862702D01*
X177228500Y-109049605D01*
X176415403Y-109862702D01*
X176486986Y-110106671D01*
X176548970Y-110136000D01*
X171373447Y-110136000D01*
X170177959Y-108940512D01*
X175788283Y-108940512D01*
X175829713Y-109220130D01*
X175924897Y-109486292D01*
X175991829Y-109611514D01*
X176235798Y-109683097D01*
X177048895Y-108870000D01*
X177408105Y-108870000D01*
X178221202Y-109683097D01*
X178465171Y-109611514D01*
X178586071Y-109356004D01*
X178654800Y-109081816D01*
X178668717Y-108799488D01*
X178627287Y-108519870D01*
X178532103Y-108253708D01*
X178465171Y-108128486D01*
X178221202Y-108056903D01*
X177408105Y-108870000D01*
X177048895Y-108870000D01*
X176235798Y-108056903D01*
X175991829Y-108128486D01*
X175870929Y-108383996D01*
X175802200Y-108658184D01*
X175788283Y-108940512D01*
X170177959Y-108940512D01*
X167994000Y-106756554D01*
X167994000Y-104650468D01*
X168010185Y-104637185D01*
X168089537Y-104540494D01*
X168148502Y-104430180D01*
X168184812Y-104310482D01*
X168197072Y-104186000D01*
X168197072Y-102636000D01*
X168184812Y-102511518D01*
X168148502Y-102391820D01*
X168089537Y-102281506D01*
X168010185Y-102184815D01*
X167913494Y-102105463D01*
X167803180Y-102046498D01*
X167683482Y-102010188D01*
X167559000Y-101997928D01*
X166959000Y-101997928D01*
X166834518Y-102010188D01*
X166714820Y-102046498D01*
X166624000Y-102095043D01*
X166533180Y-102046498D01*
X166413482Y-102010188D01*
X166289000Y-101997928D01*
X165689000Y-101997928D01*
X165564518Y-102010188D01*
X165444820Y-102046498D01*
X165354000Y-102095043D01*
X165263180Y-102046498D01*
X165143482Y-102010188D01*
X165019000Y-101997928D01*
X164419000Y-101997928D01*
X164294518Y-102010188D01*
X164174820Y-102046498D01*
X164084000Y-102095043D01*
X163993180Y-102046498D01*
X163873482Y-102010188D01*
X163749000Y-101997928D01*
X163149000Y-101997928D01*
X163024518Y-102010188D01*
X162904820Y-102046498D01*
X162794506Y-102105463D01*
X162697815Y-102184815D01*
X162618463Y-102281506D01*
X162559498Y-102391820D01*
X162523188Y-102511518D01*
X162510928Y-102636000D01*
X157416546Y-102636000D01*
X157400337Y-102582567D01*
X157332087Y-102454880D01*
X157299556Y-102415241D01*
X157263253Y-102371006D01*
X157263250Y-102371003D01*
X157240237Y-102342962D01*
X157212197Y-102319950D01*
X155210367Y-100318121D01*
X155241312Y-100216110D01*
X155269984Y-99924999D01*
X155241312Y-99633888D01*
X155156398Y-99353965D01*
X155018505Y-99095985D01*
X154832933Y-98869865D01*
X154730744Y-98786000D01*
X162510928Y-98786000D01*
X162523188Y-98910482D01*
X162559498Y-99030180D01*
X162618463Y-99140494D01*
X162697815Y-99237185D01*
X162794506Y-99316537D01*
X162904820Y-99375502D01*
X163024518Y-99411812D01*
X163149000Y-99424072D01*
X163163250Y-99421000D01*
X163322000Y-99262250D01*
X163322000Y-98138000D01*
X162672750Y-98138000D01*
X162514000Y-98296750D01*
X162510928Y-98786000D01*
X154730744Y-98786000D01*
X154606813Y-98684293D01*
X154552008Y-98654999D01*
X154606813Y-98625705D01*
X154832933Y-98440133D01*
X155018505Y-98214013D01*
X155156398Y-97956033D01*
X155241312Y-97676110D01*
X155269984Y-97384999D01*
X155255309Y-97236000D01*
X162510928Y-97236000D01*
X162514000Y-97725250D01*
X162672750Y-97884000D01*
X163322000Y-97884000D01*
X163322000Y-96759750D01*
X163163250Y-96601000D01*
X163149000Y-96597928D01*
X163024518Y-96610188D01*
X162904820Y-96646498D01*
X162794506Y-96705463D01*
X162697815Y-96784815D01*
X162618463Y-96881506D01*
X162559498Y-96991820D01*
X162523188Y-97111518D01*
X162510928Y-97236000D01*
X155255309Y-97236000D01*
X155241312Y-97093888D01*
X155156398Y-96813965D01*
X155018505Y-96555985D01*
X154832933Y-96329865D01*
X154606813Y-96144293D01*
X154552008Y-96114999D01*
X154606813Y-96085705D01*
X154832933Y-95900133D01*
X155018505Y-95674013D01*
X155068756Y-95579999D01*
X162612553Y-95579999D01*
X163684152Y-96651598D01*
X163576000Y-96759750D01*
X163576000Y-97884000D01*
X163596000Y-97884000D01*
X163596000Y-98138000D01*
X163576000Y-98138000D01*
X163576000Y-99262250D01*
X163734750Y-99421000D01*
X163749000Y-99424072D01*
X163873482Y-99411812D01*
X163993180Y-99375502D01*
X164084000Y-99326957D01*
X164174820Y-99375502D01*
X164294518Y-99411812D01*
X164419000Y-99424072D01*
X165019000Y-99424072D01*
X165143482Y-99411812D01*
X165263180Y-99375502D01*
X165354000Y-99326957D01*
X165444820Y-99375502D01*
X165564518Y-99411812D01*
X165689000Y-99424072D01*
X166289000Y-99424072D01*
X166413482Y-99411812D01*
X166533180Y-99375502D01*
X166624000Y-99326957D01*
X166714820Y-99375502D01*
X166834518Y-99411812D01*
X166959000Y-99424072D01*
X167559000Y-99424072D01*
X167683482Y-99411812D01*
X167803180Y-99375502D01*
X167913494Y-99316537D01*
X168010185Y-99237185D01*
X168089537Y-99140494D01*
X168148502Y-99030180D01*
X168184812Y-98910482D01*
X168197072Y-98786000D01*
X168197072Y-97236000D01*
X168184812Y-97111518D01*
X168148502Y-96991820D01*
X168089537Y-96881506D01*
X168010185Y-96784815D01*
X167994000Y-96771532D01*
X167994000Y-96302094D01*
X167997555Y-96265999D01*
X167994000Y-96229904D01*
X167994000Y-96229895D01*
X167983365Y-96121915D01*
X167941337Y-95983367D01*
X167873087Y-95855680D01*
X167781238Y-95743762D01*
X167753193Y-95720746D01*
X162406000Y-90373554D01*
X162406000Y-87491000D01*
X165974928Y-87491000D01*
X165974928Y-89991000D01*
X165987188Y-90115482D01*
X166023498Y-90235180D01*
X166082463Y-90345494D01*
X166161815Y-90442185D01*
X166258506Y-90521537D01*
X166368820Y-90580502D01*
X166488518Y-90616812D01*
X166613000Y-90629072D01*
X166637317Y-90629072D01*
X166640805Y-90664490D01*
X166691412Y-90831313D01*
X166773590Y-90985059D01*
X166856468Y-91086046D01*
X166856471Y-91086049D01*
X166884184Y-91119817D01*
X166917952Y-91147530D01*
X172470000Y-96699579D01*
X172470001Y-105112521D01*
X172465719Y-105156000D01*
X172482805Y-105329490D01*
X172533412Y-105496313D01*
X172615590Y-105650059D01*
X172698468Y-105751046D01*
X172698471Y-105751049D01*
X172726184Y-105784817D01*
X172759951Y-105812529D01*
X173642470Y-106695049D01*
X173670183Y-106728817D01*
X173703951Y-106756530D01*
X173703953Y-106756532D01*
X173804941Y-106839411D01*
X173958686Y-106921589D01*
X174094414Y-106962762D01*
X174125510Y-106972195D01*
X174255523Y-106985000D01*
X174255531Y-106985000D01*
X174299000Y-106989281D01*
X174342469Y-106985000D01*
X176093979Y-106985000D01*
X176113863Y-107014759D01*
X176313741Y-107214637D01*
X176548773Y-107371680D01*
X176809926Y-107479853D01*
X176838382Y-107485513D01*
X176612208Y-107566397D01*
X176486986Y-107633329D01*
X176415403Y-107877298D01*
X177228500Y-108690395D01*
X178041597Y-107877298D01*
X177970014Y-107633329D01*
X177714504Y-107512429D01*
X177612211Y-107486788D01*
X177647074Y-107479853D01*
X177908227Y-107371680D01*
X178143259Y-107214637D01*
X178343137Y-107014759D01*
X178500180Y-106779727D01*
X178608353Y-106518574D01*
X178663500Y-106241335D01*
X178663500Y-105958665D01*
X178608353Y-105681426D01*
X178500180Y-105420273D01*
X178343137Y-105185241D01*
X178143259Y-104985363D01*
X177908227Y-104828320D01*
X177647074Y-104720147D01*
X177621199Y-104715000D01*
X177647074Y-104709853D01*
X177908227Y-104601680D01*
X178143259Y-104444637D01*
X178343137Y-104244759D01*
X178500180Y-104009727D01*
X178608353Y-103748574D01*
X178663500Y-103471335D01*
X178663500Y-103188665D01*
X178608353Y-102911426D01*
X178500180Y-102650273D01*
X178343137Y-102415241D01*
X178143259Y-102215363D01*
X177908227Y-102058320D01*
X177647074Y-101950147D01*
X177621199Y-101945000D01*
X177647074Y-101939853D01*
X177908227Y-101831680D01*
X178143259Y-101674637D01*
X178343137Y-101474759D01*
X178500180Y-101239727D01*
X178608353Y-100978574D01*
X178663500Y-100701335D01*
X178663500Y-100418665D01*
X178608353Y-100141426D01*
X178500180Y-99880273D01*
X178343137Y-99645241D01*
X178143259Y-99445363D01*
X177908227Y-99288320D01*
X177762775Y-99228072D01*
X178028500Y-99228072D01*
X178152982Y-99215812D01*
X178272680Y-99179502D01*
X178382994Y-99120537D01*
X178479685Y-99041185D01*
X178559037Y-98944494D01*
X178618002Y-98834180D01*
X178654312Y-98714482D01*
X178666572Y-98590000D01*
X178666572Y-96990000D01*
X178654312Y-96865518D01*
X178618002Y-96745820D01*
X178559037Y-96635506D01*
X178479685Y-96538815D01*
X178382994Y-96459463D01*
X178272680Y-96400498D01*
X178152982Y-96364188D01*
X178028500Y-96351928D01*
X176428500Y-96351928D01*
X176304018Y-96364188D01*
X176184320Y-96400498D01*
X176074006Y-96459463D01*
X175977315Y-96538815D01*
X175897963Y-96635506D01*
X175838998Y-96745820D01*
X175802688Y-96865518D01*
X175790428Y-96990000D01*
X175790428Y-98590000D01*
X175802688Y-98714482D01*
X175838998Y-98834180D01*
X175897963Y-98944494D01*
X175977315Y-99041185D01*
X176074006Y-99120537D01*
X176184320Y-99179502D01*
X176304018Y-99215812D01*
X176428500Y-99228072D01*
X176694225Y-99228072D01*
X176548773Y-99288320D01*
X176313741Y-99445363D01*
X176113863Y-99645241D01*
X175956820Y-99880273D01*
X175848647Y-100141426D01*
X175793500Y-100418665D01*
X175793500Y-100701335D01*
X175848647Y-100978574D01*
X175956820Y-101239727D01*
X176113863Y-101474759D01*
X176313741Y-101674637D01*
X176548773Y-101831680D01*
X176809926Y-101939853D01*
X176835801Y-101945000D01*
X176809926Y-101950147D01*
X176548773Y-102058320D01*
X176313741Y-102215363D01*
X176113863Y-102415241D01*
X175956820Y-102650273D01*
X175848647Y-102911426D01*
X175793500Y-103188665D01*
X175793500Y-103471335D01*
X175848647Y-103748574D01*
X175956820Y-104009727D01*
X176113863Y-104244759D01*
X176313741Y-104444637D01*
X176548773Y-104601680D01*
X176809926Y-104709853D01*
X176835801Y-104715000D01*
X176809926Y-104720147D01*
X176548773Y-104828320D01*
X176313741Y-104985363D01*
X176113863Y-105185241D01*
X176093979Y-105215000D01*
X174665579Y-105215000D01*
X174240000Y-104789422D01*
X174240000Y-96376469D01*
X174244281Y-96333000D01*
X174240000Y-96289531D01*
X174240000Y-96289523D01*
X174227195Y-96159510D01*
X174222579Y-96144293D01*
X174176589Y-95992686D01*
X174094411Y-95838941D01*
X174011532Y-95737953D01*
X174011530Y-95737951D01*
X173983817Y-95704183D01*
X173950051Y-95676472D01*
X170951078Y-92677499D01*
X175860606Y-92677499D01*
X176076728Y-93044258D01*
X176536605Y-93284938D01*
X177034598Y-93431275D01*
X177551571Y-93477648D01*
X178067659Y-93422273D01*
X178563026Y-93267279D01*
X178980272Y-93044258D01*
X179196394Y-92677499D01*
X177528500Y-91009605D01*
X175860606Y-92677499D01*
X170951078Y-92677499D01*
X169126650Y-90853071D01*
X174880852Y-90853071D01*
X174936227Y-91369159D01*
X175091221Y-91864526D01*
X175314242Y-92281772D01*
X175681001Y-92497894D01*
X177348895Y-90830000D01*
X177708105Y-90830000D01*
X179375999Y-92497894D01*
X179742758Y-92281772D01*
X179983438Y-91821895D01*
X180129775Y-91323902D01*
X180176148Y-90806929D01*
X180120773Y-90290841D01*
X179965779Y-89795474D01*
X179742758Y-89378228D01*
X179375999Y-89162106D01*
X177708105Y-90830000D01*
X177348895Y-90830000D01*
X175681001Y-89162106D01*
X175314242Y-89378228D01*
X175073562Y-89838105D01*
X174927225Y-90336098D01*
X174880852Y-90853071D01*
X169126650Y-90853071D01*
X168782665Y-90509087D01*
X168864185Y-90442185D01*
X168943537Y-90345494D01*
X169002502Y-90235180D01*
X169038812Y-90115482D01*
X169051072Y-89991000D01*
X169051072Y-88982501D01*
X175860606Y-88982501D01*
X177528500Y-90650395D01*
X179196394Y-88982501D01*
X178980272Y-88615742D01*
X178520395Y-88375062D01*
X178022402Y-88228725D01*
X177505429Y-88182352D01*
X176989341Y-88237727D01*
X176493974Y-88392721D01*
X176076728Y-88615742D01*
X175860606Y-88982501D01*
X169051072Y-88982501D01*
X169051072Y-87491000D01*
X169038812Y-87366518D01*
X169002502Y-87246820D01*
X168943537Y-87136506D01*
X168864185Y-87039815D01*
X168767494Y-86960463D01*
X168657180Y-86901498D01*
X168537482Y-86865188D01*
X168413000Y-86852928D01*
X166613000Y-86852928D01*
X166488518Y-86865188D01*
X166368820Y-86901498D01*
X166258506Y-86960463D01*
X166161815Y-87039815D01*
X166082463Y-87136506D01*
X166023498Y-87246820D01*
X165987188Y-87366518D01*
X165974928Y-87491000D01*
X162406000Y-87491000D01*
X162406000Y-83491000D01*
X165974928Y-83491000D01*
X165974928Y-85991000D01*
X165987188Y-86115482D01*
X166023498Y-86235180D01*
X166082463Y-86345494D01*
X166161815Y-86442185D01*
X166258506Y-86521537D01*
X166368820Y-86580502D01*
X166488518Y-86616812D01*
X166613000Y-86629072D01*
X168413000Y-86629072D01*
X168537482Y-86616812D01*
X168657180Y-86580502D01*
X168767494Y-86521537D01*
X168864185Y-86442185D01*
X168943537Y-86345494D01*
X169002502Y-86235180D01*
X169038812Y-86115482D01*
X169051072Y-85991000D01*
X169051072Y-83491000D01*
X169038812Y-83366518D01*
X169002502Y-83246820D01*
X168943537Y-83136506D01*
X168864185Y-83039815D01*
X168782665Y-82972913D01*
X171495579Y-80260000D01*
X171565928Y-80260000D01*
X171565928Y-80327500D01*
X171578188Y-80451982D01*
X171614498Y-80571680D01*
X171673463Y-80681994D01*
X171752815Y-80778685D01*
X171849506Y-80858037D01*
X171959820Y-80917002D01*
X172079518Y-80953312D01*
X172204000Y-80965572D01*
X173542993Y-80965572D01*
X173953470Y-81376049D01*
X173981183Y-81409817D01*
X174014951Y-81437530D01*
X174014953Y-81437532D01*
X174025090Y-81445851D01*
X174115941Y-81520411D01*
X174269687Y-81602589D01*
X174436510Y-81653195D01*
X174566523Y-81666000D01*
X174566533Y-81666000D01*
X174609999Y-81670281D01*
X174653465Y-81666000D01*
X176158263Y-81666000D01*
X176214038Y-81733962D01*
X176348613Y-81844405D01*
X176502149Y-81926472D01*
X176668745Y-81977008D01*
X176841999Y-81994072D01*
X177742001Y-81994072D01*
X177915255Y-81977008D01*
X178081851Y-81926472D01*
X178235387Y-81844405D01*
X178369962Y-81733962D01*
X178480405Y-81599387D01*
X178562472Y-81445851D01*
X178613008Y-81279255D01*
X178630072Y-81106001D01*
X178630072Y-80455999D01*
X178613008Y-80282745D01*
X178607322Y-80264000D01*
X180625815Y-80264000D01*
X180654487Y-80555111D01*
X180739401Y-80835034D01*
X180877294Y-81093014D01*
X181062866Y-81319134D01*
X181288986Y-81504706D01*
X181343791Y-81534000D01*
X181288986Y-81563294D01*
X181062866Y-81748866D01*
X180877294Y-81974986D01*
X180739401Y-82232966D01*
X180654487Y-82512889D01*
X180625815Y-82804000D01*
X180654487Y-83095111D01*
X180739401Y-83375034D01*
X180877294Y-83633014D01*
X181062866Y-83859134D01*
X181092687Y-83883607D01*
X181023820Y-83904498D01*
X180913506Y-83963463D01*
X180816815Y-84042815D01*
X180737463Y-84139506D01*
X180678498Y-84249820D01*
X180642188Y-84369518D01*
X180629928Y-84494000D01*
X180629928Y-86194000D01*
X180642188Y-86318482D01*
X180678498Y-86438180D01*
X180737463Y-86548494D01*
X180816815Y-86645185D01*
X180913506Y-86724537D01*
X181023820Y-86783502D01*
X181143518Y-86819812D01*
X181268000Y-86832072D01*
X182968000Y-86832072D01*
X183092482Y-86819812D01*
X183212180Y-86783502D01*
X183322494Y-86724537D01*
X183419185Y-86645185D01*
X183498537Y-86548494D01*
X183557502Y-86438180D01*
X183593812Y-86318482D01*
X183606072Y-86194000D01*
X183606072Y-84494000D01*
X183593812Y-84369518D01*
X183557502Y-84249820D01*
X183498537Y-84139506D01*
X183419185Y-84042815D01*
X183322494Y-83963463D01*
X183212180Y-83904498D01*
X183143313Y-83883607D01*
X183173134Y-83859134D01*
X183358706Y-83633014D01*
X183496599Y-83375034D01*
X183581513Y-83095111D01*
X183610185Y-82804000D01*
X183581513Y-82512889D01*
X183496599Y-82232966D01*
X183358706Y-81974986D01*
X183173134Y-81748866D01*
X182947014Y-81563294D01*
X182892209Y-81534000D01*
X182947014Y-81504706D01*
X183173134Y-81319134D01*
X183358706Y-81093014D01*
X183496599Y-80835034D01*
X183581513Y-80555111D01*
X183610185Y-80264000D01*
X183581513Y-79972889D01*
X183496599Y-79692966D01*
X183358706Y-79434986D01*
X183173134Y-79208866D01*
X182947014Y-79023294D01*
X182882477Y-78988799D01*
X182999355Y-78919178D01*
X183215588Y-78724269D01*
X183389641Y-78490920D01*
X183514825Y-78228099D01*
X183559476Y-78080890D01*
X183438155Y-77851000D01*
X182245000Y-77851000D01*
X182245000Y-77871000D01*
X181991000Y-77871000D01*
X181991000Y-77851000D01*
X180797845Y-77851000D01*
X180676524Y-78080890D01*
X180721175Y-78228099D01*
X180846359Y-78490920D01*
X181020412Y-78724269D01*
X181236645Y-78919178D01*
X181353523Y-78988799D01*
X181288986Y-79023294D01*
X181062866Y-79208866D01*
X180877294Y-79434986D01*
X180739401Y-79692966D01*
X180654487Y-79972889D01*
X180625815Y-80264000D01*
X178607322Y-80264000D01*
X178562472Y-80116149D01*
X178480405Y-79962613D01*
X178369962Y-79828038D01*
X178363406Y-79822658D01*
X178443185Y-79757185D01*
X178522537Y-79660494D01*
X178581502Y-79550180D01*
X178617812Y-79430482D01*
X178630072Y-79306000D01*
X178627000Y-79016750D01*
X178468250Y-78858000D01*
X177419000Y-78858000D01*
X177419000Y-78878000D01*
X177165000Y-78878000D01*
X177165000Y-78858000D01*
X176115750Y-78858000D01*
X175957000Y-79016750D01*
X175953928Y-79306000D01*
X175966188Y-79430482D01*
X176002498Y-79550180D01*
X176061463Y-79660494D01*
X176140815Y-79757185D01*
X176220594Y-79822658D01*
X176214038Y-79828038D01*
X176158263Y-79896000D01*
X174976579Y-79896000D01*
X174842072Y-79761493D01*
X174842072Y-78422500D01*
X174829812Y-78298018D01*
X174793502Y-78178320D01*
X174781572Y-78156000D01*
X175953928Y-78156000D01*
X175957000Y-78445250D01*
X176115750Y-78604000D01*
X177165000Y-78604000D01*
X177165000Y-77679750D01*
X177419000Y-77679750D01*
X177419000Y-78604000D01*
X178468250Y-78604000D01*
X178627000Y-78445250D01*
X178630072Y-78156000D01*
X178617812Y-78031518D01*
X178581502Y-77911820D01*
X178522537Y-77801506D01*
X178443185Y-77704815D01*
X178346494Y-77625463D01*
X178236180Y-77566498D01*
X178116482Y-77530188D01*
X177992000Y-77517928D01*
X177577750Y-77521000D01*
X177419000Y-77679750D01*
X177165000Y-77679750D01*
X177006250Y-77521000D01*
X176592000Y-77517928D01*
X176467518Y-77530188D01*
X176347820Y-77566498D01*
X176237506Y-77625463D01*
X176140815Y-77704815D01*
X176061463Y-77801506D01*
X176002498Y-77911820D01*
X175966188Y-78031518D01*
X175953928Y-78156000D01*
X174781572Y-78156000D01*
X174734537Y-78068006D01*
X174655185Y-77971315D01*
X174558494Y-77891963D01*
X174466781Y-77842941D01*
X174579969Y-77701923D01*
X174723571Y-77426094D01*
X174794563Y-77207980D01*
X174674594Y-76962000D01*
X173331000Y-76962000D01*
X173331000Y-76982000D01*
X173077000Y-76982000D01*
X173077000Y-76962000D01*
X171733406Y-76962000D01*
X171613437Y-77207980D01*
X171684429Y-77426094D01*
X171828031Y-77701923D01*
X171941219Y-77842941D01*
X171849506Y-77891963D01*
X171752815Y-77971315D01*
X171673463Y-78068006D01*
X171614498Y-78178320D01*
X171578188Y-78298018D01*
X171565928Y-78422500D01*
X171565928Y-78490000D01*
X171172465Y-78490000D01*
X171128999Y-78485719D01*
X171085533Y-78490000D01*
X171085523Y-78490000D01*
X170955510Y-78502805D01*
X170788687Y-78553411D01*
X170634941Y-78635589D01*
X170634939Y-78635590D01*
X170634940Y-78635590D01*
X170533953Y-78718468D01*
X170533951Y-78718470D01*
X170500183Y-78746183D01*
X170472470Y-78779951D01*
X166917951Y-82334471D01*
X166884184Y-82362183D01*
X166856471Y-82395951D01*
X166856468Y-82395954D01*
X166773590Y-82496941D01*
X166691412Y-82650687D01*
X166640805Y-82817510D01*
X166637317Y-82852928D01*
X166613000Y-82852928D01*
X166488518Y-82865188D01*
X166368820Y-82901498D01*
X166258506Y-82960463D01*
X166161815Y-83039815D01*
X166082463Y-83136506D01*
X166023498Y-83246820D01*
X165987188Y-83366518D01*
X165974928Y-83491000D01*
X162406000Y-83491000D01*
X162406000Y-80934571D01*
X162604735Y-80828345D01*
X162846463Y-80629963D01*
X163044845Y-80388235D01*
X163045505Y-80387000D01*
X166335531Y-80387000D01*
X166379000Y-80391281D01*
X166422469Y-80387000D01*
X166422477Y-80387000D01*
X166552490Y-80374195D01*
X166719313Y-80323589D01*
X166873059Y-80241411D01*
X167007817Y-80130817D01*
X167035534Y-80097044D01*
X167551506Y-79581072D01*
X167963001Y-79581072D01*
X168136255Y-79564008D01*
X168302851Y-79513472D01*
X168456387Y-79431405D01*
X168590962Y-79320962D01*
X168701405Y-79186387D01*
X168783472Y-79032851D01*
X168834008Y-78866255D01*
X168851072Y-78693001D01*
X168851072Y-78042999D01*
X168834008Y-77869745D01*
X168783472Y-77703149D01*
X168701405Y-77549613D01*
X168590962Y-77415038D01*
X168584406Y-77409658D01*
X168664185Y-77344185D01*
X168743537Y-77247494D01*
X168802502Y-77137180D01*
X168838812Y-77017482D01*
X168851072Y-76893000D01*
X168849915Y-76784000D01*
X175953928Y-76784000D01*
X175966188Y-76908482D01*
X176002498Y-77028180D01*
X176061463Y-77138494D01*
X176140815Y-77235185D01*
X176237506Y-77314537D01*
X176347820Y-77373502D01*
X176467518Y-77409812D01*
X176592000Y-77422072D01*
X177006250Y-77419000D01*
X177165000Y-77260250D01*
X177165000Y-76336000D01*
X177419000Y-76336000D01*
X177419000Y-77260250D01*
X177577750Y-77419000D01*
X177992000Y-77422072D01*
X178116482Y-77409812D01*
X178236180Y-77373502D01*
X178346494Y-77314537D01*
X178443185Y-77235185D01*
X178522537Y-77138494D01*
X178581502Y-77028180D01*
X178617812Y-76908482D01*
X178630072Y-76784000D01*
X178627000Y-76494750D01*
X178468250Y-76336000D01*
X177419000Y-76336000D01*
X177165000Y-76336000D01*
X176115750Y-76336000D01*
X175957000Y-76494750D01*
X175953928Y-76784000D01*
X168849915Y-76784000D01*
X168848000Y-76603750D01*
X168689250Y-76445000D01*
X167640000Y-76445000D01*
X167640000Y-76465000D01*
X167386000Y-76465000D01*
X167386000Y-76445000D01*
X166336750Y-76445000D01*
X166178000Y-76603750D01*
X166174928Y-76893000D01*
X166187188Y-77017482D01*
X166223498Y-77137180D01*
X166282463Y-77247494D01*
X166361815Y-77344185D01*
X166441594Y-77409658D01*
X166435038Y-77415038D01*
X166324595Y-77549613D01*
X166242528Y-77703149D01*
X166191992Y-77869745D01*
X166174928Y-78042999D01*
X166174928Y-78454494D01*
X166012422Y-78617000D01*
X163045505Y-78617000D01*
X163044845Y-78615765D01*
X162846463Y-78374037D01*
X162667101Y-78226837D01*
X162852315Y-78071437D01*
X163046969Y-77828923D01*
X163190571Y-77553094D01*
X163261563Y-77334980D01*
X163141594Y-77089000D01*
X161798000Y-77089000D01*
X161798000Y-77109000D01*
X161544000Y-77109000D01*
X161544000Y-77089000D01*
X160200406Y-77089000D01*
X160080437Y-77334980D01*
X160151429Y-77553094D01*
X160295031Y-77828923D01*
X160489685Y-78071437D01*
X160674899Y-78226837D01*
X160495537Y-78374037D01*
X160297155Y-78615765D01*
X160149745Y-78891551D01*
X160058970Y-79190796D01*
X160028319Y-79502000D01*
X160058970Y-79813204D01*
X160070432Y-79850989D01*
X159667422Y-80254000D01*
X159259782Y-80254000D01*
X159334512Y-80162942D01*
X159415423Y-80011567D01*
X159465248Y-79847316D01*
X159482072Y-79676500D01*
X159482072Y-79101500D01*
X159465248Y-78930684D01*
X159415423Y-78766433D01*
X159334512Y-78615058D01*
X159254000Y-78516954D01*
X159254000Y-77947046D01*
X159334512Y-77848942D01*
X159415423Y-77697567D01*
X159465248Y-77533316D01*
X159482072Y-77362500D01*
X159482072Y-76787500D01*
X159465248Y-76616684D01*
X159415423Y-76452433D01*
X159334512Y-76301058D01*
X159314901Y-76277161D01*
X159374537Y-76204494D01*
X159433502Y-76094180D01*
X159469812Y-75974482D01*
X159482072Y-75850000D01*
X159479000Y-75610750D01*
X159320250Y-75452000D01*
X158496000Y-75452000D01*
X158496000Y-75472000D01*
X158242000Y-75472000D01*
X158242000Y-75452000D01*
X157417750Y-75452000D01*
X157259000Y-75610750D01*
X157255928Y-75850000D01*
X157268188Y-75974482D01*
X157304498Y-76094180D01*
X157363463Y-76204494D01*
X157423099Y-76277161D01*
X157403488Y-76301058D01*
X157322577Y-76452433D01*
X157272752Y-76616684D01*
X157255928Y-76787500D01*
X157255928Y-77362500D01*
X157272752Y-77533316D01*
X157322577Y-77697567D01*
X157403488Y-77848942D01*
X157484000Y-77947046D01*
X157484001Y-78516954D01*
X157403488Y-78615058D01*
X157322577Y-78766433D01*
X157272752Y-78930684D01*
X157255928Y-79101500D01*
X157255928Y-79676500D01*
X157272752Y-79847316D01*
X157322577Y-80011567D01*
X157403488Y-80162942D01*
X157486425Y-80264000D01*
X157403488Y-80365058D01*
X157322577Y-80516433D01*
X157272752Y-80680684D01*
X157255928Y-80851500D01*
X157255928Y-81426500D01*
X157272752Y-81597316D01*
X157322577Y-81761567D01*
X157403488Y-81912942D01*
X157512377Y-82045623D01*
X157645058Y-82154512D01*
X157796433Y-82235423D01*
X157960684Y-82285248D01*
X158131500Y-82302072D01*
X158606500Y-82302072D01*
X158777316Y-82285248D01*
X158941567Y-82235423D01*
X159092942Y-82154512D01*
X159225623Y-82045623D01*
X159243369Y-82024000D01*
X159990531Y-82024000D01*
X160034000Y-82028281D01*
X160077469Y-82024000D01*
X160077477Y-82024000D01*
X160207490Y-82011195D01*
X160374313Y-81960589D01*
X160528059Y-81878411D01*
X160662817Y-81767817D01*
X160690534Y-81734044D01*
X160936001Y-81488577D01*
X160936000Y-90387895D01*
X160936000Y-90641895D01*
X160932444Y-90678000D01*
X160946635Y-90822085D01*
X160956035Y-90853071D01*
X160988663Y-90960632D01*
X161056913Y-91088319D01*
X161148762Y-91200237D01*
X161176808Y-91223254D01*
X162817554Y-92864000D01*
X155160048Y-92864000D01*
X155241312Y-92596110D01*
X155269984Y-92304999D01*
X155241312Y-92013888D01*
X155156398Y-91733965D01*
X155018505Y-91475985D01*
X154832933Y-91249865D01*
X154606813Y-91064293D01*
X154552008Y-91034999D01*
X154606813Y-91005705D01*
X154832933Y-90820133D01*
X155018505Y-90594013D01*
X155156398Y-90336033D01*
X155241312Y-90056110D01*
X155269984Y-89764999D01*
X155241312Y-89473888D01*
X155156398Y-89193965D01*
X155018505Y-88935985D01*
X154832933Y-88709865D01*
X154606813Y-88524293D01*
X154552008Y-88494999D01*
X154606813Y-88465705D01*
X154832933Y-88280133D01*
X155018505Y-88054013D01*
X155156398Y-87796033D01*
X155241312Y-87516110D01*
X155269984Y-87224999D01*
X155241312Y-86933888D01*
X155156398Y-86653965D01*
X155018505Y-86395985D01*
X154832933Y-86169865D01*
X154606813Y-85984293D01*
X154552008Y-85954999D01*
X154606813Y-85925705D01*
X154832933Y-85740133D01*
X155018505Y-85514013D01*
X155156398Y-85256033D01*
X155241312Y-84976110D01*
X155269984Y-84684999D01*
X155241312Y-84393888D01*
X155156398Y-84113965D01*
X155018505Y-83855985D01*
X154832933Y-83629865D01*
X154606813Y-83444293D01*
X154552008Y-83414999D01*
X154606813Y-83385705D01*
X154832933Y-83200133D01*
X155018505Y-82974013D01*
X155156398Y-82716033D01*
X155241312Y-82436110D01*
X155269984Y-82144999D01*
X155241312Y-81853888D01*
X155156398Y-81573965D01*
X155018505Y-81315985D01*
X154832933Y-81089865D01*
X154606813Y-80904293D01*
X154552008Y-80874999D01*
X154606813Y-80845705D01*
X154832933Y-80660133D01*
X155018505Y-80434013D01*
X155156398Y-80176033D01*
X155241312Y-79896110D01*
X155269984Y-79604999D01*
X155241312Y-79313888D01*
X155156398Y-79033965D01*
X155018505Y-78775985D01*
X154832933Y-78549865D01*
X154606813Y-78364293D01*
X154552008Y-78334999D01*
X154606813Y-78305705D01*
X154832933Y-78120133D01*
X155018505Y-77894013D01*
X155156398Y-77636033D01*
X155241312Y-77356110D01*
X155269984Y-77064999D01*
X155241312Y-76773888D01*
X155156398Y-76493965D01*
X155018505Y-76235985D01*
X154832933Y-76009865D01*
X154606813Y-75824293D01*
X154552008Y-75794999D01*
X154606813Y-75765705D01*
X154832933Y-75580133D01*
X155018505Y-75354013D01*
X155156398Y-75096033D01*
X155241312Y-74816110D01*
X155242898Y-74800000D01*
X157255928Y-74800000D01*
X157259000Y-75039250D01*
X157417750Y-75198000D01*
X158242000Y-75198000D01*
X158242000Y-74323750D01*
X158496000Y-74323750D01*
X158496000Y-75198000D01*
X159320250Y-75198000D01*
X159479000Y-75039250D01*
X159482072Y-74800000D01*
X159469812Y-74675518D01*
X159433502Y-74555820D01*
X159374537Y-74445506D01*
X159295185Y-74348815D01*
X159198494Y-74269463D01*
X159088180Y-74210498D01*
X158968482Y-74174188D01*
X158844000Y-74161928D01*
X158654750Y-74165000D01*
X158496000Y-74323750D01*
X158242000Y-74323750D01*
X158083250Y-74165000D01*
X157894000Y-74161928D01*
X157769518Y-74174188D01*
X157649820Y-74210498D01*
X157539506Y-74269463D01*
X157442815Y-74348815D01*
X157363463Y-74445506D01*
X157304498Y-74555820D01*
X157268188Y-74675518D01*
X157255928Y-74800000D01*
X155242898Y-74800000D01*
X155269984Y-74524999D01*
X155241312Y-74233888D01*
X155156398Y-73953965D01*
X155018505Y-73695985D01*
X154881464Y-73529000D01*
X159478922Y-73529000D01*
X160032928Y-74083006D01*
X160032928Y-75374500D01*
X160045188Y-75498982D01*
X160081498Y-75618680D01*
X160140463Y-75728994D01*
X160219815Y-75825685D01*
X160316506Y-75905037D01*
X160408219Y-75954059D01*
X160295031Y-76095077D01*
X160151429Y-76370906D01*
X160080437Y-76589020D01*
X160200406Y-76835000D01*
X161544000Y-76835000D01*
X161544000Y-76815000D01*
X161798000Y-76815000D01*
X161798000Y-76835000D01*
X163141594Y-76835000D01*
X163261563Y-76589020D01*
X163190571Y-76370906D01*
X163046969Y-76095077D01*
X162933781Y-75954059D01*
X163025494Y-75905037D01*
X163122185Y-75825685D01*
X163201537Y-75728994D01*
X163260502Y-75618680D01*
X163296812Y-75498982D01*
X163309072Y-75374500D01*
X163309072Y-75307000D01*
X166349353Y-75307000D01*
X166282463Y-75388506D01*
X166223498Y-75498820D01*
X166187188Y-75618518D01*
X166174928Y-75743000D01*
X166178000Y-76032250D01*
X166336750Y-76191000D01*
X167386000Y-76191000D01*
X167386000Y-76171000D01*
X167640000Y-76171000D01*
X167640000Y-76191000D01*
X168689250Y-76191000D01*
X168848000Y-76032250D01*
X168851072Y-75743000D01*
X168838812Y-75618518D01*
X168802502Y-75498820D01*
X168743537Y-75388506D01*
X168676647Y-75307000D01*
X171933368Y-75307000D01*
X172028537Y-75422963D01*
X172207899Y-75570163D01*
X172022685Y-75725563D01*
X171828031Y-75968077D01*
X171684429Y-76243906D01*
X171613437Y-76462020D01*
X171733406Y-76708000D01*
X173077000Y-76708000D01*
X173077000Y-76688000D01*
X173331000Y-76688000D01*
X173331000Y-76708000D01*
X174674594Y-76708000D01*
X174794563Y-76462020D01*
X174723571Y-76243906D01*
X174579969Y-75968077D01*
X174385315Y-75725563D01*
X174200101Y-75570163D01*
X174379463Y-75422963D01*
X174577845Y-75181235D01*
X174578505Y-75180000D01*
X176144245Y-75180000D01*
X176140815Y-75182815D01*
X176061463Y-75279506D01*
X176002498Y-75389820D01*
X175966188Y-75509518D01*
X175953928Y-75634000D01*
X175957000Y-75923250D01*
X176115750Y-76082000D01*
X177165000Y-76082000D01*
X177165000Y-76062000D01*
X177419000Y-76062000D01*
X177419000Y-76082000D01*
X178468250Y-76082000D01*
X178627000Y-75923250D01*
X178630072Y-75634000D01*
X178617812Y-75509518D01*
X178581502Y-75389820D01*
X178522537Y-75279506D01*
X178443185Y-75182815D01*
X178363406Y-75117342D01*
X178369962Y-75111962D01*
X178480405Y-74977387D01*
X178562472Y-74823851D01*
X178613008Y-74657255D01*
X178630072Y-74484001D01*
X178630072Y-73833999D01*
X178613008Y-73660745D01*
X178562472Y-73494149D01*
X178480405Y-73340613D01*
X178369962Y-73206038D01*
X178235387Y-73095595D01*
X178081851Y-73013528D01*
X177915255Y-72962992D01*
X177742001Y-72945928D01*
X176841999Y-72945928D01*
X176668745Y-72962992D01*
X176502149Y-73013528D01*
X176348613Y-73095595D01*
X176214038Y-73206038D01*
X176103595Y-73340613D01*
X176066507Y-73410000D01*
X174578505Y-73410000D01*
X174577845Y-73408765D01*
X174379463Y-73167037D01*
X174137735Y-72968655D01*
X173861949Y-72821245D01*
X173562704Y-72730470D01*
X173329486Y-72707500D01*
X173078514Y-72707500D01*
X172845296Y-72730470D01*
X172546051Y-72821245D01*
X172270265Y-72968655D01*
X172028537Y-73167037D01*
X171830155Y-73408765D01*
X171761612Y-73537000D01*
X163309072Y-73537000D01*
X163309072Y-73469500D01*
X163296812Y-73345018D01*
X163260502Y-73225320D01*
X163201537Y-73115006D01*
X163122185Y-73018315D01*
X163025494Y-72938963D01*
X162915180Y-72879998D01*
X162795482Y-72843688D01*
X162671000Y-72831428D01*
X161284506Y-72831428D01*
X161097078Y-72644000D01*
X180625815Y-72644000D01*
X180654487Y-72935111D01*
X180739401Y-73215034D01*
X180877294Y-73473014D01*
X181062866Y-73699134D01*
X181288986Y-73884706D01*
X181343791Y-73914000D01*
X181288986Y-73943294D01*
X181062866Y-74128866D01*
X180877294Y-74354986D01*
X180739401Y-74612966D01*
X180654487Y-74892889D01*
X180625815Y-75184000D01*
X180654487Y-75475111D01*
X180739401Y-75755034D01*
X180877294Y-76013014D01*
X181062866Y-76239134D01*
X181288986Y-76424706D01*
X181353523Y-76459201D01*
X181236645Y-76528822D01*
X181020412Y-76723731D01*
X180846359Y-76957080D01*
X180721175Y-77219901D01*
X180676524Y-77367110D01*
X180797845Y-77597000D01*
X181991000Y-77597000D01*
X181991000Y-77577000D01*
X182245000Y-77577000D01*
X182245000Y-77597000D01*
X183438155Y-77597000D01*
X183559476Y-77367110D01*
X183514825Y-77219901D01*
X183389641Y-76957080D01*
X183215588Y-76723731D01*
X182999355Y-76528822D01*
X182882477Y-76459201D01*
X182947014Y-76424706D01*
X183173134Y-76239134D01*
X183358706Y-76013014D01*
X183496599Y-75755034D01*
X183581513Y-75475111D01*
X183610185Y-75184000D01*
X183581513Y-74892889D01*
X183496599Y-74612966D01*
X183358706Y-74354986D01*
X183173134Y-74128866D01*
X182947014Y-73943294D01*
X182892209Y-73914000D01*
X182947014Y-73884706D01*
X183173134Y-73699134D01*
X183358706Y-73473014D01*
X183496599Y-73215034D01*
X183581513Y-72935111D01*
X183610185Y-72644000D01*
X183581513Y-72352889D01*
X183496599Y-72072966D01*
X183358706Y-71814986D01*
X183173134Y-71588866D01*
X182947014Y-71403294D01*
X182689034Y-71265401D01*
X182409111Y-71180487D01*
X182190950Y-71159000D01*
X182045050Y-71159000D01*
X181826889Y-71180487D01*
X181546966Y-71265401D01*
X181288986Y-71403294D01*
X181062866Y-71588866D01*
X180877294Y-71814986D01*
X180739401Y-72072966D01*
X180654487Y-72352889D01*
X180625815Y-72644000D01*
X161097078Y-72644000D01*
X160502034Y-72048956D01*
X160474317Y-72015183D01*
X160339559Y-71904589D01*
X160185813Y-71822411D01*
X160018990Y-71771805D01*
X159888977Y-71759000D01*
X159888969Y-71759000D01*
X159845500Y-71754719D01*
X159802031Y-71759000D01*
X141775469Y-71759000D01*
X141732000Y-71754719D01*
X141688531Y-71759000D01*
X141688523Y-71759000D01*
X141558510Y-71771805D01*
X141391687Y-71822411D01*
X141237941Y-71904589D01*
X141136953Y-71987468D01*
X141136951Y-71987470D01*
X141103183Y-72015183D01*
X141075470Y-72048951D01*
X133008952Y-80115470D01*
X132975184Y-80143183D01*
X132947471Y-80176951D01*
X132947468Y-80176954D01*
X132864590Y-80277941D01*
X132782412Y-80431687D01*
X132731805Y-80598510D01*
X132714719Y-80772000D01*
X132719001Y-80815479D01*
X132719000Y-113933421D01*
X129832423Y-116819999D01*
X128762424Y-116819999D01*
X128753611Y-116730517D01*
X128717301Y-116610819D01*
X128658336Y-116500505D01*
X128578984Y-116403814D01*
X128482293Y-116324462D01*
X128371979Y-116265497D01*
X128291333Y-116241033D01*
X128375387Y-116165268D01*
X128549440Y-115931919D01*
X128674624Y-115669098D01*
X128719275Y-115521889D01*
X128597954Y-115291999D01*
X127404799Y-115291999D01*
X127404799Y-115311999D01*
X127150799Y-115311999D01*
X127150799Y-115291999D01*
X125957644Y-115291999D01*
X125836323Y-115521889D01*
X125880974Y-115669098D01*
X126006158Y-115931919D01*
X126180211Y-116165268D01*
X126264265Y-116241033D01*
X126183619Y-116265497D01*
X126073305Y-116324462D01*
X125976614Y-116403814D01*
X125897262Y-116500505D01*
X125838297Y-116610819D01*
X125801987Y-116730517D01*
X125789727Y-116854999D01*
X123944000Y-116854999D01*
X123944000Y-74524999D01*
X125785614Y-74524999D01*
X125814286Y-74816110D01*
X125899200Y-75096033D01*
X126037093Y-75354013D01*
X126222665Y-75580133D01*
X126448785Y-75765705D01*
X126503590Y-75794999D01*
X126448785Y-75824293D01*
X126222665Y-76009865D01*
X126037093Y-76235985D01*
X125899200Y-76493965D01*
X125814286Y-76773888D01*
X125785614Y-77064999D01*
X125814286Y-77356110D01*
X125899200Y-77636033D01*
X126037093Y-77894013D01*
X126222665Y-78120133D01*
X126448785Y-78305705D01*
X126503590Y-78334999D01*
X126448785Y-78364293D01*
X126222665Y-78549865D01*
X126037093Y-78775985D01*
X125899200Y-79033965D01*
X125814286Y-79313888D01*
X125785614Y-79604999D01*
X125814286Y-79896110D01*
X125899200Y-80176033D01*
X126037093Y-80434013D01*
X126222665Y-80660133D01*
X126448785Y-80845705D01*
X126503590Y-80874999D01*
X126448785Y-80904293D01*
X126222665Y-81089865D01*
X126037093Y-81315985D01*
X125899200Y-81573965D01*
X125814286Y-81853888D01*
X125785614Y-82144999D01*
X125814286Y-82436110D01*
X125899200Y-82716033D01*
X126037093Y-82974013D01*
X126222665Y-83200133D01*
X126448785Y-83385705D01*
X126503590Y-83414999D01*
X126448785Y-83444293D01*
X126222665Y-83629865D01*
X126037093Y-83855985D01*
X125899200Y-84113965D01*
X125814286Y-84393888D01*
X125785614Y-84684999D01*
X125814286Y-84976110D01*
X125899200Y-85256033D01*
X126037093Y-85514013D01*
X126222665Y-85740133D01*
X126448785Y-85925705D01*
X126503590Y-85954999D01*
X126448785Y-85984293D01*
X126222665Y-86169865D01*
X126037093Y-86395985D01*
X125899200Y-86653965D01*
X125814286Y-86933888D01*
X125785614Y-87224999D01*
X125814286Y-87516110D01*
X125899200Y-87796033D01*
X126037093Y-88054013D01*
X126222665Y-88280133D01*
X126448785Y-88465705D01*
X126503590Y-88494999D01*
X126448785Y-88524293D01*
X126222665Y-88709865D01*
X126037093Y-88935985D01*
X125899200Y-89193965D01*
X125814286Y-89473888D01*
X125785614Y-89764999D01*
X125814286Y-90056110D01*
X125899200Y-90336033D01*
X126037093Y-90594013D01*
X126222665Y-90820133D01*
X126448785Y-91005705D01*
X126503590Y-91034999D01*
X126448785Y-91064293D01*
X126222665Y-91249865D01*
X126037093Y-91475985D01*
X125899200Y-91733965D01*
X125814286Y-92013888D01*
X125785614Y-92304999D01*
X125814286Y-92596110D01*
X125899200Y-92876033D01*
X126037093Y-93134013D01*
X126222665Y-93360133D01*
X126448785Y-93545705D01*
X126503590Y-93574999D01*
X126448785Y-93604293D01*
X126222665Y-93789865D01*
X126037093Y-94015985D01*
X125899200Y-94273965D01*
X125814286Y-94553888D01*
X125785614Y-94844999D01*
X125814286Y-95136110D01*
X125899200Y-95416033D01*
X126037093Y-95674013D01*
X126222665Y-95900133D01*
X126448785Y-96085705D01*
X126503590Y-96114999D01*
X126448785Y-96144293D01*
X126222665Y-96329865D01*
X126037093Y-96555985D01*
X125899200Y-96813965D01*
X125814286Y-97093888D01*
X125785614Y-97384999D01*
X125814286Y-97676110D01*
X125899200Y-97956033D01*
X126037093Y-98214013D01*
X126222665Y-98440133D01*
X126448785Y-98625705D01*
X126503590Y-98654999D01*
X126448785Y-98684293D01*
X126222665Y-98869865D01*
X126037093Y-99095985D01*
X125899200Y-99353965D01*
X125814286Y-99633888D01*
X125785614Y-99924999D01*
X125814286Y-100216110D01*
X125899200Y-100496033D01*
X126037093Y-100754013D01*
X126222665Y-100980133D01*
X126448785Y-101165705D01*
X126503590Y-101194999D01*
X126448785Y-101224293D01*
X126222665Y-101409865D01*
X126037093Y-101635985D01*
X125899200Y-101893965D01*
X125814286Y-102173888D01*
X125785614Y-102464999D01*
X125814286Y-102756110D01*
X125899200Y-103036033D01*
X126037093Y-103294013D01*
X126222665Y-103520133D01*
X126448785Y-103705705D01*
X126503590Y-103734999D01*
X126448785Y-103764293D01*
X126222665Y-103949865D01*
X126037093Y-104175985D01*
X125899200Y-104433965D01*
X125814286Y-104713888D01*
X125785614Y-105004999D01*
X125814286Y-105296110D01*
X125899200Y-105576033D01*
X126037093Y-105834013D01*
X126222665Y-106060133D01*
X126448785Y-106245705D01*
X126503590Y-106274999D01*
X126448785Y-106304293D01*
X126222665Y-106489865D01*
X126037093Y-106715985D01*
X125899200Y-106973965D01*
X125814286Y-107253888D01*
X125785614Y-107544999D01*
X125814286Y-107836110D01*
X125899200Y-108116033D01*
X126037093Y-108374013D01*
X126222665Y-108600133D01*
X126448785Y-108785705D01*
X126503590Y-108814999D01*
X126448785Y-108844293D01*
X126222665Y-109029865D01*
X126037093Y-109255985D01*
X125899200Y-109513965D01*
X125814286Y-109793888D01*
X125785614Y-110084999D01*
X125814286Y-110376110D01*
X125899200Y-110656033D01*
X126037093Y-110914013D01*
X126222665Y-111140133D01*
X126448785Y-111325705D01*
X126503590Y-111354999D01*
X126448785Y-111384293D01*
X126222665Y-111569865D01*
X126037093Y-111795985D01*
X125899200Y-112053965D01*
X125814286Y-112333888D01*
X125785614Y-112624999D01*
X125814286Y-112916110D01*
X125899200Y-113196033D01*
X126037093Y-113454013D01*
X126222665Y-113680133D01*
X126448785Y-113865705D01*
X126513322Y-113900200D01*
X126396444Y-113969821D01*
X126180211Y-114164730D01*
X126006158Y-114398079D01*
X125880974Y-114660900D01*
X125836323Y-114808109D01*
X125957644Y-115037999D01*
X127150799Y-115037999D01*
X127150799Y-115017999D01*
X127404799Y-115017999D01*
X127404799Y-115037999D01*
X128597954Y-115037999D01*
X128719275Y-114808109D01*
X128674624Y-114660900D01*
X128549440Y-114398079D01*
X128375387Y-114164730D01*
X128159154Y-113969821D01*
X128042276Y-113900200D01*
X128106813Y-113865705D01*
X128332933Y-113680133D01*
X128518505Y-113454013D01*
X128656398Y-113196033D01*
X128741312Y-112916110D01*
X128769984Y-112624999D01*
X128741312Y-112333888D01*
X128656398Y-112053965D01*
X128518505Y-111795985D01*
X128332933Y-111569865D01*
X128106813Y-111384293D01*
X128052008Y-111354999D01*
X128106813Y-111325705D01*
X128332933Y-111140133D01*
X128518505Y-110914013D01*
X128656398Y-110656033D01*
X128741312Y-110376110D01*
X128769984Y-110084999D01*
X128741312Y-109793888D01*
X128656398Y-109513965D01*
X128518505Y-109255985D01*
X128332933Y-109029865D01*
X128106813Y-108844293D01*
X128052008Y-108814999D01*
X128106813Y-108785705D01*
X128332933Y-108600133D01*
X128518505Y-108374013D01*
X128656398Y-108116033D01*
X128741312Y-107836110D01*
X128769984Y-107544999D01*
X128741312Y-107253888D01*
X128656398Y-106973965D01*
X128518505Y-106715985D01*
X128332933Y-106489865D01*
X128106813Y-106304293D01*
X128052008Y-106274999D01*
X128106813Y-106245705D01*
X128332933Y-106060133D01*
X128518505Y-105834013D01*
X128656398Y-105576033D01*
X128741312Y-105296110D01*
X128769984Y-105004999D01*
X128741312Y-104713888D01*
X128656398Y-104433965D01*
X128518505Y-104175985D01*
X128332933Y-103949865D01*
X128106813Y-103764293D01*
X128052008Y-103734999D01*
X128106813Y-103705705D01*
X128332933Y-103520133D01*
X128518505Y-103294013D01*
X128656398Y-103036033D01*
X128741312Y-102756110D01*
X128769984Y-102464999D01*
X128741312Y-102173888D01*
X128656398Y-101893965D01*
X128518505Y-101635985D01*
X128332933Y-101409865D01*
X128106813Y-101224293D01*
X128052008Y-101194999D01*
X128106813Y-101165705D01*
X128332933Y-100980133D01*
X128518505Y-100754013D01*
X128656398Y-100496033D01*
X128741312Y-100216110D01*
X128769984Y-99924999D01*
X128741312Y-99633888D01*
X128656398Y-99353965D01*
X128518505Y-99095985D01*
X128332933Y-98869865D01*
X128106813Y-98684293D01*
X128052008Y-98654999D01*
X128106813Y-98625705D01*
X128332933Y-98440133D01*
X128518505Y-98214013D01*
X128656398Y-97956033D01*
X128741312Y-97676110D01*
X128769984Y-97384999D01*
X128741312Y-97093888D01*
X128656398Y-96813965D01*
X128518505Y-96555985D01*
X128332933Y-96329865D01*
X128106813Y-96144293D01*
X128052008Y-96114999D01*
X128106813Y-96085705D01*
X128332933Y-95900133D01*
X128518505Y-95674013D01*
X128656398Y-95416033D01*
X128741312Y-95136110D01*
X128769984Y-94844999D01*
X128741312Y-94553888D01*
X128656398Y-94273965D01*
X128518505Y-94015985D01*
X128332933Y-93789865D01*
X128106813Y-93604293D01*
X128052008Y-93574999D01*
X128106813Y-93545705D01*
X128332933Y-93360133D01*
X128518505Y-93134013D01*
X128656398Y-92876033D01*
X128741312Y-92596110D01*
X128769984Y-92304999D01*
X128741312Y-92013888D01*
X128656398Y-91733965D01*
X128518505Y-91475985D01*
X128332933Y-91249865D01*
X128106813Y-91064293D01*
X128052008Y-91034999D01*
X128106813Y-91005705D01*
X128332933Y-90820133D01*
X128518505Y-90594013D01*
X128656398Y-90336033D01*
X128741312Y-90056110D01*
X128769984Y-89764999D01*
X128741312Y-89473888D01*
X128656398Y-89193965D01*
X128518505Y-88935985D01*
X128332933Y-88709865D01*
X128106813Y-88524293D01*
X128052008Y-88494999D01*
X128106813Y-88465705D01*
X128332933Y-88280133D01*
X128518505Y-88054013D01*
X128656398Y-87796033D01*
X128741312Y-87516110D01*
X128769984Y-87224999D01*
X128741312Y-86933888D01*
X128656398Y-86653965D01*
X128518505Y-86395985D01*
X128332933Y-86169865D01*
X128106813Y-85984293D01*
X128052008Y-85954999D01*
X128106813Y-85925705D01*
X128332933Y-85740133D01*
X128518505Y-85514013D01*
X128656398Y-85256033D01*
X128741312Y-84976110D01*
X128769984Y-84684999D01*
X128741312Y-84393888D01*
X128656398Y-84113965D01*
X128518505Y-83855985D01*
X128332933Y-83629865D01*
X128106813Y-83444293D01*
X128052008Y-83414999D01*
X128106813Y-83385705D01*
X128332933Y-83200133D01*
X128518505Y-82974013D01*
X128656398Y-82716033D01*
X128741312Y-82436110D01*
X128769984Y-82144999D01*
X128741312Y-81853888D01*
X128656398Y-81573965D01*
X128518505Y-81315985D01*
X128332933Y-81089865D01*
X128106813Y-80904293D01*
X128052008Y-80874999D01*
X128106813Y-80845705D01*
X128332933Y-80660133D01*
X128518505Y-80434013D01*
X128656398Y-80176033D01*
X128741312Y-79896110D01*
X128769984Y-79604999D01*
X128741312Y-79313888D01*
X128656398Y-79033965D01*
X128518505Y-78775985D01*
X128332933Y-78549865D01*
X128106813Y-78364293D01*
X128052008Y-78334999D01*
X128106813Y-78305705D01*
X128332933Y-78120133D01*
X128518505Y-77894013D01*
X128656398Y-77636033D01*
X128741312Y-77356110D01*
X128769984Y-77064999D01*
X128741312Y-76773888D01*
X128656398Y-76493965D01*
X128518505Y-76235985D01*
X128332933Y-76009865D01*
X128106813Y-75824293D01*
X128052008Y-75794999D01*
X128106813Y-75765705D01*
X128332933Y-75580133D01*
X128518505Y-75354013D01*
X128656398Y-75096033D01*
X128741312Y-74816110D01*
X128769984Y-74524999D01*
X128741312Y-74233888D01*
X128656398Y-73953965D01*
X128518505Y-73695985D01*
X128332933Y-73469865D01*
X128106813Y-73284293D01*
X127848833Y-73146400D01*
X127568910Y-73061486D01*
X127350749Y-73039999D01*
X127204849Y-73039999D01*
X126986688Y-73061486D01*
X126706765Y-73146400D01*
X126448785Y-73284293D01*
X126222665Y-73469865D01*
X126037093Y-73695985D01*
X125899200Y-73953965D01*
X125814286Y-74233888D01*
X125785614Y-74524999D01*
X123944000Y-74524999D01*
X123944000Y-70223000D01*
X184158000Y-70223000D01*
X184158001Y-119832500D01*
X184158001Y-119832500D01*
G37*
X184158001Y-119832500D02*
X123944000Y-119832500D01*
X123944000Y-116854999D01*
X125789727Y-116854999D01*
X125789727Y-118554999D01*
X125801987Y-118679481D01*
X125838297Y-118799179D01*
X125897262Y-118909493D01*
X125976614Y-119006184D01*
X126073305Y-119085536D01*
X126183619Y-119144501D01*
X126303317Y-119180811D01*
X126427799Y-119193071D01*
X128127799Y-119193071D01*
X128252281Y-119180811D01*
X128371979Y-119144501D01*
X128482293Y-119085536D01*
X128578984Y-119006184D01*
X128658336Y-118909493D01*
X128717301Y-118799179D01*
X128753611Y-118679481D01*
X128762424Y-118589999D01*
X130155532Y-118589999D01*
X130199001Y-118594280D01*
X130242470Y-118589999D01*
X130242478Y-118589999D01*
X130372491Y-118577194D01*
X130539314Y-118526588D01*
X130693060Y-118444410D01*
X130827818Y-118333816D01*
X130855535Y-118300043D01*
X134199050Y-114956529D01*
X134232817Y-114928817D01*
X134277897Y-114873888D01*
X134343411Y-114794059D01*
X134425588Y-114640314D01*
X134425589Y-114640313D01*
X134476195Y-114473490D01*
X134489000Y-114343477D01*
X134489000Y-114343469D01*
X134493281Y-114300000D01*
X134489000Y-114256531D01*
X134489000Y-81138578D01*
X142098579Y-73529000D01*
X152674134Y-73529000D01*
X152537093Y-73695985D01*
X152399200Y-73953965D01*
X152314286Y-74233888D01*
X152285614Y-74524999D01*
X152314286Y-74816110D01*
X152399200Y-75096033D01*
X152537093Y-75354013D01*
X152722665Y-75580133D01*
X152948785Y-75765705D01*
X153003590Y-75794999D01*
X152948785Y-75824293D01*
X152722665Y-76009865D01*
X152537093Y-76235985D01*
X152399200Y-76493965D01*
X152314286Y-76773888D01*
X152285614Y-77064999D01*
X152314286Y-77356110D01*
X152399200Y-77636033D01*
X152537093Y-77894013D01*
X152722665Y-78120133D01*
X152948785Y-78305705D01*
X153003590Y-78334999D01*
X152948785Y-78364293D01*
X152722665Y-78549865D01*
X152537093Y-78775985D01*
X152399200Y-79033965D01*
X152314286Y-79313888D01*
X152285614Y-79604999D01*
X152314286Y-79896110D01*
X152399200Y-80176033D01*
X152537093Y-80434013D01*
X152722665Y-80660133D01*
X152948785Y-80845705D01*
X153003590Y-80874999D01*
X152948785Y-80904293D01*
X152722665Y-81089865D01*
X152537093Y-81315985D01*
X152399200Y-81573965D01*
X152314286Y-81853888D01*
X152285614Y-82144999D01*
X152314286Y-82436110D01*
X152399200Y-82716033D01*
X152537093Y-82974013D01*
X152722665Y-83200133D01*
X152948785Y-83385705D01*
X153003590Y-83414999D01*
X152948785Y-83444293D01*
X152722665Y-83629865D01*
X152537093Y-83855985D01*
X152399200Y-84113965D01*
X152314286Y-84393888D01*
X152285614Y-84684999D01*
X152314286Y-84976110D01*
X152399200Y-85256033D01*
X152537093Y-85514013D01*
X152722665Y-85740133D01*
X152948785Y-85925705D01*
X153003590Y-85954999D01*
X152948785Y-85984293D01*
X152722665Y-86169865D01*
X152537093Y-86395985D01*
X152399200Y-86653965D01*
X152314286Y-86933888D01*
X152285614Y-87224999D01*
X152314286Y-87516110D01*
X152399200Y-87796033D01*
X152537093Y-88054013D01*
X152722665Y-88280133D01*
X152948785Y-88465705D01*
X153003590Y-88494999D01*
X152948785Y-88524293D01*
X152722665Y-88709865D01*
X152537093Y-88935985D01*
X152399200Y-89193965D01*
X152314286Y-89473888D01*
X152285614Y-89764999D01*
X152314286Y-90056110D01*
X152399200Y-90336033D01*
X152537093Y-90594013D01*
X152722665Y-90820133D01*
X152948785Y-91005705D01*
X153003590Y-91034999D01*
X152948785Y-91064293D01*
X152722665Y-91249865D01*
X152537093Y-91475985D01*
X152399200Y-91733965D01*
X152314286Y-92013888D01*
X152285614Y-92304999D01*
X152314286Y-92596110D01*
X152395550Y-92864000D01*
X147102094Y-92864000D01*
X147065999Y-92860445D01*
X147029904Y-92864000D01*
X147029895Y-92864000D01*
X146921915Y-92874635D01*
X146783367Y-92916663D01*
X146655680Y-92984913D01*
X146543762Y-93076762D01*
X146520741Y-93104813D01*
X146317808Y-93307746D01*
X146289763Y-93330762D01*
X146197914Y-93442680D01*
X146143164Y-93545111D01*
X146129664Y-93570367D01*
X146087635Y-93708915D01*
X146085715Y-93728411D01*
X145955377Y-93835377D01*
X145846488Y-93968058D01*
X145765577Y-94119433D01*
X145715752Y-94283684D01*
X145698928Y-94454500D01*
X145698928Y-95029500D01*
X145715752Y-95200316D01*
X145765577Y-95364567D01*
X145846488Y-95515942D01*
X145929425Y-95617000D01*
X145846488Y-95718058D01*
X145765577Y-95869433D01*
X145715752Y-96033684D01*
X145698928Y-96204500D01*
X145698928Y-96779500D01*
X145715752Y-96950316D01*
X145765577Y-97114567D01*
X145846488Y-97265942D01*
X145955377Y-97398623D01*
X146077000Y-97498437D01*
X146077001Y-98750378D01*
X145967820Y-98783498D01*
X145857506Y-98842463D01*
X145760815Y-98921815D01*
X145681463Y-99018506D01*
X145622498Y-99128820D01*
X145586188Y-99248518D01*
X145573928Y-99373000D01*
X145573928Y-100273000D01*
X145586188Y-100397482D01*
X145622498Y-100517180D01*
X145681463Y-100627494D01*
X145760815Y-100724185D01*
X145857506Y-100803537D01*
X145967820Y-100862502D01*
X146087518Y-100898812D01*
X146212000Y-100911072D01*
X147412000Y-100911072D01*
X147536482Y-100898812D01*
X147656180Y-100862502D01*
X147766494Y-100803537D01*
X147863185Y-100724185D01*
X147942537Y-100627494D01*
X148001502Y-100517180D01*
X148037812Y-100397482D01*
X148050072Y-100273000D01*
X148050072Y-99373000D01*
X148037812Y-99248518D01*
X148001502Y-99128820D01*
X147942537Y-99018506D01*
X147863185Y-98921815D01*
X147766494Y-98842463D01*
X147656180Y-98783498D01*
X147547000Y-98750379D01*
X147547000Y-97498437D01*
X147668623Y-97398623D01*
X147777512Y-97265942D01*
X147798327Y-97227000D01*
X151378273Y-97227000D01*
X152030464Y-97879192D01*
X152053480Y-97907237D01*
X152165398Y-97999086D01*
X152293085Y-98067336D01*
X152431633Y-98109364D01*
X152483909Y-98114513D01*
X152537093Y-98214013D01*
X152722665Y-98440133D01*
X152948785Y-98625705D01*
X153003590Y-98654999D01*
X152948785Y-98684293D01*
X152722665Y-98869865D01*
X152537093Y-99095985D01*
X152399200Y-99353965D01*
X152314286Y-99633888D01*
X152285614Y-99924999D01*
X152314286Y-100216110D01*
X152399200Y-100496033D01*
X152537093Y-100754013D01*
X152722665Y-100980133D01*
X152948785Y-101165705D01*
X153003590Y-101194999D01*
X152948785Y-101224293D01*
X152722665Y-101409865D01*
X152537093Y-101635985D01*
X152399200Y-101893965D01*
X152314286Y-102173888D01*
X152285614Y-102464999D01*
X152314286Y-102756110D01*
X152399200Y-103036033D01*
X152537093Y-103294013D01*
X152722665Y-103520133D01*
X152948785Y-103705705D01*
X153003590Y-103734999D01*
X152948785Y-103764293D01*
X152722665Y-103949865D01*
X152537093Y-104175985D01*
X152399200Y-104433965D01*
X152314286Y-104713888D01*
X152285614Y-105004999D01*
X152314286Y-105296110D01*
X152399200Y-105576033D01*
X152537093Y-105834013D01*
X152722665Y-106060133D01*
X152948785Y-106245705D01*
X153003590Y-106274999D01*
X152948785Y-106304293D01*
X152722665Y-106489865D01*
X152537093Y-106715985D01*
X152399200Y-106973965D01*
X152314286Y-107253888D01*
X152285614Y-107544999D01*
X152314286Y-107836110D01*
X152399200Y-108116033D01*
X152537093Y-108374013D01*
X152722665Y-108600133D01*
X152948785Y-108785705D01*
X153003590Y-108814999D01*
X152948785Y-108844293D01*
X152722665Y-109029865D01*
X152537093Y-109255985D01*
X152399200Y-109513965D01*
X152314286Y-109793888D01*
X152285614Y-110084999D01*
X152314286Y-110376110D01*
X152399200Y-110656033D01*
X152537093Y-110914013D01*
X152722665Y-111140133D01*
X152948785Y-111325705D01*
X153003590Y-111354999D01*
X152948785Y-111384293D01*
X152722665Y-111569865D01*
X152537093Y-111795985D01*
X152399200Y-112053965D01*
X152314286Y-112333888D01*
X152285614Y-112624999D01*
X152314286Y-112916110D01*
X152399200Y-113196033D01*
X152537093Y-113454013D01*
X152722665Y-113680133D01*
X152948785Y-113865705D01*
X153003590Y-113894999D01*
X152948785Y-113924293D01*
X152722665Y-114109865D01*
X152537093Y-114335985D01*
X152399200Y-114593965D01*
X152314286Y-114873888D01*
X152285614Y-115164999D01*
X152314286Y-115456110D01*
X152399200Y-115736033D01*
X152537093Y-115994013D01*
X152722665Y-116220133D01*
X152752486Y-116244606D01*
X152683619Y-116265497D01*
X152573305Y-116324462D01*
X152476614Y-116403814D01*
X152471857Y-116409610D01*
X147547000Y-111484754D01*
X147547000Y-104195621D01*
X147656180Y-104162502D01*
X147766494Y-104103537D01*
X147863185Y-104024185D01*
X147942537Y-103927494D01*
X148001502Y-103817180D01*
X148037812Y-103697482D01*
X148050072Y-103573000D01*
X148050072Y-102673000D01*
X148037812Y-102548518D01*
X148001502Y-102428820D01*
X147942537Y-102318506D01*
X147863185Y-102221815D01*
X147766494Y-102142463D01*
X147656180Y-102083498D01*
X147536482Y-102047188D01*
X147412000Y-102034928D01*
X146212000Y-102034928D01*
X146087518Y-102047188D01*
X145967820Y-102083498D01*
X145857506Y-102142463D01*
X145760815Y-102221815D01*
X145681463Y-102318506D01*
X145622498Y-102428820D01*
X145586188Y-102548518D01*
X145573928Y-102673000D01*
X145573928Y-103573000D01*
X145586188Y-103697482D01*
X145622498Y-103817180D01*
X145681463Y-103927494D01*
X145760815Y-104024185D01*
X145857506Y-104103537D01*
X145967820Y-104162502D01*
X146077001Y-104195622D01*
X146077000Y-111753095D01*
X146073444Y-111789200D01*
X146087635Y-111933285D01*
X146097760Y-111966663D01*
X146129663Y-112071832D01*
X146197913Y-112199519D01*
X146289762Y-112311437D01*
X146317808Y-112334454D01*
X152182545Y-118199192D01*
X152205561Y-118227237D01*
X152289727Y-118296310D01*
X152289727Y-118554999D01*
X152301987Y-118679481D01*
X152338297Y-118799179D01*
X152397262Y-118909493D01*
X152476614Y-119006184D01*
X152573305Y-119085536D01*
X152683619Y-119144501D01*
X152803317Y-119180811D01*
X152927799Y-119193071D01*
X154627799Y-119193071D01*
X154752281Y-119180811D01*
X154871979Y-119144501D01*
X154982293Y-119085536D01*
X155078984Y-119006184D01*
X155158336Y-118909493D01*
X155217301Y-118799179D01*
X155253611Y-118679481D01*
X155265871Y-118554999D01*
X155265871Y-116854999D01*
X155253611Y-116730517D01*
X155217301Y-116610819D01*
X155158336Y-116500505D01*
X155078984Y-116403814D01*
X154982293Y-116324462D01*
X154871979Y-116265497D01*
X154803112Y-116244606D01*
X154832933Y-116220133D01*
X155018505Y-115994013D01*
X155156398Y-115736033D01*
X155241312Y-115456110D01*
X155269984Y-115164999D01*
X155241312Y-114873888D01*
X155156398Y-114593965D01*
X155018505Y-114335985D01*
X154832933Y-114109865D01*
X154606813Y-113924293D01*
X154552008Y-113894999D01*
X154606813Y-113865705D01*
X154832933Y-113680133D01*
X155018505Y-113454013D01*
X155156398Y-113196033D01*
X155241312Y-112916110D01*
X155269984Y-112624999D01*
X155241312Y-112333888D01*
X155156398Y-112053965D01*
X155018505Y-111795985D01*
X154832933Y-111569865D01*
X154606813Y-111384293D01*
X154552008Y-111354999D01*
X154606813Y-111325705D01*
X154832933Y-111140133D01*
X155018505Y-110914013D01*
X155156398Y-110656033D01*
X155241312Y-110376110D01*
X155269984Y-110084999D01*
X155241312Y-109793888D01*
X155156398Y-109513965D01*
X155018505Y-109255985D01*
X154832933Y-109029865D01*
X154606813Y-108844293D01*
X154552008Y-108814999D01*
X154606813Y-108785705D01*
X154832933Y-108600133D01*
X155018505Y-108374013D01*
X155156398Y-108116033D01*
X155241312Y-107836110D01*
X155269984Y-107544999D01*
X155241312Y-107253888D01*
X155156398Y-106973965D01*
X155018505Y-106715985D01*
X154832933Y-106489865D01*
X154606813Y-106304293D01*
X154552008Y-106274999D01*
X154606813Y-106245705D01*
X154832933Y-106060133D01*
X155018505Y-105834013D01*
X155156398Y-105576033D01*
X155241312Y-105296110D01*
X155269984Y-105004999D01*
X155269070Y-104995717D01*
X155348000Y-105074647D01*
X155348001Y-115660885D01*
X155344444Y-115697000D01*
X155358635Y-115841085D01*
X155386190Y-115931919D01*
X155400664Y-115979633D01*
X155468914Y-116107320D01*
X155560763Y-116219238D01*
X155588808Y-116242254D01*
X156807746Y-117461193D01*
X156830762Y-117489238D01*
X156942680Y-117581087D01*
X157070367Y-117649337D01*
X157208915Y-117691365D01*
X157316895Y-117702000D01*
X157316904Y-117702000D01*
X157352999Y-117705555D01*
X157389094Y-117702000D01*
X158519563Y-117702000D01*
X158619377Y-117823623D01*
X158752058Y-117932512D01*
X158903433Y-118013423D01*
X159067684Y-118063248D01*
X159238500Y-118080072D01*
X159813500Y-118080072D01*
X159984316Y-118063248D01*
X160148567Y-118013423D01*
X160299942Y-117932512D01*
X160401000Y-117849575D01*
X160502058Y-117932512D01*
X160653433Y-118013423D01*
X160817684Y-118063248D01*
X160988500Y-118080072D01*
X161563500Y-118080072D01*
X161734316Y-118063248D01*
X161898567Y-118013423D01*
X162049942Y-117932512D01*
X162182623Y-117823623D01*
X162282437Y-117702000D01*
X162837563Y-117702000D01*
X162937377Y-117823623D01*
X163070058Y-117932512D01*
X163221433Y-118013423D01*
X163385684Y-118063248D01*
X163556500Y-118080072D01*
X164131500Y-118080072D01*
X164302316Y-118063248D01*
X164466567Y-118013423D01*
X164617942Y-117932512D01*
X164641839Y-117912901D01*
X164714506Y-117972537D01*
X164824820Y-118031502D01*
X164944518Y-118067812D01*
X165069000Y-118080072D01*
X165308250Y-118077000D01*
X165467000Y-117918250D01*
X165467000Y-117094000D01*
X165721000Y-117094000D01*
X165721000Y-117918250D01*
X165879750Y-118077000D01*
X166119000Y-118080072D01*
X166243482Y-118067812D01*
X166363180Y-118031502D01*
X166473494Y-117972537D01*
X166570185Y-117893185D01*
X166649537Y-117796494D01*
X166708502Y-117686180D01*
X166711135Y-117677499D01*
X175860606Y-117677499D01*
X176076728Y-118044258D01*
X176536605Y-118284938D01*
X177034598Y-118431275D01*
X177551571Y-118477648D01*
X178067659Y-118422273D01*
X178563026Y-118267279D01*
X178980272Y-118044258D01*
X179196394Y-117677499D01*
X177528500Y-116009605D01*
X175860606Y-117677499D01*
X166711135Y-117677499D01*
X166744812Y-117566482D01*
X166757072Y-117442000D01*
X166754000Y-117252750D01*
X166595250Y-117094000D01*
X165721000Y-117094000D01*
X165467000Y-117094000D01*
X165447000Y-117094000D01*
X165447000Y-116840000D01*
X165467000Y-116840000D01*
X165467000Y-116015750D01*
X165721000Y-116015750D01*
X165721000Y-116840000D01*
X166595250Y-116840000D01*
X166754000Y-116681250D01*
X166757072Y-116492000D01*
X166744812Y-116367518D01*
X166708502Y-116247820D01*
X166649537Y-116137506D01*
X166570185Y-116040815D01*
X166473494Y-115961463D01*
X166363180Y-115902498D01*
X166243482Y-115866188D01*
X166119000Y-115853928D01*
X165879750Y-115857000D01*
X165721000Y-116015750D01*
X165467000Y-116015750D01*
X165308250Y-115857000D01*
X165069000Y-115853928D01*
X164944518Y-115866188D01*
X164824820Y-115902498D01*
X164714506Y-115961463D01*
X164641839Y-116021099D01*
X164617942Y-116001488D01*
X164466567Y-115920577D01*
X164302316Y-115870752D01*
X164131500Y-115853928D01*
X163556500Y-115853928D01*
X163385684Y-115870752D01*
X163221433Y-115920577D01*
X163070058Y-116001488D01*
X162937377Y-116110377D01*
X162837563Y-116232000D01*
X162282437Y-116232000D01*
X162182623Y-116110377D01*
X162049942Y-116001488D01*
X161898567Y-115920577D01*
X161734316Y-115870752D01*
X161563500Y-115853928D01*
X160988500Y-115853928D01*
X160817684Y-115870752D01*
X160653433Y-115920577D01*
X160502058Y-116001488D01*
X160401000Y-116084425D01*
X160299942Y-116001488D01*
X160148567Y-115920577D01*
X159984316Y-115870752D01*
X159813500Y-115853928D01*
X159238500Y-115853928D01*
X159067684Y-115870752D01*
X158903433Y-115920577D01*
X158752058Y-116001488D01*
X158619377Y-116110377D01*
X158519563Y-116232000D01*
X157657447Y-116232000D01*
X157278518Y-115853071D01*
X174880852Y-115853071D01*
X174936227Y-116369159D01*
X175091221Y-116864526D01*
X175314242Y-117281772D01*
X175681001Y-117497894D01*
X177348895Y-115830000D01*
X177708105Y-115830000D01*
X179375999Y-117497894D01*
X179742758Y-117281772D01*
X179983438Y-116821895D01*
X180129775Y-116323902D01*
X180176148Y-115806929D01*
X180120773Y-115290841D01*
X179965779Y-114795474D01*
X179742758Y-114378228D01*
X179375999Y-114162106D01*
X177708105Y-115830000D01*
X177348895Y-115830000D01*
X175681001Y-114162106D01*
X175314242Y-114378228D01*
X175073562Y-114838105D01*
X174927225Y-115336098D01*
X174880852Y-115853071D01*
X157278518Y-115853071D01*
X156818000Y-115392554D01*
X156818000Y-113026447D01*
X157188746Y-113397193D01*
X157211762Y-113425238D01*
X157323680Y-113517087D01*
X157451367Y-113585337D01*
X157547886Y-113614616D01*
X157589914Y-113627365D01*
X157734000Y-113641556D01*
X157770105Y-113638000D01*
X158392563Y-113638000D01*
X158492377Y-113759623D01*
X158625058Y-113868512D01*
X158776433Y-113949423D01*
X158940684Y-113999248D01*
X159111500Y-114016072D01*
X159686500Y-114016072D01*
X159857316Y-113999248D01*
X160021567Y-113949423D01*
X160172942Y-113868512D01*
X160274000Y-113785575D01*
X160375058Y-113868512D01*
X160526433Y-113949423D01*
X160690684Y-113999248D01*
X160861500Y-114016072D01*
X161436500Y-114016072D01*
X161607316Y-113999248D01*
X161771567Y-113949423D01*
X161922942Y-113868512D01*
X162055623Y-113759623D01*
X162155437Y-113638000D01*
X162837563Y-113638000D01*
X162937377Y-113759623D01*
X163070058Y-113868512D01*
X163221433Y-113949423D01*
X163385684Y-113999248D01*
X163556500Y-114016072D01*
X164131500Y-114016072D01*
X164302316Y-113999248D01*
X164466567Y-113949423D01*
X164617942Y-113868512D01*
X164641839Y-113848901D01*
X164714506Y-113908537D01*
X164824820Y-113967502D01*
X164944518Y-114003812D01*
X165069000Y-114016072D01*
X165308250Y-114013000D01*
X165467000Y-113854250D01*
X165467000Y-113030000D01*
X165721000Y-113030000D01*
X165721000Y-113854250D01*
X165879750Y-114013000D01*
X166119000Y-114016072D01*
X166243482Y-114003812D01*
X166363180Y-113967502D01*
X166473494Y-113908537D01*
X166570185Y-113829185D01*
X166649537Y-113732494D01*
X166708502Y-113622180D01*
X166744812Y-113502482D01*
X166757072Y-113378000D01*
X166754000Y-113188750D01*
X166595250Y-113030000D01*
X165721000Y-113030000D01*
X165467000Y-113030000D01*
X165447000Y-113030000D01*
X165447000Y-112776000D01*
X165467000Y-112776000D01*
X165467000Y-111951750D01*
X165721000Y-111951750D01*
X165721000Y-112776000D01*
X166595250Y-112776000D01*
X166754000Y-112617250D01*
X166757072Y-112428000D01*
X166744812Y-112303518D01*
X166708502Y-112183820D01*
X166649537Y-112073506D01*
X166570185Y-111976815D01*
X166473494Y-111897463D01*
X166363180Y-111838498D01*
X166243482Y-111802188D01*
X166119000Y-111789928D01*
X165879750Y-111793000D01*
X165721000Y-111951750D01*
X165467000Y-111951750D01*
X165308250Y-111793000D01*
X165069000Y-111789928D01*
X164944518Y-111802188D01*
X164824820Y-111838498D01*
X164714506Y-111897463D01*
X164641839Y-111957099D01*
X164617942Y-111937488D01*
X164466567Y-111856577D01*
X164302316Y-111806752D01*
X164131500Y-111789928D01*
X163556500Y-111789928D01*
X163385684Y-111806752D01*
X163221433Y-111856577D01*
X163070058Y-111937488D01*
X162937377Y-112046377D01*
X162837563Y-112168000D01*
X162155437Y-112168000D01*
X162055623Y-112046377D01*
X161922942Y-111937488D01*
X161771567Y-111856577D01*
X161607316Y-111806752D01*
X161436500Y-111789928D01*
X160861500Y-111789928D01*
X160690684Y-111806752D01*
X160526433Y-111856577D01*
X160375058Y-111937488D01*
X160274000Y-112020425D01*
X160172942Y-111937488D01*
X160021567Y-111856577D01*
X159857316Y-111806752D01*
X159686500Y-111789928D01*
X159111500Y-111789928D01*
X158940684Y-111806752D01*
X158776433Y-111856577D01*
X158625058Y-111937488D01*
X158492377Y-112046377D01*
X158392563Y-112168000D01*
X158038447Y-112168000D01*
X157453000Y-111582554D01*
X157453000Y-102901296D01*
X157456555Y-102865199D01*
X157453000Y-102829102D01*
X157453000Y-102829095D01*
X157442365Y-102721115D01*
X157439807Y-102712680D01*
X157429616Y-102679086D01*
X157416546Y-102636000D01*
X162510928Y-102636000D01*
X162510928Y-104186000D01*
X162523188Y-104310482D01*
X162559498Y-104430180D01*
X162618463Y-104540494D01*
X162697815Y-104637185D01*
X162714000Y-104650468D01*
X162714001Y-106770885D01*
X162710444Y-106807000D01*
X162724635Y-106951085D01*
X162757978Y-107061000D01*
X162766664Y-107089633D01*
X162834914Y-107217320D01*
X162926763Y-107329238D01*
X162954808Y-107352254D01*
X168745746Y-113143193D01*
X168768762Y-113171238D01*
X168796806Y-113194253D01*
X168880680Y-113263087D01*
X169008366Y-113331337D01*
X169146915Y-113373365D01*
X169291000Y-113387556D01*
X169327105Y-113384000D01*
X176521847Y-113384000D01*
X176493974Y-113392721D01*
X176076728Y-113615742D01*
X175860606Y-113982501D01*
X177528500Y-115650395D01*
X179196394Y-113982501D01*
X178980272Y-113615742D01*
X178537473Y-113384000D01*
X181446895Y-113384000D01*
X181483000Y-113387556D01*
X181519105Y-113384000D01*
X181627085Y-113373365D01*
X181765633Y-113331337D01*
X181893320Y-113263087D01*
X182005238Y-113171238D01*
X182028258Y-113143188D01*
X183882197Y-111289250D01*
X183910237Y-111266238D01*
X183933250Y-111238197D01*
X183933253Y-111238194D01*
X183960770Y-111204664D01*
X184002087Y-111154320D01*
X184070337Y-111026633D01*
X184112365Y-110888085D01*
X184123000Y-110780105D01*
X184123000Y-110780104D01*
X184126556Y-110744000D01*
X184123000Y-110707895D01*
X184123000Y-100175605D01*
X184126556Y-100139500D01*
X184112365Y-99995414D01*
X184099616Y-99953386D01*
X184070337Y-99856867D01*
X184002087Y-99729180D01*
X183910238Y-99617262D01*
X183882193Y-99594246D01*
X182968758Y-98680812D01*
X182945738Y-98652762D01*
X182833820Y-98560913D01*
X182706133Y-98492663D01*
X182567585Y-98450635D01*
X182459605Y-98440000D01*
X182423500Y-98436444D01*
X182387395Y-98440000D01*
X181303248Y-98440000D01*
X181183137Y-98260241D01*
X180983259Y-98060363D01*
X180748227Y-97903320D01*
X180487074Y-97795147D01*
X180209835Y-97740000D01*
X179927165Y-97740000D01*
X179649926Y-97795147D01*
X179388773Y-97903320D01*
X179153741Y-98060363D01*
X178953863Y-98260241D01*
X178796820Y-98495273D01*
X178688647Y-98756426D01*
X178633500Y-99033665D01*
X178633500Y-99316335D01*
X178688647Y-99593574D01*
X178796820Y-99854727D01*
X178953863Y-100089759D01*
X179153741Y-100289637D01*
X179388773Y-100446680D01*
X179649926Y-100554853D01*
X179675801Y-100560000D01*
X179649926Y-100565147D01*
X179388773Y-100673320D01*
X179153741Y-100830363D01*
X178953863Y-101030241D01*
X178796820Y-101265273D01*
X178688647Y-101526426D01*
X178633500Y-101803665D01*
X178633500Y-102086335D01*
X178688647Y-102363574D01*
X178796820Y-102624727D01*
X178953863Y-102859759D01*
X179153741Y-103059637D01*
X179388773Y-103216680D01*
X179649926Y-103324853D01*
X179675801Y-103330000D01*
X179649926Y-103335147D01*
X179388773Y-103443320D01*
X179153741Y-103600363D01*
X178953863Y-103800241D01*
X178796820Y-104035273D01*
X178688647Y-104296426D01*
X178633500Y-104573665D01*
X178633500Y-104856335D01*
X178688647Y-105133574D01*
X178796820Y-105394727D01*
X178953863Y-105629759D01*
X179153741Y-105829637D01*
X179388773Y-105986680D01*
X179649926Y-106094853D01*
X179675801Y-106100000D01*
X179649926Y-106105147D01*
X179388773Y-106213320D01*
X179153741Y-106370363D01*
X178953863Y-106570241D01*
X178796820Y-106805273D01*
X178688647Y-107066426D01*
X178633500Y-107343665D01*
X178633500Y-107626335D01*
X178688647Y-107903574D01*
X178796820Y-108164727D01*
X178953863Y-108399759D01*
X179153741Y-108599637D01*
X179388773Y-108756680D01*
X179649926Y-108864853D01*
X179927165Y-108920000D01*
X180209835Y-108920000D01*
X180487074Y-108864853D01*
X180621001Y-108809379D01*
X180621000Y-109804553D01*
X180289554Y-110136000D01*
X177915143Y-110136000D01*
X177970014Y-110106671D01*
X178041597Y-109862702D01*
X177228500Y-109049605D01*
X176415403Y-109862702D01*
X176486986Y-110106671D01*
X176548970Y-110136000D01*
X171373447Y-110136000D01*
X170177959Y-108940512D01*
X175788283Y-108940512D01*
X175829713Y-109220130D01*
X175924897Y-109486292D01*
X175991829Y-109611514D01*
X176235798Y-109683097D01*
X177048895Y-108870000D01*
X177408105Y-108870000D01*
X178221202Y-109683097D01*
X178465171Y-109611514D01*
X178586071Y-109356004D01*
X178654800Y-109081816D01*
X178668717Y-108799488D01*
X178627287Y-108519870D01*
X178532103Y-108253708D01*
X178465171Y-108128486D01*
X178221202Y-108056903D01*
X177408105Y-108870000D01*
X177048895Y-108870000D01*
X176235798Y-108056903D01*
X175991829Y-108128486D01*
X175870929Y-108383996D01*
X175802200Y-108658184D01*
X175788283Y-108940512D01*
X170177959Y-108940512D01*
X167994000Y-106756554D01*
X167994000Y-104650468D01*
X168010185Y-104637185D01*
X168089537Y-104540494D01*
X168148502Y-104430180D01*
X168184812Y-104310482D01*
X168197072Y-104186000D01*
X168197072Y-102636000D01*
X168184812Y-102511518D01*
X168148502Y-102391820D01*
X168089537Y-102281506D01*
X168010185Y-102184815D01*
X167913494Y-102105463D01*
X167803180Y-102046498D01*
X167683482Y-102010188D01*
X167559000Y-101997928D01*
X166959000Y-101997928D01*
X166834518Y-102010188D01*
X166714820Y-102046498D01*
X166624000Y-102095043D01*
X166533180Y-102046498D01*
X166413482Y-102010188D01*
X166289000Y-101997928D01*
X165689000Y-101997928D01*
X165564518Y-102010188D01*
X165444820Y-102046498D01*
X165354000Y-102095043D01*
X165263180Y-102046498D01*
X165143482Y-102010188D01*
X165019000Y-101997928D01*
X164419000Y-101997928D01*
X164294518Y-102010188D01*
X164174820Y-102046498D01*
X164084000Y-102095043D01*
X163993180Y-102046498D01*
X163873482Y-102010188D01*
X163749000Y-101997928D01*
X163149000Y-101997928D01*
X163024518Y-102010188D01*
X162904820Y-102046498D01*
X162794506Y-102105463D01*
X162697815Y-102184815D01*
X162618463Y-102281506D01*
X162559498Y-102391820D01*
X162523188Y-102511518D01*
X162510928Y-102636000D01*
X157416546Y-102636000D01*
X157400337Y-102582567D01*
X157332087Y-102454880D01*
X157299556Y-102415241D01*
X157263253Y-102371006D01*
X157263250Y-102371003D01*
X157240237Y-102342962D01*
X157212197Y-102319950D01*
X155210367Y-100318121D01*
X155241312Y-100216110D01*
X155269984Y-99924999D01*
X155241312Y-99633888D01*
X155156398Y-99353965D01*
X155018505Y-99095985D01*
X154832933Y-98869865D01*
X154730744Y-98786000D01*
X162510928Y-98786000D01*
X162523188Y-98910482D01*
X162559498Y-99030180D01*
X162618463Y-99140494D01*
X162697815Y-99237185D01*
X162794506Y-99316537D01*
X162904820Y-99375502D01*
X163024518Y-99411812D01*
X163149000Y-99424072D01*
X163163250Y-99421000D01*
X163322000Y-99262250D01*
X163322000Y-98138000D01*
X162672750Y-98138000D01*
X162514000Y-98296750D01*
X162510928Y-98786000D01*
X154730744Y-98786000D01*
X154606813Y-98684293D01*
X154552008Y-98654999D01*
X154606813Y-98625705D01*
X154832933Y-98440133D01*
X155018505Y-98214013D01*
X155156398Y-97956033D01*
X155241312Y-97676110D01*
X155269984Y-97384999D01*
X155255309Y-97236000D01*
X162510928Y-97236000D01*
X162514000Y-97725250D01*
X162672750Y-97884000D01*
X163322000Y-97884000D01*
X163322000Y-96759750D01*
X163163250Y-96601000D01*
X163149000Y-96597928D01*
X163024518Y-96610188D01*
X162904820Y-96646498D01*
X162794506Y-96705463D01*
X162697815Y-96784815D01*
X162618463Y-96881506D01*
X162559498Y-96991820D01*
X162523188Y-97111518D01*
X162510928Y-97236000D01*
X155255309Y-97236000D01*
X155241312Y-97093888D01*
X155156398Y-96813965D01*
X155018505Y-96555985D01*
X154832933Y-96329865D01*
X154606813Y-96144293D01*
X154552008Y-96114999D01*
X154606813Y-96085705D01*
X154832933Y-95900133D01*
X155018505Y-95674013D01*
X155068756Y-95579999D01*
X162612553Y-95579999D01*
X163684152Y-96651598D01*
X163576000Y-96759750D01*
X163576000Y-97884000D01*
X163596000Y-97884000D01*
X163596000Y-98138000D01*
X163576000Y-98138000D01*
X163576000Y-99262250D01*
X163734750Y-99421000D01*
X163749000Y-99424072D01*
X163873482Y-99411812D01*
X163993180Y-99375502D01*
X164084000Y-99326957D01*
X164174820Y-99375502D01*
X164294518Y-99411812D01*
X164419000Y-99424072D01*
X165019000Y-99424072D01*
X165143482Y-99411812D01*
X165263180Y-99375502D01*
X165354000Y-99326957D01*
X165444820Y-99375502D01*
X165564518Y-99411812D01*
X165689000Y-99424072D01*
X166289000Y-99424072D01*
X166413482Y-99411812D01*
X166533180Y-99375502D01*
X166624000Y-99326957D01*
X166714820Y-99375502D01*
X166834518Y-99411812D01*
X166959000Y-99424072D01*
X167559000Y-99424072D01*
X167683482Y-99411812D01*
X167803180Y-99375502D01*
X167913494Y-99316537D01*
X168010185Y-99237185D01*
X168089537Y-99140494D01*
X168148502Y-99030180D01*
X168184812Y-98910482D01*
X168197072Y-98786000D01*
X168197072Y-97236000D01*
X168184812Y-97111518D01*
X168148502Y-96991820D01*
X168089537Y-96881506D01*
X168010185Y-96784815D01*
X167994000Y-96771532D01*
X167994000Y-96302094D01*
X167997555Y-96265999D01*
X167994000Y-96229904D01*
X167994000Y-96229895D01*
X167983365Y-96121915D01*
X167941337Y-95983367D01*
X167873087Y-95855680D01*
X167781238Y-95743762D01*
X167753193Y-95720746D01*
X162406000Y-90373554D01*
X162406000Y-87491000D01*
X165974928Y-87491000D01*
X165974928Y-89991000D01*
X165987188Y-90115482D01*
X166023498Y-90235180D01*
X166082463Y-90345494D01*
X166161815Y-90442185D01*
X166258506Y-90521537D01*
X166368820Y-90580502D01*
X166488518Y-90616812D01*
X166613000Y-90629072D01*
X166637317Y-90629072D01*
X166640805Y-90664490D01*
X166691412Y-90831313D01*
X166773590Y-90985059D01*
X166856468Y-91086046D01*
X166856471Y-91086049D01*
X166884184Y-91119817D01*
X166917952Y-91147530D01*
X172470000Y-96699579D01*
X172470001Y-105112521D01*
X172465719Y-105156000D01*
X172482805Y-105329490D01*
X172533412Y-105496313D01*
X172615590Y-105650059D01*
X172698468Y-105751046D01*
X172698471Y-105751049D01*
X172726184Y-105784817D01*
X172759951Y-105812529D01*
X173642470Y-106695049D01*
X173670183Y-106728817D01*
X173703951Y-106756530D01*
X173703953Y-106756532D01*
X173804941Y-106839411D01*
X173958686Y-106921589D01*
X174094414Y-106962762D01*
X174125510Y-106972195D01*
X174255523Y-106985000D01*
X174255531Y-106985000D01*
X174299000Y-106989281D01*
X174342469Y-106985000D01*
X176093979Y-106985000D01*
X176113863Y-107014759D01*
X176313741Y-107214637D01*
X176548773Y-107371680D01*
X176809926Y-107479853D01*
X176838382Y-107485513D01*
X176612208Y-107566397D01*
X176486986Y-107633329D01*
X176415403Y-107877298D01*
X177228500Y-108690395D01*
X178041597Y-107877298D01*
X177970014Y-107633329D01*
X177714504Y-107512429D01*
X177612211Y-107486788D01*
X177647074Y-107479853D01*
X177908227Y-107371680D01*
X178143259Y-107214637D01*
X178343137Y-107014759D01*
X178500180Y-106779727D01*
X178608353Y-106518574D01*
X178663500Y-106241335D01*
X178663500Y-105958665D01*
X178608353Y-105681426D01*
X178500180Y-105420273D01*
X178343137Y-105185241D01*
X178143259Y-104985363D01*
X177908227Y-104828320D01*
X177647074Y-104720147D01*
X177621199Y-104715000D01*
X177647074Y-104709853D01*
X177908227Y-104601680D01*
X178143259Y-104444637D01*
X178343137Y-104244759D01*
X178500180Y-104009727D01*
X178608353Y-103748574D01*
X178663500Y-103471335D01*
X178663500Y-103188665D01*
X178608353Y-102911426D01*
X178500180Y-102650273D01*
X178343137Y-102415241D01*
X178143259Y-102215363D01*
X177908227Y-102058320D01*
X177647074Y-101950147D01*
X177621199Y-101945000D01*
X177647074Y-101939853D01*
X177908227Y-101831680D01*
X178143259Y-101674637D01*
X178343137Y-101474759D01*
X178500180Y-101239727D01*
X178608353Y-100978574D01*
X178663500Y-100701335D01*
X178663500Y-100418665D01*
X178608353Y-100141426D01*
X178500180Y-99880273D01*
X178343137Y-99645241D01*
X178143259Y-99445363D01*
X177908227Y-99288320D01*
X177762775Y-99228072D01*
X178028500Y-99228072D01*
X178152982Y-99215812D01*
X178272680Y-99179502D01*
X178382994Y-99120537D01*
X178479685Y-99041185D01*
X178559037Y-98944494D01*
X178618002Y-98834180D01*
X178654312Y-98714482D01*
X178666572Y-98590000D01*
X178666572Y-96990000D01*
X178654312Y-96865518D01*
X178618002Y-96745820D01*
X178559037Y-96635506D01*
X178479685Y-96538815D01*
X178382994Y-96459463D01*
X178272680Y-96400498D01*
X178152982Y-96364188D01*
X178028500Y-96351928D01*
X176428500Y-96351928D01*
X176304018Y-96364188D01*
X176184320Y-96400498D01*
X176074006Y-96459463D01*
X175977315Y-96538815D01*
X175897963Y-96635506D01*
X175838998Y-96745820D01*
X175802688Y-96865518D01*
X175790428Y-96990000D01*
X175790428Y-98590000D01*
X175802688Y-98714482D01*
X175838998Y-98834180D01*
X175897963Y-98944494D01*
X175977315Y-99041185D01*
X176074006Y-99120537D01*
X176184320Y-99179502D01*
X176304018Y-99215812D01*
X176428500Y-99228072D01*
X176694225Y-99228072D01*
X176548773Y-99288320D01*
X176313741Y-99445363D01*
X176113863Y-99645241D01*
X175956820Y-99880273D01*
X175848647Y-100141426D01*
X175793500Y-100418665D01*
X175793500Y-100701335D01*
X175848647Y-100978574D01*
X175956820Y-101239727D01*
X176113863Y-101474759D01*
X176313741Y-101674637D01*
X176548773Y-101831680D01*
X176809926Y-101939853D01*
X176835801Y-101945000D01*
X176809926Y-101950147D01*
X176548773Y-102058320D01*
X176313741Y-102215363D01*
X176113863Y-102415241D01*
X175956820Y-102650273D01*
X175848647Y-102911426D01*
X175793500Y-103188665D01*
X175793500Y-103471335D01*
X175848647Y-103748574D01*
X175956820Y-104009727D01*
X176113863Y-104244759D01*
X176313741Y-104444637D01*
X176548773Y-104601680D01*
X176809926Y-104709853D01*
X176835801Y-104715000D01*
X176809926Y-104720147D01*
X176548773Y-104828320D01*
X176313741Y-104985363D01*
X176113863Y-105185241D01*
X176093979Y-105215000D01*
X174665579Y-105215000D01*
X174240000Y-104789422D01*
X174240000Y-96376469D01*
X174244281Y-96333000D01*
X174240000Y-96289531D01*
X174240000Y-96289523D01*
X174227195Y-96159510D01*
X174222579Y-96144293D01*
X174176589Y-95992686D01*
X174094411Y-95838941D01*
X174011532Y-95737953D01*
X174011530Y-95737951D01*
X173983817Y-95704183D01*
X173950051Y-95676472D01*
X170951078Y-92677499D01*
X175860606Y-92677499D01*
X176076728Y-93044258D01*
X176536605Y-93284938D01*
X177034598Y-93431275D01*
X177551571Y-93477648D01*
X178067659Y-93422273D01*
X178563026Y-93267279D01*
X178980272Y-93044258D01*
X179196394Y-92677499D01*
X177528500Y-91009605D01*
X175860606Y-92677499D01*
X170951078Y-92677499D01*
X169126650Y-90853071D01*
X174880852Y-90853071D01*
X174936227Y-91369159D01*
X175091221Y-91864526D01*
X175314242Y-92281772D01*
X175681001Y-92497894D01*
X177348895Y-90830000D01*
X177708105Y-90830000D01*
X179375999Y-92497894D01*
X179742758Y-92281772D01*
X179983438Y-91821895D01*
X180129775Y-91323902D01*
X180176148Y-90806929D01*
X180120773Y-90290841D01*
X179965779Y-89795474D01*
X179742758Y-89378228D01*
X179375999Y-89162106D01*
X177708105Y-90830000D01*
X177348895Y-90830000D01*
X175681001Y-89162106D01*
X175314242Y-89378228D01*
X175073562Y-89838105D01*
X174927225Y-90336098D01*
X174880852Y-90853071D01*
X169126650Y-90853071D01*
X168782665Y-90509087D01*
X168864185Y-90442185D01*
X168943537Y-90345494D01*
X169002502Y-90235180D01*
X169038812Y-90115482D01*
X169051072Y-89991000D01*
X169051072Y-88982501D01*
X175860606Y-88982501D01*
X177528500Y-90650395D01*
X179196394Y-88982501D01*
X178980272Y-88615742D01*
X178520395Y-88375062D01*
X178022402Y-88228725D01*
X177505429Y-88182352D01*
X176989341Y-88237727D01*
X176493974Y-88392721D01*
X176076728Y-88615742D01*
X175860606Y-88982501D01*
X169051072Y-88982501D01*
X169051072Y-87491000D01*
X169038812Y-87366518D01*
X169002502Y-87246820D01*
X168943537Y-87136506D01*
X168864185Y-87039815D01*
X168767494Y-86960463D01*
X168657180Y-86901498D01*
X168537482Y-86865188D01*
X168413000Y-86852928D01*
X166613000Y-86852928D01*
X166488518Y-86865188D01*
X166368820Y-86901498D01*
X166258506Y-86960463D01*
X166161815Y-87039815D01*
X166082463Y-87136506D01*
X166023498Y-87246820D01*
X165987188Y-87366518D01*
X165974928Y-87491000D01*
X162406000Y-87491000D01*
X162406000Y-83491000D01*
X165974928Y-83491000D01*
X165974928Y-85991000D01*
X165987188Y-86115482D01*
X166023498Y-86235180D01*
X166082463Y-86345494D01*
X166161815Y-86442185D01*
X166258506Y-86521537D01*
X166368820Y-86580502D01*
X166488518Y-86616812D01*
X166613000Y-86629072D01*
X168413000Y-86629072D01*
X168537482Y-86616812D01*
X168657180Y-86580502D01*
X168767494Y-86521537D01*
X168864185Y-86442185D01*
X168943537Y-86345494D01*
X169002502Y-86235180D01*
X169038812Y-86115482D01*
X169051072Y-85991000D01*
X169051072Y-83491000D01*
X169038812Y-83366518D01*
X169002502Y-83246820D01*
X168943537Y-83136506D01*
X168864185Y-83039815D01*
X168782665Y-82972913D01*
X171495579Y-80260000D01*
X171565928Y-80260000D01*
X171565928Y-80327500D01*
X171578188Y-80451982D01*
X171614498Y-80571680D01*
X171673463Y-80681994D01*
X171752815Y-80778685D01*
X171849506Y-80858037D01*
X171959820Y-80917002D01*
X172079518Y-80953312D01*
X172204000Y-80965572D01*
X173542993Y-80965572D01*
X173953470Y-81376049D01*
X173981183Y-81409817D01*
X174014951Y-81437530D01*
X174014953Y-81437532D01*
X174025090Y-81445851D01*
X174115941Y-81520411D01*
X174269687Y-81602589D01*
X174436510Y-81653195D01*
X174566523Y-81666000D01*
X174566533Y-81666000D01*
X174609999Y-81670281D01*
X174653465Y-81666000D01*
X176158263Y-81666000D01*
X176214038Y-81733962D01*
X176348613Y-81844405D01*
X176502149Y-81926472D01*
X176668745Y-81977008D01*
X176841999Y-81994072D01*
X177742001Y-81994072D01*
X177915255Y-81977008D01*
X178081851Y-81926472D01*
X178235387Y-81844405D01*
X178369962Y-81733962D01*
X178480405Y-81599387D01*
X178562472Y-81445851D01*
X178613008Y-81279255D01*
X178630072Y-81106001D01*
X178630072Y-80455999D01*
X178613008Y-80282745D01*
X178607322Y-80264000D01*
X180625815Y-80264000D01*
X180654487Y-80555111D01*
X180739401Y-80835034D01*
X180877294Y-81093014D01*
X181062866Y-81319134D01*
X181288986Y-81504706D01*
X181343791Y-81534000D01*
X181288986Y-81563294D01*
X181062866Y-81748866D01*
X180877294Y-81974986D01*
X180739401Y-82232966D01*
X180654487Y-82512889D01*
X180625815Y-82804000D01*
X180654487Y-83095111D01*
X180739401Y-83375034D01*
X180877294Y-83633014D01*
X181062866Y-83859134D01*
X181092687Y-83883607D01*
X181023820Y-83904498D01*
X180913506Y-83963463D01*
X180816815Y-84042815D01*
X180737463Y-84139506D01*
X180678498Y-84249820D01*
X180642188Y-84369518D01*
X180629928Y-84494000D01*
X180629928Y-86194000D01*
X180642188Y-86318482D01*
X180678498Y-86438180D01*
X180737463Y-86548494D01*
X180816815Y-86645185D01*
X180913506Y-86724537D01*
X181023820Y-86783502D01*
X181143518Y-86819812D01*
X181268000Y-86832072D01*
X182968000Y-86832072D01*
X183092482Y-86819812D01*
X183212180Y-86783502D01*
X183322494Y-86724537D01*
X183419185Y-86645185D01*
X183498537Y-86548494D01*
X183557502Y-86438180D01*
X183593812Y-86318482D01*
X183606072Y-86194000D01*
X183606072Y-84494000D01*
X183593812Y-84369518D01*
X183557502Y-84249820D01*
X183498537Y-84139506D01*
X183419185Y-84042815D01*
X183322494Y-83963463D01*
X183212180Y-83904498D01*
X183143313Y-83883607D01*
X183173134Y-83859134D01*
X183358706Y-83633014D01*
X183496599Y-83375034D01*
X183581513Y-83095111D01*
X183610185Y-82804000D01*
X183581513Y-82512889D01*
X183496599Y-82232966D01*
X183358706Y-81974986D01*
X183173134Y-81748866D01*
X182947014Y-81563294D01*
X182892209Y-81534000D01*
X182947014Y-81504706D01*
X183173134Y-81319134D01*
X183358706Y-81093014D01*
X183496599Y-80835034D01*
X183581513Y-80555111D01*
X183610185Y-80264000D01*
X183581513Y-79972889D01*
X183496599Y-79692966D01*
X183358706Y-79434986D01*
X183173134Y-79208866D01*
X182947014Y-79023294D01*
X182882477Y-78988799D01*
X182999355Y-78919178D01*
X183215588Y-78724269D01*
X183389641Y-78490920D01*
X183514825Y-78228099D01*
X183559476Y-78080890D01*
X183438155Y-77851000D01*
X182245000Y-77851000D01*
X182245000Y-77871000D01*
X181991000Y-77871000D01*
X181991000Y-77851000D01*
X180797845Y-77851000D01*
X180676524Y-78080890D01*
X180721175Y-78228099D01*
X180846359Y-78490920D01*
X181020412Y-78724269D01*
X181236645Y-78919178D01*
X181353523Y-78988799D01*
X181288986Y-79023294D01*
X181062866Y-79208866D01*
X180877294Y-79434986D01*
X180739401Y-79692966D01*
X180654487Y-79972889D01*
X180625815Y-80264000D01*
X178607322Y-80264000D01*
X178562472Y-80116149D01*
X178480405Y-79962613D01*
X178369962Y-79828038D01*
X178363406Y-79822658D01*
X178443185Y-79757185D01*
X178522537Y-79660494D01*
X178581502Y-79550180D01*
X178617812Y-79430482D01*
X178630072Y-79306000D01*
X178627000Y-79016750D01*
X178468250Y-78858000D01*
X177419000Y-78858000D01*
X177419000Y-78878000D01*
X177165000Y-78878000D01*
X177165000Y-78858000D01*
X176115750Y-78858000D01*
X175957000Y-79016750D01*
X175953928Y-79306000D01*
X175966188Y-79430482D01*
X176002498Y-79550180D01*
X176061463Y-79660494D01*
X176140815Y-79757185D01*
X176220594Y-79822658D01*
X176214038Y-79828038D01*
X176158263Y-79896000D01*
X174976579Y-79896000D01*
X174842072Y-79761493D01*
X174842072Y-78422500D01*
X174829812Y-78298018D01*
X174793502Y-78178320D01*
X174781572Y-78156000D01*
X175953928Y-78156000D01*
X175957000Y-78445250D01*
X176115750Y-78604000D01*
X177165000Y-78604000D01*
X177165000Y-77679750D01*
X177419000Y-77679750D01*
X177419000Y-78604000D01*
X178468250Y-78604000D01*
X178627000Y-78445250D01*
X178630072Y-78156000D01*
X178617812Y-78031518D01*
X178581502Y-77911820D01*
X178522537Y-77801506D01*
X178443185Y-77704815D01*
X178346494Y-77625463D01*
X178236180Y-77566498D01*
X178116482Y-77530188D01*
X177992000Y-77517928D01*
X177577750Y-77521000D01*
X177419000Y-77679750D01*
X177165000Y-77679750D01*
X177006250Y-77521000D01*
X176592000Y-77517928D01*
X176467518Y-77530188D01*
X176347820Y-77566498D01*
X176237506Y-77625463D01*
X176140815Y-77704815D01*
X176061463Y-77801506D01*
X176002498Y-77911820D01*
X175966188Y-78031518D01*
X175953928Y-78156000D01*
X174781572Y-78156000D01*
X174734537Y-78068006D01*
X174655185Y-77971315D01*
X174558494Y-77891963D01*
X174466781Y-77842941D01*
X174579969Y-77701923D01*
X174723571Y-77426094D01*
X174794563Y-77207980D01*
X174674594Y-76962000D01*
X173331000Y-76962000D01*
X173331000Y-76982000D01*
X173077000Y-76982000D01*
X173077000Y-76962000D01*
X171733406Y-76962000D01*
X171613437Y-77207980D01*
X171684429Y-77426094D01*
X171828031Y-77701923D01*
X171941219Y-77842941D01*
X171849506Y-77891963D01*
X171752815Y-77971315D01*
X171673463Y-78068006D01*
X171614498Y-78178320D01*
X171578188Y-78298018D01*
X171565928Y-78422500D01*
X171565928Y-78490000D01*
X171172465Y-78490000D01*
X171128999Y-78485719D01*
X171085533Y-78490000D01*
X171085523Y-78490000D01*
X170955510Y-78502805D01*
X170788687Y-78553411D01*
X170634941Y-78635589D01*
X170634939Y-78635590D01*
X170634940Y-78635590D01*
X170533953Y-78718468D01*
X170533951Y-78718470D01*
X170500183Y-78746183D01*
X170472470Y-78779951D01*
X166917951Y-82334471D01*
X166884184Y-82362183D01*
X166856471Y-82395951D01*
X166856468Y-82395954D01*
X166773590Y-82496941D01*
X166691412Y-82650687D01*
X166640805Y-82817510D01*
X166637317Y-82852928D01*
X166613000Y-82852928D01*
X166488518Y-82865188D01*
X166368820Y-82901498D01*
X166258506Y-82960463D01*
X166161815Y-83039815D01*
X166082463Y-83136506D01*
X166023498Y-83246820D01*
X165987188Y-83366518D01*
X165974928Y-83491000D01*
X162406000Y-83491000D01*
X162406000Y-80934571D01*
X162604735Y-80828345D01*
X162846463Y-80629963D01*
X163044845Y-80388235D01*
X163045505Y-80387000D01*
X166335531Y-80387000D01*
X166379000Y-80391281D01*
X166422469Y-80387000D01*
X166422477Y-80387000D01*
X166552490Y-80374195D01*
X166719313Y-80323589D01*
X166873059Y-80241411D01*
X167007817Y-80130817D01*
X167035534Y-80097044D01*
X167551506Y-79581072D01*
X167963001Y-79581072D01*
X168136255Y-79564008D01*
X168302851Y-79513472D01*
X168456387Y-79431405D01*
X168590962Y-79320962D01*
X168701405Y-79186387D01*
X168783472Y-79032851D01*
X168834008Y-78866255D01*
X168851072Y-78693001D01*
X168851072Y-78042999D01*
X168834008Y-77869745D01*
X168783472Y-77703149D01*
X168701405Y-77549613D01*
X168590962Y-77415038D01*
X168584406Y-77409658D01*
X168664185Y-77344185D01*
X168743537Y-77247494D01*
X168802502Y-77137180D01*
X168838812Y-77017482D01*
X168851072Y-76893000D01*
X168849915Y-76784000D01*
X175953928Y-76784000D01*
X175966188Y-76908482D01*
X176002498Y-77028180D01*
X176061463Y-77138494D01*
X176140815Y-77235185D01*
X176237506Y-77314537D01*
X176347820Y-77373502D01*
X176467518Y-77409812D01*
X176592000Y-77422072D01*
X177006250Y-77419000D01*
X177165000Y-77260250D01*
X177165000Y-76336000D01*
X177419000Y-76336000D01*
X177419000Y-77260250D01*
X177577750Y-77419000D01*
X177992000Y-77422072D01*
X178116482Y-77409812D01*
X178236180Y-77373502D01*
X178346494Y-77314537D01*
X178443185Y-77235185D01*
X178522537Y-77138494D01*
X178581502Y-77028180D01*
X178617812Y-76908482D01*
X178630072Y-76784000D01*
X178627000Y-76494750D01*
X178468250Y-76336000D01*
X177419000Y-76336000D01*
X177165000Y-76336000D01*
X176115750Y-76336000D01*
X175957000Y-76494750D01*
X175953928Y-76784000D01*
X168849915Y-76784000D01*
X168848000Y-76603750D01*
X168689250Y-76445000D01*
X167640000Y-76445000D01*
X167640000Y-76465000D01*
X167386000Y-76465000D01*
X167386000Y-76445000D01*
X166336750Y-76445000D01*
X166178000Y-76603750D01*
X166174928Y-76893000D01*
X166187188Y-77017482D01*
X166223498Y-77137180D01*
X166282463Y-77247494D01*
X166361815Y-77344185D01*
X166441594Y-77409658D01*
X166435038Y-77415038D01*
X166324595Y-77549613D01*
X166242528Y-77703149D01*
X166191992Y-77869745D01*
X166174928Y-78042999D01*
X166174928Y-78454494D01*
X166012422Y-78617000D01*
X163045505Y-78617000D01*
X163044845Y-78615765D01*
X162846463Y-78374037D01*
X162667101Y-78226837D01*
X162852315Y-78071437D01*
X163046969Y-77828923D01*
X163190571Y-77553094D01*
X163261563Y-77334980D01*
X163141594Y-77089000D01*
X161798000Y-77089000D01*
X161798000Y-77109000D01*
X161544000Y-77109000D01*
X161544000Y-77089000D01*
X160200406Y-77089000D01*
X160080437Y-77334980D01*
X160151429Y-77553094D01*
X160295031Y-77828923D01*
X160489685Y-78071437D01*
X160674899Y-78226837D01*
X160495537Y-78374037D01*
X160297155Y-78615765D01*
X160149745Y-78891551D01*
X160058970Y-79190796D01*
X160028319Y-79502000D01*
X160058970Y-79813204D01*
X160070432Y-79850989D01*
X159667422Y-80254000D01*
X159259782Y-80254000D01*
X159334512Y-80162942D01*
X159415423Y-80011567D01*
X159465248Y-79847316D01*
X159482072Y-79676500D01*
X159482072Y-79101500D01*
X159465248Y-78930684D01*
X159415423Y-78766433D01*
X159334512Y-78615058D01*
X159254000Y-78516954D01*
X159254000Y-77947046D01*
X159334512Y-77848942D01*
X159415423Y-77697567D01*
X159465248Y-77533316D01*
X159482072Y-77362500D01*
X159482072Y-76787500D01*
X159465248Y-76616684D01*
X159415423Y-76452433D01*
X159334512Y-76301058D01*
X159314901Y-76277161D01*
X159374537Y-76204494D01*
X159433502Y-76094180D01*
X159469812Y-75974482D01*
X159482072Y-75850000D01*
X159479000Y-75610750D01*
X159320250Y-75452000D01*
X158496000Y-75452000D01*
X158496000Y-75472000D01*
X158242000Y-75472000D01*
X158242000Y-75452000D01*
X157417750Y-75452000D01*
X157259000Y-75610750D01*
X157255928Y-75850000D01*
X157268188Y-75974482D01*
X157304498Y-76094180D01*
X157363463Y-76204494D01*
X157423099Y-76277161D01*
X157403488Y-76301058D01*
X157322577Y-76452433D01*
X157272752Y-76616684D01*
X157255928Y-76787500D01*
X157255928Y-77362500D01*
X157272752Y-77533316D01*
X157322577Y-77697567D01*
X157403488Y-77848942D01*
X157484000Y-77947046D01*
X157484001Y-78516954D01*
X157403488Y-78615058D01*
X157322577Y-78766433D01*
X157272752Y-78930684D01*
X157255928Y-79101500D01*
X157255928Y-79676500D01*
X157272752Y-79847316D01*
X157322577Y-80011567D01*
X157403488Y-80162942D01*
X157486425Y-80264000D01*
X157403488Y-80365058D01*
X157322577Y-80516433D01*
X157272752Y-80680684D01*
X157255928Y-80851500D01*
X157255928Y-81426500D01*
X157272752Y-81597316D01*
X157322577Y-81761567D01*
X157403488Y-81912942D01*
X157512377Y-82045623D01*
X157645058Y-82154512D01*
X157796433Y-82235423D01*
X157960684Y-82285248D01*
X158131500Y-82302072D01*
X158606500Y-82302072D01*
X158777316Y-82285248D01*
X158941567Y-82235423D01*
X159092942Y-82154512D01*
X159225623Y-82045623D01*
X159243369Y-82024000D01*
X159990531Y-82024000D01*
X160034000Y-82028281D01*
X160077469Y-82024000D01*
X160077477Y-82024000D01*
X160207490Y-82011195D01*
X160374313Y-81960589D01*
X160528059Y-81878411D01*
X160662817Y-81767817D01*
X160690534Y-81734044D01*
X160936001Y-81488577D01*
X160936000Y-90387895D01*
X160936000Y-90641895D01*
X160932444Y-90678000D01*
X160946635Y-90822085D01*
X160956035Y-90853071D01*
X160988663Y-90960632D01*
X161056913Y-91088319D01*
X161148762Y-91200237D01*
X161176808Y-91223254D01*
X162817554Y-92864000D01*
X155160048Y-92864000D01*
X155241312Y-92596110D01*
X155269984Y-92304999D01*
X155241312Y-92013888D01*
X155156398Y-91733965D01*
X155018505Y-91475985D01*
X154832933Y-91249865D01*
X154606813Y-91064293D01*
X154552008Y-91034999D01*
X154606813Y-91005705D01*
X154832933Y-90820133D01*
X155018505Y-90594013D01*
X155156398Y-90336033D01*
X155241312Y-90056110D01*
X155269984Y-89764999D01*
X155241312Y-89473888D01*
X155156398Y-89193965D01*
X155018505Y-88935985D01*
X154832933Y-88709865D01*
X154606813Y-88524293D01*
X154552008Y-88494999D01*
X154606813Y-88465705D01*
X154832933Y-88280133D01*
X155018505Y-88054013D01*
X155156398Y-87796033D01*
X155241312Y-87516110D01*
X155269984Y-87224999D01*
X155241312Y-86933888D01*
X155156398Y-86653965D01*
X155018505Y-86395985D01*
X154832933Y-86169865D01*
X154606813Y-85984293D01*
X154552008Y-85954999D01*
X154606813Y-85925705D01*
X154832933Y-85740133D01*
X155018505Y-85514013D01*
X155156398Y-85256033D01*
X155241312Y-84976110D01*
X155269984Y-84684999D01*
X155241312Y-84393888D01*
X155156398Y-84113965D01*
X155018505Y-83855985D01*
X154832933Y-83629865D01*
X154606813Y-83444293D01*
X154552008Y-83414999D01*
X154606813Y-83385705D01*
X154832933Y-83200133D01*
X155018505Y-82974013D01*
X155156398Y-82716033D01*
X155241312Y-82436110D01*
X155269984Y-82144999D01*
X155241312Y-81853888D01*
X155156398Y-81573965D01*
X155018505Y-81315985D01*
X154832933Y-81089865D01*
X154606813Y-80904293D01*
X154552008Y-80874999D01*
X154606813Y-80845705D01*
X154832933Y-80660133D01*
X155018505Y-80434013D01*
X155156398Y-80176033D01*
X155241312Y-79896110D01*
X155269984Y-79604999D01*
X155241312Y-79313888D01*
X155156398Y-79033965D01*
X155018505Y-78775985D01*
X154832933Y-78549865D01*
X154606813Y-78364293D01*
X154552008Y-78334999D01*
X154606813Y-78305705D01*
X154832933Y-78120133D01*
X155018505Y-77894013D01*
X155156398Y-77636033D01*
X155241312Y-77356110D01*
X155269984Y-77064999D01*
X155241312Y-76773888D01*
X155156398Y-76493965D01*
X155018505Y-76235985D01*
X154832933Y-76009865D01*
X154606813Y-75824293D01*
X154552008Y-75794999D01*
X154606813Y-75765705D01*
X154832933Y-75580133D01*
X155018505Y-75354013D01*
X155156398Y-75096033D01*
X155241312Y-74816110D01*
X155242898Y-74800000D01*
X157255928Y-74800000D01*
X157259000Y-75039250D01*
X157417750Y-75198000D01*
X158242000Y-75198000D01*
X158242000Y-74323750D01*
X158496000Y-74323750D01*
X158496000Y-75198000D01*
X159320250Y-75198000D01*
X159479000Y-75039250D01*
X159482072Y-74800000D01*
X159469812Y-74675518D01*
X159433502Y-74555820D01*
X159374537Y-74445506D01*
X159295185Y-74348815D01*
X159198494Y-74269463D01*
X159088180Y-74210498D01*
X158968482Y-74174188D01*
X158844000Y-74161928D01*
X158654750Y-74165000D01*
X158496000Y-74323750D01*
X158242000Y-74323750D01*
X158083250Y-74165000D01*
X157894000Y-74161928D01*
X157769518Y-74174188D01*
X157649820Y-74210498D01*
X157539506Y-74269463D01*
X157442815Y-74348815D01*
X157363463Y-74445506D01*
X157304498Y-74555820D01*
X157268188Y-74675518D01*
X157255928Y-74800000D01*
X155242898Y-74800000D01*
X155269984Y-74524999D01*
X155241312Y-74233888D01*
X155156398Y-73953965D01*
X155018505Y-73695985D01*
X154881464Y-73529000D01*
X159478922Y-73529000D01*
X160032928Y-74083006D01*
X160032928Y-75374500D01*
X160045188Y-75498982D01*
X160081498Y-75618680D01*
X160140463Y-75728994D01*
X160219815Y-75825685D01*
X160316506Y-75905037D01*
X160408219Y-75954059D01*
X160295031Y-76095077D01*
X160151429Y-76370906D01*
X160080437Y-76589020D01*
X160200406Y-76835000D01*
X161544000Y-76835000D01*
X161544000Y-76815000D01*
X161798000Y-76815000D01*
X161798000Y-76835000D01*
X163141594Y-76835000D01*
X163261563Y-76589020D01*
X163190571Y-76370906D01*
X163046969Y-76095077D01*
X162933781Y-75954059D01*
X163025494Y-75905037D01*
X163122185Y-75825685D01*
X163201537Y-75728994D01*
X163260502Y-75618680D01*
X163296812Y-75498982D01*
X163309072Y-75374500D01*
X163309072Y-75307000D01*
X166349353Y-75307000D01*
X166282463Y-75388506D01*
X166223498Y-75498820D01*
X166187188Y-75618518D01*
X166174928Y-75743000D01*
X166178000Y-76032250D01*
X166336750Y-76191000D01*
X167386000Y-76191000D01*
X167386000Y-76171000D01*
X167640000Y-76171000D01*
X167640000Y-76191000D01*
X168689250Y-76191000D01*
X168848000Y-76032250D01*
X168851072Y-75743000D01*
X168838812Y-75618518D01*
X168802502Y-75498820D01*
X168743537Y-75388506D01*
X168676647Y-75307000D01*
X171933368Y-75307000D01*
X172028537Y-75422963D01*
X172207899Y-75570163D01*
X172022685Y-75725563D01*
X171828031Y-75968077D01*
X171684429Y-76243906D01*
X171613437Y-76462020D01*
X171733406Y-76708000D01*
X173077000Y-76708000D01*
X173077000Y-76688000D01*
X173331000Y-76688000D01*
X173331000Y-76708000D01*
X174674594Y-76708000D01*
X174794563Y-76462020D01*
X174723571Y-76243906D01*
X174579969Y-75968077D01*
X174385315Y-75725563D01*
X174200101Y-75570163D01*
X174379463Y-75422963D01*
X174577845Y-75181235D01*
X174578505Y-75180000D01*
X176144245Y-75180000D01*
X176140815Y-75182815D01*
X176061463Y-75279506D01*
X176002498Y-75389820D01*
X175966188Y-75509518D01*
X175953928Y-75634000D01*
X175957000Y-75923250D01*
X176115750Y-76082000D01*
X177165000Y-76082000D01*
X177165000Y-76062000D01*
X177419000Y-76062000D01*
X177419000Y-76082000D01*
X178468250Y-76082000D01*
X178627000Y-75923250D01*
X178630072Y-75634000D01*
X178617812Y-75509518D01*
X178581502Y-75389820D01*
X178522537Y-75279506D01*
X178443185Y-75182815D01*
X178363406Y-75117342D01*
X178369962Y-75111962D01*
X178480405Y-74977387D01*
X178562472Y-74823851D01*
X178613008Y-74657255D01*
X178630072Y-74484001D01*
X178630072Y-73833999D01*
X178613008Y-73660745D01*
X178562472Y-73494149D01*
X178480405Y-73340613D01*
X178369962Y-73206038D01*
X178235387Y-73095595D01*
X178081851Y-73013528D01*
X177915255Y-72962992D01*
X177742001Y-72945928D01*
X176841999Y-72945928D01*
X176668745Y-72962992D01*
X176502149Y-73013528D01*
X176348613Y-73095595D01*
X176214038Y-73206038D01*
X176103595Y-73340613D01*
X176066507Y-73410000D01*
X174578505Y-73410000D01*
X174577845Y-73408765D01*
X174379463Y-73167037D01*
X174137735Y-72968655D01*
X173861949Y-72821245D01*
X173562704Y-72730470D01*
X173329486Y-72707500D01*
X173078514Y-72707500D01*
X172845296Y-72730470D01*
X172546051Y-72821245D01*
X172270265Y-72968655D01*
X172028537Y-73167037D01*
X171830155Y-73408765D01*
X171761612Y-73537000D01*
X163309072Y-73537000D01*
X163309072Y-73469500D01*
X163296812Y-73345018D01*
X163260502Y-73225320D01*
X163201537Y-73115006D01*
X163122185Y-73018315D01*
X163025494Y-72938963D01*
X162915180Y-72879998D01*
X162795482Y-72843688D01*
X162671000Y-72831428D01*
X161284506Y-72831428D01*
X161097078Y-72644000D01*
X180625815Y-72644000D01*
X180654487Y-72935111D01*
X180739401Y-73215034D01*
X180877294Y-73473014D01*
X181062866Y-73699134D01*
X181288986Y-73884706D01*
X181343791Y-73914000D01*
X181288986Y-73943294D01*
X181062866Y-74128866D01*
X180877294Y-74354986D01*
X180739401Y-74612966D01*
X180654487Y-74892889D01*
X180625815Y-75184000D01*
X180654487Y-75475111D01*
X180739401Y-75755034D01*
X180877294Y-76013014D01*
X181062866Y-76239134D01*
X181288986Y-76424706D01*
X181353523Y-76459201D01*
X181236645Y-76528822D01*
X181020412Y-76723731D01*
X180846359Y-76957080D01*
X180721175Y-77219901D01*
X180676524Y-77367110D01*
X180797845Y-77597000D01*
X181991000Y-77597000D01*
X181991000Y-77577000D01*
X182245000Y-77577000D01*
X182245000Y-77597000D01*
X183438155Y-77597000D01*
X183559476Y-77367110D01*
X183514825Y-77219901D01*
X183389641Y-76957080D01*
X183215588Y-76723731D01*
X182999355Y-76528822D01*
X182882477Y-76459201D01*
X182947014Y-76424706D01*
X183173134Y-76239134D01*
X183358706Y-76013014D01*
X183496599Y-75755034D01*
X183581513Y-75475111D01*
X183610185Y-75184000D01*
X183581513Y-74892889D01*
X183496599Y-74612966D01*
X183358706Y-74354986D01*
X183173134Y-74128866D01*
X182947014Y-73943294D01*
X182892209Y-73914000D01*
X182947014Y-73884706D01*
X183173134Y-73699134D01*
X183358706Y-73473014D01*
X183496599Y-73215034D01*
X183581513Y-72935111D01*
X183610185Y-72644000D01*
X183581513Y-72352889D01*
X183496599Y-72072966D01*
X183358706Y-71814986D01*
X183173134Y-71588866D01*
X182947014Y-71403294D01*
X182689034Y-71265401D01*
X182409111Y-71180487D01*
X182190950Y-71159000D01*
X182045050Y-71159000D01*
X181826889Y-71180487D01*
X181546966Y-71265401D01*
X181288986Y-71403294D01*
X181062866Y-71588866D01*
X180877294Y-71814986D01*
X180739401Y-72072966D01*
X180654487Y-72352889D01*
X180625815Y-72644000D01*
X161097078Y-72644000D01*
X160502034Y-72048956D01*
X160474317Y-72015183D01*
X160339559Y-71904589D01*
X160185813Y-71822411D01*
X160018990Y-71771805D01*
X159888977Y-71759000D01*
X159888969Y-71759000D01*
X159845500Y-71754719D01*
X159802031Y-71759000D01*
X141775469Y-71759000D01*
X141732000Y-71754719D01*
X141688531Y-71759000D01*
X141688523Y-71759000D01*
X141558510Y-71771805D01*
X141391687Y-71822411D01*
X141237941Y-71904589D01*
X141136953Y-71987468D01*
X141136951Y-71987470D01*
X141103183Y-72015183D01*
X141075470Y-72048951D01*
X133008952Y-80115470D01*
X132975184Y-80143183D01*
X132947471Y-80176951D01*
X132947468Y-80176954D01*
X132864590Y-80277941D01*
X132782412Y-80431687D01*
X132731805Y-80598510D01*
X132714719Y-80772000D01*
X132719001Y-80815479D01*
X132719000Y-113933421D01*
X129832423Y-116819999D01*
X128762424Y-116819999D01*
X128753611Y-116730517D01*
X128717301Y-116610819D01*
X128658336Y-116500505D01*
X128578984Y-116403814D01*
X128482293Y-116324462D01*
X128371979Y-116265497D01*
X128291333Y-116241033D01*
X128375387Y-116165268D01*
X128549440Y-115931919D01*
X128674624Y-115669098D01*
X128719275Y-115521889D01*
X128597954Y-115291999D01*
X127404799Y-115291999D01*
X127404799Y-115311999D01*
X127150799Y-115311999D01*
X127150799Y-115291999D01*
X125957644Y-115291999D01*
X125836323Y-115521889D01*
X125880974Y-115669098D01*
X126006158Y-115931919D01*
X126180211Y-116165268D01*
X126264265Y-116241033D01*
X126183619Y-116265497D01*
X126073305Y-116324462D01*
X125976614Y-116403814D01*
X125897262Y-116500505D01*
X125838297Y-116610819D01*
X125801987Y-116730517D01*
X125789727Y-116854999D01*
X123944000Y-116854999D01*
X123944000Y-74524999D01*
X125785614Y-74524999D01*
X125814286Y-74816110D01*
X125899200Y-75096033D01*
X126037093Y-75354013D01*
X126222665Y-75580133D01*
X126448785Y-75765705D01*
X126503590Y-75794999D01*
X126448785Y-75824293D01*
X126222665Y-76009865D01*
X126037093Y-76235985D01*
X125899200Y-76493965D01*
X125814286Y-76773888D01*
X125785614Y-77064999D01*
X125814286Y-77356110D01*
X125899200Y-77636033D01*
X126037093Y-77894013D01*
X126222665Y-78120133D01*
X126448785Y-78305705D01*
X126503590Y-78334999D01*
X126448785Y-78364293D01*
X126222665Y-78549865D01*
X126037093Y-78775985D01*
X125899200Y-79033965D01*
X125814286Y-79313888D01*
X125785614Y-79604999D01*
X125814286Y-79896110D01*
X125899200Y-80176033D01*
X126037093Y-80434013D01*
X126222665Y-80660133D01*
X126448785Y-80845705D01*
X126503590Y-80874999D01*
X126448785Y-80904293D01*
X126222665Y-81089865D01*
X126037093Y-81315985D01*
X125899200Y-81573965D01*
X125814286Y-81853888D01*
X125785614Y-82144999D01*
X125814286Y-82436110D01*
X125899200Y-82716033D01*
X126037093Y-82974013D01*
X126222665Y-83200133D01*
X126448785Y-83385705D01*
X126503590Y-83414999D01*
X126448785Y-83444293D01*
X126222665Y-83629865D01*
X126037093Y-83855985D01*
X125899200Y-84113965D01*
X125814286Y-84393888D01*
X125785614Y-84684999D01*
X125814286Y-84976110D01*
X125899200Y-85256033D01*
X126037093Y-85514013D01*
X126222665Y-85740133D01*
X126448785Y-85925705D01*
X126503590Y-85954999D01*
X126448785Y-85984293D01*
X126222665Y-86169865D01*
X126037093Y-86395985D01*
X125899200Y-86653965D01*
X125814286Y-86933888D01*
X125785614Y-87224999D01*
X125814286Y-87516110D01*
X125899200Y-87796033D01*
X126037093Y-88054013D01*
X126222665Y-88280133D01*
X126448785Y-88465705D01*
X126503590Y-88494999D01*
X126448785Y-88524293D01*
X126222665Y-88709865D01*
X126037093Y-88935985D01*
X125899200Y-89193965D01*
X125814286Y-89473888D01*
X125785614Y-89764999D01*
X125814286Y-90056110D01*
X125899200Y-90336033D01*
X126037093Y-90594013D01*
X126222665Y-90820133D01*
X126448785Y-91005705D01*
X126503590Y-91034999D01*
X126448785Y-91064293D01*
X126222665Y-91249865D01*
X126037093Y-91475985D01*
X125899200Y-91733965D01*
X125814286Y-92013888D01*
X125785614Y-92304999D01*
X125814286Y-92596110D01*
X125899200Y-92876033D01*
X126037093Y-93134013D01*
X126222665Y-93360133D01*
X126448785Y-93545705D01*
X126503590Y-93574999D01*
X126448785Y-93604293D01*
X126222665Y-93789865D01*
X126037093Y-94015985D01*
X125899200Y-94273965D01*
X125814286Y-94553888D01*
X125785614Y-94844999D01*
X125814286Y-95136110D01*
X125899200Y-95416033D01*
X126037093Y-95674013D01*
X126222665Y-95900133D01*
X126448785Y-96085705D01*
X126503590Y-96114999D01*
X126448785Y-96144293D01*
X126222665Y-96329865D01*
X126037093Y-96555985D01*
X125899200Y-96813965D01*
X125814286Y-97093888D01*
X125785614Y-97384999D01*
X125814286Y-97676110D01*
X125899200Y-97956033D01*
X126037093Y-98214013D01*
X126222665Y-98440133D01*
X126448785Y-98625705D01*
X126503590Y-98654999D01*
X126448785Y-98684293D01*
X126222665Y-98869865D01*
X126037093Y-99095985D01*
X125899200Y-99353965D01*
X125814286Y-99633888D01*
X125785614Y-99924999D01*
X125814286Y-100216110D01*
X125899200Y-100496033D01*
X126037093Y-100754013D01*
X126222665Y-100980133D01*
X126448785Y-101165705D01*
X126503590Y-101194999D01*
X126448785Y-101224293D01*
X126222665Y-101409865D01*
X126037093Y-101635985D01*
X125899200Y-101893965D01*
X125814286Y-102173888D01*
X125785614Y-102464999D01*
X125814286Y-102756110D01*
X125899200Y-103036033D01*
X126037093Y-103294013D01*
X126222665Y-103520133D01*
X126448785Y-103705705D01*
X126503590Y-103734999D01*
X126448785Y-103764293D01*
X126222665Y-103949865D01*
X126037093Y-104175985D01*
X125899200Y-104433965D01*
X125814286Y-104713888D01*
X125785614Y-105004999D01*
X125814286Y-105296110D01*
X125899200Y-105576033D01*
X126037093Y-105834013D01*
X126222665Y-106060133D01*
X126448785Y-106245705D01*
X126503590Y-106274999D01*
X126448785Y-106304293D01*
X126222665Y-106489865D01*
X126037093Y-106715985D01*
X125899200Y-106973965D01*
X125814286Y-107253888D01*
X125785614Y-107544999D01*
X125814286Y-107836110D01*
X125899200Y-108116033D01*
X126037093Y-108374013D01*
X126222665Y-108600133D01*
X126448785Y-108785705D01*
X126503590Y-108814999D01*
X126448785Y-108844293D01*
X126222665Y-109029865D01*
X126037093Y-109255985D01*
X125899200Y-109513965D01*
X125814286Y-109793888D01*
X125785614Y-110084999D01*
X125814286Y-110376110D01*
X125899200Y-110656033D01*
X126037093Y-110914013D01*
X126222665Y-111140133D01*
X126448785Y-111325705D01*
X126503590Y-111354999D01*
X126448785Y-111384293D01*
X126222665Y-111569865D01*
X126037093Y-111795985D01*
X125899200Y-112053965D01*
X125814286Y-112333888D01*
X125785614Y-112624999D01*
X125814286Y-112916110D01*
X125899200Y-113196033D01*
X126037093Y-113454013D01*
X126222665Y-113680133D01*
X126448785Y-113865705D01*
X126513322Y-113900200D01*
X126396444Y-113969821D01*
X126180211Y-114164730D01*
X126006158Y-114398079D01*
X125880974Y-114660900D01*
X125836323Y-114808109D01*
X125957644Y-115037999D01*
X127150799Y-115037999D01*
X127150799Y-115017999D01*
X127404799Y-115017999D01*
X127404799Y-115037999D01*
X128597954Y-115037999D01*
X128719275Y-114808109D01*
X128674624Y-114660900D01*
X128549440Y-114398079D01*
X128375387Y-114164730D01*
X128159154Y-113969821D01*
X128042276Y-113900200D01*
X128106813Y-113865705D01*
X128332933Y-113680133D01*
X128518505Y-113454013D01*
X128656398Y-113196033D01*
X128741312Y-112916110D01*
X128769984Y-112624999D01*
X128741312Y-112333888D01*
X128656398Y-112053965D01*
X128518505Y-111795985D01*
X128332933Y-111569865D01*
X128106813Y-111384293D01*
X128052008Y-111354999D01*
X128106813Y-111325705D01*
X128332933Y-111140133D01*
X128518505Y-110914013D01*
X128656398Y-110656033D01*
X128741312Y-110376110D01*
X128769984Y-110084999D01*
X128741312Y-109793888D01*
X128656398Y-109513965D01*
X128518505Y-109255985D01*
X128332933Y-109029865D01*
X128106813Y-108844293D01*
X128052008Y-108814999D01*
X128106813Y-108785705D01*
X128332933Y-108600133D01*
X128518505Y-108374013D01*
X128656398Y-108116033D01*
X128741312Y-107836110D01*
X128769984Y-107544999D01*
X128741312Y-107253888D01*
X128656398Y-106973965D01*
X128518505Y-106715985D01*
X128332933Y-106489865D01*
X128106813Y-106304293D01*
X128052008Y-106274999D01*
X128106813Y-106245705D01*
X128332933Y-106060133D01*
X128518505Y-105834013D01*
X128656398Y-105576033D01*
X128741312Y-105296110D01*
X128769984Y-105004999D01*
X128741312Y-104713888D01*
X128656398Y-104433965D01*
X128518505Y-104175985D01*
X128332933Y-103949865D01*
X128106813Y-103764293D01*
X128052008Y-103734999D01*
X128106813Y-103705705D01*
X128332933Y-103520133D01*
X128518505Y-103294013D01*
X128656398Y-103036033D01*
X128741312Y-102756110D01*
X128769984Y-102464999D01*
X128741312Y-102173888D01*
X128656398Y-101893965D01*
X128518505Y-101635985D01*
X128332933Y-101409865D01*
X128106813Y-101224293D01*
X128052008Y-101194999D01*
X128106813Y-101165705D01*
X128332933Y-100980133D01*
X128518505Y-100754013D01*
X128656398Y-100496033D01*
X128741312Y-100216110D01*
X128769984Y-99924999D01*
X128741312Y-99633888D01*
X128656398Y-99353965D01*
X128518505Y-99095985D01*
X128332933Y-98869865D01*
X128106813Y-98684293D01*
X128052008Y-98654999D01*
X128106813Y-98625705D01*
X128332933Y-98440133D01*
X128518505Y-98214013D01*
X128656398Y-97956033D01*
X128741312Y-97676110D01*
X128769984Y-97384999D01*
X128741312Y-97093888D01*
X128656398Y-96813965D01*
X128518505Y-96555985D01*
X128332933Y-96329865D01*
X128106813Y-96144293D01*
X128052008Y-96114999D01*
X128106813Y-96085705D01*
X128332933Y-95900133D01*
X128518505Y-95674013D01*
X128656398Y-95416033D01*
X128741312Y-95136110D01*
X128769984Y-94844999D01*
X128741312Y-94553888D01*
X128656398Y-94273965D01*
X128518505Y-94015985D01*
X128332933Y-93789865D01*
X128106813Y-93604293D01*
X128052008Y-93574999D01*
X128106813Y-93545705D01*
X128332933Y-93360133D01*
X128518505Y-93134013D01*
X128656398Y-92876033D01*
X128741312Y-92596110D01*
X128769984Y-92304999D01*
X128741312Y-92013888D01*
X128656398Y-91733965D01*
X128518505Y-91475985D01*
X128332933Y-91249865D01*
X128106813Y-91064293D01*
X128052008Y-91034999D01*
X128106813Y-91005705D01*
X128332933Y-90820133D01*
X128518505Y-90594013D01*
X128656398Y-90336033D01*
X128741312Y-90056110D01*
X128769984Y-89764999D01*
X128741312Y-89473888D01*
X128656398Y-89193965D01*
X128518505Y-88935985D01*
X128332933Y-88709865D01*
X128106813Y-88524293D01*
X128052008Y-88494999D01*
X128106813Y-88465705D01*
X128332933Y-88280133D01*
X128518505Y-88054013D01*
X128656398Y-87796033D01*
X128741312Y-87516110D01*
X128769984Y-87224999D01*
X128741312Y-86933888D01*
X128656398Y-86653965D01*
X128518505Y-86395985D01*
X128332933Y-86169865D01*
X128106813Y-85984293D01*
X128052008Y-85954999D01*
X128106813Y-85925705D01*
X128332933Y-85740133D01*
X128518505Y-85514013D01*
X128656398Y-85256033D01*
X128741312Y-84976110D01*
X128769984Y-84684999D01*
X128741312Y-84393888D01*
X128656398Y-84113965D01*
X128518505Y-83855985D01*
X128332933Y-83629865D01*
X128106813Y-83444293D01*
X128052008Y-83414999D01*
X128106813Y-83385705D01*
X128332933Y-83200133D01*
X128518505Y-82974013D01*
X128656398Y-82716033D01*
X128741312Y-82436110D01*
X128769984Y-82144999D01*
X128741312Y-81853888D01*
X128656398Y-81573965D01*
X128518505Y-81315985D01*
X128332933Y-81089865D01*
X128106813Y-80904293D01*
X128052008Y-80874999D01*
X128106813Y-80845705D01*
X128332933Y-80660133D01*
X128518505Y-80434013D01*
X128656398Y-80176033D01*
X128741312Y-79896110D01*
X128769984Y-79604999D01*
X128741312Y-79313888D01*
X128656398Y-79033965D01*
X128518505Y-78775985D01*
X128332933Y-78549865D01*
X128106813Y-78364293D01*
X128052008Y-78334999D01*
X128106813Y-78305705D01*
X128332933Y-78120133D01*
X128518505Y-77894013D01*
X128656398Y-77636033D01*
X128741312Y-77356110D01*
X128769984Y-77064999D01*
X128741312Y-76773888D01*
X128656398Y-76493965D01*
X128518505Y-76235985D01*
X128332933Y-76009865D01*
X128106813Y-75824293D01*
X128052008Y-75794999D01*
X128106813Y-75765705D01*
X128332933Y-75580133D01*
X128518505Y-75354013D01*
X128656398Y-75096033D01*
X128741312Y-74816110D01*
X128769984Y-74524999D01*
X128741312Y-74233888D01*
X128656398Y-73953965D01*
X128518505Y-73695985D01*
X128332933Y-73469865D01*
X128106813Y-73284293D01*
X127848833Y-73146400D01*
X127568910Y-73061486D01*
X127350749Y-73039999D01*
X127204849Y-73039999D01*
X126986688Y-73061486D01*
X126706765Y-73146400D01*
X126448785Y-73284293D01*
X126222665Y-73469865D01*
X126037093Y-73695985D01*
X125899200Y-73953965D01*
X125814286Y-74233888D01*
X125785614Y-74524999D01*
X123944000Y-74524999D01*
X123944000Y-70223000D01*
X184158000Y-70223000D01*
X184158001Y-119832500D01*
M02*
