G04 #@! TF.GenerationSoftware,KiCad,Pcbnew,5.1.4+dfsg1-1*
G04 #@! TF.CreationDate,2020-03-04T00:22:41+00:00*
G04 #@! TF.ProjectId,UaElectrex_Phase1,5561456c-6563-4747-9265-785f50686173,rev?*
G04 #@! TF.SameCoordinates,Original*
G04 #@! TF.FileFunction,Legend,Top*
G04 #@! TF.FilePolarity,Positive*
%FSLAX46Y46*%
G04 Gerber Fmt 4.6, Leading zero omitted, Abs format (unit mm)*
G04 Created by KiCad (PCBNEW 5.1.4+dfsg1-1) date 2020-03-04 00:22:41*
%MOMM*%
%LPD*%
G04 APERTURE LIST*
%ADD10C,0.120000*%
%ADD11C,0.203200*%
%ADD12C,0.150000*%
%ADD13C,0.152400*%
G04 APERTURE END LIST*
D10*
X174007175Y-97790000D02*
X173574162Y-98040000D01*
X173574162Y-97540000D02*
X174007175Y-97790000D01*
X173574162Y-98040000D02*
X173574162Y-97540000D01*
X174468500Y-87845000D02*
X184948500Y-87845000D01*
X174468500Y-118815000D02*
X174468500Y-87845000D01*
X184948500Y-118815000D02*
X174468500Y-118815000D01*
X128607799Y-116434999D02*
X125947799Y-116434999D01*
X125947799Y-119034999D02*
X125947799Y-117704999D01*
X127277799Y-119034999D02*
X125947799Y-119034999D01*
X125947799Y-116434999D02*
X125947799Y-73194999D01*
X128607799Y-73194999D02*
X125947799Y-73194999D01*
X128607799Y-116434999D02*
X128607799Y-73194999D01*
X153777799Y-119034999D02*
X152447799Y-119034999D01*
X152447799Y-119034999D02*
X152447799Y-117704999D01*
X152447799Y-116434999D02*
X152447799Y-73194999D01*
X155107799Y-73194999D02*
X152447799Y-73194999D01*
X155107799Y-116434999D02*
X155107799Y-73194999D01*
X155107799Y-116434999D02*
X152447799Y-116434999D01*
D11*
X167651553Y-96433000D02*
G75*
G03X167651553Y-96433000I-353553J0D01*
G01*
X167854000Y-102711000D02*
X167854000Y-98711000D01*
X162854000Y-102711000D02*
X167854000Y-102711000D01*
X162854000Y-98711000D02*
X162854000Y-102711000D01*
X167854000Y-98711000D02*
X162854000Y-98711000D01*
X167854000Y-99711000D02*
X162854000Y-99711000D01*
D10*
X169934000Y-74984000D02*
X171444000Y-74984000D01*
X169934000Y-78685000D02*
X171444000Y-78685000D01*
X171444000Y-81955000D02*
X171444000Y-71715000D01*
X169934000Y-71715000D02*
X174575000Y-71715000D01*
X169934000Y-81955000D02*
X174575000Y-81955000D01*
X174575000Y-81955000D02*
X174575000Y-71715000D01*
X169934000Y-81955000D02*
X169934000Y-71715000D01*
X164941000Y-78813000D02*
X163431000Y-78813000D01*
X164941000Y-75112000D02*
X163431000Y-75112000D01*
X163431000Y-71842000D02*
X163431000Y-82082000D01*
X164941000Y-82082000D02*
X160300000Y-82082000D01*
X164941000Y-71842000D02*
X160300000Y-71842000D01*
X160300000Y-71842000D02*
X160300000Y-82082000D01*
X164941000Y-71842000D02*
X164941000Y-82082000D01*
X164547733Y-113413000D02*
X164890267Y-113413000D01*
X164547733Y-112393000D02*
X164890267Y-112393000D01*
X164547733Y-117477000D02*
X164890267Y-117477000D01*
X164547733Y-116457000D02*
X164890267Y-116457000D01*
X158879000Y-80435267D02*
X158879000Y-80092733D01*
X157859000Y-80435267D02*
X157859000Y-80092733D01*
X147322000Y-95788267D02*
X147322000Y-95445733D01*
X146302000Y-95788267D02*
X146302000Y-95445733D01*
X182118000Y-86674000D02*
X180788000Y-86674000D01*
X180788000Y-86674000D02*
X180788000Y-85344000D01*
X180788000Y-84074000D02*
X180788000Y-71314000D01*
X183448000Y-71314000D02*
X180788000Y-71314000D01*
X183448000Y-84074000D02*
X183448000Y-71314000D01*
X183448000Y-84074000D02*
X180788000Y-84074000D01*
X161934000Y-112168000D02*
X159474000Y-112168000D01*
X161934000Y-113638000D02*
X161934000Y-112168000D01*
X159474000Y-113638000D02*
X161934000Y-113638000D01*
X162061000Y-116232000D02*
X159601000Y-116232000D01*
X162061000Y-117702000D02*
X162061000Y-116232000D01*
X159601000Y-117702000D02*
X162061000Y-117702000D01*
X145812000Y-103723000D02*
X145812000Y-99823000D01*
X147812000Y-103723000D02*
X147812000Y-99823000D01*
X145812000Y-103723000D02*
X147812000Y-103723000D01*
X157634000Y-74540000D02*
X157634000Y-77000000D01*
X159104000Y-74540000D02*
X157634000Y-74540000D01*
X159104000Y-77000000D02*
X159104000Y-74540000D01*
X169163000Y-83341000D02*
X169163000Y-88741000D01*
X165863000Y-83341000D02*
X165863000Y-88741000D01*
X169163000Y-83341000D02*
X165863000Y-83341000D01*
X168223000Y-77604252D02*
X168223000Y-77081748D01*
X166803000Y-77604252D02*
X166803000Y-77081748D01*
X176582000Y-74922748D02*
X176582000Y-75445252D01*
X178002000Y-74922748D02*
X178002000Y-75445252D01*
X178002000Y-80017252D02*
X178002000Y-79494748D01*
X176582000Y-80017252D02*
X176582000Y-79494748D01*
D12*
X172980880Y-103663333D02*
X173695166Y-103663333D01*
X173838023Y-103710952D01*
X173933261Y-103806190D01*
X173980880Y-103949047D01*
X173980880Y-104044285D01*
X173980880Y-102663333D02*
X173980880Y-103234761D01*
X173980880Y-102949047D02*
X172980880Y-102949047D01*
X173123738Y-103044285D01*
X173218976Y-103139523D01*
X173266595Y-103234761D01*
X138893494Y-119900579D02*
X138893494Y-120710103D01*
X138941113Y-120805341D01*
X138988732Y-120852960D01*
X139083970Y-120900579D01*
X139274446Y-120900579D01*
X139369684Y-120852960D01*
X139417303Y-120805341D01*
X139464922Y-120710103D01*
X139464922Y-119900579D01*
X139893494Y-119995818D02*
X139941113Y-119948199D01*
X140036351Y-119900579D01*
X140274446Y-119900579D01*
X140369684Y-119948199D01*
X140417303Y-119995818D01*
X140464922Y-120091056D01*
X140464922Y-120186294D01*
X140417303Y-120329151D01*
X139845875Y-120900579D01*
X140464922Y-120900579D01*
D13*
X161126714Y-101618142D02*
X161743571Y-101618142D01*
X161816142Y-101581857D01*
X161852428Y-101545571D01*
X161888714Y-101473000D01*
X161888714Y-101327857D01*
X161852428Y-101255285D01*
X161816142Y-101219000D01*
X161743571Y-101182714D01*
X161126714Y-101182714D01*
X161816142Y-100711000D02*
X161852428Y-100674714D01*
X161888714Y-100711000D01*
X161852428Y-100747285D01*
X161816142Y-100711000D01*
X161888714Y-100711000D01*
X161163000Y-100856142D02*
X161126714Y-100783571D01*
X161126714Y-100602142D01*
X161163000Y-100529571D01*
X161235571Y-100493285D01*
X161308142Y-100493285D01*
X161380714Y-100529571D01*
X161417000Y-100565857D01*
X161453285Y-100638428D01*
X161489571Y-100674714D01*
X161562142Y-100711000D01*
X161598428Y-100711000D01*
X161888714Y-99767571D02*
X161888714Y-100203000D01*
X161888714Y-99985285D02*
X161126714Y-99985285D01*
X161235571Y-100057857D01*
X161308142Y-100130428D01*
X161344428Y-100203000D01*
D12*
X168386380Y-77596904D02*
X169195904Y-77596904D01*
X169291142Y-77549285D01*
X169338761Y-77501666D01*
X169386380Y-77406428D01*
X169386380Y-77215952D01*
X169338761Y-77120714D01*
X169291142Y-77073095D01*
X169195904Y-77025476D01*
X168386380Y-77025476D01*
X168386380Y-76644523D02*
X168386380Y-76025476D01*
X168767333Y-76358809D01*
X168767333Y-76215952D01*
X168814952Y-76120714D01*
X168862571Y-76073095D01*
X168957809Y-76025476D01*
X169195904Y-76025476D01*
X169291142Y-76073095D01*
X169338761Y-76120714D01*
X169386380Y-76215952D01*
X169386380Y-76501666D01*
X169338761Y-76596904D01*
X169291142Y-76644523D01*
X165393380Y-77723904D02*
X166202904Y-77723904D01*
X166298142Y-77676285D01*
X166345761Y-77628666D01*
X166393380Y-77533428D01*
X166393380Y-77342952D01*
X166345761Y-77247714D01*
X166298142Y-77200095D01*
X166202904Y-77152476D01*
X165393380Y-77152476D01*
X166393380Y-76152476D02*
X166393380Y-76723904D01*
X166393380Y-76438190D02*
X165393380Y-76438190D01*
X165536238Y-76533428D01*
X165631476Y-76628666D01*
X165679095Y-76723904D01*
X164552333Y-111925380D02*
X164219000Y-111449190D01*
X163980904Y-111925380D02*
X163980904Y-110925380D01*
X164361857Y-110925380D01*
X164457095Y-110973000D01*
X164504714Y-111020619D01*
X164552333Y-111115857D01*
X164552333Y-111258714D01*
X164504714Y-111353952D01*
X164457095Y-111401571D01*
X164361857Y-111449190D01*
X163980904Y-111449190D01*
X165409476Y-111258714D02*
X165409476Y-111925380D01*
X165171380Y-110877761D02*
X164933285Y-111592047D01*
X165552333Y-111592047D01*
X164552333Y-115989380D02*
X164219000Y-115513190D01*
X163980904Y-115989380D02*
X163980904Y-114989380D01*
X164361857Y-114989380D01*
X164457095Y-115037000D01*
X164504714Y-115084619D01*
X164552333Y-115179857D01*
X164552333Y-115322714D01*
X164504714Y-115417952D01*
X164457095Y-115465571D01*
X164361857Y-115513190D01*
X163980904Y-115513190D01*
X164885666Y-114989380D02*
X165504714Y-114989380D01*
X165171380Y-115370333D01*
X165314238Y-115370333D01*
X165409476Y-115417952D01*
X165457095Y-115465571D01*
X165504714Y-115560809D01*
X165504714Y-115798904D01*
X165457095Y-115894142D01*
X165409476Y-115941761D01*
X165314238Y-115989380D01*
X165028523Y-115989380D01*
X164933285Y-115941761D01*
X164885666Y-115894142D01*
X157391380Y-80430666D02*
X156915190Y-80764000D01*
X157391380Y-81002095D02*
X156391380Y-81002095D01*
X156391380Y-80621142D01*
X156439000Y-80525904D01*
X156486619Y-80478285D01*
X156581857Y-80430666D01*
X156724714Y-80430666D01*
X156819952Y-80478285D01*
X156867571Y-80525904D01*
X156915190Y-80621142D01*
X156915190Y-81002095D01*
X156486619Y-80049714D02*
X156439000Y-80002095D01*
X156391380Y-79906857D01*
X156391380Y-79668761D01*
X156439000Y-79573523D01*
X156486619Y-79525904D01*
X156581857Y-79478285D01*
X156677095Y-79478285D01*
X156819952Y-79525904D01*
X157391380Y-80097333D01*
X157391380Y-79478285D01*
X145834380Y-95783666D02*
X145358190Y-96117000D01*
X145834380Y-96355095D02*
X144834380Y-96355095D01*
X144834380Y-95974142D01*
X144882000Y-95878904D01*
X144929619Y-95831285D01*
X145024857Y-95783666D01*
X145167714Y-95783666D01*
X145262952Y-95831285D01*
X145310571Y-95878904D01*
X145358190Y-95974142D01*
X145358190Y-96355095D01*
X145834380Y-94831285D02*
X145834380Y-95402714D01*
X145834380Y-95117000D02*
X144834380Y-95117000D01*
X144977238Y-95212238D01*
X145072476Y-95307476D01*
X145120095Y-95402714D01*
X181784666Y-87566380D02*
X181784666Y-88280666D01*
X181737047Y-88423523D01*
X181641809Y-88518761D01*
X181498952Y-88566380D01*
X181403714Y-88566380D01*
X182213238Y-87661619D02*
X182260857Y-87614000D01*
X182356095Y-87566380D01*
X182594190Y-87566380D01*
X182689428Y-87614000D01*
X182737047Y-87661619D01*
X182784666Y-87756857D01*
X182784666Y-87852095D01*
X182737047Y-87994952D01*
X182165619Y-88566380D01*
X182784666Y-88566380D01*
X159281904Y-114498380D02*
X159281904Y-113498380D01*
X159520000Y-113498380D01*
X159662857Y-113546000D01*
X159758095Y-113641238D01*
X159805714Y-113736476D01*
X159853333Y-113926952D01*
X159853333Y-114069809D01*
X159805714Y-114260285D01*
X159758095Y-114355523D01*
X159662857Y-114450761D01*
X159520000Y-114498380D01*
X159281904Y-114498380D01*
X160710476Y-113498380D02*
X160520000Y-113498380D01*
X160424761Y-113546000D01*
X160377142Y-113593619D01*
X160281904Y-113736476D01*
X160234285Y-113926952D01*
X160234285Y-114307904D01*
X160281904Y-114403142D01*
X160329523Y-114450761D01*
X160424761Y-114498380D01*
X160615238Y-114498380D01*
X160710476Y-114450761D01*
X160758095Y-114403142D01*
X160805714Y-114307904D01*
X160805714Y-114069809D01*
X160758095Y-113974571D01*
X160710476Y-113926952D01*
X160615238Y-113879333D01*
X160424761Y-113879333D01*
X160329523Y-113926952D01*
X160281904Y-113974571D01*
X160234285Y-114069809D01*
X159662904Y-118849380D02*
X159662904Y-117849380D01*
X159901000Y-117849380D01*
X160043857Y-117897000D01*
X160139095Y-117992238D01*
X160186714Y-118087476D01*
X160234333Y-118277952D01*
X160234333Y-118420809D01*
X160186714Y-118611285D01*
X160139095Y-118706523D01*
X160043857Y-118801761D01*
X159901000Y-118849380D01*
X159662904Y-118849380D01*
X161139095Y-117849380D02*
X160662904Y-117849380D01*
X160615285Y-118325571D01*
X160662904Y-118277952D01*
X160758142Y-118230333D01*
X160996238Y-118230333D01*
X161091476Y-118277952D01*
X161139095Y-118325571D01*
X161186714Y-118420809D01*
X161186714Y-118658904D01*
X161139095Y-118754142D01*
X161091476Y-118801761D01*
X160996238Y-118849380D01*
X160758142Y-118849380D01*
X160662904Y-118801761D01*
X160615285Y-118754142D01*
X145264380Y-102211095D02*
X144264380Y-102211095D01*
X144264380Y-101973000D01*
X144312000Y-101830142D01*
X144407238Y-101734904D01*
X144502476Y-101687285D01*
X144692952Y-101639666D01*
X144835809Y-101639666D01*
X145026285Y-101687285D01*
X145121523Y-101734904D01*
X145216761Y-101830142D01*
X145264380Y-101973000D01*
X145264380Y-102211095D01*
X144264380Y-101306333D02*
X144264380Y-100687285D01*
X144645333Y-101020619D01*
X144645333Y-100877761D01*
X144692952Y-100782523D01*
X144740571Y-100734904D01*
X144835809Y-100687285D01*
X145073904Y-100687285D01*
X145169142Y-100734904D01*
X145216761Y-100782523D01*
X145264380Y-100877761D01*
X145264380Y-101163476D01*
X145216761Y-101258714D01*
X145169142Y-101306333D01*
X160251380Y-76938095D02*
X159251380Y-76938095D01*
X159251380Y-76700000D01*
X159299000Y-76557142D01*
X159394238Y-76461904D01*
X159489476Y-76414285D01*
X159679952Y-76366666D01*
X159822809Y-76366666D01*
X160013285Y-76414285D01*
X160108523Y-76461904D01*
X160203761Y-76557142D01*
X160251380Y-76700000D01*
X160251380Y-76938095D01*
X159346619Y-75985714D02*
X159299000Y-75938095D01*
X159251380Y-75842857D01*
X159251380Y-75604761D01*
X159299000Y-75509523D01*
X159346619Y-75461904D01*
X159441857Y-75414285D01*
X159537095Y-75414285D01*
X159679952Y-75461904D01*
X160251380Y-76033333D01*
X160251380Y-75414285D01*
X170465380Y-87479095D02*
X169465380Y-87479095D01*
X169465380Y-87241000D01*
X169513000Y-87098142D01*
X169608238Y-87002904D01*
X169703476Y-86955285D01*
X169893952Y-86907666D01*
X170036809Y-86907666D01*
X170227285Y-86955285D01*
X170322523Y-87002904D01*
X170417761Y-87098142D01*
X170465380Y-87241000D01*
X170465380Y-87479095D01*
X170465380Y-85955285D02*
X170465380Y-86526714D01*
X170465380Y-86241000D02*
X169465380Y-86241000D01*
X169608238Y-86336238D01*
X169703476Y-86431476D01*
X169751095Y-86526714D01*
X166220142Y-77509666D02*
X166267761Y-77557285D01*
X166315380Y-77700142D01*
X166315380Y-77795380D01*
X166267761Y-77938238D01*
X166172523Y-78033476D01*
X166077285Y-78081095D01*
X165886809Y-78128714D01*
X165743952Y-78128714D01*
X165553476Y-78081095D01*
X165458238Y-78033476D01*
X165363000Y-77938238D01*
X165315380Y-77795380D01*
X165315380Y-77700142D01*
X165363000Y-77557285D01*
X165410619Y-77509666D01*
X165315380Y-77176333D02*
X165315380Y-76557285D01*
X165696333Y-76890619D01*
X165696333Y-76747761D01*
X165743952Y-76652523D01*
X165791571Y-76604904D01*
X165886809Y-76557285D01*
X166124904Y-76557285D01*
X166220142Y-76604904D01*
X166267761Y-76652523D01*
X166315380Y-76747761D01*
X166315380Y-77033476D01*
X166267761Y-77128714D01*
X166220142Y-77176333D01*
X179299142Y-75350666D02*
X179346761Y-75398285D01*
X179394380Y-75541142D01*
X179394380Y-75636380D01*
X179346761Y-75779238D01*
X179251523Y-75874476D01*
X179156285Y-75922095D01*
X178965809Y-75969714D01*
X178822952Y-75969714D01*
X178632476Y-75922095D01*
X178537238Y-75874476D01*
X178442000Y-75779238D01*
X178394380Y-75636380D01*
X178394380Y-75541142D01*
X178442000Y-75398285D01*
X178489619Y-75350666D01*
X178489619Y-74969714D02*
X178442000Y-74922095D01*
X178394380Y-74826857D01*
X178394380Y-74588761D01*
X178442000Y-74493523D01*
X178489619Y-74445904D01*
X178584857Y-74398285D01*
X178680095Y-74398285D01*
X178822952Y-74445904D01*
X179394380Y-75017333D01*
X179394380Y-74398285D01*
X175999142Y-79922666D02*
X176046761Y-79970285D01*
X176094380Y-80113142D01*
X176094380Y-80208380D01*
X176046761Y-80351238D01*
X175951523Y-80446476D01*
X175856285Y-80494095D01*
X175665809Y-80541714D01*
X175522952Y-80541714D01*
X175332476Y-80494095D01*
X175237238Y-80446476D01*
X175142000Y-80351238D01*
X175094380Y-80208380D01*
X175094380Y-80113142D01*
X175142000Y-79970285D01*
X175189619Y-79922666D01*
X176094380Y-78970285D02*
X176094380Y-79541714D01*
X176094380Y-79256000D02*
X175094380Y-79256000D01*
X175237238Y-79351238D01*
X175332476Y-79446476D01*
X175380095Y-79541714D01*
M02*
