<?xml version="1.0" encoding="UTF-8" standalone="no"?>
<!DOCTYPE svg PUBLIC "-//W3C//DTD SVG 20010904//EN"
              "http://www.w3.org/TR/2001/REC-SVG-20010904/DTD/svg10.dtd">

<svg xmlns="http://www.w3.org/2000/svg"
     width="19.1347mm" height="3.38667mm"
     viewBox="0 0 226 40">
  <path id="Selection #1"
        fill="none" stroke="black" stroke-width="1"
        d="M 44.00,0.00
           C 44.00,0.00 39.67,6.98 39.67,6.98
             39.67,6.98 32.00,8.00 32.00,8.00
             32.00,8.00 12.00,8.00 12.00,8.00
             12.00,8.00 15.22,11.40 15.22,11.40
             15.22,11.40 37.00,12.00 37.00,12.00
             33.88,22.52 27.01,20.00 18.00,20.00
             21.70,25.37 24.95,24.00 31.00,24.00
             31.00,24.00 23.00,40.00 23.00,40.00
             23.00,40.00 226.00,40.00 226.00,40.00
             226.00,40.00 226.00,4.00 226.00,4.00
             222.94,3.83 222.17,3.06 222.00,0.00
             222.00,0.00 44.00,0.00 44.00,0.00 Z
           M 225.00,0.00
           C 225.00,0.00 225.00,1.00 225.00,1.00
             225.00,1.00 226.00,0.00 226.00,0.00
             226.00,0.00 225.00,0.00 225.00,0.00 Z
           M 0.00,3.00
           C 0.00,3.00 0.00,40.00 0.00,40.00
             0.00,40.00 21.00,40.00 21.00,40.00
             21.00,40.00 9.23,18.00 9.23,18.00
             9.23,18.00 0.00,3.00 0.00,3.00 Z
           M 66.00,4.00
           C 66.00,4.00 66.00,8.00 66.00,8.00
             59.48,8.00 55.57,6.65 51.00,12.00
             51.00,12.00 66.00,12.00 66.00,12.00
             66.00,12.00 66.00,16.00 66.00,16.00
             66.00,16.00 47.00,16.00 47.00,16.00
             47.00,13.53 46.65,8.42 48.02,6.43
             50.49,2.85 61.84,4.00 66.00,4.00 Z
           M 73.00,4.00
           C 73.00,9.99 74.50,17.44 70.00,22.00
             67.41,14.90 68.00,11.32 68.00,4.00
             68.00,4.00 73.00,4.00 73.00,4.00 Z
           M 108.00,4.00
           C 108.00,4.00 108.00,8.00 108.00,8.00
             102.44,8.00 97.20,6.68 94.00,12.00
             94.00,12.00 108.00,12.00 108.00,12.00
             108.00,12.00 108.00,16.00 108.00,16.00
             108.00,16.00 89.00,16.00 89.00,16.00
             89.00,13.46 88.73,9.33 90.02,7.15
             92.72,2.59 103.24,4.00 108.00,4.00 Z
           M 130.00,4.00
           C 130.00,4.00 130.00,9.00 130.00,9.00
             126.45,9.00 118.12,8.05 116.04,11.31
             113.55,15.21 118.05,16.69 112.00,22.00
             110.90,18.13 109.63,7.79 113.43,5.17
             116.02,3.40 126.45,4.00 130.00,4.00 Z
           M 153.00,4.00
           C 153.00,4.00 153.00,9.00 153.00,9.00
             153.00,9.00 145.00,9.00 145.00,9.00
             145.00,9.00 145.00,24.00 145.00,24.00
             145.00,24.00 140.00,24.00 140.00,24.00
             140.00,24.00 140.00,9.00 140.00,9.00
             140.00,9.00 132.00,9.00 132.00,9.00
             132.00,9.00 132.00,4.00 132.00,4.00
             132.00,4.00 153.00,4.00 153.00,4.00 Z
           M 171.93,17.00
           C 171.93,17.00 176.00,24.00 176.00,24.00
             165.65,23.15 172.47,18.16 160.00,18.00
             160.00,18.00 160.00,24.00 160.00,24.00
             160.00,24.00 155.00,24.00 155.00,24.00
             155.00,24.00 155.00,14.00 155.00,14.00
             157.87,14.00 166.57,14.47 168.63,12.98
             169.30,12.50 169.80,11.87 169.80,11.00
             169.80,7.36 162.32,8.00 160.00,8.00
             160.00,8.00 160.00,13.00 160.00,13.00
             160.00,13.00 155.00,13.00 155.00,13.00
             155.00,13.00 155.00,4.00 155.00,4.00
             158.19,4.00 169.61,3.64 171.93,4.60
             176.50,6.56 177.33,13.65 171.93,17.00 Z
           M 197.00,4.00
           C 197.00,4.00 197.00,8.00 197.00,8.00
             190.48,8.00 186.57,6.65 182.00,12.00
             182.00,12.00 197.00,12.00 197.00,12.00
             197.00,12.00 197.00,16.00 197.00,16.00
             197.00,16.00 178.00,16.00 178.00,16.00
             178.00,13.38 177.69,8.59 179.17,6.43
             181.66,2.82 192.82,4.00 197.00,4.00 Z
           M 221.00,24.00
           C 214.36,23.77 213.56,22.53 210.00,17.00
             205.21,21.95 205.01,23.75 198.00,24.00
             198.00,24.00 204.39,13.00 204.39,13.00
             204.39,13.00 199.00,4.00 199.00,4.00
             201.07,4.07 202.94,3.97 204.83,5.02
             208.55,7.08 218.85,20.00 221.00,24.00 Z
           M 220.00,4.00
           C 220.00,4.00 214.00,13.00 214.00,13.00
             208.72,7.37 214.50,4.44 220.00,4.00 Z
           M 223.00,3.00
           C 223.00,3.00 223.00,4.00 223.00,4.00
             223.00,4.00 224.00,3.00 224.00,3.00
             224.00,3.00 223.00,3.00 223.00,3.00 Z
           M 66.00,19.00
           C 66.00,19.00 66.00,24.00 66.00,24.00
             56.39,24.00 48.13,26.51 47.00,17.00
             47.00,17.00 66.00,19.00 66.00,19.00 Z
           M 108.00,18.87
           C 108.00,18.87 108.00,24.00 108.00,24.00
             100.27,24.00 90.57,26.60 89.00,17.00
             89.00,17.00 97.09,18.87 97.09,18.87
             97.09,18.87 108.00,18.87 108.00,18.87 Z
           M 197.00,19.00
           C 197.00,19.00 197.00,24.00 197.00,24.00
             187.39,24.00 179.13,26.51 178.00,17.00
             178.00,17.00 197.00,19.00 197.00,19.00 Z
           M 87.00,19.00
           C 87.00,19.00 87.00,24.00 87.00,24.00
             87.00,24.00 71.00,23.00 71.00,23.00
             75.68,17.53 80.34,19.00 87.00,19.00 Z
           M 130.00,19.00
           C 130.00,19.00 130.00,24.00 130.00,24.00
             130.00,24.00 113.00,23.00 113.00,23.00
             117.76,17.42 123.18,19.00 130.00,19.00 Z
           M 76.00,27.00
           C 76.00,27.00 76.00,36.00 76.00,36.00
             72.16,33.43 72.86,31.08 74.00,27.00
             74.00,27.00 76.00,27.00 76.00,27.00 Z
           M 88.00,27.00
           C 87.99,30.04 88.67,34.71 84.86,35.67
             82.11,36.36 78.33,34.67 79.66,31.29
             80.43,29.31 83.28,29.06 86.00,27.00
             86.00,27.00 88.00,27.00 88.00,27.00 Z
           M 93.00,27.00
           C 93.00,27.00 93.00,36.00 93.00,36.00
             93.00,36.00 91.00,36.00 91.00,36.00
             91.00,36.00 91.00,27.00 91.00,27.00
             91.00,27.00 93.00,27.00 93.00,27.00 Z
           M 139.00,27.00
           C 139.00,27.00 139.00,36.00 139.00,36.00
             139.00,36.00 137.00,36.00 137.00,36.00
             137.00,36.00 137.00,27.00 137.00,27.00
             137.00,27.00 139.00,27.00 139.00,27.00 Z
           M 184.00,27.00
           C 184.00,27.00 184.00,36.00 184.00,36.00
             184.00,36.00 182.00,36.00 182.00,36.00
             182.00,36.00 180.00,28.00 180.00,28.00
             180.00,28.00 184.00,27.00 184.00,27.00 Z
           M 187.00,36.00
           C 187.00,36.00 187.00,34.00 187.00,34.00
             187.00,34.00 193.00,34.00 193.00,34.00
             191.58,33.46 188.94,32.73 188.08,31.44
             185.95,28.24 190.46,26.78 192.87,27.45
             196.88,28.56 196.28,33.49 194.40,34.98
             192.81,36.24 188.99,35.99 187.00,36.00 Z
           M 207.00,27.00
           C 207.00,27.00 208.00,36.00 208.00,36.00
             208.00,36.00 199.00,34.00 199.00,34.00
             200.52,29.29 202.44,28.46 207.00,27.00 Z
           M 220.00,27.00
           C 220.00,27.00 218.00,31.00 218.00,31.00
             222.75,34.25 218.44,36.46 215.10,35.67
             211.38,34.78 210.71,30.79 212.75,28.60
             214.45,26.78 217.72,27.03 220.00,27.00 Z
           M 48.00,29.00
           C 48.00,29.00 50.00,32.00 50.00,32.00
             50.00,32.00 55.00,29.00 55.00,29.00
             55.00,29.00 56.00,32.00 56.00,32.00
             56.00,32.00 60.00,29.00 60.00,29.00
             60.00,29.00 58.00,36.00 58.00,36.00
             58.00,36.00 53.00,33.00 53.00,33.00
             53.00,33.00 48.00,36.00 48.00,36.00
             48.00,36.00 48.00,29.00 48.00,29.00 Z
           M 71.00,33.00
           C 71.00,33.00 65.00,33.00 65.00,33.00
             65.00,33.00 71.00,34.00 71.00,34.00
             71.00,34.00 71.00,35.93 71.00,35.93
             71.00,35.93 66.06,35.93 66.06,35.93
             56.71,34.27 67.55,23.16 71.00,33.00 Z
           M 106.00,36.00
           C 106.00,36.00 103.00,36.00 103.00,36.00
             103.00,36.00 103.00,31.00 103.00,31.00
             103.00,31.00 99.00,31.00 99.00,31.00
             99.00,31.00 99.00,36.00 99.00,36.00
             99.00,36.00 96.00,36.00 96.00,36.00
             96.05,34.58 95.96,32.61 96.60,31.31
             97.92,28.63 103.00,28.26 104.83,30.57
             105.98,32.04 105.90,34.24 106.00,36.00 Z
           M 109.00,38.00
           C 109.00,38.00 111.00,35.00 111.00,35.00
             105.81,31.42 110.50,28.10 114.86,29.32
             118.77,30.41 118.36,35.42 116.40,36.98
             114.81,38.24 110.99,37.99 109.00,38.00 Z
           M 134.00,29.00
           C 133.45,35.84 132.28,37.04 125.00,35.00
             125.00,35.00 132.00,34.00 132.00,34.00
             132.00,34.00 125.00,32.00 125.00,32.00
             127.81,28.25 129.54,29.02 134.00,29.00 Z
           M 151.00,29.00
           C 151.00,29.00 151.00,36.00 151.00,36.00
             151.00,36.00 149.00,36.00 149.00,36.00
             149.00,36.00 149.00,31.00 149.00,31.00
             149.00,31.00 145.00,31.00 145.00,31.00
             145.00,31.00 142.00,36.00 142.00,36.00
             142.26,28.50 144.09,29.03 151.00,29.00 Z
           M 162.00,29.00
           C 162.00,29.00 162.00,31.00 162.00,31.00
             162.00,31.00 156.00,32.00 156.00,32.00
             156.00,32.00 162.00,34.00 162.00,34.00
             162.00,34.00 162.00,36.00 162.00,36.00
             160.45,35.98 157.69,36.08 156.31,35.40
             155.25,34.88 154.61,34.12 154.46,32.91
             153.93,28.69 159.32,29.03 162.00,29.00 Z
           M 173.00,29.00
           C 173.00,29.00 173.00,33.00 173.00,33.00
             173.00,33.00 167.00,33.00 167.00,33.00
             167.00,33.00 173.00,34.00 173.00,34.00
             173.00,34.00 173.00,36.00 173.00,36.00
             173.00,36.00 165.00,36.00 165.00,36.00
             164.08,28.46 166.26,29.02 173.00,29.00 Z
           M 81.00,31.00
           C 81.00,31.00 81.00,34.00 81.00,34.00
             81.00,34.00 86.00,31.00 86.00,31.00
             86.00,31.00 81.00,31.00 81.00,31.00 Z
           M 111.00,31.00
           C 111.00,31.00 111.00,33.00 111.00,33.00
             111.00,33.00 115.00,33.00 115.00,33.00
             115.00,33.00 115.00,31.00 115.00,31.00
             115.00,31.00 111.00,31.00 111.00,31.00 Z" />
</svg>
